<svg width="200" height="70" viewBox="0 0 200 70" fill="none" xmlns="http://www.w3.org/2000/svg">
<g clip-path="url(#clip0_118_2926)">
<path d="M65.9767 69H70.3327L72.6367 63.024H83.2927L85.5967 69H89.9527L80.1607 43.8H75.7687L65.9767 69ZM77.9647 49.236L81.7447 59.064H74.1847L77.9647 49.236ZM92.8232 69H101.895C106.647 69 110.319 65.976 110.319 61.548C110.319 57.012 106.755 55.716 106.395 55.644C106.755 55.536 109.023 54.06 109.023 51C109.023 45.708 105.099 43.8 100.995 43.8H92.8232V69ZM101.751 64.896H97.1432V58.2H101.751C104.127 58.2 105.927 59.172 105.927 61.548C105.927 63.924 104.127 64.896 101.751 64.896ZM97.1432 54.096V47.904H100.851C102.975 47.904 104.631 48.804 104.631 51C104.631 53.196 103.263 54.096 100.851 54.096H97.1432ZM125.362 43.368C118.018 43.368 112.618 48.948 112.618 56.4C112.618 63.852 118.018 69.432 125.362 69.432C132.706 69.432 138.106 63.852 138.106 56.4C138.106 48.948 132.706 43.368 125.362 43.368ZM125.362 65.328C120.286 65.328 117.01 61.26 117.01 56.4C117.01 51.54 120.286 47.472 125.362 47.472C130.438 47.472 133.714 51.54 133.714 56.4C133.714 61.26 130.438 65.328 125.362 65.328ZM157.127 59.316C157.127 62.916 155.291 65.328 151.727 65.328C148.127 65.328 146.327 62.916 146.327 59.316C146.327 51 146.327 43.8 146.327 43.8H142.007V59.856C142.007 65.4 145.787 69.432 151.727 69.432C157.667 69.432 161.447 65.4 161.447 59.856V43.8H157.127C157.127 43.8 157.127 51 157.127 59.316ZM171.58 69H175.9V47.904H182.848V43.8H164.632V47.904H171.58V69Z" fill="#A0C1B9"/>
<path d="M29.5368 42.9557C34.2383 59.686 37.791 68.7531 48.5945 68.7531C59.398 68.7531 61.6915 60.1897 68.6597 42.9557C68.6597 29.1976 59.9018 18.0444 49.0983 18.0444C38.2948 18.0444 29.5368 29.1976 29.5368 42.9557Z" fill="#E4BDA7"/>
<path d="M40.1518 21.1122C28.6983 27.5152 33.4085 51.7183 27.3449 40.8718C33.6504 39.1169 23.7438 12.4325 35.4135 12.4325C46.867 6.02944 38.7724 5.34277 53.4637 1.16941C42.9607 31.7601 51.6054 14.7092 40.1518 21.1122Z" fill="url(#paint0_linear_118_2926)"/>
<path d="M57.5999 21.1904C69.0535 27.5934 65.8893 53.977 70.4068 40.95C70.4068 23.8373 72.6057 12.5106 62.3383 12.5106C50.8847 6.10763 58.9793 5.42095 44.288 1.24759C27.2701 28.7907 46.1463 14.7874 57.5999 21.1904Z" fill="url(#paint1_linear_118_2926)"/>
<path d="M65.7384 41.0196C65.7384 43.4151 65.0776 48.7716 67.1362 48.7716C69.1949 48.7716 73.1934 43.4151 73.1934 41.0196C73.1934 38.6241 71.5245 36.6821 69.4659 36.6821C67.4073 36.6821 65.7384 38.6241 65.7384 41.0196Z" fill="#E4BDA7"/>
<path d="M31.4508 39.8443C31.4508 42.2398 32.1116 47.5963 30.053 47.5963C27.9944 47.5963 23.9959 42.2398 23.9959 39.8443C23.9959 37.4488 25.6647 35.5068 27.7234 35.5068C29.782 35.5068 31.4508 37.4488 31.4508 39.8443Z" fill="#E4BDA7"/>
<path d="M56.195 63.3311C57.5173 61.8516 58.6228 59.9957 59.7579 57.8324C58.7703 58.9906 57.7136 60.1561 56.6285 61.2067C55.457 62.3409 54.1938 63.3999 52.8879 64.1855C51.5973 64.9619 50.1144 65.5625 48.543 65.5625C46.9963 65.5625 45.5204 64.9963 44.2206 64.2547C42.9061 63.5047 41.6264 62.4913 40.4339 61.4018C39.4051 60.4619 38.3993 59.4257 37.4504 58.3868C38.6367 60.5824 39.722 62.3296 40.9775 63.6762C42.7696 65.5984 44.9291 66.7093 48.543 66.7093C52.0606 66.7093 54.3269 65.4212 56.195 63.3311Z" stroke="url(#paint2_linear_118_2926)" stroke-width="4.19774"/>
<path d="M40.031 50.1115C40.031 51.5209 40.9098 52.8528 42.4466 53.8524C43.9796 54.8494 46.1223 55.4798 48.5105 55.4798C50.8986 55.4798 53.0413 54.8494 54.5743 53.8524C56.1112 52.8528 56.9899 51.5209 56.9899 50.1115C56.9899 49.7475 56.9318 49.5353 56.8635 49.4146C56.8053 49.3117 56.7283 49.2534 56.6032 49.2205C56.4599 49.1826 56.2513 49.1792 55.9554 49.226C55.6639 49.2722 55.3211 49.3613 54.9236 49.4804C54.6549 49.5608 54.3642 49.6544 54.0541 49.7542C52.5582 50.2358 50.6122 50.8623 48.5105 50.8623C46.4087 50.8623 44.4627 50.2358 42.9668 49.7542C42.6568 49.6544 42.3661 49.5608 42.0973 49.4804C41.6998 49.3613 41.3571 49.2722 41.0655 49.226C40.7697 49.1792 40.561 49.1826 40.4177 49.2205C40.2926 49.2534 40.2156 49.3117 40.1574 49.4146C40.0891 49.5353 40.031 49.7475 40.031 50.1115Z" fill="white" stroke="#D99584" stroke-width="0.839548"/>
<path d="M39.1077 49.8629C39.1077 50.2339 41.1418 50.4506 48.2545 50.4506C55.3673 50.4506 57.9136 50.4018 57.9136 50.0308C57.9136 49.6599 55.3673 45.4133 48.2545 45.4133C41.1418 45.4133 39.1077 49.492 39.1077 49.8629Z" fill="url(#paint3_linear_118_2926)"/>
<path d="M44.6192 66.2821C44.6192 66.888 46.718 65.0116 48.2126 67.8297C49.8244 64.8437 52.0072 67.1622 52.0072 66.5563C52.0072 65.9505 51.0069 59.0144 48.2126 59.0144C45.4183 59.0144 44.6192 65.6762 44.6192 66.2821Z" fill="url(#paint4_linear_118_2926)"/>
<path d="M49.8768 43.9483C49.105 43.8197 50.6041 45.1847 51.6284 45.1847C52.9679 45.1847 53.7921 44.7726 53.483 44.0514C53.483 43.4254 52.6527 42.918 51.6284 42.918C50.6041 42.918 49.2586 43.8453 49.8768 43.9483Z" fill="#F8D1BC"/>
<path d="M47.294 43.9483C48.0658 43.8197 46.5667 45.1847 45.5424 45.1847C44.2029 45.1847 43.3787 44.7726 43.6877 44.0514C43.6877 43.4254 44.5181 42.918 45.5424 42.918C46.5667 42.918 47.9122 43.8453 47.294 43.9483Z" fill="#F8D1BC"/>
<path d="M62.8243 34.1222H50.1264V37.9772C50.1264 41.4312 52.9264 44.2313 56.3804 44.2313H56.5702C60.0243 44.2313 62.8243 41.4312 62.8243 37.9772V34.1222Z" fill="url(#paint5_linear_118_2926)" stroke="white" stroke-width="0.924608"/>
<path d="M46.9212 34.1222H34.2233V37.9772C34.2233 41.4312 37.0233 44.2313 40.4774 44.2313H40.6672C44.1212 44.2313 46.9212 41.4312 46.9212 37.9772V34.1222Z" fill="url(#paint6_linear_118_2926)" stroke="white" stroke-width="0.924608"/>
<path d="M46.4957 38.3613C46.4957 38.1849 46.5479 38.0103 46.6491 37.8473C46.7504 37.6843 46.8988 37.5362 47.0859 37.4115C47.273 37.2868 47.4951 37.1878 47.7396 37.1203C47.984 37.0528 48.2461 37.0181 48.5107 37.0181C48.7753 37.0181 49.0373 37.0528 49.2817 37.1203C49.5262 37.1878 49.7483 37.2868 49.9354 37.4115C50.1225 37.5362 50.2709 37.6843 50.3722 37.8473C50.4735 38.0103 50.5256 38.1849 50.5256 38.3613L49.9354 39.7886C49.9354 39.729 49.1733 38.2428 49.1391 38.1878C49.1049 38.1328 49.0548 38.0828 48.9916 38.0407C48.9285 37.9986 48.8535 37.9652 48.771 37.9424C48.6884 37.9196 48.6 37.9079 48.5107 37.9079C48.4213 37.9079 48.3329 37.9196 48.2504 37.9424C48.1678 37.9652 48.0928 37.9986 48.0297 38.0407C47.9665 38.0828 47.9164 38.1328 47.8822 38.1878C47.8481 38.2428 47.0859 39.729 47.0859 39.7886L46.4957 38.3613Z" fill="white"/>
<rect width="2.35073" height="3.86192" transform="matrix(-1 0 0 1 49.6857 33.6599)" fill="white"/>
<path d="M70.8425 35.1714H63.2865V37.0184C66.2508 35.9795 67.9075 36.0415 70.8425 37.0184V35.1714Z" fill="white"/>
<path d="M29.5369 34.3315H33.7347V36.1785C32.0878 35.1396 31.1675 35.2017 29.5369 36.1785V34.3315Z" fill="white"/>
<path d="M69.1886 41.2156C71.6279 42.6622 67.6617 43.5749 69.1886 45.2454" stroke="black" stroke-width="0.16791"/>
<path d="M28.5045 40.0403C26.0653 41.4869 30.0315 42.3996 28.5045 44.0701" stroke="black" stroke-width="0.16791"/>
<ellipse rx="3.81231" ry="2.26678" transform="matrix(-1 0 0 1 48.4343 44.1542)" fill="#EEB8A7"/>
<path d="M39.7496 50.9543C39.7496 52.7162 43.4733 57.6707 48.4809 57.6707C53.4885 57.6707 57.2961 52.1284 57.2961 50.3664C57.2961 48.6045 53.4885 54.8334 48.4809 54.8334C43.4733 54.8334 39.7496 49.1924 39.7496 50.9543Z" fill="#D99584"/>
<path d="M31.2501 46.4227C31.7747 51.77 35.7199 67.4093 44.3671 66.6538C37.4829 49.3591 34.5135 51.6135 33.989 46.2662C33.4644 40.9189 31.0739 36.1328 29.7587 36.2618C31.441 46.7214 30.7256 41.0753 31.2501 46.4227Z" fill="#79643D"/>
<path d="M65.7954 46.1255C65.2708 51.4728 61.3256 67.1121 52.6784 66.3566C59.5626 49.0619 62.532 51.3163 63.0566 45.969C63.5811 40.6217 66.0556 36.3852 67.3707 36.5142C65.6884 46.9738 66.32 40.7781 65.7954 46.1255Z" fill="#79643D"/>
<path d="M51.0895 30.7018C50.8694 31.8871 53.8358 30.554 56.9535 31.133C60.0712 31.712 60.9684 32.5364 62.3181 33.6915C62.5382 32.5063 60.1893 31.0761 57.0716 30.4971C53.9539 29.9181 51.3096 29.5165 51.0895 30.7018Z" fill="#A78E64"/>
<path d="M46.367 30.32C46.6066 31.4979 43.3948 30.5133 40.2087 31.1613C37.0226 31.8094 36.1135 32.6524 34.745 33.8356C34.5054 32.6577 36.8941 31.1775 40.0801 30.5294C43.2662 29.8814 46.1274 29.1421 46.367 30.32Z" fill="#A78E64"/>
</g>
<defs>
<linearGradient id="paint0_linear_118_2926" x1="59.3692" y1="11.733" x2="22.5592" y2="32.3112" gradientUnits="userSpaceOnUse">
<stop stop-color="#64543B"/>
<stop offset="1" stop-color="#62523B"/>
</linearGradient>
<linearGradient id="paint1_linear_118_2926" x1="38.1514" y1="11.9424" x2="75.3939" y2="32.7625" gradientUnits="userSpaceOnUse">
<stop stop-color="#66553B"/>
<stop offset="1" stop-color="#4F4638"/>
</linearGradient>
<linearGradient id="paint2_linear_118_2926" x1="48.5806" y1="37.5196" x2="48.5806" y2="68.8082" gradientUnits="userSpaceOnUse">
<stop stop-color="#63533B"/>
<stop offset="1" stop-color="#836B3D"/>
</linearGradient>
<linearGradient id="paint3_linear_118_2926" x1="48.5106" y1="45.4133" x2="48.5106" y2="50.4506" gradientUnits="userSpaceOnUse">
<stop stop-color="#806A32"/>
<stop offset="1" stop-color="#A89D7D"/>
</linearGradient>
<linearGradient id="paint4_linear_118_2926" x1="48.3132" y1="59.0144" x2="48.3132" y2="67.242" gradientUnits="userSpaceOnUse">
<stop stop-color="#BEA669"/>
<stop offset="0.0001" stop-color="#B3A16D"/>
<stop offset="0.578125" stop-color="#80693D"/>
<stop offset="0.677083" stop-color="#80693D"/>
</linearGradient>
<linearGradient id="paint5_linear_118_2926" x1="56.4753" y1="33.6599" x2="56.4753" y2="44.6936" gradientUnits="userSpaceOnUse">
<stop/>
<stop offset="1" stop-color="#777777"/>
</linearGradient>
<linearGradient id="paint6_linear_118_2926" x1="40.5723" y1="33.6599" x2="40.5723" y2="44.6936" gradientUnits="userSpaceOnUse">
<stop/>
<stop offset="1" stop-color="#777777"/>
</linearGradient>
<clipPath id="clip0_118_2926">
<rect width="200" height="70" fill="white"/>
</clipPath>
</defs>
</svg>
