<svg width="821" height="572" viewBox="0 0 821 572" fill="none" xmlns="http://www.w3.org/2000/svg">
<g filter="url(#filter0_d_314_4494)">
<path d="M745.354 210.501C761.521 206.876 771.967 190.564 764.441 175.803C744.951 137.578 704.336 106.657 647.377 87.418C577.018 63.6527 486.86 59.4488 394.789 75.6402C302.718 91.8316 215.462 127.235 150.33 174.828C85.1979 222.421 46.9494 278.725 43.1721 332.571C39.3948 386.416 70.3648 433.87 129.938 465.517C189.511 497.164 273.335 510.692 364.78 503.418C456.226 496.144 548.611 468.599 623.609 426.247C680.789 393.957 724.677 354.858 750.688 313.705C761.897 295.972 747.003 275.466 726.035 276.099V276.099C689.688 277.198 681.364 224.846 716.847 216.891L745.354 210.501Z" fill="url(#paint0_linear_314_4494)"/>
<ellipse cx="617.101" cy="158.643" rx="51.0169" ry="41.6608" transform="rotate(-7.05254 617.101 158.643)" fill="#A0C1B9"/>
<path d="M299.169 162.237C299.169 174.985 269.065 190.996 269.065 180.165C257.019 180.165 248 164.676 248 151.928C248 139.18 257.019 134 269.065 134C286.396 134 299.169 149.489 299.169 162.237Z" fill="white"/>
<path d="M93.9169 304.256C86.8537 293.644 103.043 263.635 109.045 272.652C119.073 265.978 135.163 273.874 142.226 284.487C149.289 295.099 144.651 304.408 134.623 311.083C120.196 320.685 100.98 314.869 93.9169 304.256Z" fill="#0B2055"/>
<path d="M176.107 409.525C186.84 402.647 216.564 419.353 207.445 425.197C213.945 435.34 205.771 451.29 195.038 458.169C184.305 465.047 175.077 460.249 168.577 450.107C159.226 435.516 165.374 416.404 176.107 409.525Z" fill="#008F39"/>
<path d="M377.569 438.995C389.795 442.604 396.628 476.01 386.24 472.943C382.829 484.497 365.421 488.761 353.194 485.152C340.968 481.542 338.553 471.426 341.964 459.872C346.871 443.251 365.342 435.385 377.569 438.995Z" fill="#F1D333"/>
<path d="M532.509 430.636C520.47 426.445 515.247 392.75 525.476 396.311C529.437 384.934 547.03 381.509 559.069 385.701C571.108 389.892 573.035 400.113 569.074 411.49C563.376 427.857 544.549 434.828 532.509 430.636Z" fill="#F1A533"/>
<path d="M209.937 218.732C209.937 234.011 203.976 238.97 184.247 243.499C159 249.294 159 224.936 159 209.657C159 194.378 177.353 175.484 184.247 188.17C190.761 200.155 209.937 203.453 209.937 218.732Z" fill="black"/>
<path d="M105.051 409.691C91.3155 404.984 88.6932 398.097 90.6996 378.966C93.2673 354.484 115.166 361.988 128.901 366.695C142.637 371.401 153.968 393.721 140.44 396.011C127.659 398.174 118.786 414.398 105.051 409.691Z" fill="#012789"/>
<path d="M282.529 442.143C296.818 444.719 300.451 451.13 301.36 470.344C302.523 494.934 279.742 490.827 265.453 488.251C251.164 485.674 236.588 465.324 249.614 461.016C261.921 456.945 268.239 439.567 282.529 442.143Z" fill="#F1EA33"/>
<path d="M471.129 461.09C459.333 469.556 452.201 467.702 437.773 454.981C419.308 438.7 438.114 425.203 449.909 416.736C461.705 408.27 486.462 411.969 480.488 424.321C474.845 435.991 482.924 452.623 471.129 461.09Z" fill="#F1BC33"/>
<path d="M601.955 347.276C611.463 336.302 618.83 336.45 635.818 345.475C657.557 357.024 642.399 374.519 632.891 385.492C623.383 396.465 598.443 398.614 601.386 385.213C604.167 372.552 592.447 358.249 601.955 347.276Z" fill="#F16133"/>
</g>
<defs>
<filter id="filter0_d_314_4494" x="22.8632" y="60.9468" width="764.069" height="479.393" filterUnits="userSpaceOnUse" color-interpolation-filters="sRGB">
<feFlood flood-opacity="0" result="BackgroundImageFix"/>
<feColorMatrix in="SourceAlpha" type="matrix" values="0 0 0 0 0 0 0 0 0 0 0 0 0 0 0 0 0 0 127 0" result="hardAlpha"/>
<feOffset dy="15"/>
<feGaussianBlur stdDeviation="10"/>
<feComposite in2="hardAlpha" operator="out"/>
<feColorMatrix type="matrix" values="0 0 0 0 0 0 0 0 0 0 0 0 0 0 0 0 0 0 0.25 0"/>
<feBlend mode="normal" in2="BackgroundImageFix" result="effect1_dropShadow_314_4494"/>
<feBlend mode="normal" in="SourceGraphic" in2="effect1_dropShadow_314_4494" result="shape"/>
</filter>
<linearGradient id="paint0_linear_314_4494" x1="364.454" y1="81.7054" x2="455.894" y2="489.581" gradientUnits="userSpaceOnUse">
<stop offset="0.427083" stop-color="#DBCAAB"/>
<stop offset="0.963542" stop-color="#A79575"/>
</linearGradient>
</defs>
</svg>
