<svg width="5323" height="3497" viewBox="0 0 5323 3497" fill="none" xmlns="http://www.w3.org/2000/svg">
<path d="M1981.02 1024.24H1937.97V983.2H1920.69V1084H1937.97V1040.66H1981.02V1084H1998.3V983.2H1981.02V1024.24ZM2020.27 1084H2037.55V1015.74H2020.27V1084ZM2017.53 993.712C2017.53 1000.05 2022.57 1005.09 2028.91 1005.09C2035.24 1005.09 2040.28 1000.05 2040.28 993.712C2040.28 987.376 2035.24 982.336 2028.91 982.336C2022.57 982.336 2017.53 987.376 2017.53 993.712Z" fill="black"/>
<rect x="265" width="5058" height="3042" rx="1079" fill="white"/>
<path d="M467.817 2690.72C540.608 1825.86 451.412 985.559 1122 1042C1792.59 1098.44 1684.91 1053.61 1612.12 1918.47C1539.32 2783.33 936.697 3438.68 266.109 3382.24C-404.479 3325.8 395.025 3555.58 467.817 2690.72Z" fill="white"/>
<path d="M898.39 489.48H812.278V407.4H777.718V609H812.278V522.312H898.39V609H932.95V407.4H898.39V489.48ZM976.877 609H1011.44V472.488H976.877V609ZM971.405 428.424C971.405 441.096 981.485 451.176 994.157 451.176C1006.83 451.176 1016.91 441.096 1016.91 428.424C1016.91 415.752 1006.83 405.672 994.157 405.672C981.485 405.672 971.405 415.752 971.405 428.424ZM1062.79 581.064L1040.04 649.032L1066.54 658.248L1091.59 591.144L1062.79 581.064ZM1364.09 469.032C1332.12 469.032 1320.6 492.936 1320.6 492.936C1320.6 492.936 1311.09 469.032 1278.26 469.032C1250.33 469.032 1237.94 492.36 1237.94 492.36V472.488H1205.69V609H1240.25V518.856C1240.25 518.856 1248.89 501.288 1267.03 501.288C1284.31 501.288 1291.51 511.368 1291.51 530.088V609H1326.07V518.856C1326.07 518.856 1334.71 501.288 1352.85 501.288C1370.13 501.288 1377.33 511.368 1377.33 530.088V609H1411.89V521.16C1411.89 488.328 1391.73 469.032 1364.09 469.032ZM1434.92 664.296C1434.92 664.296 1450.76 678.696 1471.49 678.696C1491.65 678.696 1510.95 669.48 1522.76 639.528L1589 472.488H1551.84L1515.84 572.424L1469.76 472.488H1431.46L1497.99 612.168L1492.52 626.28C1485.89 642.984 1481 646.44 1469.19 646.44C1460.26 646.44 1451.04 637.512 1451.04 637.512L1434.92 664.296ZM1764.56 469.032C1735.76 469.032 1723.66 492.36 1723.66 492.36V472.488H1691.41V609H1725.97V518.856C1725.97 518.856 1735.18 501.288 1753.04 501.288C1768.01 501.288 1780.11 509.64 1780.11 529.224V609H1814.67V520.584C1814.67 487.752 1791.05 469.032 1764.56 469.032ZM1902.75 583.656C1892.1 583.656 1877.99 580.488 1877.99 566.088C1877.99 551.4 1892.67 546.792 1903.33 546.792C1922.05 546.792 1934.43 553.704 1934.43 553.704V567.816C1934.43 567.816 1923.49 583.656 1902.75 583.656ZM1906.79 469.032C1878.27 469.032 1852.93 481.416 1852.93 481.416L1864.16 509.928C1864.16 509.928 1885.19 499.848 1905.06 499.848C1917.15 499.848 1934.43 505.608 1934.43 523.464V531.24C1934.43 531.24 1921.47 521.448 1896.42 521.448C1866.75 521.448 1842.85 540.456 1842.85 566.664C1842.85 595.752 1866.47 612.456 1892.1 612.456C1922.91 612.456 1937.03 591.72 1937.03 591.72V609H1968.99V520.008C1968.99 488.904 1945.95 469.032 1906.79 469.032ZM2161.99 469.032C2130.02 469.032 2118.5 492.936 2118.5 492.936C2118.5 492.936 2109 469.032 2076.17 469.032C2048.23 469.032 2035.85 492.36 2035.85 492.36V472.488H2003.59V609H2038.15V518.856C2038.15 518.856 2046.79 501.288 2064.94 501.288C2082.22 501.288 2089.42 511.368 2089.42 530.088V609H2123.98V518.856C2123.98 518.856 2132.62 501.288 2150.76 501.288C2168.04 501.288 2175.24 511.368 2175.24 530.088V609H2209.8V521.16C2209.8 488.328 2189.64 469.032 2161.99 469.032ZM2303.67 469.032C2264.21 469.032 2235.13 500.712 2235.13 540.744C2235.13 580.776 2267.09 612.456 2308.57 612.456C2341.69 612.456 2363.29 592.872 2363.29 592.872L2346.01 566.952C2346.01 566.952 2332.47 580.776 2308.57 580.776C2286.97 580.776 2272.85 565.224 2270.26 553.128H2372.21C2372.5 547.944 2372.5 542.76 2372.5 540.168C2372.5 498.12 2341.11 469.032 2303.67 469.032ZM2270.26 528.072C2271.41 515.976 2281.49 500.424 2303.67 500.424C2326.42 500.424 2337.37 516.264 2337.94 528.072H2270.26ZM2488.03 609H2522.59V472.488H2488.03V609ZM2482.56 428.424C2482.56 441.096 2492.64 451.176 2505.31 451.176C2517.99 451.176 2528.07 441.096 2528.07 428.424C2528.07 415.752 2517.99 405.672 2505.31 405.672C2492.64 405.672 2482.56 415.752 2482.56 428.424ZM2554.08 587.688C2554.08 587.688 2575.68 612.456 2615.71 612.456C2650.56 612.456 2675.33 593.736 2675.33 570.408C2675.33 542.184 2656.03 533.256 2628.96 527.496C2605.92 522.6 2596.7 520.584 2596.7 512.232C2596.7 503.88 2608.51 499.272 2621.47 499.272C2639.9 499.272 2655.45 511.08 2655.45 511.08L2672.73 485.736C2672.73 485.736 2652.29 469.032 2621.47 469.032C2584.03 469.032 2562.72 490.344 2562.72 511.656C2562.72 537.576 2586.33 549.096 2613.41 554.856C2634.14 559.176 2640.48 560.904 2640.48 569.832C2640.48 578.184 2628.67 582.216 2614.56 582.216C2591.52 582.216 2573.37 562.632 2573.37 562.632L2554.08 587.688ZM2863.49 546.792C2863.49 562.344 2855.71 579.624 2829.22 579.624C2808.19 579.624 2795.52 557.448 2795.52 557.448L2770.18 578.76C2770.18 578.76 2788.9 612.456 2829.22 612.456C2871.84 612.456 2898.05 587.976 2898.05 545.64V407.4H2863.49C2863.49 407.4 2863.49 480.264 2863.49 546.792ZM2990.35 583.656C2979.69 583.656 2965.58 580.488 2965.58 566.088C2965.58 551.4 2980.27 546.792 2990.92 546.792C3009.64 546.792 3022.03 553.704 3022.03 553.704V567.816C3022.03 567.816 3011.08 583.656 2990.35 583.656ZM2994.38 469.032C2965.87 469.032 2940.52 481.416 2940.52 481.416L2951.76 509.928C2951.76 509.928 2972.78 499.848 2992.65 499.848C3004.75 499.848 3022.03 505.608 3022.03 523.464V531.24C3022.03 531.24 3009.07 521.448 2984.01 521.448C2954.35 521.448 2930.44 540.456 2930.44 566.664C2930.44 595.752 2954.06 612.456 2979.69 612.456C3010.51 612.456 3024.62 591.72 3024.62 591.72V609H3056.59V520.008C3056.59 488.904 3033.55 469.032 2994.38 469.032ZM3129.78 391.272H3095.22V609H3129.78V549.384L3181.91 609H3227.41L3163.47 537L3223.38 472.488H3178.74L3129.78 526.344V391.272ZM3299.01 469.032C3259.56 469.032 3230.47 500.712 3230.47 540.744C3230.47 580.776 3262.44 612.456 3303.91 612.456C3337.03 612.456 3358.63 592.872 3358.63 592.872L3341.35 566.952C3341.35 566.952 3327.81 580.776 3303.91 580.776C3282.31 580.776 3268.2 565.224 3265.61 553.128H3367.56C3367.85 547.944 3367.85 542.76 3367.85 540.168C3367.85 498.12 3336.45 469.032 3299.01 469.032ZM3265.61 528.072C3266.76 515.976 3276.84 500.424 3299.01 500.424C3321.77 500.424 3332.71 516.264 3333.29 528.072H3265.61ZM3531.47 583.656C3520.82 583.656 3506.71 580.488 3506.71 566.088C3506.71 551.4 3521.39 546.792 3532.05 546.792C3550.77 546.792 3563.15 553.704 3563.15 553.704V567.816C3563.15 567.816 3552.21 583.656 3531.47 583.656ZM3535.51 469.032C3506.99 469.032 3481.65 481.416 3481.65 481.416L3492.88 509.928C3492.88 509.928 3513.91 499.848 3533.78 499.848C3545.87 499.848 3563.15 505.608 3563.15 523.464V531.24C3563.15 531.24 3550.19 521.448 3525.14 521.448C3495.47 521.448 3471.57 540.456 3471.57 566.664C3471.57 595.752 3495.19 612.456 3520.82 612.456C3551.63 612.456 3565.75 591.72 3565.75 591.72V609H3597.71V520.008C3597.71 488.904 3574.67 469.032 3535.51 469.032ZM3705.46 469.032C3676.66 469.032 3664.57 492.36 3664.57 492.36V472.488H3632.31V609H3666.87V518.856C3666.87 518.856 3676.09 501.288 3693.94 501.288C3708.92 501.288 3721.02 509.64 3721.02 529.224V609H3755.58V520.584C3755.58 487.752 3731.96 469.032 3705.46 469.032ZM3920.56 391.272H3886V486.888C3886 486.888 3873.32 469.032 3847.4 469.032C3811.98 469.032 3780.88 498.696 3780.88 540.744C3780.88 582.792 3811.98 612.456 3847.4 612.456C3876.78 612.456 3888.59 591.144 3888.59 591.144V609H3920.56V391.272ZM3886 561.192C3886 561.192 3876.2 580.2 3853.45 580.2C3830.12 580.2 3816.01 563.208 3816.01 540.744C3816.01 518.28 3830.12 501.288 3853.45 501.288C3876.2 501.288 3886 520.296 3886 520.296V561.192ZM4051.84 609H4086.4V407.4H4051.84V609ZM4267.22 583.656C4256.57 583.656 4242.46 580.488 4242.46 566.088C4242.46 551.4 4257.14 546.792 4267.8 546.792C4286.52 546.792 4298.9 553.704 4298.9 553.704V567.816C4298.9 567.816 4287.96 583.656 4267.22 583.656ZM4271.26 469.032C4242.74 469.032 4217.4 481.416 4217.4 481.416L4228.63 509.928C4228.63 509.928 4249.66 499.848 4269.53 499.848C4281.62 499.848 4298.9 505.608 4298.9 523.464V531.24C4298.9 531.24 4285.94 521.448 4260.89 521.448C4231.22 521.448 4207.32 540.456 4207.32 566.664C4207.32 595.752 4230.94 612.456 4256.57 612.456C4287.38 612.456 4301.5 591.72 4301.5 591.72V609H4333.46V520.008C4333.46 488.904 4310.42 469.032 4271.26 469.032ZM4526.46 469.032C4494.49 469.032 4482.97 492.936 4482.97 492.936C4482.97 492.936 4473.47 469.032 4440.64 469.032C4412.7 469.032 4400.32 492.36 4400.32 492.36V472.488H4368.06V609H4402.62V518.856C4402.62 518.856 4411.26 501.288 4429.41 501.288C4446.69 501.288 4453.89 511.368 4453.89 530.088V609H4488.45V518.856C4488.45 518.856 4497.09 501.288 4515.23 501.288C4532.51 501.288 4539.71 511.368 4539.71 530.088V609H4574.27V521.16C4574.27 488.328 4554.11 469.032 4526.46 469.032ZM4747.04 583.656C4736.38 583.656 4722.27 580.488 4722.27 566.088C4722.27 551.4 4736.96 546.792 4747.61 546.792C4766.33 546.792 4778.72 553.704 4778.72 553.704V567.816C4778.72 567.816 4767.77 583.656 4747.04 583.656ZM4751.07 469.032C4722.56 469.032 4697.21 481.416 4697.21 481.416L4708.44 509.928C4708.44 509.928 4729.47 499.848 4749.34 499.848C4761.44 499.848 4778.72 505.608 4778.72 523.464V531.24C4778.72 531.24 4765.76 521.448 4740.7 521.448C4711.04 521.448 4687.13 540.456 4687.13 566.664C4687.13 595.752 4710.75 612.456 4736.38 612.456C4767.2 612.456 4781.31 591.72 4781.31 591.72V609H4813.28V520.008C4813.28 488.904 4790.24 469.032 4751.07 469.032ZM947.053 931.528C947.053 960.328 932.365 979.624 903.853 979.624C875.053 979.624 860.653 960.328 860.653 931.528C860.653 865 860.653 807.4 860.653 807.4H826.093V935.848C826.093 980.2 856.333 1012.46 903.853 1012.46C951.373 1012.46 981.613 980.2 981.613 935.848V807.4H947.053C947.053 807.4 947.053 865 947.053 931.528ZM1028.41 1009H1062.97V807.4H1028.41V1009ZM1232.86 790.984L1205.21 778.6L1090.01 1037.22L1117.66 1049.61L1232.86 790.984ZM1380.18 931.528C1380.18 960.328 1365.49 979.624 1336.98 979.624C1308.18 979.624 1293.78 960.328 1293.78 931.528C1293.78 865 1293.78 807.4 1293.78 807.4H1259.22V935.848C1259.22 980.2 1289.46 1012.46 1336.98 1012.46C1384.5 1012.46 1414.74 980.2 1414.74 935.848V807.4H1380.18C1380.18 807.4 1380.18 865 1380.18 931.528ZM1567.8 1009H1608.99L1543.32 904.744L1604.38 807.4H1566.36L1525.76 877.096L1484.57 807.4H1443.68L1504.73 904.744L1439.64 1009H1478.52L1522.59 932.968L1567.8 1009ZM1783.59 807.4H1718.5V1009H1783.59C1842.34 1009 1883.24 966.376 1883.24 908.2C1883.24 850.024 1842.34 807.4 1783.59 807.4ZM1784.16 976.168H1753.06V840.232H1784.16C1823.33 840.232 1848.1 871.336 1848.1 908.2C1848.1 944.776 1823.33 976.168 1784.16 976.168ZM1969.55 869.032C1930.09 869.032 1901 900.712 1901 940.744C1901 980.776 1932.97 1012.46 1974.44 1012.46C2007.56 1012.46 2029.16 992.872 2029.16 992.872L2011.88 966.952C2011.88 966.952 1998.35 980.776 1974.44 980.776C1952.84 980.776 1938.73 965.224 1936.14 953.128H2038.09C2038.38 947.944 2038.38 942.76 2038.38 940.168C2038.38 898.12 2006.99 869.032 1969.55 869.032ZM1936.14 928.072C1937.29 915.976 1947.37 900.424 1969.55 900.424C1992.3 900.424 2003.24 916.264 2003.82 928.072H1936.14ZM2055.14 987.688C2055.14 987.688 2076.74 1012.46 2116.77 1012.46C2151.62 1012.46 2176.39 993.736 2176.39 970.408C2176.39 942.184 2157.09 933.256 2130.02 927.496C2106.98 922.6 2097.76 920.584 2097.76 912.232C2097.76 903.88 2109.57 899.272 2122.53 899.272C2140.96 899.272 2156.52 911.08 2156.52 911.08L2173.8 885.736C2173.8 885.736 2153.35 869.032 2122.53 869.032C2085.09 869.032 2063.78 890.344 2063.78 911.656C2063.78 937.576 2087.4 949.096 2114.47 954.856C2135.2 959.176 2141.54 960.904 2141.54 969.832C2141.54 978.184 2129.73 982.216 2115.62 982.216C2092.58 982.216 2074.44 962.632 2074.44 962.632L2055.14 987.688ZM2208.47 1009H2243.03V872.488H2208.47V1009ZM2203 828.424C2203 841.096 2213.08 851.176 2225.75 851.176C2238.42 851.176 2248.5 841.096 2248.5 828.424C2248.5 815.752 2238.42 805.672 2225.75 805.672C2213.08 805.672 2203 815.752 2203 828.424ZM2379.06 994.888V1011.3C2379.06 1031.75 2366.96 1046.44 2340.18 1046.44C2313.97 1046.44 2294.96 1026.28 2294.96 1026.28L2275.38 1052.78C2275.38 1052.78 2301.01 1078.7 2340.18 1078.7C2378.48 1078.7 2413.62 1057.67 2413.62 1010.15V872.488H2381.65V890.344C2381.65 890.344 2368.98 869.032 2340.47 869.032C2305.04 869.032 2273.94 898.696 2273.94 940.744C2273.94 982.792 2305.04 1012.46 2340.47 1012.46C2362.07 1012.46 2374.45 1000.65 2379.06 994.888ZM2379.06 961.192C2379.06 961.192 2368.98 980.2 2346.52 980.2C2323.19 980.2 2309.08 963.208 2309.08 940.744C2309.08 918.28 2323.19 901.288 2346.52 901.288C2369.27 901.288 2379.06 920.296 2379.06 920.296V961.192ZM2521.4 869.032C2492.6 869.032 2480.5 892.36 2480.5 892.36V872.488H2448.25V1009H2482.81V918.856C2482.81 918.856 2492.02 901.288 2509.88 901.288C2524.86 901.288 2536.95 909.64 2536.95 929.224V1009H2571.51V920.584C2571.51 887.752 2547.9 869.032 2521.4 869.032ZM2665.36 869.032C2625.9 869.032 2596.81 900.712 2596.81 940.744C2596.81 980.776 2628.78 1012.46 2670.25 1012.46C2703.37 1012.46 2724.97 992.872 2724.97 992.872L2707.69 966.952C2707.69 966.952 2694.16 980.776 2670.25 980.776C2648.65 980.776 2634.54 965.224 2631.95 953.128H2733.9C2734.19 947.944 2734.19 942.76 2734.19 940.168C2734.19 898.12 2702.8 869.032 2665.36 869.032ZM2631.95 928.072C2633.1 915.976 2643.18 900.424 2665.36 900.424C2688.11 900.424 2699.05 916.264 2699.63 928.072H2631.95ZM2829.58 869.032C2804.23 869.032 2792.42 892.36 2792.42 892.36V872.488H2759.59V1009H2794.15V919.72C2794.15 919.72 2803.66 901.288 2824.68 901.288C2834.76 901.288 2841.1 904.456 2841.1 904.456L2853.19 873.352C2853.19 873.352 2841.96 869.032 2829.58 869.032ZM3009.19 983.656C2998.54 983.656 2984.42 980.488 2984.42 966.088C2984.42 951.4 2999.11 946.792 3009.77 946.792C3028.49 946.792 3040.87 953.704 3040.87 953.704V967.816C3040.87 967.816 3029.93 983.656 3009.19 983.656ZM3013.22 869.032C2984.71 869.032 2959.37 881.416 2959.37 881.416L2970.6 909.928C2970.6 909.928 2991.62 899.848 3011.5 899.848C3023.59 899.848 3040.87 905.608 3040.87 923.464V931.24C3040.87 931.24 3027.91 921.448 3002.86 921.448C2973.19 921.448 2949.29 940.456 2949.29 966.664C2949.29 995.752 2972.9 1012.46 2998.54 1012.46C3029.35 1012.46 3043.46 991.72 3043.46 991.72V1009H3075.43V920.008C3075.43 888.904 3052.39 869.032 3013.22 869.032ZM3183.18 869.032C3154.38 869.032 3142.29 892.36 3142.29 892.36V872.488H3110.03V1009H3144.59V918.856C3144.59 918.856 3153.81 901.288 3171.66 901.288C3186.64 901.288 3198.73 909.64 3198.73 929.224V1009H3233.29V920.584C3233.29 887.752 3209.68 869.032 3183.18 869.032ZM3398.28 791.272H3363.72V886.888C3363.72 886.888 3351.04 869.032 3325.12 869.032C3289.7 869.032 3258.6 898.696 3258.6 940.744C3258.6 982.792 3289.7 1012.46 3325.12 1012.46C3354.5 1012.46 3366.31 991.144 3366.31 991.144V1009H3398.28V791.272ZM3363.72 961.192C3363.72 961.192 3353.92 980.2 3331.17 980.2C3307.84 980.2 3293.73 963.208 3293.73 940.744C3293.73 918.28 3307.84 901.288 3331.17 901.288C3353.92 901.288 3363.72 920.296 3363.72 920.296V961.192ZM3560.09 840.232H3645.05V807.4H3525.53V1009H3560.09V922.312H3639.29V889.48H3560.09V840.232ZM3743.36 869.032C3718.01 869.032 3706.21 892.36 3706.21 892.36V872.488H3673.37V1009H3707.93V919.72C3707.93 919.72 3717.44 901.288 3738.46 901.288C3748.54 901.288 3754.88 904.456 3754.88 904.456L3766.97 873.352C3766.97 873.352 3755.74 869.032 3743.36 869.032ZM3843.9 869.032C3803.29 869.032 3771.03 900.424 3771.03 940.744C3771.03 980.776 3803.29 1012.46 3843.9 1012.46C3884.5 1012.46 3916.76 980.776 3916.76 940.744C3916.76 900.424 3884.5 869.032 3843.9 869.032ZM3843.9 980.2C3820.57 980.2 3806.17 962.056 3806.17 940.744C3806.17 919.432 3820.57 901.288 3843.9 901.288C3867.22 901.288 3881.62 919.432 3881.62 940.744C3881.62 962.056 3867.22 980.2 3843.9 980.2ZM4015.12 869.032C3986.32 869.032 3974.22 892.36 3974.22 892.36V872.488H3941.97V1009H3976.53V918.856C3976.53 918.856 3985.74 901.288 4003.6 901.288C4018.58 901.288 4030.67 909.64 4030.67 929.224V1009H4065.23V920.584C4065.23 887.752 4041.62 869.032 4015.12 869.032ZM4088.8 903.592H4115.59V964.072C4115.59 993.16 4135.75 1012.46 4162.24 1012.46C4182.12 1012.46 4195.08 1003.53 4195.08 1003.53L4182.4 975.304C4182.4 975.304 4175.78 980.2 4168 980.2C4158.79 980.2 4150.15 975.304 4150.15 958.6V903.592H4191.33V872.488H4150.15V831.88H4115.59V872.488H4088.8V903.592ZM4211.79 954.28H4288.68V921.448H4211.79V954.28ZM4354.06 840.232H4441.61V807.4H4319.5V1009H4443.34V976.168H4354.06V922.024H4434.7V889.192H4354.06V840.232ZM4545.84 869.032C4517.04 869.032 4504.94 892.36 4504.94 892.36V872.488H4472.69V1009H4507.25V918.856C4507.25 918.856 4516.46 901.288 4534.32 901.288C4549.29 901.288 4561.39 909.64 4561.39 929.224V1009H4595.95V920.584C4595.95 887.752 4572.33 869.032 4545.84 869.032ZM4760.93 791.272H4726.37V886.888C4726.37 886.888 4713.7 869.032 4687.78 869.032C4652.36 869.032 4621.25 898.696 4621.25 940.744C4621.25 982.792 4652.36 1012.46 4687.78 1012.46C4717.16 1012.46 4728.96 991.144 4728.96 991.144V1009H4760.93V791.272ZM4726.37 961.192C4726.37 961.192 4716.58 980.2 4693.83 980.2C4670.5 980.2 4656.39 963.208 4656.39 940.744C4656.39 918.28 4670.5 901.288 4693.83 901.288C4716.58 901.288 4726.37 920.296 4726.37 920.296V961.192ZM732.275 1207.4H667.187V1409H732.275C791.027 1409 831.923 1366.38 831.923 1308.2C831.923 1250.02 791.027 1207.4 732.275 1207.4ZM732.851 1376.17H701.747V1240.23H732.851C772.019 1240.23 796.787 1271.34 796.787 1308.2C796.787 1344.78 772.019 1376.17 732.851 1376.17ZM918.233 1269.03C878.777 1269.03 849.689 1300.71 849.689 1340.74C849.689 1380.78 881.657 1412.46 923.129 1412.46C956.249 1412.46 977.849 1392.87 977.849 1392.87L960.569 1366.95C960.569 1366.95 947.033 1380.78 923.129 1380.78C901.529 1380.78 887.417 1365.22 884.825 1353.13H986.777C987.065 1347.94 987.065 1342.76 987.065 1340.17C987.065 1298.12 955.673 1269.03 918.233 1269.03ZM884.825 1328.07C885.977 1315.98 896.057 1300.42 918.233 1300.42C940.985 1300.42 951.929 1316.26 952.505 1328.07H884.825ZM990.701 1272.49L1062.99 1415.91L1135.28 1272.49H1098.13L1063.57 1346.79L1029.01 1272.49H990.701ZM1207.36 1269.03C1167.9 1269.03 1138.81 1300.71 1138.81 1340.74C1138.81 1380.78 1170.78 1412.46 1212.25 1412.46C1245.37 1412.46 1266.97 1392.87 1266.97 1392.87L1249.69 1366.95C1249.69 1366.95 1236.16 1380.78 1212.25 1380.78C1190.65 1380.78 1176.54 1365.22 1173.95 1353.13H1275.9C1276.19 1347.94 1276.19 1342.76 1276.19 1340.17C1276.19 1298.12 1244.8 1269.03 1207.36 1269.03ZM1173.95 1328.07C1175.1 1315.98 1185.18 1300.42 1207.36 1300.42C1230.11 1300.42 1241.05 1316.26 1241.63 1328.07H1173.95ZM1305.62 1409H1340.18V1191.27H1305.62V1409ZM1442.3 1269.03C1401.7 1269.03 1369.44 1300.42 1369.44 1340.74C1369.44 1380.78 1401.7 1412.46 1442.3 1412.46C1482.91 1412.46 1515.17 1380.78 1515.17 1340.74C1515.17 1300.42 1482.91 1269.03 1442.3 1269.03ZM1442.3 1380.2C1418.98 1380.2 1404.58 1362.06 1404.58 1340.74C1404.58 1319.43 1418.98 1301.29 1442.3 1301.29C1465.63 1301.29 1480.03 1319.43 1480.03 1340.74C1480.03 1362.06 1465.63 1380.2 1442.3 1380.2ZM1540.37 1272.49V1475.24H1574.93V1394.89C1579.54 1400.65 1591.93 1412.46 1613.53 1412.46C1648.95 1412.46 1680.05 1382.79 1680.05 1340.74C1680.05 1298.7 1648.95 1269.03 1613.53 1269.03C1585.3 1269.03 1572.34 1290.34 1572.34 1290.34V1272.49H1540.37ZM1574.93 1320.3C1574.93 1320.3 1584.73 1301.29 1607.48 1301.29C1630.81 1301.29 1644.92 1318.28 1644.92 1340.74C1644.92 1363.21 1630.81 1380.2 1607.48 1380.2C1584.73 1380.2 1574.93 1361.19 1574.93 1361.19V1320.3ZM1764.8 1269.03C1725.34 1269.03 1696.25 1300.71 1696.25 1340.74C1696.25 1380.78 1728.22 1412.46 1769.69 1412.46C1802.81 1412.46 1824.41 1392.87 1824.41 1392.87L1807.13 1366.95C1807.13 1366.95 1793.6 1380.78 1769.69 1380.78C1748.09 1380.78 1733.98 1365.22 1731.39 1353.13H1833.34C1833.63 1347.94 1833.63 1342.76 1833.63 1340.17C1833.63 1298.12 1802.24 1269.03 1764.8 1269.03ZM1731.39 1328.07C1732.54 1315.98 1742.62 1300.42 1764.8 1300.42C1787.55 1300.42 1798.49 1316.26 1799.07 1328.07H1731.39ZM1929.01 1269.03C1903.67 1269.03 1891.86 1292.36 1891.86 1292.36V1272.49H1859.03V1409H1893.59V1319.72C1893.59 1319.72 1903.09 1301.29 1924.12 1301.29C1934.2 1301.29 1940.53 1304.46 1940.53 1304.46L1952.63 1273.35C1952.63 1273.35 1941.4 1269.03 1929.01 1269.03ZM2059.09 1409H2093.65V1191.27H2059.09V1409ZM2137.6 1409H2172.16V1272.49H2137.6V1409ZM2132.12 1228.42C2132.12 1241.1 2142.2 1251.18 2154.88 1251.18C2167.55 1251.18 2177.63 1241.1 2177.63 1228.42C2177.63 1215.75 2167.55 1205.67 2154.88 1205.67C2142.2 1205.67 2132.12 1215.75 2132.12 1228.42ZM2195.58 1272.49L2267.86 1415.91L2340.15 1272.49H2303L2268.44 1346.79L2233.88 1272.49H2195.58ZM2363.44 1409H2398V1272.49H2363.44V1409ZM2357.97 1228.42C2357.97 1241.1 2368.05 1251.18 2380.72 1251.18C2393.39 1251.18 2403.47 1241.1 2403.47 1228.42C2403.47 1215.75 2393.39 1205.67 2380.72 1205.67C2368.05 1205.67 2357.97 1215.75 2357.97 1228.42ZM2511.28 1269.03C2482.48 1269.03 2470.38 1292.36 2470.38 1292.36V1272.49H2438.12V1409H2472.68V1318.86C2472.68 1318.86 2481.9 1301.29 2499.76 1301.29C2514.73 1301.29 2526.83 1309.64 2526.83 1329.22V1409H2561.39V1320.58C2561.39 1287.75 2537.77 1269.03 2511.28 1269.03ZM2691.81 1394.89V1411.3C2691.81 1431.75 2679.71 1446.44 2652.93 1446.44C2626.72 1446.44 2607.71 1426.28 2607.71 1426.28L2588.13 1452.78C2588.13 1452.78 2613.76 1478.7 2652.93 1478.7C2691.23 1478.7 2726.37 1457.67 2726.37 1410.15V1272.49H2694.4V1290.34C2694.4 1290.34 2681.73 1269.03 2653.22 1269.03C2617.79 1269.03 2586.69 1298.7 2586.69 1340.74C2586.69 1382.79 2617.79 1412.46 2653.22 1412.46C2674.82 1412.46 2687.2 1400.65 2691.81 1394.89ZM2691.81 1361.19C2691.81 1361.19 2681.73 1380.2 2659.27 1380.2C2635.94 1380.2 2621.83 1363.21 2621.83 1340.74C2621.83 1318.28 2635.94 1301.29 2659.27 1301.29C2682.02 1301.29 2691.81 1320.3 2691.81 1320.3V1361.19ZM2851.13 1409H2885.69V1272.49H2851.13V1409ZM2845.66 1228.42C2845.66 1241.1 2855.74 1251.18 2868.41 1251.18C2881.08 1251.18 2891.16 1241.1 2891.16 1228.42C2891.16 1215.75 2881.08 1205.67 2868.41 1205.67C2855.74 1205.67 2845.66 1215.75 2845.66 1228.42ZM2998.96 1269.03C2970.16 1269.03 2958.07 1292.36 2958.07 1292.36V1272.49H2925.81V1409H2960.37V1318.86C2960.37 1318.86 2969.59 1301.29 2987.44 1301.29C3002.42 1301.29 3014.52 1309.64 3014.52 1329.22V1409H3049.08V1320.58C3049.08 1287.75 3025.46 1269.03 2998.96 1269.03ZM3172.28 1207.4V1409H3206.84V1270.47L3307.64 1409H3338.74V1207.4H3304.18V1346.22L3203.38 1207.4H3172.28ZM3430.79 1383.66C3420.13 1383.66 3406.02 1380.49 3406.02 1366.09C3406.02 1351.4 3420.71 1346.79 3431.36 1346.79C3450.08 1346.79 3462.47 1353.7 3462.47 1353.7V1367.82C3462.47 1367.82 3451.52 1383.66 3430.79 1383.66ZM3434.82 1269.03C3406.31 1269.03 3380.96 1281.42 3380.96 1281.42L3392.19 1309.93C3392.19 1309.93 3413.22 1299.85 3433.09 1299.85C3445.19 1299.85 3462.47 1305.61 3462.47 1323.46V1331.24C3462.47 1331.24 3449.51 1321.45 3424.45 1321.45C3394.79 1321.45 3370.88 1340.46 3370.88 1366.66C3370.88 1395.75 3394.5 1412.46 3420.13 1412.46C3450.95 1412.46 3465.06 1391.72 3465.06 1391.72V1409H3497.03V1320.01C3497.03 1288.9 3473.99 1269.03 3434.82 1269.03ZM3522.98 1387.69C3522.98 1387.69 3544.58 1412.46 3584.62 1412.46C3619.46 1412.46 3644.23 1393.74 3644.23 1370.41C3644.23 1342.18 3624.94 1333.26 3597.86 1327.5C3574.82 1322.6 3565.61 1320.58 3565.61 1312.23C3565.61 1303.88 3577.42 1299.27 3590.38 1299.27C3608.81 1299.27 3624.36 1311.08 3624.36 1311.08L3641.64 1285.74C3641.64 1285.74 3621.19 1269.03 3590.38 1269.03C3552.94 1269.03 3531.62 1290.34 3531.62 1311.66C3531.62 1337.58 3555.24 1349.1 3582.31 1354.86C3603.05 1359.18 3609.38 1360.9 3609.38 1369.83C3609.38 1378.18 3597.58 1382.22 3583.46 1382.22C3560.42 1382.22 3542.28 1362.63 3542.28 1362.63L3522.98 1387.69ZM3748.03 1269.03C3721.53 1269.03 3709.43 1288.9 3709.43 1288.9V1191.27H3674.87V1409H3709.43V1319.14C3709.43 1319.14 3718.65 1301.29 3736.51 1301.29C3751.48 1301.29 3763.58 1309.64 3763.58 1329.22V1409H3798.14V1320.58C3798.14 1287.75 3774.52 1269.03 3748.03 1269.03ZM3815.86 1272.49L3888.15 1415.91L3960.43 1272.49H3923.28L3888.72 1346.79L3854.16 1272.49H3815.86ZM3983.72 1409H4018.28V1272.49H3983.72V1409ZM3978.25 1228.42C3978.25 1241.1 3988.33 1251.18 4001 1251.18C4013.67 1251.18 4023.75 1241.1 4023.75 1228.42C4023.75 1215.75 4013.67 1205.67 4001 1205.67C3988.33 1205.67 3978.25 1215.75 3978.25 1228.42ZM4062.44 1409H4097V1191.27H4062.44V1409ZM4139.5 1409H4174.06V1191.27H4139.5V1409ZM4271.86 1269.03C4232.4 1269.03 4203.31 1300.71 4203.31 1340.74C4203.31 1380.78 4235.28 1412.46 4276.75 1412.46C4309.87 1412.46 4331.47 1392.87 4331.47 1392.87L4314.19 1366.95C4314.19 1366.95 4300.66 1380.78 4276.75 1380.78C4255.15 1380.78 4241.04 1365.22 4238.45 1353.13H4340.4C4340.69 1347.94 4340.69 1342.76 4340.69 1340.17C4340.69 1298.12 4309.3 1269.03 4271.86 1269.03ZM4238.45 1328.07C4239.6 1315.98 4249.68 1300.42 4271.86 1300.42C4294.61 1300.42 4305.55 1316.26 4306.13 1328.07H4238.45ZM4377.32 1381.06L4354.57 1449.03L4381.07 1458.25L4406.12 1391.14L4377.32 1381.06ZM4562.55 1409H4597.11V1240.23H4652.7V1207.4H4506.97V1240.23H4562.55V1409ZM4678.09 1207.4V1409H4712.65V1270.47L4813.45 1409H4844.56V1207.4H4810V1346.22L4709.2 1207.4H4678.09ZM4880.73 1389.7C4880.73 1402.38 4890.81 1412.46 4903.48 1412.46C4916.15 1412.46 4926.23 1402.38 4926.23 1389.7C4926.23 1377.03 4916.15 1366.95 4903.48 1366.95C4890.81 1366.95 4880.73 1377.03 4880.73 1389.7Z" fill="#331E38"/>
<path d="M585.765 1805H658.341C696.357 1805 725.733 1780.81 725.733 1745.38C725.733 1709.1 697.221 1698.73 694.341 1698.15C697.221 1697.29 715.365 1685.48 715.365 1661C715.365 1618.66 683.973 1603.4 651.141 1603.4H585.765V1805ZM657.189 1772.17H620.325V1718.6H657.189C676.197 1718.6 690.597 1726.38 690.597 1745.38C690.597 1764.39 676.197 1772.17 657.189 1772.17ZM620.325 1685.77V1636.23H649.989C666.981 1636.23 680.229 1643.43 680.229 1661C680.229 1678.57 669.285 1685.77 649.989 1685.77H620.325ZM810.936 1665.03C771.48 1665.03 742.392 1696.71 742.392 1736.74C742.392 1776.78 774.36 1808.46 815.832 1808.46C848.952 1808.46 870.552 1788.87 870.552 1788.87L853.272 1762.95C853.272 1762.95 839.736 1776.78 815.832 1776.78C794.232 1776.78 780.12 1761.22 777.528 1749.13H879.48C879.768 1743.94 879.768 1738.76 879.768 1736.17C879.768 1694.12 848.376 1665.03 810.936 1665.03ZM777.528 1724.07C778.68 1711.98 788.76 1696.42 810.936 1696.42C833.688 1696.42 844.632 1712.26 845.208 1724.07H777.528ZM909.203 1805H943.763V1587.27H909.203V1805ZM1045.88 1665.03C1005.27 1665.03 973.017 1696.42 973.017 1736.74C973.017 1776.78 1005.27 1808.46 1045.88 1808.46C1086.49 1808.46 1118.75 1776.78 1118.75 1736.74C1118.75 1696.42 1086.49 1665.03 1045.88 1665.03ZM1045.88 1776.2C1022.55 1776.2 1008.15 1758.06 1008.15 1736.74C1008.15 1715.43 1022.55 1697.29 1045.88 1697.29C1069.21 1697.29 1083.61 1715.43 1083.61 1736.74C1083.61 1758.06 1069.21 1776.2 1045.88 1776.2ZM1123.32 1668.49L1189.28 1811.91L1232.48 1714.57L1276.25 1811.91L1342.2 1668.49H1307.07L1277.69 1738.47L1248.89 1668.49H1219.8L1190.14 1738.47L1161.92 1668.49H1123.32ZM1433.65 1860.3C1433.65 1860.3 1449.49 1874.7 1470.23 1874.7C1490.39 1874.7 1509.68 1865.48 1521.49 1835.53L1587.73 1668.49H1550.58L1514.58 1768.42L1468.5 1668.49H1430.19L1496.72 1808.17L1491.25 1822.28C1484.63 1838.98 1479.73 1842.44 1467.92 1842.44C1458.99 1842.44 1449.78 1833.51 1449.78 1833.51L1433.65 1860.3ZM1666.32 1665.03C1625.71 1665.03 1593.45 1696.42 1593.45 1736.74C1593.45 1776.78 1625.71 1808.46 1666.32 1808.46C1706.93 1808.46 1739.18 1776.78 1739.18 1736.74C1739.18 1696.42 1706.93 1665.03 1666.32 1665.03ZM1666.32 1776.2C1642.99 1776.2 1628.59 1758.06 1628.59 1736.74C1628.59 1715.43 1642.99 1697.29 1666.32 1697.29C1689.65 1697.29 1704.05 1715.43 1704.05 1736.74C1704.05 1758.06 1689.65 1776.2 1666.32 1776.2ZM1814.5 1808.46C1842.44 1808.46 1855.4 1785.13 1855.4 1785.13V1805H1887.65V1668.49H1853.09V1759.5C1853.09 1759.5 1843.88 1776.2 1826.02 1776.2C1808.45 1776.2 1798.95 1767.56 1798.95 1747.4V1668.49H1764.39V1756.9C1764.39 1789.74 1788.29 1808.46 1814.5 1808.46ZM1916.41 1674.25H1946.94V1603.4H1916.41V1674.25ZM1979.64 1805H2014.2V1587.27H1979.64V1805ZM2056.7 1805H2091.26V1587.27H2056.7V1805ZM2201.72 1699.02H2228.79V1805H2263.35V1699.02H2291.29V1668.49H2263.35V1639.4C2263.35 1622.7 2275.16 1614.92 2286.68 1614.92C2299.64 1614.92 2308.85 1622.41 2308.85 1633.06V1635.08C2308.85 1644.87 2316.34 1652.07 2325.85 1652.07C2335.35 1652.07 2343.41 1644.58 2343.41 1635.08V1631.91C2343.41 1607.72 2324.12 1583.82 2286.68 1583.82C2254.42 1583.82 2228.79 1602.82 2228.79 1636.52V1668.49H2201.72V1699.02ZM2308.85 1805H2343.41V1668.49H2308.85V1805ZM2455.17 1665.03C2426.37 1665.03 2414.27 1688.36 2414.27 1688.36V1668.49H2382.01V1805H2416.57V1714.86C2416.57 1714.86 2425.79 1697.29 2443.65 1697.29C2458.62 1697.29 2470.72 1705.64 2470.72 1725.22V1805H2505.28V1716.58C2505.28 1683.75 2481.66 1665.03 2455.17 1665.03ZM2670.26 1587.27H2635.7V1682.89C2635.7 1682.89 2623.03 1665.03 2597.11 1665.03C2561.68 1665.03 2530.58 1694.7 2530.58 1736.74C2530.58 1778.79 2561.68 1808.46 2597.11 1808.46C2626.48 1808.46 2638.29 1787.14 2638.29 1787.14V1805H2670.26V1587.27ZM2635.7 1757.19C2635.7 1757.19 2625.91 1776.2 2603.16 1776.2C2579.83 1776.2 2565.72 1759.21 2565.72 1736.74C2565.72 1714.28 2579.83 1697.29 2603.16 1697.29C2625.91 1697.29 2635.7 1716.3 2635.7 1716.3V1757.19ZM2852.81 1665.03C2813.36 1665.03 2784.27 1696.71 2784.27 1736.74C2784.27 1776.78 2816.24 1808.46 2857.71 1808.46C2890.83 1808.46 2912.43 1788.87 2912.43 1788.87L2895.15 1762.95C2895.15 1762.95 2881.61 1776.78 2857.71 1776.78C2836.11 1776.78 2822 1761.22 2819.4 1749.13H2921.36C2921.64 1743.94 2921.64 1738.76 2921.64 1736.17C2921.64 1694.12 2890.25 1665.03 2852.81 1665.03ZM2819.4 1724.07C2820.56 1711.98 2830.64 1696.42 2852.81 1696.42C2875.56 1696.42 2886.51 1712.26 2887.08 1724.07H2819.4ZM2925.28 1668.49L2997.57 1811.91L3069.86 1668.49H3032.7L2998.14 1742.79L2963.58 1668.49H2925.28ZM3141.94 1665.03C3102.48 1665.03 3073.39 1696.71 3073.39 1736.74C3073.39 1776.78 3105.36 1808.46 3146.83 1808.46C3179.95 1808.46 3201.55 1788.87 3201.55 1788.87L3184.27 1762.95C3184.27 1762.95 3170.74 1776.78 3146.83 1776.78C3125.23 1776.78 3111.12 1761.22 3108.53 1749.13H3210.48C3210.77 1743.94 3210.77 1738.76 3210.77 1736.17C3210.77 1694.12 3179.38 1665.03 3141.94 1665.03ZM3108.53 1724.07C3109.68 1711.98 3119.76 1696.42 3141.94 1696.42C3164.69 1696.42 3175.63 1712.26 3176.21 1724.07H3108.53ZM3306.15 1665.03C3280.81 1665.03 3269 1688.36 3269 1688.36V1668.49H3236.17V1805H3270.73V1715.72C3270.73 1715.72 3280.23 1697.29 3301.26 1697.29C3311.34 1697.29 3317.67 1700.46 3317.67 1700.46L3329.77 1669.35C3329.77 1669.35 3318.54 1665.03 3306.15 1665.03ZM3336.03 1860.3C3336.03 1860.3 3351.87 1874.7 3372.6 1874.7C3392.76 1874.7 3412.06 1865.48 3423.87 1835.53L3490.11 1668.49H3452.95L3416.95 1768.42L3370.87 1668.49H3332.57L3399.1 1808.17L3393.63 1822.28C3387 1838.98 3382.11 1842.44 3370.3 1842.44C3361.37 1842.44 3352.15 1833.51 3352.15 1833.51L3336.03 1860.3ZM3496.91 1699.59H3523.7V1760.07C3523.7 1789.16 3543.86 1808.46 3570.35 1808.46C3590.23 1808.46 3603.19 1799.53 3603.19 1799.53L3590.51 1771.3C3590.51 1771.3 3583.89 1776.2 3576.11 1776.2C3566.9 1776.2 3558.26 1771.3 3558.26 1754.6V1699.59H3599.44V1668.49H3558.26V1627.88H3523.7V1668.49H3496.91V1699.59ZM3704.85 1665.03C3678.36 1665.03 3666.26 1684.9 3666.26 1684.9V1587.27H3631.7V1805H3666.26V1715.14C3666.26 1715.14 3675.48 1697.29 3693.33 1697.29C3708.31 1697.29 3720.41 1705.64 3720.41 1725.22V1805H3754.97V1716.58C3754.97 1683.75 3731.35 1665.03 3704.85 1665.03ZM3794.86 1805H3829.42V1668.49H3794.86V1805ZM3789.39 1624.42C3789.39 1637.1 3799.47 1647.18 3812.14 1647.18C3824.81 1647.18 3834.89 1637.1 3834.89 1624.42C3834.89 1611.75 3824.81 1601.67 3812.14 1601.67C3799.47 1601.67 3789.39 1611.75 3789.39 1624.42ZM3942.7 1665.03C3913.9 1665.03 3901.8 1688.36 3901.8 1688.36V1668.49H3869.55V1805H3904.11V1714.86C3904.11 1714.86 3913.32 1697.29 3931.18 1697.29C3946.15 1697.29 3958.25 1705.64 3958.25 1725.22V1805H3992.81V1716.58C3992.81 1683.75 3969.19 1665.03 3942.7 1665.03ZM4123.23 1790.89V1807.3C4123.23 1827.75 4111.13 1842.44 4084.35 1842.44C4058.14 1842.44 4039.13 1822.28 4039.13 1822.28L4019.55 1848.78C4019.55 1848.78 4045.18 1874.7 4084.35 1874.7C4122.65 1874.7 4157.79 1853.67 4157.79 1806.15V1668.49H4125.82V1686.34C4125.82 1686.34 4113.15 1665.03 4084.64 1665.03C4049.21 1665.03 4018.11 1694.7 4018.11 1736.74C4018.11 1778.79 4049.21 1808.46 4084.64 1808.46C4106.24 1808.46 4118.62 1796.65 4123.23 1790.89ZM4123.23 1757.19C4123.23 1757.19 4113.15 1776.2 4090.69 1776.2C4067.36 1776.2 4053.25 1759.21 4053.25 1736.74C4053.25 1714.28 4067.36 1697.29 4090.69 1697.29C4113.44 1697.29 4123.23 1716.3 4123.23 1716.3V1757.19ZM4330.64 1779.66C4319.99 1779.66 4305.88 1776.49 4305.88 1762.09C4305.88 1747.4 4320.56 1742.79 4331.22 1742.79C4349.94 1742.79 4362.32 1749.7 4362.32 1749.7V1763.82C4362.32 1763.82 4351.38 1779.66 4330.64 1779.66ZM4334.68 1665.03C4306.16 1665.03 4280.82 1677.42 4280.82 1677.42L4292.05 1705.93C4292.05 1705.93 4313.08 1695.85 4332.95 1695.85C4345.04 1695.85 4362.32 1701.61 4362.32 1719.46V1727.24C4362.32 1727.24 4349.36 1717.45 4324.31 1717.45C4294.64 1717.45 4270.74 1736.46 4270.74 1762.66C4270.74 1791.75 4294.36 1808.46 4319.99 1808.46C4350.8 1808.46 4364.92 1787.72 4364.92 1787.72V1805H4396.88V1716.01C4396.88 1684.9 4373.84 1665.03 4334.68 1665.03ZM4435.52 1805H4467.48V1787.14C4467.48 1787.14 4479.29 1808.46 4508.67 1808.46C4544.09 1808.46 4575.2 1778.79 4575.2 1736.74C4575.2 1694.7 4544.09 1665.03 4508.67 1665.03C4482.75 1665.03 4470.08 1682.89 4470.08 1682.89V1587.27H4435.52V1805ZM4470.08 1716.3C4470.08 1716.3 4479.87 1697.29 4502.62 1697.29C4525.95 1697.29 4540.06 1714.28 4540.06 1736.74C4540.06 1759.21 4525.95 1776.2 4502.62 1776.2C4479.87 1776.2 4470.08 1757.19 4470.08 1757.19V1716.3ZM4664.16 1665.03C4623.55 1665.03 4591.3 1696.42 4591.3 1736.74C4591.3 1776.78 4623.55 1808.46 4664.16 1808.46C4704.77 1808.46 4737.03 1776.78 4737.03 1736.74C4737.03 1696.42 4704.77 1665.03 4664.16 1665.03ZM4664.16 1776.2C4640.83 1776.2 4626.43 1758.06 4626.43 1736.74C4626.43 1715.43 4640.83 1697.29 4664.16 1697.29C4687.49 1697.29 4701.89 1715.43 4701.89 1736.74C4701.89 1758.06 4687.49 1776.2 4664.16 1776.2ZM4812.35 1808.46C4840.28 1808.46 4853.24 1785.13 4853.24 1785.13V1805H4885.5V1668.49H4850.94V1759.5C4850.94 1759.5 4841.72 1776.2 4823.87 1776.2C4806.3 1776.2 4796.79 1767.56 4796.79 1747.4V1668.49H4762.23V1756.9C4762.23 1789.74 4786.14 1808.46 4812.35 1808.46ZM4909.07 1699.59H4935.85V1760.07C4935.85 1789.16 4956.01 1808.46 4982.51 1808.46C5002.38 1808.46 5015.34 1799.53 5015.34 1799.53L5002.67 1771.3C5002.67 1771.3 4996.05 1776.2 4988.27 1776.2C4979.05 1776.2 4970.41 1771.3 4970.41 1754.6V1699.59H5011.6V1668.49H4970.41V1627.88H4935.85V1668.49H4909.07V1699.59ZM857.696 2065.03C825.728 2065.03 814.208 2088.94 814.208 2088.94C814.208 2088.94 804.704 2065.03 771.872 2065.03C743.936 2065.03 731.552 2088.36 731.552 2088.36V2068.49H699.296V2205H733.856V2114.86C733.856 2114.86 742.496 2097.29 760.64 2097.29C777.92 2097.29 785.12 2107.37 785.12 2126.09V2205H819.68V2114.86C819.68 2114.86 828.32 2097.29 846.464 2097.29C863.744 2097.29 870.944 2107.37 870.944 2126.09V2205H905.504V2117.16C905.504 2084.33 885.344 2065.03 857.696 2065.03ZM999.374 2065.03C959.918 2065.03 930.83 2096.71 930.83 2136.74C930.83 2176.78 962.798 2208.46 1004.27 2208.46C1037.39 2208.46 1058.99 2188.87 1058.99 2188.87L1041.71 2162.95C1041.71 2162.95 1028.17 2176.78 1004.27 2176.78C982.67 2176.78 968.558 2161.22 965.966 2149.13H1067.92C1068.21 2143.94 1068.21 2138.76 1068.21 2136.17C1068.21 2094.12 1036.81 2065.03 999.374 2065.03ZM965.966 2124.07C967.118 2111.98 977.198 2096.42 999.374 2096.42C1022.13 2096.42 1033.07 2112.26 1033.65 2124.07H965.966ZM1231.83 2179.66C1221.18 2179.66 1207.06 2176.49 1207.06 2162.09C1207.06 2147.4 1221.75 2142.79 1232.41 2142.79C1251.13 2142.79 1263.51 2149.7 1263.51 2149.7V2163.82C1263.51 2163.82 1252.57 2179.66 1231.83 2179.66ZM1235.86 2065.03C1207.35 2065.03 1182.01 2077.42 1182.01 2077.42L1193.24 2105.93C1193.24 2105.93 1214.26 2095.85 1234.14 2095.85C1246.23 2095.85 1263.51 2101.61 1263.51 2119.46V2127.24C1263.51 2127.24 1250.55 2117.45 1225.5 2117.45C1195.83 2117.45 1171.93 2136.46 1171.93 2162.66C1171.93 2191.75 1195.54 2208.46 1221.18 2208.46C1251.99 2208.46 1266.1 2187.72 1266.1 2187.72V2205H1298.07V2116.01C1298.07 2084.9 1275.03 2065.03 1235.86 2065.03ZM1405.82 2065.03C1377.02 2065.03 1364.93 2088.36 1364.93 2088.36V2068.49H1332.67V2205H1367.23V2114.86C1367.23 2114.86 1376.45 2097.29 1394.3 2097.29C1409.28 2097.29 1421.37 2105.64 1421.37 2125.22V2205H1455.93V2116.58C1455.93 2083.75 1432.32 2065.03 1405.82 2065.03ZM1620.92 1987.27H1586.36V2082.89C1586.36 2082.89 1573.68 2065.03 1547.76 2065.03C1512.34 2065.03 1481.24 2094.7 1481.24 2136.74C1481.24 2178.79 1512.34 2208.46 1547.76 2208.46C1577.14 2208.46 1588.95 2187.14 1588.95 2187.14V2205H1620.92V1987.27ZM1586.36 2157.19C1586.36 2157.19 1576.56 2176.2 1553.81 2176.2C1530.48 2176.2 1516.37 2159.21 1516.37 2136.74C1516.37 2114.28 1530.48 2097.29 1553.81 2097.29C1576.56 2097.29 1586.36 2116.3 1586.36 2116.3V2157.19ZM1732.62 2260.3C1732.62 2260.3 1748.46 2274.7 1769.2 2274.7C1789.36 2274.7 1808.65 2265.48 1820.46 2235.53L1886.7 2068.49H1849.55L1813.55 2168.42L1767.47 2068.49H1729.16L1795.69 2208.17L1790.22 2222.28C1783.6 2238.98 1778.7 2242.44 1766.89 2242.44C1757.96 2242.44 1748.75 2233.51 1748.75 2233.51L1732.62 2260.3ZM1965.29 2065.03C1924.68 2065.03 1892.42 2096.42 1892.42 2136.74C1892.42 2176.78 1924.68 2208.46 1965.29 2208.46C2005.9 2208.46 2038.15 2176.78 2038.15 2136.74C2038.15 2096.42 2005.9 2065.03 1965.29 2065.03ZM1965.29 2176.2C1941.96 2176.2 1927.56 2158.06 1927.56 2136.74C1927.56 2115.43 1941.96 2097.29 1965.29 2097.29C1988.62 2097.29 2003.02 2115.43 2003.02 2136.74C2003.02 2158.06 1988.62 2176.2 1965.29 2176.2ZM2113.47 2208.46C2141.41 2208.46 2154.37 2185.13 2154.37 2185.13V2205H2186.62V2068.49H2152.06V2159.5C2152.06 2159.5 2142.85 2176.2 2124.99 2176.2C2107.42 2176.2 2097.92 2167.56 2097.92 2147.4V2068.49H2063.36V2156.9C2063.36 2189.74 2087.26 2208.46 2113.47 2208.46ZM2370.02 2176.2C2346.69 2176.2 2331.72 2158.06 2331.72 2136.74C2331.72 2115.43 2346.69 2097.29 2370.02 2097.29C2390.76 2097.29 2401.99 2111.69 2401.99 2111.69L2425.89 2090.38C2425.89 2090.38 2406.6 2065.03 2370.02 2065.03C2329.12 2065.03 2296.58 2096.42 2296.58 2136.74C2296.58 2176.78 2329.12 2208.46 2370.02 2208.46C2406.88 2208.46 2426.47 2182.54 2426.47 2182.54L2403.72 2159.5C2403.72 2159.5 2393.35 2176.2 2370.02 2176.2ZM2502.52 2179.66C2491.86 2179.66 2477.75 2176.49 2477.75 2162.09C2477.75 2147.4 2492.44 2142.79 2503.1 2142.79C2521.82 2142.79 2534.2 2149.7 2534.2 2149.7V2163.82C2534.2 2163.82 2523.26 2179.66 2502.52 2179.66ZM2506.55 2065.03C2478.04 2065.03 2452.7 2077.42 2452.7 2077.42L2463.93 2105.93C2463.93 2105.93 2484.95 2095.85 2504.82 2095.85C2516.92 2095.85 2534.2 2101.61 2534.2 2119.46V2127.24C2534.2 2127.24 2521.24 2117.45 2496.18 2117.45C2466.52 2117.45 2442.62 2136.46 2442.62 2162.66C2442.62 2191.75 2466.23 2208.46 2491.86 2208.46C2522.68 2208.46 2536.79 2187.72 2536.79 2187.72V2205H2568.76V2116.01C2568.76 2084.9 2545.72 2065.03 2506.55 2065.03ZM2676.51 2065.03C2647.71 2065.03 2635.61 2088.36 2635.61 2088.36V2068.49H2603.36V2205H2637.92V2114.86C2637.92 2114.86 2647.13 2097.29 2664.99 2097.29C2679.97 2097.29 2692.06 2105.64 2692.06 2125.22V2205H2726.62V2116.58C2726.62 2083.75 2703.01 2065.03 2676.51 2065.03ZM2834.85 2099.59H2861.64V2160.07C2861.64 2189.16 2881.8 2208.46 2908.29 2208.46C2928.16 2208.46 2941.12 2199.53 2941.12 2199.53L2928.45 2171.3C2928.45 2171.3 2921.83 2176.2 2914.05 2176.2C2904.84 2176.2 2896.2 2171.3 2896.2 2154.6V2099.59H2937.38V2068.49H2896.2V2027.88H2861.64V2068.49H2834.85V2099.59ZM3042.79 2065.03C3016.3 2065.03 3004.2 2084.9 3004.2 2084.9V1987.27H2969.64V2205H3004.2V2115.14C3004.2 2115.14 3013.42 2097.29 3031.27 2097.29C3046.25 2097.29 3058.34 2105.64 3058.34 2125.22V2205H3092.9V2116.58C3092.9 2083.75 3069.29 2065.03 3042.79 2065.03ZM3186.65 2065.03C3147.2 2065.03 3118.11 2096.71 3118.11 2136.74C3118.11 2176.78 3150.08 2208.46 3191.55 2208.46C3224.67 2208.46 3246.27 2188.87 3246.27 2188.87L3228.99 2162.95C3228.99 2162.95 3215.45 2176.78 3191.55 2176.78C3169.95 2176.78 3155.84 2161.22 3153.25 2149.13H3255.2C3255.49 2143.94 3255.49 2138.76 3255.49 2136.17C3255.49 2094.12 3224.09 2065.03 3186.65 2065.03ZM3153.25 2124.07C3154.4 2111.98 3164.48 2096.42 3186.65 2096.42C3209.41 2096.42 3220.35 2112.26 3220.93 2124.07H3153.25ZM3429.77 2176.2C3406.44 2176.2 3391.47 2158.06 3391.47 2136.74C3391.47 2115.43 3406.44 2097.29 3429.77 2097.29C3450.51 2097.29 3461.74 2111.69 3461.74 2111.69L3485.64 2090.38C3485.64 2090.38 3466.35 2065.03 3429.77 2065.03C3388.87 2065.03 3356.33 2096.42 3356.33 2136.74C3356.33 2176.78 3388.87 2208.46 3429.77 2208.46C3466.63 2208.46 3486.22 2182.54 3486.22 2182.54L3463.47 2159.5C3463.47 2159.5 3453.1 2176.2 3429.77 2176.2ZM3512.73 2205H3547.29V1987.27H3512.73V2205ZM3591.24 2205H3625.8V2068.49H3591.24V2205ZM3585.76 2024.42C3585.76 2037.1 3595.84 2047.18 3608.52 2047.18C3621.19 2047.18 3631.27 2037.1 3631.27 2024.42C3631.27 2011.75 3621.19 2001.67 3608.52 2001.67C3595.84 2001.67 3585.76 2011.75 3585.76 2024.42ZM3730.14 2176.2C3706.82 2176.2 3691.84 2158.06 3691.84 2136.74C3691.84 2115.43 3706.82 2097.29 3730.14 2097.29C3750.88 2097.29 3762.11 2111.69 3762.11 2111.69L3786.02 2090.38C3786.02 2090.38 3766.72 2065.03 3730.14 2065.03C3689.25 2065.03 3656.7 2096.42 3656.7 2136.74C3656.7 2176.78 3689.25 2208.46 3730.14 2208.46C3767.01 2208.46 3786.59 2182.54 3786.59 2182.54L3763.84 2159.5C3763.84 2159.5 3753.47 2176.2 3730.14 2176.2ZM3847.67 1987.27H3813.11V2205H3847.67V2145.38L3899.8 2205H3945.3L3881.36 2133L3941.27 2068.49H3896.63L3847.67 2122.34V1987.27ZM4047.86 2074.82H4078.39V2003.4H4047.86V2074.82ZM4097.97 2074.82H4128.5V2003.4H4097.97V2074.82ZM4147.04 2068.49L4212.99 2211.91L4256.19 2114.57L4299.97 2211.91L4365.92 2068.49H4330.79L4301.41 2138.47L4272.61 2068.49H4243.52L4213.86 2138.47L4185.63 2068.49H4147.04ZM4443.38 2065.03C4402.77 2065.03 4370.52 2096.42 4370.52 2136.74C4370.52 2176.78 4402.77 2208.46 4443.38 2208.46C4483.99 2208.46 4516.25 2176.78 4516.25 2136.74C4516.25 2096.42 4483.99 2065.03 4443.38 2065.03ZM4443.38 2176.2C4420.05 2176.2 4405.65 2158.06 4405.65 2136.74C4405.65 2115.43 4420.05 2097.29 4443.38 2097.29C4466.71 2097.29 4481.11 2115.43 4481.11 2136.74C4481.11 2158.06 4466.71 2176.2 4443.38 2176.2ZM4611.44 2065.03C4586.09 2065.03 4574.28 2088.36 4574.28 2088.36V2068.49H4541.45V2205H4576.01V2115.72C4576.01 2115.72 4585.52 2097.29 4606.54 2097.29C4616.62 2097.29 4622.96 2100.46 4622.96 2100.46L4635.05 2069.35C4635.05 2069.35 4623.82 2065.03 4611.44 2065.03ZM4691.42 1987.27H4656.86V2205H4691.42V2145.38L4743.55 2205H4789.05L4725.11 2133L4785.02 2068.49H4740.38L4691.42 2122.34V1987.27ZM4806.95 2074.82H4837.48V2003.4H4806.95V2074.82ZM4857.06 2074.82H4887.59V2003.4H4857.06V2074.82ZM1194.88 2499.59H1221.67V2560.07C1221.67 2589.16 1241.83 2608.46 1268.32 2608.46C1288.19 2608.46 1301.15 2599.53 1301.15 2599.53L1288.48 2571.3C1288.48 2571.3 1281.86 2576.2 1274.08 2576.2C1264.87 2576.2 1256.23 2571.3 1256.23 2554.6V2499.59H1297.41V2468.49H1256.23V2427.88H1221.67V2468.49H1194.88V2499.59ZM1379.21 2579.66C1368.55 2579.66 1354.44 2576.49 1354.44 2562.09C1354.44 2547.4 1369.13 2542.79 1379.78 2542.79C1398.5 2542.79 1410.89 2549.7 1410.89 2549.7V2563.82C1410.89 2563.82 1399.94 2579.66 1379.21 2579.66ZM1383.24 2465.03C1354.73 2465.03 1329.38 2477.42 1329.38 2477.42L1340.62 2505.93C1340.62 2505.93 1361.64 2495.85 1381.51 2495.85C1393.61 2495.85 1410.89 2501.61 1410.89 2519.46V2527.24C1410.89 2527.24 1397.93 2517.45 1372.87 2517.45C1343.21 2517.45 1319.3 2536.46 1319.3 2562.66C1319.3 2591.75 1342.92 2608.46 1368.55 2608.46C1399.37 2608.46 1413.48 2587.72 1413.48 2587.72V2605H1445.45V2516.01C1445.45 2484.9 1422.41 2465.03 1383.24 2465.03ZM1484.08 2605H1516.05V2587.14C1516.05 2587.14 1527.85 2608.46 1557.23 2608.46C1592.65 2608.46 1623.76 2578.79 1623.76 2536.74C1623.76 2494.7 1592.65 2465.03 1557.23 2465.03C1531.31 2465.03 1518.64 2482.89 1518.64 2482.89V2387.27H1484.08V2605ZM1518.64 2516.3C1518.64 2516.3 1528.43 2497.29 1551.18 2497.29C1574.51 2497.29 1588.62 2514.28 1588.62 2536.74C1588.62 2559.21 1574.51 2576.2 1551.18 2576.2C1528.43 2576.2 1518.64 2557.19 1518.64 2557.19V2516.3ZM1722.79 2499.59H1749.57V2560.07C1749.57 2589.16 1769.73 2608.46 1796.23 2608.46C1816.1 2608.46 1829.06 2599.53 1829.06 2599.53L1816.39 2571.3C1816.39 2571.3 1809.77 2576.2 1801.99 2576.2C1792.77 2576.2 1784.13 2571.3 1784.13 2554.6V2499.59H1825.32V2468.49H1784.13V2427.88H1749.57V2468.49H1722.79V2499.59ZM1917.19 2465.03C1876.59 2465.03 1844.33 2496.42 1844.33 2536.74C1844.33 2576.78 1876.59 2608.46 1917.19 2608.46C1957.8 2608.46 1990.06 2576.78 1990.06 2536.74C1990.06 2496.42 1957.8 2465.03 1917.19 2465.03ZM1917.19 2576.2C1893.87 2576.2 1879.47 2558.06 1879.47 2536.74C1879.47 2515.43 1893.87 2497.29 1917.19 2497.29C1940.52 2497.29 1954.92 2515.43 1954.92 2536.74C1954.92 2558.06 1940.52 2576.2 1917.19 2576.2ZM2083.22 2468.49L2155.5 2611.91L2227.79 2468.49H2190.64L2156.08 2542.79L2121.52 2468.49H2083.22ZM2251.08 2605H2285.64V2468.49H2251.08V2605ZM2245.61 2424.42C2245.61 2437.1 2255.69 2447.18 2268.36 2447.18C2281.03 2447.18 2291.11 2437.1 2291.11 2424.42C2291.11 2411.75 2281.03 2401.67 2268.36 2401.67C2255.69 2401.67 2245.61 2411.75 2245.61 2424.42ZM2385.09 2465.03C2345.64 2465.03 2316.55 2496.71 2316.55 2536.74C2316.55 2576.78 2348.52 2608.46 2389.99 2608.46C2423.11 2608.46 2444.71 2588.87 2444.71 2588.87L2427.43 2562.95C2427.43 2562.95 2413.89 2576.78 2389.99 2576.78C2368.39 2576.78 2354.28 2561.22 2351.68 2549.13H2453.64C2453.92 2543.94 2453.92 2538.76 2453.92 2536.17C2453.92 2494.12 2422.53 2465.03 2385.09 2465.03ZM2351.68 2524.07C2352.84 2511.98 2362.92 2496.42 2385.09 2496.42C2407.84 2496.42 2418.79 2512.26 2419.36 2524.07H2351.68ZM2458.7 2468.49L2524.65 2611.91L2567.85 2514.57L2611.63 2611.91L2677.58 2468.49H2642.44L2613.07 2538.47L2584.27 2468.49H2555.18L2525.51 2538.47L2497.29 2468.49H2458.7ZM2938.95 2465.03C2906.98 2465.03 2895.46 2488.94 2895.46 2488.94C2895.46 2488.94 2885.95 2465.03 2853.12 2465.03C2825.19 2465.03 2812.8 2488.36 2812.8 2488.36V2468.49H2780.55V2605H2815.11V2514.86C2815.11 2514.86 2823.75 2497.29 2841.89 2497.29C2859.17 2497.29 2866.37 2507.37 2866.37 2526.09V2605H2900.93V2514.86C2900.93 2514.86 2909.57 2497.29 2927.71 2497.29C2944.99 2497.29 2952.19 2507.37 2952.19 2526.09V2605H2986.75V2517.16C2986.75 2484.33 2966.59 2465.03 2938.95 2465.03ZM3009.78 2660.3C3009.78 2660.3 3025.62 2674.7 3046.35 2674.7C3066.51 2674.7 3085.81 2665.48 3097.62 2635.53L3163.86 2468.49H3126.7L3090.7 2568.42L3044.62 2468.49H3006.32L3072.85 2608.17L3067.38 2622.28C3060.75 2638.98 3055.86 2642.44 3044.05 2642.44C3035.12 2642.44 3025.9 2633.51 3025.9 2633.51L3009.78 2660.3ZM3266.26 2468.49V2671.24H3300.82V2590.89C3305.43 2596.65 3317.82 2608.46 3339.42 2608.46C3374.84 2608.46 3405.94 2578.79 3405.94 2536.74C3405.94 2494.7 3374.84 2465.03 3339.42 2465.03C3311.19 2465.03 3298.23 2486.34 3298.23 2486.34V2468.49H3266.26ZM3300.82 2516.3C3300.82 2516.3 3310.62 2497.29 3333.37 2497.29C3356.7 2497.29 3370.81 2514.28 3370.81 2536.74C3370.81 2559.21 3356.7 2576.2 3333.37 2576.2C3310.62 2576.2 3300.82 2557.19 3300.82 2557.19V2516.3ZM3501.34 2465.03C3476 2465.03 3464.19 2488.36 3464.19 2488.36V2468.49H3431.36V2605H3465.92V2515.72C3465.92 2515.72 3475.42 2497.29 3496.45 2497.29C3506.53 2497.29 3512.86 2500.46 3512.86 2500.46L3524.96 2469.35C3524.96 2469.35 3513.73 2465.03 3501.34 2465.03ZM3601.88 2465.03C3561.27 2465.03 3529.02 2496.42 3529.02 2536.74C3529.02 2576.78 3561.27 2608.46 3601.88 2608.46C3642.49 2608.46 3674.75 2576.78 3674.75 2536.74C3674.75 2496.42 3642.49 2465.03 3601.88 2465.03ZM3601.88 2576.2C3578.55 2576.2 3564.15 2558.06 3564.15 2536.74C3564.15 2515.43 3578.55 2497.29 3601.88 2497.29C3625.21 2497.29 3639.61 2515.43 3639.61 2536.74C3639.61 2558.06 3625.21 2576.2 3601.88 2576.2ZM3661.62 2665.77C3661.62 2665.77 3675.16 2674.7 3694.17 2674.7C3714.62 2674.7 3744.86 2662.02 3744.86 2617.38V2468.49H3710.3V2614.22C3710.3 2640.71 3697.91 2642.44 3690.42 2642.44C3682.94 2642.44 3674.01 2636.68 3674.01 2636.68L3661.62 2665.77ZM3704.54 2424.42C3704.54 2437.1 3714.62 2447.18 3727.29 2447.18C3739.96 2447.18 3750.04 2437.1 3750.04 2424.42C3750.04 2411.75 3739.96 2401.67 3727.29 2401.67C3714.62 2401.67 3704.54 2411.75 3704.54 2424.42ZM3843.94 2465.03C3804.48 2465.03 3775.39 2496.71 3775.39 2536.74C3775.39 2576.78 3807.36 2608.46 3848.83 2608.46C3881.95 2608.46 3903.55 2588.87 3903.55 2588.87L3886.27 2562.95C3886.27 2562.95 3872.74 2576.78 3848.83 2576.78C3827.23 2576.78 3813.12 2561.22 3810.53 2549.13H3912.48C3912.77 2543.94 3912.77 2538.76 3912.77 2536.17C3912.77 2494.12 3881.38 2465.03 3843.94 2465.03ZM3810.53 2524.07C3811.68 2511.98 3821.76 2496.42 3843.94 2496.42C3866.69 2496.42 3877.63 2512.26 3878.21 2524.07H3810.53ZM4002.39 2576.2C3979.07 2576.2 3964.09 2558.06 3964.09 2536.74C3964.09 2515.43 3979.07 2497.29 4002.39 2497.29C4023.13 2497.29 4034.36 2511.69 4034.36 2511.69L4058.27 2490.38C4058.27 2490.38 4038.97 2465.03 4002.39 2465.03C3961.5 2465.03 3928.95 2496.42 3928.95 2536.74C3928.95 2576.78 3961.5 2608.46 4002.39 2608.46C4039.26 2608.46 4058.84 2582.54 4058.84 2582.54L4036.09 2559.5C4036.09 2559.5 4025.72 2576.2 4002.39 2576.2ZM4070.38 2499.59H4097.17V2560.07C4097.17 2589.16 4117.33 2608.46 4143.82 2608.46C4163.69 2608.46 4176.65 2599.53 4176.65 2599.53L4163.98 2571.3C4163.98 2571.3 4157.36 2576.2 4149.58 2576.2C4140.37 2576.2 4131.73 2571.3 4131.73 2554.6V2499.59H4172.91V2468.49H4131.73V2427.88H4097.17V2468.49H4070.38V2499.59ZM4192.5 2583.69C4192.5 2583.69 4214.1 2608.46 4254.13 2608.46C4288.98 2608.46 4313.75 2589.74 4313.75 2566.41C4313.75 2538.18 4294.45 2529.26 4267.38 2523.5C4244.34 2518.6 4235.12 2516.58 4235.12 2508.23C4235.12 2499.88 4246.93 2495.27 4259.89 2495.27C4278.32 2495.27 4293.88 2507.08 4293.88 2507.08L4311.16 2481.74C4311.16 2481.74 4290.71 2465.03 4259.89 2465.03C4222.45 2465.03 4201.14 2486.34 4201.14 2507.66C4201.14 2533.58 4224.76 2545.1 4251.83 2550.86C4272.56 2555.18 4278.9 2556.9 4278.9 2565.83C4278.9 2574.18 4267.09 2578.22 4252.98 2578.22C4229.94 2578.22 4211.8 2558.63 4211.8 2558.63L4192.5 2583.69ZM4338.05 2585.7C4338.05 2598.38 4348.13 2608.46 4360.81 2608.46C4373.48 2608.46 4383.56 2598.38 4383.56 2585.7C4383.56 2573.03 4373.48 2562.95 4360.81 2562.95C4348.13 2562.95 4338.05 2573.03 4338.05 2585.7Z" fill="#331E38"/>
</svg>
