<svg width="5525" height="2481" viewBox="0 0 5525 2481" fill="none" xmlns="http://www.w3.org/2000/svg">
<path d="M2182.02 631.242H2138.97V590.202H2121.69V691.002H2138.97V647.658H2182.02V691.002H2199.3V590.202H2182.02V631.242ZM2221.27 691.002H2238.55V622.746H2221.27V691.002ZM2218.53 600.714C2218.53 607.05 2223.57 612.09 2229.91 612.09C2236.24 612.09 2241.28 607.05 2241.28 600.714C2241.28 594.378 2236.24 589.338 2229.91 589.338C2223.57 589.338 2218.53 594.378 2218.53 600.714Z" fill="black"/>
<rect x="466.001" y="41.0029" width="5058" height="2041" rx="500" fill="white"/>
<path d="M466.516 1689.76C537.734 843.594 447.034 21.1592 1117.62 77.5998C1788.21 134.04 1680.47 89.9801 1609.25 936.15C1538.03 1782.32 936.675 2422.52 266.087 2366.08C-404.501 2309.64 395.297 2535.93 466.516 1689.76Z" fill="white"/>
<path d="M1060.86 628.48H974.747V546.4H940.187V748H974.747V661.312H1060.86V748H1095.42V546.4H1060.86V628.48ZM1139.35 748H1173.91V611.488H1139.35V748ZM1133.87 567.424C1133.87 580.096 1143.95 590.176 1156.63 590.176C1169.3 590.176 1179.38 580.096 1179.38 567.424C1179.38 554.752 1169.3 544.672 1156.63 544.672C1143.95 544.672 1133.87 554.752 1133.87 567.424ZM1287.74 642.592H1314.53V703.072C1314.53 732.16 1334.69 751.456 1361.18 751.456C1381.05 751.456 1394.01 742.528 1394.01 742.528L1381.34 714.304C1381.34 714.304 1374.72 719.2 1366.94 719.2C1357.73 719.2 1349.09 714.304 1349.09 697.6V642.592H1390.27V611.488H1349.09V570.88H1314.53V611.488H1287.74V642.592ZM1495.68 608.032C1469.19 608.032 1457.09 627.904 1457.09 627.904V530.272H1422.53V748H1457.09V658.144C1457.09 658.144 1466.31 640.288 1484.16 640.288C1499.14 640.288 1511.23 648.64 1511.23 668.224V748H1545.79V659.584C1545.79 626.752 1522.18 608.032 1495.68 608.032ZM1639.55 608.032C1600.09 608.032 1571 639.712 1571 679.744C1571 719.776 1602.97 751.456 1644.44 751.456C1677.56 751.456 1699.16 731.872 1699.16 731.872L1681.88 705.952C1681.88 705.952 1668.35 719.776 1644.44 719.776C1622.84 719.776 1608.73 704.224 1606.14 692.128H1708.09C1708.38 686.944 1708.38 681.76 1708.38 679.168C1708.38 637.12 1676.99 608.032 1639.55 608.032ZM1606.14 667.072C1607.29 654.976 1617.37 639.424 1639.55 639.424C1662.3 639.424 1673.24 655.264 1673.82 667.072H1606.14ZM1803.76 608.032C1778.42 608.032 1766.61 631.36 1766.61 631.36V611.488H1733.78V748H1768.34V658.72C1768.34 658.72 1777.84 640.288 1798.87 640.288C1808.95 640.288 1815.28 643.456 1815.28 643.456L1827.38 612.352C1827.38 612.352 1816.15 608.032 1803.76 608.032ZM1899.98 608.032C1860.53 608.032 1831.44 639.712 1831.44 679.744C1831.44 719.776 1863.41 751.456 1904.88 751.456C1938 751.456 1959.6 731.872 1959.6 731.872L1942.32 705.952C1942.32 705.952 1928.78 719.776 1904.88 719.776C1883.28 719.776 1869.17 704.224 1866.58 692.128H1968.53C1968.81 686.944 1968.81 681.76 1968.81 679.168C1968.81 637.12 1937.42 608.032 1899.98 608.032ZM1866.58 667.072C1867.73 654.976 1877.81 639.424 1899.98 639.424C1922.74 639.424 1933.68 655.264 1934.26 667.072H1866.58ZM2038.86 546.4H2003.15L2004.59 690.4H2037.42L2038.86 546.4ZM1998.25 728.704C1998.25 741.376 2008.33 751.456 2021 751.456C2033.67 751.456 2043.75 741.376 2043.75 728.704C2043.75 716.032 2033.67 705.952 2021 705.952C2008.33 705.952 1998.25 716.032 1998.25 728.704ZM2170.94 546.4V748H2205.5V612.64L2268.57 708.544L2331.64 612.64V748H2366.2V546.4H2334.23L2268.57 647.776L2202.91 546.4H2170.94ZM2393.32 803.296C2393.32 803.296 2409.16 817.696 2429.9 817.696C2450.06 817.696 2469.35 808.48 2481.16 778.528L2547.4 611.488H2510.25L2474.25 711.424L2428.17 611.488H2389.87L2456.39 751.168L2450.92 765.28C2444.3 781.984 2439.4 785.44 2427.59 785.44C2418.67 785.44 2409.45 776.512 2409.45 776.512L2393.32 803.296ZM2722.96 608.032C2694.16 608.032 2682.07 631.36 2682.07 631.36V611.488H2649.81V748H2684.37V657.856C2684.37 657.856 2693.59 640.288 2711.44 640.288C2726.42 640.288 2738.52 648.64 2738.52 668.224V748H2773.08V659.584C2773.08 626.752 2749.46 608.032 2722.96 608.032ZM2861.16 722.656C2850.5 722.656 2836.39 719.488 2836.39 705.088C2836.39 690.4 2851.08 685.792 2861.74 685.792C2880.46 685.792 2892.84 692.704 2892.84 692.704V706.816C2892.84 706.816 2881.9 722.656 2861.16 722.656ZM2865.19 608.032C2836.68 608.032 2811.34 620.416 2811.34 620.416L2822.57 648.928C2822.57 648.928 2843.59 638.848 2863.46 638.848C2875.56 638.848 2892.84 644.608 2892.84 662.464V670.24C2892.84 670.24 2879.88 660.448 2854.82 660.448C2825.16 660.448 2801.26 679.456 2801.26 705.664C2801.26 734.752 2824.87 751.456 2850.5 751.456C2881.32 751.456 2895.43 730.72 2895.43 730.72V748H2927.4V659.008C2927.4 627.904 2904.36 608.032 2865.19 608.032ZM3120.4 608.032C3088.43 608.032 3076.91 631.936 3076.91 631.936C3076.91 631.936 3067.41 608.032 3034.57 608.032C3006.64 608.032 2994.25 631.36 2994.25 631.36V611.488H2962V748H2996.56V657.856C2996.56 657.856 3005.2 640.288 3023.34 640.288C3040.62 640.288 3047.82 650.368 3047.82 669.088V748H3082.38V657.856C3082.38 657.856 3091.02 640.288 3109.17 640.288C3126.45 640.288 3133.65 650.368 3133.65 669.088V748H3168.21V660.16C3168.21 627.328 3148.05 608.032 3120.4 608.032ZM3262.08 608.032C3222.62 608.032 3193.53 639.712 3193.53 679.744C3193.53 719.776 3225.5 751.456 3266.97 751.456C3300.09 751.456 3321.69 731.872 3321.69 731.872L3304.41 705.952C3304.41 705.952 3290.88 719.776 3266.97 719.776C3245.37 719.776 3231.26 704.224 3228.67 692.128H3330.62C3330.91 686.944 3330.91 681.76 3330.91 679.168C3330.91 637.12 3299.52 608.032 3262.08 608.032ZM3228.67 667.072C3229.82 654.976 3239.9 639.424 3262.08 639.424C3284.83 639.424 3295.77 655.264 3296.35 667.072H3228.67ZM3446.44 748H3481V611.488H3446.44V748ZM3440.97 567.424C3440.97 580.096 3451.05 590.176 3463.72 590.176C3476.39 590.176 3486.47 580.096 3486.47 567.424C3486.47 554.752 3476.39 544.672 3463.72 544.672C3451.05 544.672 3440.97 554.752 3440.97 567.424ZM3512.48 726.688C3512.48 726.688 3534.08 751.456 3574.12 751.456C3608.96 751.456 3633.73 732.736 3633.73 709.408C3633.73 681.184 3614.44 672.256 3587.36 666.496C3564.32 661.6 3555.11 659.584 3555.11 651.232C3555.11 642.88 3566.92 638.272 3579.88 638.272C3598.31 638.272 3613.86 650.08 3613.86 650.08L3631.14 624.736C3631.14 624.736 3610.69 608.032 3579.88 608.032C3542.44 608.032 3521.12 629.344 3521.12 650.656C3521.12 676.576 3544.74 688.096 3571.81 693.856C3592.55 698.176 3598.88 699.904 3598.88 708.832C3598.88 717.184 3587.08 721.216 3572.96 721.216C3549.92 721.216 3531.78 701.632 3531.78 701.632L3512.48 726.688ZM3821.89 685.792C3821.89 701.344 3814.12 718.624 3787.62 718.624C3766.6 718.624 3753.93 696.448 3753.93 696.448L3728.58 717.76C3728.58 717.76 3747.3 751.456 3787.62 751.456C3830.25 751.456 3856.45 726.976 3856.45 684.64V546.4H3821.89C3821.89 546.4 3821.89 619.264 3821.89 685.792ZM3948.75 722.656C3938.1 722.656 3923.99 719.488 3923.99 705.088C3923.99 690.4 3938.67 685.792 3949.33 685.792C3968.05 685.792 3980.43 692.704 3980.43 692.704V706.816C3980.43 706.816 3969.49 722.656 3948.75 722.656ZM3952.79 608.032C3924.27 608.032 3898.93 620.416 3898.93 620.416L3910.16 648.928C3910.16 648.928 3931.19 638.848 3951.06 638.848C3963.15 638.848 3980.43 644.608 3980.43 662.464V670.24C3980.43 670.24 3967.47 660.448 3942.42 660.448C3912.75 660.448 3888.85 679.456 3888.85 705.664C3888.85 734.752 3912.47 751.456 3938.1 751.456C3968.91 751.456 3983.03 730.72 3983.03 730.72V748H4014.99V659.008C4014.99 627.904 3991.95 608.032 3952.79 608.032ZM4088.18 530.272H4053.62V748H4088.18V688.384L4140.31 748H4185.82L4121.88 676L4181.78 611.488H4137.14L4088.18 665.344V530.272ZM4257.42 608.032C4217.96 608.032 4188.88 639.712 4188.88 679.744C4188.88 719.776 4220.84 751.456 4262.32 751.456C4295.44 751.456 4317.04 731.872 4317.04 731.872L4299.76 705.952C4299.76 705.952 4286.22 719.776 4262.32 719.776C4240.72 719.776 4226.6 704.224 4224.01 692.128H4325.96C4326.25 686.944 4326.25 681.76 4326.25 679.168C4326.25 637.12 4294.86 608.032 4257.42 608.032ZM4224.01 667.072C4225.16 654.976 4235.24 639.424 4257.42 639.424C4280.17 639.424 4291.12 655.264 4291.69 667.072H4224.01ZM4489.88 722.656C4479.22 722.656 4465.11 719.488 4465.11 705.088C4465.11 690.4 4479.8 685.792 4490.46 685.792C4509.18 685.792 4521.56 692.704 4521.56 692.704V706.816C4521.56 706.816 4510.62 722.656 4489.88 722.656ZM4493.91 608.032C4465.4 608.032 4440.06 620.416 4440.06 620.416L4451.29 648.928C4451.29 648.928 4472.31 638.848 4492.18 638.848C4504.28 638.848 4521.56 644.608 4521.56 662.464V670.24C4521.56 670.24 4508.6 660.448 4483.54 660.448C4453.88 660.448 4429.98 679.456 4429.98 705.664C4429.98 734.752 4453.59 751.456 4479.22 751.456C4510.04 751.456 4524.15 730.72 4524.15 730.72V748H4556.12V659.008C4556.12 627.904 4533.08 608.032 4493.91 608.032ZM4663.87 608.032C4635.07 608.032 4622.97 631.36 4622.97 631.36V611.488H4590.72V748H4625.28V657.856C4625.28 657.856 4634.49 640.288 4652.35 640.288C4667.33 640.288 4679.42 648.64 4679.42 668.224V748H4713.98V659.584C4713.98 626.752 4690.37 608.032 4663.87 608.032ZM4878.96 530.272H4844.4V625.888C4844.4 625.888 4831.73 608.032 4805.81 608.032C4770.39 608.032 4739.28 637.696 4739.28 679.744C4739.28 721.792 4770.39 751.456 4805.81 751.456C4835.19 751.456 4846.99 730.144 4846.99 730.144V748H4878.96V530.272ZM4844.4 700.192C4844.4 700.192 4834.61 719.2 4811.86 719.2C4788.53 719.2 4774.42 702.208 4774.42 679.744C4774.42 657.28 4788.53 640.288 4811.86 640.288C4834.61 640.288 4844.4 659.296 4844.4 659.296V700.192ZM5010.25 748H5044.81V546.4H5010.25V748ZM959.207 1122.66C948.551 1122.66 934.439 1119.49 934.439 1105.09C934.439 1090.4 949.127 1085.79 959.783 1085.79C978.503 1085.79 990.887 1092.7 990.887 1092.7V1106.82C990.887 1106.82 979.943 1122.66 959.207 1122.66ZM963.239 1008.03C934.727 1008.03 909.383 1020.42 909.383 1020.42L920.615 1048.93C920.615 1048.93 941.639 1038.85 961.511 1038.85C973.607 1038.85 990.887 1044.61 990.887 1062.46V1070.24C990.887 1070.24 977.927 1060.45 952.871 1060.45C923.207 1060.45 899.303 1079.46 899.303 1105.66C899.303 1134.75 922.919 1151.46 948.551 1151.46C979.367 1151.46 993.479 1130.72 993.479 1130.72V1148H1025.45V1059.01C1025.45 1027.9 1002.41 1008.03 963.239 1008.03ZM1218.45 1008.03C1186.48 1008.03 1174.96 1031.94 1174.96 1031.94C1174.96 1031.94 1165.45 1008.03 1132.62 1008.03C1104.69 1008.03 1092.3 1031.36 1092.3 1031.36V1011.49H1060.05V1148H1094.61V1057.86C1094.61 1057.86 1103.25 1040.29 1121.39 1040.29C1138.67 1040.29 1145.87 1050.37 1145.87 1069.09V1148H1180.43V1057.86C1180.43 1057.86 1189.07 1040.29 1207.21 1040.29C1224.49 1040.29 1231.69 1050.37 1231.69 1069.09V1148H1266.25V1060.16C1266.25 1027.33 1246.09 1008.03 1218.45 1008.03ZM1439.02 1122.66C1428.36 1122.66 1414.25 1119.49 1414.25 1105.09C1414.25 1090.4 1428.94 1085.79 1439.6 1085.79C1458.32 1085.79 1470.7 1092.7 1470.7 1092.7V1106.82C1470.7 1106.82 1459.76 1122.66 1439.02 1122.66ZM1443.05 1008.03C1414.54 1008.03 1389.2 1020.42 1389.2 1020.42L1400.43 1048.93C1400.43 1048.93 1421.45 1038.85 1441.32 1038.85C1453.42 1038.85 1470.7 1044.61 1470.7 1062.46V1070.24C1470.7 1070.24 1457.74 1060.45 1432.68 1060.45C1403.02 1060.45 1379.12 1079.46 1379.12 1105.66C1379.12 1134.75 1402.73 1151.46 1428.36 1151.46C1459.18 1151.46 1473.29 1130.72 1473.29 1130.72V1148H1505.26V1059.01C1505.26 1027.9 1482.22 1008.03 1443.05 1008.03ZM1749.51 1070.53C1749.51 1099.33 1734.82 1118.62 1706.31 1118.62C1677.51 1118.62 1663.11 1099.33 1663.11 1070.53C1663.11 1004 1663.11 946.4 1663.11 946.4H1628.55V1074.85C1628.55 1119.2 1658.79 1151.46 1706.31 1151.46C1753.83 1151.46 1784.07 1119.2 1784.07 1074.85V946.4H1749.51C1749.51 946.4 1749.51 1004 1749.51 1070.53ZM1830.86 1148H1865.42V946.4H1830.86V1148ZM2035.31 929.984L2007.66 917.6L1892.46 1176.22L1920.11 1188.61L2035.31 929.984ZM2182.63 1070.53C2182.63 1099.33 2167.94 1118.62 2139.43 1118.62C2110.63 1118.62 2096.23 1099.33 2096.23 1070.53C2096.23 1004 2096.23 946.4 2096.23 946.4H2061.67V1074.85C2061.67 1119.2 2091.91 1151.46 2139.43 1151.46C2186.95 1151.46 2217.19 1119.2 2217.19 1074.85V946.4H2182.63C2182.63 946.4 2182.63 1004 2182.63 1070.53ZM2370.26 1148H2411.44L2345.78 1043.74L2406.83 946.4H2368.82L2328.21 1016.1L2287.02 946.4H2246.13L2307.18 1043.74L2242.1 1148H2280.98L2325.04 1071.97L2370.26 1148ZM2586.04 946.4H2520.95V1148H2586.04C2644.79 1148 2685.69 1105.38 2685.69 1047.2C2685.69 989.024 2644.79 946.4 2586.04 946.4ZM2586.62 1115.17H2555.51V979.232H2586.62C2625.78 979.232 2650.55 1010.34 2650.55 1047.2C2650.55 1083.78 2625.78 1115.17 2586.62 1115.17ZM2772 1008.03C2732.54 1008.03 2703.45 1039.71 2703.45 1079.74C2703.45 1119.78 2735.42 1151.46 2776.89 1151.46C2810.01 1151.46 2831.61 1131.87 2831.61 1131.87L2814.33 1105.95C2814.33 1105.95 2800.8 1119.78 2776.89 1119.78C2755.29 1119.78 2741.18 1104.22 2738.59 1092.13H2840.54C2840.83 1086.94 2840.83 1081.76 2840.83 1079.17C2840.83 1037.12 2809.44 1008.03 2772 1008.03ZM2738.59 1067.07C2739.74 1054.98 2749.82 1039.42 2772 1039.42C2794.75 1039.42 2805.69 1055.26 2806.27 1067.07H2738.59ZM2857.59 1126.69C2857.59 1126.69 2879.19 1151.46 2919.23 1151.46C2954.07 1151.46 2978.84 1132.74 2978.84 1109.41C2978.84 1081.18 2959.55 1072.26 2932.47 1066.5C2909.43 1061.6 2900.22 1059.58 2900.22 1051.23C2900.22 1042.88 2912.03 1038.27 2924.99 1038.27C2943.42 1038.27 2958.97 1050.08 2958.97 1050.08L2976.25 1024.74C2976.25 1024.74 2955.8 1008.03 2924.99 1008.03C2887.55 1008.03 2866.23 1029.34 2866.23 1050.66C2866.23 1076.58 2889.85 1088.1 2916.92 1093.86C2937.66 1098.18 2943.99 1099.9 2943.99 1108.83C2943.99 1117.18 2932.19 1121.22 2918.07 1121.22C2895.03 1121.22 2876.89 1101.63 2876.89 1101.63L2857.59 1126.69ZM3010.92 1148H3045.48V1011.49H3010.92V1148ZM3005.45 967.424C3005.45 980.096 3015.53 990.176 3028.2 990.176C3040.88 990.176 3050.96 980.096 3050.96 967.424C3050.96 954.752 3040.88 944.672 3028.2 944.672C3015.53 944.672 3005.45 954.752 3005.45 967.424ZM3181.51 1133.89V1150.3C3181.51 1170.75 3169.42 1185.44 3142.63 1185.44C3116.42 1185.44 3097.42 1165.28 3097.42 1165.28L3077.83 1191.78C3077.83 1191.78 3103.46 1217.7 3142.63 1217.7C3180.94 1217.7 3216.07 1196.67 3216.07 1149.15V1011.49H3184.1V1029.34C3184.1 1029.34 3171.43 1008.03 3142.92 1008.03C3107.5 1008.03 3076.39 1037.7 3076.39 1079.74C3076.39 1121.79 3107.5 1151.46 3142.92 1151.46C3164.52 1151.46 3176.9 1139.65 3181.51 1133.89ZM3181.51 1100.19C3181.51 1100.19 3171.43 1119.2 3148.97 1119.2C3125.64 1119.2 3111.53 1102.21 3111.53 1079.74C3111.53 1057.28 3125.64 1040.29 3148.97 1040.29C3171.72 1040.29 3181.51 1059.3 3181.51 1059.3V1100.19ZM3323.85 1008.03C3295.05 1008.03 3282.96 1031.36 3282.96 1031.36V1011.49H3250.7V1148H3285.26V1057.86C3285.26 1057.86 3294.48 1040.29 3312.33 1040.29C3327.31 1040.29 3339.41 1048.64 3339.41 1068.22V1148H3373.97V1059.58C3373.97 1026.75 3350.35 1008.03 3323.85 1008.03ZM3467.81 1008.03C3428.36 1008.03 3399.27 1039.71 3399.27 1079.74C3399.27 1119.78 3431.24 1151.46 3472.71 1151.46C3505.83 1151.46 3527.43 1131.87 3527.43 1131.87L3510.15 1105.95C3510.15 1105.95 3496.61 1119.78 3472.71 1119.78C3451.11 1119.78 3437 1104.22 3434.4 1092.13H3536.36C3536.64 1086.94 3536.64 1081.76 3536.64 1079.17C3536.64 1037.12 3505.25 1008.03 3467.81 1008.03ZM3434.4 1067.07C3435.56 1054.98 3445.64 1039.42 3467.81 1039.42C3490.56 1039.42 3501.51 1055.26 3502.08 1067.07H3434.4ZM3632.03 1008.03C3606.69 1008.03 3594.88 1031.36 3594.88 1031.36V1011.49H3562.05V1148H3596.61V1058.72C3596.61 1058.72 3606.11 1040.29 3627.13 1040.29C3637.21 1040.29 3643.55 1043.46 3643.55 1043.46L3655.65 1012.35C3655.65 1012.35 3644.41 1008.03 3632.03 1008.03ZM3811.64 1122.66C3800.99 1122.66 3786.88 1119.49 3786.88 1105.09C3786.88 1090.4 3801.56 1085.79 3812.22 1085.79C3830.94 1085.79 3843.32 1092.7 3843.32 1092.7V1106.82C3843.32 1106.82 3832.38 1122.66 3811.64 1122.66ZM3815.68 1008.03C3787.16 1008.03 3761.82 1020.42 3761.82 1020.42L3773.05 1048.93C3773.05 1048.93 3794.08 1038.85 3813.95 1038.85C3826.04 1038.85 3843.32 1044.61 3843.32 1062.46V1070.24C3843.32 1070.24 3830.36 1060.45 3805.31 1060.45C3775.64 1060.45 3751.74 1079.46 3751.74 1105.66C3751.74 1134.75 3775.36 1151.46 3800.99 1151.46C3831.8 1151.46 3845.92 1130.72 3845.92 1130.72V1148H3877.88V1059.01C3877.88 1027.9 3854.84 1008.03 3815.68 1008.03ZM3985.64 1008.03C3956.84 1008.03 3944.74 1031.36 3944.74 1031.36V1011.49H3912.48V1148H3947.04V1057.86C3947.04 1057.86 3956.26 1040.29 3974.12 1040.29C3989.09 1040.29 4001.19 1048.64 4001.19 1068.22V1148H4035.75V1059.58C4035.75 1026.75 4012.13 1008.03 3985.64 1008.03ZM4200.73 930.272H4166.17V1025.89C4166.17 1025.89 4153.5 1008.03 4127.58 1008.03C4092.15 1008.03 4061.05 1037.7 4061.05 1079.74C4061.05 1121.79 4092.15 1151.46 4127.58 1151.46C4156.95 1151.46 4168.76 1130.14 4168.76 1130.14V1148H4200.73V930.272ZM4166.17 1100.19C4166.17 1100.19 4156.38 1119.2 4133.62 1119.2C4110.3 1119.2 4096.18 1102.21 4096.18 1079.74C4096.18 1057.28 4110.3 1040.29 4133.62 1040.29C4156.38 1040.29 4166.17 1059.3 4166.17 1059.3V1100.19ZM4362.54 979.232H4447.5V946.4H4327.98V1148H4362.54V1061.31H4441.74V1028.48H4362.54V979.232ZM4545.81 1008.03C4520.47 1008.03 4508.66 1031.36 4508.66 1031.36V1011.49H4475.83V1148H4510.39V1058.72C4510.39 1058.72 4519.89 1040.29 4540.91 1040.29C4550.99 1040.29 4557.33 1043.46 4557.33 1043.46L4569.43 1012.35C4569.43 1012.35 4558.19 1008.03 4545.81 1008.03ZM4646.35 1008.03C4605.74 1008.03 4573.49 1039.42 4573.49 1079.74C4573.49 1119.78 4605.74 1151.46 4646.35 1151.46C4686.96 1151.46 4719.21 1119.78 4719.21 1079.74C4719.21 1039.42 4686.96 1008.03 4646.35 1008.03ZM4646.35 1119.2C4623.02 1119.2 4608.62 1101.06 4608.62 1079.74C4608.62 1058.43 4623.02 1040.29 4646.35 1040.29C4669.68 1040.29 4684.08 1058.43 4684.08 1079.74C4684.08 1101.06 4669.68 1119.2 4646.35 1119.2ZM4817.57 1008.03C4788.77 1008.03 4776.68 1031.36 4776.68 1031.36V1011.49H4744.42V1148H4778.98V1057.86C4778.98 1057.86 4788.2 1040.29 4806.05 1040.29C4821.03 1040.29 4833.12 1048.64 4833.12 1068.22V1148H4867.68V1059.58C4867.68 1026.75 4844.07 1008.03 4817.57 1008.03ZM4891.26 1042.59H4918.04V1103.07C4918.04 1132.16 4938.2 1151.46 4964.7 1151.46C4984.57 1151.46 4997.53 1142.53 4997.53 1142.53L4984.86 1114.3C4984.86 1114.3 4978.23 1119.2 4970.46 1119.2C4961.24 1119.2 4952.6 1114.3 4952.6 1097.6V1042.59H4993.79V1011.49H4952.6V970.88H4918.04V1011.49H4891.26V1042.59ZM5014.24 1093.28H5091.13V1060.45H5014.24V1093.28ZM824.56 1379.23H912.112V1346.4H790V1548H913.84V1515.17H824.56V1461.02H905.2V1428.19H824.56V1379.23ZM1016.34 1408.03C987.538 1408.03 975.442 1431.36 975.442 1431.36V1411.49H943.186V1548H977.746V1457.86C977.746 1457.86 986.962 1440.29 1004.82 1440.29C1019.79 1440.29 1031.89 1448.64 1031.89 1468.22V1548H1066.45V1459.58C1066.45 1426.75 1042.83 1408.03 1016.34 1408.03ZM1231.43 1330.27H1196.87V1425.89C1196.87 1425.89 1184.2 1408.03 1158.28 1408.03C1122.86 1408.03 1091.75 1437.7 1091.75 1479.74C1091.75 1521.79 1122.86 1551.46 1158.28 1551.46C1187.66 1551.46 1199.46 1530.14 1199.46 1530.14V1548H1231.43V1330.27ZM1196.87 1500.19C1196.87 1500.19 1187.08 1519.2 1164.33 1519.2C1141 1519.2 1126.89 1502.21 1126.89 1479.74C1126.89 1457.28 1141 1440.29 1164.33 1440.29C1187.08 1440.29 1196.87 1459.3 1196.87 1459.3V1500.19ZM1423.78 1346.4H1358.69V1548H1423.78C1482.53 1548 1523.42 1505.38 1523.42 1447.2C1523.42 1389.02 1482.53 1346.4 1423.78 1346.4ZM1424.35 1515.17H1393.25V1379.23H1424.35C1463.52 1379.23 1488.29 1410.34 1488.29 1447.2C1488.29 1483.78 1463.52 1515.17 1424.35 1515.17ZM1609.73 1408.03C1570.28 1408.03 1541.19 1439.71 1541.19 1479.74C1541.19 1519.78 1573.16 1551.46 1614.63 1551.46C1647.75 1551.46 1669.35 1531.87 1669.35 1531.87L1652.07 1505.95C1652.07 1505.95 1638.53 1519.78 1614.63 1519.78C1593.03 1519.78 1578.92 1504.22 1576.33 1492.13H1678.28C1678.56 1486.94 1678.56 1481.76 1678.56 1479.17C1678.56 1437.12 1647.17 1408.03 1609.73 1408.03ZM1576.33 1467.07C1577.48 1454.98 1587.56 1439.42 1609.73 1439.42C1632.49 1439.42 1643.43 1455.26 1644.01 1467.07H1576.33ZM1682.2 1411.49L1754.49 1554.91L1826.78 1411.49H1789.63L1755.07 1485.79L1720.51 1411.49H1682.2ZM1898.86 1408.03C1859.4 1408.03 1830.31 1439.71 1830.31 1479.74C1830.31 1519.78 1862.28 1551.46 1903.75 1551.46C1936.87 1551.46 1958.47 1531.87 1958.47 1531.87L1941.19 1505.95C1941.19 1505.95 1927.66 1519.78 1903.75 1519.78C1882.15 1519.78 1868.04 1504.22 1865.45 1492.13H1967.4C1967.69 1486.94 1967.69 1481.76 1967.69 1479.17C1967.69 1437.12 1936.3 1408.03 1898.86 1408.03ZM1865.45 1467.07C1866.6 1454.98 1876.68 1439.42 1898.86 1439.42C1921.61 1439.42 1932.55 1455.26 1933.13 1467.07H1865.45ZM1997.12 1548H2031.68V1330.27H1997.12V1548ZM2133.8 1408.03C2093.2 1408.03 2060.94 1439.42 2060.94 1479.74C2060.94 1519.78 2093.2 1551.46 2133.8 1551.46C2174.41 1551.46 2206.67 1519.78 2206.67 1479.74C2206.67 1439.42 2174.41 1408.03 2133.8 1408.03ZM2133.8 1519.2C2110.48 1519.2 2096.08 1501.06 2096.08 1479.74C2096.08 1458.43 2110.48 1440.29 2133.8 1440.29C2157.13 1440.29 2171.53 1458.43 2171.53 1479.74C2171.53 1501.06 2157.13 1519.2 2133.8 1519.2ZM2231.87 1411.49V1614.24H2266.43V1533.89C2271.04 1539.65 2283.43 1551.46 2305.03 1551.46C2340.45 1551.46 2371.55 1521.79 2371.55 1479.74C2371.55 1437.7 2340.45 1408.03 2305.03 1408.03C2276.8 1408.03 2263.84 1429.34 2263.84 1429.34V1411.49H2231.87ZM2266.43 1459.3C2266.43 1459.3 2276.23 1440.29 2298.98 1440.29C2322.31 1440.29 2336.42 1457.28 2336.42 1479.74C2336.42 1502.21 2322.31 1519.2 2298.98 1519.2C2276.23 1519.2 2266.43 1500.19 2266.43 1500.19V1459.3ZM2456.3 1408.03C2416.84 1408.03 2387.75 1439.71 2387.75 1479.74C2387.75 1519.78 2419.72 1551.46 2461.19 1551.46C2494.31 1551.46 2515.91 1531.87 2515.91 1531.87L2498.63 1505.95C2498.63 1505.95 2485.1 1519.78 2461.19 1519.78C2439.59 1519.78 2425.48 1504.22 2422.89 1492.13H2524.84C2525.13 1486.94 2525.13 1481.76 2525.13 1479.17C2525.13 1437.12 2493.74 1408.03 2456.3 1408.03ZM2422.89 1467.07C2424.04 1454.98 2434.12 1439.42 2456.3 1439.42C2479.05 1439.42 2489.99 1455.26 2490.57 1467.07H2422.89ZM2620.51 1408.03C2595.17 1408.03 2583.36 1431.36 2583.36 1431.36V1411.49H2550.53V1548H2585.09V1458.72C2585.09 1458.72 2594.59 1440.29 2615.62 1440.29C2625.7 1440.29 2632.03 1443.46 2632.03 1443.46L2644.13 1412.35C2644.13 1412.35 2632.9 1408.03 2620.51 1408.03ZM2733.89 1442.59H2760.96V1548H2795.52V1442.59H2828.93V1411.49H2795.52V1379.81C2795.52 1362.82 2806.75 1359.07 2813.38 1359.07C2822.02 1359.07 2827.2 1363.1 2827.2 1363.1L2840.16 1334.02C2840.16 1334.02 2828.93 1326.82 2809.92 1326.82C2787.75 1326.82 2760.96 1340.06 2760.96 1378.08V1411.49H2733.89V1442.59ZM2923.42 1408.03C2898.08 1408.03 2886.27 1431.36 2886.27 1431.36V1411.49H2853.44V1548H2888V1458.72C2888 1458.72 2897.5 1440.29 2918.52 1440.29C2928.6 1440.29 2934.94 1443.46 2934.94 1443.46L2947.04 1412.35C2947.04 1412.35 2935.8 1408.03 2923.42 1408.03ZM3023.96 1408.03C2983.35 1408.03 2951.1 1439.42 2951.1 1479.74C2951.1 1519.78 2983.35 1551.46 3023.96 1551.46C3064.57 1551.46 3096.82 1519.78 3096.82 1479.74C3096.82 1439.42 3064.57 1408.03 3023.96 1408.03ZM3023.96 1519.2C3000.63 1519.2 2986.23 1501.06 2986.23 1479.74C2986.23 1458.43 3000.63 1440.29 3023.96 1440.29C3047.29 1440.29 3061.69 1458.43 3061.69 1479.74C3061.69 1501.06 3047.29 1519.2 3023.96 1519.2ZM3280.43 1408.03C3248.46 1408.03 3236.94 1431.94 3236.94 1431.94C3236.94 1431.94 3227.44 1408.03 3194.61 1408.03C3166.67 1408.03 3154.29 1431.36 3154.29 1431.36V1411.49H3122.03V1548H3156.59V1457.86C3156.59 1457.86 3165.23 1440.29 3183.37 1440.29C3200.65 1440.29 3207.85 1450.37 3207.85 1469.09V1548H3242.41V1457.86C3242.41 1457.86 3251.05 1440.29 3269.2 1440.29C3286.48 1440.29 3293.68 1450.37 3293.68 1469.09V1548H3328.24V1460.16C3328.24 1427.33 3308.08 1408.03 3280.43 1408.03ZM3451.47 1346.4V1548H3486.03V1409.47L3586.83 1548H3617.93V1346.4H3583.37V1485.22L3482.57 1346.4H3451.47ZM3709.97 1522.66C3699.32 1522.66 3685.21 1519.49 3685.21 1505.09C3685.21 1490.4 3699.89 1485.79 3710.55 1485.79C3729.27 1485.79 3741.65 1492.7 3741.65 1492.7V1506.82C3741.65 1506.82 3730.71 1522.66 3709.97 1522.66ZM3714.01 1408.03C3685.49 1408.03 3660.15 1420.42 3660.15 1420.42L3671.38 1448.93C3671.38 1448.93 3692.41 1438.85 3712.28 1438.85C3724.37 1438.85 3741.65 1444.61 3741.65 1462.46V1470.24C3741.65 1470.24 3728.69 1460.45 3703.64 1460.45C3673.97 1460.45 3650.07 1479.46 3650.07 1505.66C3650.07 1534.75 3673.69 1551.46 3699.32 1551.46C3730.13 1551.46 3744.25 1530.72 3744.25 1530.72V1548H3776.21V1459.01C3776.21 1427.9 3753.17 1408.03 3714.01 1408.03ZM3802.17 1526.69C3802.17 1526.69 3823.77 1551.46 3863.8 1551.46C3898.65 1551.46 3923.42 1532.74 3923.42 1509.41C3923.42 1481.18 3904.12 1472.26 3877.05 1466.5C3854.01 1461.6 3844.8 1459.58 3844.8 1451.23C3844.8 1442.88 3856.6 1438.27 3869.56 1438.27C3888 1438.27 3903.55 1450.08 3903.55 1450.08L3920.83 1424.74C3920.83 1424.74 3900.38 1408.03 3869.56 1408.03C3832.12 1408.03 3810.81 1429.34 3810.81 1450.66C3810.81 1476.58 3834.43 1488.1 3861.5 1493.86C3882.24 1498.18 3888.57 1499.9 3888.57 1508.83C3888.57 1517.18 3876.76 1521.22 3862.65 1521.22C3839.61 1521.22 3821.47 1501.63 3821.47 1501.63L3802.17 1526.69ZM4027.21 1408.03C4000.72 1408.03 3988.62 1427.9 3988.62 1427.9V1330.27H3954.06V1548H3988.62V1458.14C3988.62 1458.14 3997.84 1440.29 4015.69 1440.29C4030.67 1440.29 4042.77 1448.64 4042.77 1468.22V1548H4077.33V1459.58C4077.33 1426.75 4053.71 1408.03 4027.21 1408.03ZM4095.04 1411.49L4167.33 1554.91L4239.62 1411.49H4202.47L4167.91 1485.79L4133.35 1411.49H4095.04ZM4262.91 1548H4297.47V1411.49H4262.91V1548ZM4257.44 1367.42C4257.44 1380.1 4267.52 1390.18 4280.19 1390.18C4292.86 1390.18 4302.94 1380.1 4302.94 1367.42C4302.94 1354.75 4292.86 1344.67 4280.19 1344.67C4267.52 1344.67 4257.44 1354.75 4257.44 1367.42ZM4341.62 1548H4376.18V1330.27H4341.62V1548ZM4418.69 1548H4453.25V1330.27H4418.69V1548ZM4551.05 1408.03C4511.59 1408.03 4482.5 1439.71 4482.5 1479.74C4482.5 1519.78 4514.47 1551.46 4555.94 1551.46C4589.06 1551.46 4610.66 1531.87 4610.66 1531.87L4593.38 1505.95C4593.38 1505.95 4579.85 1519.78 4555.94 1519.78C4534.34 1519.78 4520.23 1504.22 4517.64 1492.13H4619.59C4619.88 1486.94 4619.88 1481.76 4619.88 1479.17C4619.88 1437.12 4588.49 1408.03 4551.05 1408.03ZM4517.64 1467.07C4518.79 1454.98 4528.87 1439.42 4551.05 1439.42C4573.8 1439.42 4584.74 1455.26 4585.32 1467.07H4517.64ZM4656.51 1520.06L4633.76 1588.03L4660.26 1597.25L4685.31 1530.14L4656.51 1520.06ZM4841.74 1548H4876.3V1379.23H4931.89V1346.4H4786.16V1379.23H4841.74V1548ZM4957.28 1346.4V1548H4991.84V1409.47L5092.64 1548H5123.74V1346.4H5089.18V1485.22L4988.38 1346.4H4957.28ZM5159.91 1528.7C5159.91 1541.38 5169.99 1551.46 5182.67 1551.46C5195.34 1551.46 5205.42 1541.38 5205.42 1528.7C5205.42 1516.03 5195.34 1505.95 5182.67 1505.95C5169.99 1505.95 5159.91 1516.03 5159.91 1528.7Z" fill="#331E38"/>
</svg>
