<svg width="3537" height="1637" viewBox="0 0 3537 1637" fill="none" xmlns="http://www.w3.org/2000/svg">
<path d="M1359.56 1064.69C1382.91 1218.75 1212.16 1399 1274.66 1469" stroke="#ED9191" stroke-width="17.9409"/>
<path d="M1343.38 1481.5C1343.38 1526.58 1363.24 1561.33 1333.51 1561.33C1303.79 1561.33 1250.98 1578.61 1250.98 1533.52C1250.98 1488.44 1303.79 1398.07 1333.51 1398.07C1363.24 1398.07 1343.38 1436.41 1343.38 1481.5Z" fill="#443A26"/>
<path d="M1366.27 1476.53C1354.75 1497.91 1324.09 1497.91 1312.57 1476.53L1285.51 1426.31C1274.56 1405.99 1289.28 1381.34 1312.36 1381.34H1366.49C1389.57 1381.34 1404.29 1405.99 1393.34 1426.31L1366.27 1476.53Z" fill="#443A26"/>
<path d="M1369.95 1382.09C1356.4 1428.08 1398.06 1400.94 1419.87 1415.56C1441.68 1430.18 1436.6 1451.83 1448.19 1434.54C1460.73 1393.28 1441.3 1385.65 1419.49 1371.02C1393.89 1362.5 1399.32 1376.94 1369.95 1382.09Z" fill="#443A26"/>
<path d="M1308.51 1382.09C1322.07 1428.08 1280.4 1400.94 1258.59 1415.56C1236.78 1430.18 1241.87 1451.83 1230.28 1434.54C1217.73 1393.28 1237.17 1385.65 1258.98 1371.02C1284.58 1362.5 1279.14 1376.94 1308.51 1382.09Z" fill="#443A26"/>
<rect x="1084.13" y="1491.36" width="265.525" height="104.057" rx="49.3374" fill="#443A26"/>
<path d="M1327.8 1487.65C1302.22 1474.56 1304.81 1428.57 1285.07 1415.12C1275.2 1399.87 1304.21 1433.26 1329.79 1446.34C1355.37 1459.43 1318.04 1447.65 1321.62 1462.32C1327.8 1487.65 1339.79 1472.53 1327.8 1487.65Z" fill="#B8873E"/>
<path d="M1351.11 1487.17C1376.69 1474.09 1374.11 1428.1 1393.84 1414.64C1403.71 1399.39 1374.71 1432.78 1349.12 1445.87C1323.54 1458.96 1360.88 1447.18 1357.3 1461.84C1351.11 1487.17 1339.12 1472.05 1351.11 1487.17Z" fill="#B8873E"/>
<path d="M1350.59 1469.43C1349.94 1473.87 1345.77 1476.63 1341.27 1476.6L1339.53 1476.59L1337.6 1476.57C1333.2 1476.54 1329.13 1473.83 1328.48 1469.48C1327.94 1465.85 1328.02 1461.7 1330.44 1459.32C1335.39 1454.44 1344 1454.15 1348.87 1459.45C1351.05 1461.82 1351.12 1465.86 1350.59 1469.43Z" fill="#635843"/>
<circle cx="1319.16" cy="1416.01" r="4.93374" fill="#5C4B27" stroke="#CFCFCF" stroke-width="0.897045"/>
<circle cx="1358.63" cy="1416.01" r="4.93374" fill="#5C4B27" stroke="#CFCFCF" stroke-width="0.897045"/>
<path d="M1329.57 1413.04C1327.22 1416.62 1326.67 1411.14 1323.09 1408.79C1319.51 1406.45 1314.27 1408.12 1316.61 1404.55C1318.96 1400.97 1323.76 1399.97 1327.34 1402.32C1330.91 1404.66 1331.91 1409.47 1329.57 1413.04Z" fill="#B8873E"/>
<path d="M1350.32 1413.04C1352.66 1416.62 1353.22 1411.14 1356.79 1408.79C1360.37 1406.45 1365.62 1408.12 1363.27 1404.55C1360.92 1400.97 1356.12 1399.97 1352.55 1402.32C1348.97 1404.66 1347.97 1409.47 1350.32 1413.04Z" fill="#B8873E"/>
<path d="M1329.03 1486.88C1341.59 1491.36 1350.56 1486.88 1350.56 1486.88" stroke="#635843" stroke-width="1.79409"/>
<path d="M1093.62 1513.66C1127.47 1537.86 1147.91 1567.28 1139.27 1579.37C1130.62 1591.46 1119.65 1548.81 1085.8 1524.6C1051.94 1500.4 1008.03 1503.82 1016.67 1491.73C1025.32 1479.64 1059.77 1489.45 1093.62 1513.66Z" fill="#443A26"/>
<path d="M1290.74 1551.03C1290.74 1595.62 1327.99 1631.76 1306.65 1631.76C1285.31 1631.76 1271.98 1595.62 1271.98 1551.03C1271.98 1506.44 1255.82 1516.29 1277.16 1516.29C1298.51 1516.29 1290.74 1506.44 1290.74 1551.03Z" fill="#443A26"/>
<path d="M1324.82 1551.03C1324.82 1595.62 1362.08 1631.76 1340.73 1631.76C1319.39 1631.76 1306.07 1595.62 1306.07 1551.03C1306.07 1506.44 1257.82 1512.3 1279.16 1512.3C1300.51 1512.3 1324.82 1506.44 1324.82 1551.03Z" fill="#443A26"/>
<path d="M1114.92 1551.26C1114.92 1595.84 1152.17 1631.99 1130.83 1631.99C1109.49 1631.99 1096.16 1595.84 1096.16 1551.26C1096.16 1506.67 1100.82 1509.02 1122.16 1509.02C1143.51 1509.02 1114.92 1506.67 1114.92 1551.26Z" fill="#443A26"/>
<path d="M1149 1551.26C1149 1595.84 1186.26 1631.99 1164.92 1631.99C1143.57 1631.99 1130.25 1595.84 1130.25 1551.26C1130.25 1506.67 1127.66 1515.52 1149 1515.52C1170.35 1515.52 1149 1506.67 1149 1551.26Z" fill="#443A26"/>
<path d="M1123.33 1608.99C1123.95 1619.96 1141.97 1628.08 1131.68 1628.66C1121.38 1629.25 1114.45 1620.72 1113.82 1609.74C1113.19 1598.76 1120.97 1615.54 1119.42 1601.45C1130.92 1597.47 1122.95 1602.36 1123.33 1608.99Z" fill="#B8873E"/>
<path d="M1156.19 1607.69C1156.82 1618.66 1174.84 1626.78 1164.54 1627.36C1154.24 1627.95 1147.31 1619.42 1146.68 1608.44C1146.06 1597.46 1153.83 1614.24 1152.29 1600.15C1163.78 1596.17 1155.81 1601.06 1156.19 1607.69Z" fill="#B8873E"/>
<path d="M1300.19 1608.46C1300.82 1619.44 1318.84 1627.55 1308.54 1628.14C1298.24 1628.73 1291.31 1620.19 1290.68 1609.22C1290.06 1598.24 1297.83 1615.01 1296.29 1600.92C1307.78 1596.94 1299.81 1601.83 1300.19 1608.46Z" fill="#B8873E"/>
<path d="M1333.19 1607.46C1333.82 1618.44 1351.84 1626.55 1341.54 1627.14C1331.24 1627.73 1324.31 1619.19 1323.68 1608.22C1323.06 1597.24 1330.83 1614.01 1329.29 1599.92C1340.78 1595.94 1332.81 1600.83 1333.19 1607.46Z" fill="#B8873E"/>
<path d="M1280.59 1450.1C1294.94 1458.17 1311.98 1509.3 1346.07 1505.72" stroke="#ED9191" stroke-width="17.9409"/>
<path d="M1577.26 1579.46C1577.26 1602.54 1578.53 1621.26 1605.92 1621.26C1633.31 1621.26 1692.11 1644.34 1692.11 1621.26C1692.11 1598.17 1651.76 1576.06 1624.37 1576.06C1596.98 1576.06 1577.26 1556.37 1577.26 1579.46Z" fill="white"/>
<path d="M1581.88 1568.95C1581.88 1579.58 1576.6 1610.57 1589.15 1610.57C1601.69 1610.57 1710.62 1641.88 1690.9 1610.57C1518.2 1626.05 1631.41 1574.1 1618.86 1574.1C1606.32 1574.1 1581.88 1558.31 1581.88 1568.95Z" fill="#8C799B"/>
<path d="M1540.49 1573.09C1540.33 1596.17 1538.93 1614.88 1511.54 1614.68C1484.15 1614.49 1425.19 1637.15 1425.35 1614.07C1425.52 1590.98 1466.02 1569.16 1493.41 1569.36C1520.8 1569.55 1540.66 1550 1540.49 1573.09Z" fill="white"/>
<path d="M1535.95 1562.54C1535.87 1573.18 1540.93 1604.21 1528.38 1604.12C1515.84 1604.03 1406.69 1634.55 1426.64 1603.39C1599.22 1620.1 1486.38 1567.34 1498.93 1567.43C1511.47 1567.52 1536.02 1551.91 1535.95 1562.54Z" fill="#8C799B"/>
<path d="M1482.26 1066.5H1702.13C1688.48 1307.95 1652.31 1408.86 1621.81 1575.68H1563.31C1517.18 1379.37 1721.46 1336.7 1482.26 1066.5Z" fill="#ED9191"/>
<path d="M1692.88 1079.99L1475.26 1048.65C1454.35 1289.58 1475.76 1394.62 1482.17 1564.08L1540.07 1572.42C1613.72 1384.7 1417.6 1313.34 1692.88 1079.99Z" fill="#ED9191"/>
<path d="M1610.1 713.807C1604.37 765.636 1676.5 784.28 1696.6 736.164L1819.64 441.627C1831.69 412.78 1795.25 388.357 1773.15 410.47V410.47C1771.22 412.393 1769.59 414.58 1768.28 416.966L1615.34 697.143C1612.52 702.303 1610.74 707.963 1610.1 713.807V713.807Z" fill="#F0BEA2"/>
<path d="M1492.36 743.346C1481.48 678.859 1527.65 616.315 1593.05 616.315V616.315C1656.19 616.315 1702.54 675.262 1699.76 738.343C1694.08 867.222 1725.87 967.309 1716.34 1098.23C1656.09 1090.79 1621.76 1248 1462.49 1098.23C1501.62 955.736 1512.16 860.728 1492.36 743.346Z" fill="#B49DC7"/>
<path d="M1641.91 675.766C1641.91 755.149 1669.9 724.549 1595.63 724.549C1521.36 724.549 1541.49 755.149 1541.49 675.766C1541.49 596.383 1521.36 532.031 1595.63 532.031C1669.9 532.031 1641.91 596.383 1641.91 675.766Z" fill="#EFB99E"/>
<g filter="url(#filter0_d_331_5155)">
<path d="M1615.07 587.313C1602.75 594.778 1587.3 594.778 1574.98 587.313L1540.38 566.343C1506.91 546.062 1521.29 494.598 1560.42 494.598H1629.63C1668.76 494.598 1683.14 546.062 1649.67 566.343L1615.07 587.313Z" fill="#E4CFB0"/>
</g>
<path d="M1510.55 397.264C1467.03 498.668 1609.64 592.219 1545.68 689.89C1568.65 592.381 1411.92 476.961 1455.45 375.557C1498.97 274.153 1586.29 230.685 1661.52 262.976C1736.76 295.266 1554.07 295.86 1510.55 397.264Z" fill="#443A26"/>
<path d="M1656.22 438.911C1699.74 540.315 1557.13 633.865 1621.09 731.537C1598.12 634.028 1754.85 518.607 1711.32 417.203C1667.8 315.799 1580.48 272.331 1505.25 304.622C1430.01 336.913 1612.7 337.507 1656.22 438.911Z" fill="#443A26"/>
<path d="M1706.79 442.877C1750.31 544.281 1607.7 637.832 1671.66 735.503C1648.69 637.994 1805.42 522.574 1761.9 421.17C1718.37 319.766 1631.05 276.298 1555.82 308.588C1480.58 340.879 1663.27 341.473 1706.79 442.877Z" fill="#443A26"/>
<path d="M1683.99 438.911C1727.51 540.315 1584.9 633.865 1648.85 731.537C1625.89 634.028 1782.61 518.607 1739.09 417.203C1695.57 315.799 1608.25 272.331 1533.01 304.622C1457.78 336.913 1640.46 337.507 1683.99 438.911Z" fill="#443A26"/>
<path d="M1710.38 451.539C1682.62 550.34 1682.94 571.198 1594.86 571.198C1506.78 571.198 1520.49 553.314 1479.34 451.539C1479.34 370.29 1531.06 304.426 1594.86 304.426C1658.66 304.426 1710.38 370.29 1710.38 451.539Z" fill="#F0BEA2"/>
<path d="M1535.16 716.838C1541.4 670.098 1476.02 652.561 1458.03 696.152L1365.38 920.711C1358.14 938.263 1378.12 954.508 1393.82 943.832V943.832C1395.99 942.36 1397.83 940.461 1399.23 938.251L1529.26 733.06C1532.38 728.143 1534.39 722.608 1535.16 716.838V716.838Z" fill="#F0BEA2"/>
<path d="M1402.46 930.795C1401.34 907.823 1368.53 904.941 1363.43 927.367L1338.32 1037.73C1336.21 1046.98 1347.2 1053.51 1354.32 1047.23V1047.23C1355.42 1046.26 1356.28 1045.05 1356.85 1043.7L1400.92 939.453C1402.08 936.719 1402.6 933.76 1402.46 930.795V930.795Z" fill="#F0BEA2"/>
<path d="M1379.55 1072.17C1366.39 1078.79 1360.11 1054.24 1352.74 1057.95C1345.49 1043.55 1354.57 1029.99 1361.36 1018.05C1374.53 1011.43 1356.35 1033.11 1363.6 1047.52C1370.84 1061.92 1392.72 1065.55 1379.55 1072.17Z" fill="#F0BEA2"/>
<path d="M1344.62 1088.15C1334.29 1081.45 1351.47 1050.28 1345.68 1046.53C1353.01 1035.22 1348.44 1022.11 1359.92 1021.97C1370.25 1028.67 1361.36 1018.94 1359.92 1037.78C1352.59 1049.08 1354.95 1094.85 1344.62 1088.15Z" fill="#F0BEA2"/>
<path d="M1337.57 1083.67C1328.12 1076.16 1347.82 1047.36 1342.52 1043.15C1350.74 1032.81 1347.51 1019.58 1358.73 1020.53C1368.18 1028.04 1362.24 1037.3 1354.02 1047.64C1345.8 1057.98 1347.01 1091.18 1337.57 1083.67Z" fill="#F0BEA2"/>
<path d="M1330.83 1079.48C1323.51 1072.86 1344.3 1054.11 1333.74 1040.37C1340.98 1032.37 1342.27 1027.75 1351.37 1029.11C1358.68 1035.72 1353.35 1042.96 1346.12 1050.97C1338.88 1058.97 1338.14 1086.09 1330.83 1079.48Z" fill="#F0BEA2"/>
<path d="M1328.5 1070.89C1324.75 1065.55 1334.89 1042.74 1337.11 1035.55C1342.96 1031.44 1341.14 1032.22 1346.81 1034.43C1350.57 1039.77 1347.69 1045 1340.22 1047.78C1334.38 1051.89 1332.26 1076.23 1328.5 1070.89Z" fill="#F0BEA2"/>
<path d="M1351.82 1062.01C1350.26 1068.23 1343.81 1071.86 1337.69 1069.96V1069.96C1333.58 1068.7 1330.57 1065.18 1329.94 1060.93L1329.66 1059.04C1329.31 1056.7 1329.56 1054.31 1330.37 1052.09L1339.06 1028.31C1339.37 1027.46 1340.08 1026.81 1340.95 1026.59V1026.59C1341.57 1026.42 1342.22 1026.48 1342.8 1026.75L1346.99 1028.66C1353.86 1031.81 1357.51 1039.4 1355.67 1046.73L1351.82 1062.01Z" fill="#F0BEA2"/>
<path d="M1771.25 425.395C1778.53 455.505 1822.6 451.293 1824.04 420.35L1830.73 276.639C1831.31 264.299 1815.83 258.348 1807.99 267.894V267.894C1806.77 269.381 1805.89 271.124 1805.44 272.993L1771.27 412.743C1770.25 416.898 1770.25 421.237 1771.25 425.395V425.395Z" fill="#F0BEA2"/>
<path d="M1771.01 241.609C1786.27 230.571 1799.19 260.278 1807.75 254.091C1819.83 270.795 1811.54 289.337 1805.4 305.792C1790.14 316.83 1808.25 286.177 1796.17 269.474C1784.09 252.771 1755.74 252.648 1771.01 241.609Z" fill="#EFB99E"/>
<path d="M1805.86 183.928C1820.26 190.279 1804.92 233.112 1813 236.671C1806.05 252.43 1814.49 268.054 1800.04 270.571C1785.63 264.22 1790.07 250.571 1797.01 234.811C1803.96 219.052 1791.46 177.578 1805.86 183.928Z" fill="#EFB99E"/>
<path d="M1821.86 189.208C1835.31 196.762 1816.31 237.117 1823.86 241.351C1815.59 256.075 1822.36 272.118 1808.02 273.212C1794.56 265.659 1800.17 252.756 1808.44 238.031C1816.7 223.306 1808.4 181.655 1821.86 189.208Z" fill="#EFB99E"/>
<path d="M1835.64 192.836C1846.22 199.694 1821.56 227.812 1837.69 242.999C1830.19 254.572 1831.74 260.45 1819.99 260.595C1809.41 253.737 1814.66 243.51 1822.16 231.937C1829.66 220.364 1825.07 185.978 1835.64 192.836Z" fill="#EFB99E"/>
<path d="M1840.15 210.798C1845.98 216.776 1837.23 254.994 1835.9 264.528C1829.36 270.905 1832.09 262.173 1824.48 260.546C1818.65 254.568 1821.22 247.376 1830.07 242.354C1836.62 235.977 1834.33 204.82 1840.15 210.798Z" fill="#EFB99E"/>
<path d="M1470.8 672.171C1509.22 696.641 1523.81 714.354 1532.62 755.838" stroke="#B49DC7" stroke-width="44.8522"/>
<path d="M1808.07 248.78C1808.77 240.623 1816.18 234.728 1824.28 235.866V235.866C1829.73 236.63 1834.25 240.453 1835.91 245.694L1836.65 248.014C1837.56 250.896 1837.74 253.96 1837.17 256.929L1831.05 288.719C1830.83 289.854 1830.07 290.81 1829.01 291.278V291.278C1828.27 291.607 1827.43 291.669 1826.64 291.452L1820.97 289.887C1811.66 287.319 1805.5 278.475 1806.34 268.853L1808.07 248.78Z" fill="#EFB99E"/>
<path d="M1496.59 440.107C1496.59 454.254 1500.49 485.887 1488.34 485.887C1476.18 485.887 1452.57 454.254 1452.57 440.107C1452.57 425.96 1462.42 414.492 1474.58 414.492C1486.74 414.492 1496.59 425.96 1496.59 440.107Z" fill="#D6C2A2"/>
<path d="M1476.22 441.265C1461.81 449.808 1485.23 455.198 1476.22 465.063" stroke="black" stroke-width="0.991588"/>
<path d="M1718.47 410.065C1732.88 418.608 1709.45 423.999 1718.47 433.864" stroke="black" stroke-width="0.991588"/>
<path d="M1490.48 397.563C1446.96 498.967 1589.57 592.518 1525.61 690.189C1548.58 592.68 1421.61 441.067 1465.13 339.663C1508.65 238.259 1566.22 230.984 1641.46 263.274C1716.69 295.565 1534.01 296.159 1490.48 397.563Z" fill="#443A26"/>
<path d="M1495.06 395.579C1451.54 496.983 1638.86 759.22 1491.75 727.373C1514.72 629.864 1430.03 466.352 1473.56 364.948C1517.08 263.544 1570.8 229 1646.04 261.291C1721.27 293.581 1538.58 294.175 1495.06 395.579Z" fill="#443A26"/>
<path d="M1725.82 424.673C1746.52 533.063 1507.21 748.901 1657.73 749.423C1656.26 649.256 1774.11 507.77 1753.4 399.381C1732.7 290.992 1687.66 245.707 1607.24 261.07C1526.82 276.433 1705.11 316.284 1725.82 424.673Z" fill="#443A26"/>
<path d="M1615.07 587.313C1602.75 594.778 1587.3 594.778 1574.98 587.313L1540.38 566.343C1506.91 546.062 1521.29 494.598 1560.42 494.598H1629.63C1668.76 494.598 1683.14 546.062 1649.67 566.343L1615.07 587.313Z" fill="#F0BEA2"/>
<path d="M1494.88 468.569C1419.52 379.39 1640.11 381.447 1568.64 286.341" stroke="#443A26" stroke-width="69.4112"/>
<path d="M1718.47 453.228C1793.82 364.049 1573.24 366.106 1644.7 271" stroke="#443A26" stroke-width="69.4112"/>
<path d="M1499.59 553.995C1395.74 544.544 1574.37 409.294 1469.28 393.634" stroke="#443A26" stroke-width="29.7476"/>
<path d="M1512.72 640.114C1417.07 598.579 1569.92 436.07 1475.04 388.25" stroke="#443A26" stroke-width="29.7476"/>
<path d="M1689.51 480.745C1793.36 471.293 1614.73 336.043 1719.82 320.383" stroke="#443A26" stroke-width="29.7476"/>
<path d="M1676.38 584.864C1778.66 556 1619.18 380.82 1714.06 333" stroke="#443A26" stroke-width="29.7476"/>
<path d="M1633.7 526.751C1633.7 524.287 1610.52 526.751 1596.41 526.751C1582.29 526.751 1555.86 522.388 1555.86 524.852C1555.86 527.317 1582.29 536.563 1596.41 536.563C1610.52 536.563 1633.7 529.216 1633.7 526.751Z" fill="white"/>
<path d="M1633.2 525.585C1633.2 523.121 1609.53 524.098 1595.42 524.098C1581.3 524.098 1557.35 523.121 1557.35 525.585C1557.35 528.05 1581.3 546.904 1595.42 546.904C1609.53 546.904 1633.2 528.05 1633.2 525.585Z" fill="white"/>
<path d="M1635.68 525.38C1635.68 527.845 1612.28 551.367 1595.03 551.367C1577.78 551.367 1552.88 525.983 1552.88 523.518C1552.88 521.054 1577.78 545.417 1595.03 545.417C1612.28 545.417 1635.68 522.916 1635.68 525.38Z" fill="#DE4C66"/>
<path d="M1637.17 525.997C1637.17 523.533 1612.88 515.585 1595.52 521.039C1581.15 516.577 1552.88 521.054 1552.88 523.518C1552.88 525.982 1578.27 525.997 1595.52 525.997C1612.77 525.997 1637.17 528.461 1637.17 525.997Z" fill="#DE4C66"/>
<path d="M1584.12 428.906C1584.12 436.299 1571.19 424.939 1555.86 424.939C1540.53 424.939 1535.53 428.906 1528.1 434.36C1528.1 426.966 1540.53 420.973 1555.86 420.973C1571.19 420.973 1584.12 421.513 1584.12 428.906Z" fill="#443A26"/>
<path d="M1613.87 429.401C1613.87 436.794 1627.78 426.922 1643.12 426.922C1658.45 426.922 1663.45 430.889 1670.88 436.342C1670.88 428.949 1658.45 422.956 1643.12 422.956C1627.78 422.956 1613.87 422.008 1613.87 429.401Z" fill="#443A26"/>
<path d="M1582.21 481.706C1566.84 494.101 1582.21 501.537 1589.49 497.632" stroke="black" stroke-width="0.991588"/>
<path d="M1606.43 481.706C1621.8 494.101 1606.43 501.537 1599.15 497.632" stroke="black" stroke-width="0.991588"/>
<ellipse cx="1584.62" cy="497.325" rx="2.97476" ry="0.991588" fill="black"/>
<ellipse cx="1603.46" cy="497.325" rx="2.97476" ry="0.991588" fill="black"/>
<path d="M1575.72 449.572C1569.94 451.907 1566.49 458.97 1556.71 457.744C1546.93 456.518 1539.66 450.261 1540.3 445.133C1547.44 441.086 1549.4 436.841 1559.18 438.066C1568.96 439.292 1569.11 444.476 1575.72 449.572Z" fill="white"/>
<circle cx="1556.85" cy="446.754" r="6.94112" fill="#443A26"/>
<path d="M1575.72 449.572C1569.94 451.907 1566.63 442.526 1556.85 441.3C1547.07 440.074 1539.66 450.261 1540.3 445.133C1547.44 441.086 1549.4 436.841 1559.18 438.066C1568.96 439.292 1569.11 444.476 1575.72 449.572Z" fill="#BCA6CA"/>
<path d="M1622.47 450.564C1628.26 452.898 1631.7 459.962 1641.48 458.736C1651.26 457.51 1658.53 451.253 1657.89 446.125C1650.75 442.078 1648.79 437.832 1639.01 439.058C1629.23 440.284 1629.09 445.468 1622.47 450.564Z" fill="white"/>
<circle cx="1641.14" cy="448.737" r="6.94112" fill="#443A26"/>
<path d="M1622.47 450.564C1628.26 452.898 1629.23 444.014 1639.01 442.788C1648.79 441.562 1658.53 451.253 1657.89 446.125C1650.75 442.078 1648.79 437.832 1639.01 439.058C1629.23 440.284 1629.09 445.468 1622.47 450.564Z" fill="#BCA6CA"/>
<path d="M1589.08 497.821C1593.22 499.938 1595.48 499.774 1599.49 497.821" stroke="black" stroke-width="0.991588"/>
<line x1="1539.35" y1="443.429" x2="1541.33" y2="445.412" stroke="black" stroke-width="0.991588"/>
<line x1="1541.43" y1="440.589" x2="1543.01" y2="443.848" stroke="black" stroke-width="0.991588"/>
<line x1="1543.45" y1="438.684" x2="1544.71" y2="443.05" stroke="black" stroke-width="0.991588"/>
<line x1="1545.43" y1="437.692" x2="1546.69" y2="442.059" stroke="black" stroke-width="0.991588"/>
<line x1="1548.42" y1="436.78" x2="1548.95" y2="441.294" stroke="black" stroke-width="0.991588"/>
<line x1="1550.4" y1="435.788" x2="1550.94" y2="440.302" stroke="black" stroke-width="0.991588"/>
<line x1="1552.52" y1="434.814" x2="1552.79" y2="439.352" stroke="black" stroke-width="0.991588"/>
<line x1="1555.69" y1="434.903" x2="1555.3" y2="439.431" stroke="black" stroke-width="0.991588"/>
<line x1="1558.73" y1="434.898" x2="1558.34" y2="439.427" stroke="black" stroke-width="0.991588"/>
<line x1="1558.73" y1="434.898" x2="1558.34" y2="439.427" stroke="black" stroke-width="0.991588"/>
<line x1="1561.7" y1="434.898" x2="1561.31" y2="439.427" stroke="black" stroke-width="0.991588"/>
<line x1="1567.24" y1="438.961" x2="1566.25" y2="442.349" stroke="black" stroke-width="0.991588"/>
<line x1="1569.2" y1="442.001" x2="1568.21" y2="444.189" stroke="black" stroke-width="0.991588"/>
<line x1="1571.15" y1="444.046" x2="1570.16" y2="445.6" stroke="black" stroke-width="0.991588"/>
<line x1="1574.15" y1="447.968" x2="1573.46" y2="449.349" stroke="black" stroke-width="0.991588"/>
<line x1="1573.13" y1="446.029" x2="1572.14" y2="447.583" stroke="black" stroke-width="0.991588"/>
<line x1="1565.09" y1="436.927" x2="1564.28" y2="441.4" stroke="black" stroke-width="0.991588"/>
<line y1="-0.495794" x2="2.80464" y2="-0.495794" transform="matrix(-0.707107 0.707107 0.707107 0.707107 1658.98 443.792)" stroke="black" stroke-width="0.991588"/>
<line y1="-0.495794" x2="3.61909" y2="-0.495794" transform="matrix(-0.434988 0.900436 0.900436 0.434988 1657 440.816)" stroke="black" stroke-width="0.991588"/>
<line y1="-0.495794" x2="4.54573" y2="-0.495794" transform="matrix(-0.277733 0.960658 0.960658 0.277733 1655.02 438.833)" stroke="black" stroke-width="0.991588"/>
<line y1="-0.495794" x2="4.54573" y2="-0.495794" transform="matrix(-0.277733 0.960658 0.960658 0.277733 1653.04 437.842)" stroke="black" stroke-width="0.991588"/>
<line y1="-0.495794" x2="4.54573" y2="-0.495794" transform="matrix(-0.117864 0.99303 0.99303 0.117864 1650.06 436.85)" stroke="black" stroke-width="0.991588"/>
<line y1="-0.495794" x2="4.54573" y2="-0.495794" transform="matrix(-0.117864 0.99303 0.99303 0.117864 1648.08 435.859)" stroke="black" stroke-width="0.991588"/>
<line y1="-0.495794" x2="4.54573" y2="-0.495794" transform="matrix(-0.0583328 0.998297 0.998297 0.0583328 1645.96 434.855)" stroke="black" stroke-width="0.991588"/>
<line y1="-0.495794" x2="4.54573" y2="-0.495794" transform="matrix(0.0862174 0.996276 0.996276 -0.0862174 1642.79 434.872)" stroke="black" stroke-width="0.991588"/>
<line y1="-0.495794" x2="4.54573" y2="-0.495794" transform="matrix(0.0862174 0.996276 0.996276 -0.0862174 1639.75 434.867)" stroke="black" stroke-width="0.991588"/>
<line y1="-0.495794" x2="4.54573" y2="-0.495794" transform="matrix(0.0862174 0.996276 0.996276 -0.0862174 1636.78 434.867)" stroke="black" stroke-width="0.991588"/>
<line y1="-0.495794" x2="3.53027" y2="-0.495794" transform="matrix(0.280893 0.959739 0.959739 -0.280893 1631.22 438.833)" stroke="black" stroke-width="0.991588"/>
<line y1="-0.495794" x2="2.40316" y2="-0.495794" transform="matrix(0.412705 0.910865 0.910865 -0.412705 1629.24 441.808)" stroke="black" stroke-width="0.991588"/>
<line y1="-0.495794" x2="1.84357" y2="-0.495794" transform="matrix(0.537986 0.842954 0.842954 -0.537986 1627.25 443.792)" stroke="black" stroke-width="0.991588"/>
<line y1="-0.495794" x2="1.54572" y2="-0.495794" transform="matrix(0.448643 0.893711 0.893711 -0.448643 1624.28 447.758)" stroke="black" stroke-width="0.991588"/>
<line y1="-0.495794" x2="1.84357" y2="-0.495794" transform="matrix(0.537986 0.842954 0.842954 -0.537986 1625.27 445.774)" stroke="black" stroke-width="0.991588"/>
<line y1="-0.495794" x2="4.54573" y2="-0.495794" transform="matrix(0.177956 0.984038 0.984038 -0.177956 1633.39 436.85)" stroke="black" stroke-width="0.991588"/>
<path d="M1553.38 523.602C1551.31 523.11 1550.05 522.222 1549.1 521.123" stroke="black" stroke-width="0.991588"/>
<path d="M1548.14 523.336C1548.94 521.356 1550 520.242 1551.23 519.466" stroke="black" stroke-width="0.991588"/>
<path d="M1634.33 526.577C1636.4 526.085 1637.66 525.197 1638.61 524.098" stroke="black" stroke-width="0.991588"/>
<path d="M1639.56 526.311C1638.77 524.331 1637.7 523.217 1636.48 522.441" stroke="black" stroke-width="0.991588"/>
<g filter="url(#filter1_f_331_5155)">
<ellipse cx="1646.68" cy="487.905" rx="13.8822" ry="14.378" fill="#E99985"/>
</g>
<g filter="url(#filter2_f_331_5155)">
<ellipse cx="1547.51" cy="486.914" rx="13.8822" ry="14.378" fill="#E99985"/>
</g>
<path d="M1332.66 1042.27C1345.22 1046.75 1353.61 1051.89 1363.9 1070.69" stroke="#ED9191" stroke-width="15"/>
<path d="M1362.26 1067.38C1369.18 1078.79 1366.14 1092.05 1362.26 1113.13" stroke="#ED9191" stroke-width="15"/>
<path d="M2430.37 1570.67C2430.37 1597.53 2431.84 1619.3 2463.7 1619.3C2495.57 1619.3 2563.97 1646.16 2563.97 1619.3C2563.97 1592.44 2517.03 1566.72 2485.17 1566.72C2453.3 1566.72 2430.37 1543.82 2430.37 1570.67Z" fill="white"/>
<path d="M2435.74 1558.45C2435.74 1570.82 2429.59 1606.87 2444.19 1606.87C2458.79 1606.87 2585.51 1643.29 2562.56 1606.87C2361.65 1624.88 2493.36 1564.44 2478.76 1564.44C2464.16 1564.44 2435.74 1546.07 2435.74 1558.45Z" fill="black"/>
<path d="M2387.59 1563.26C2387.39 1590.12 2385.77 1611.88 2353.9 1611.65C2322.04 1611.42 2253.44 1637.79 2253.64 1610.94C2253.83 1584.08 2300.95 1558.69 2332.81 1558.92C2364.68 1559.15 2387.78 1536.4 2387.59 1563.26Z" fill="white"/>
<path d="M2382.3 1550.99C2382.21 1563.36 2388.1 1599.46 2373.5 1599.36C2358.9 1599.26 2231.92 1634.77 2255.13 1598.52C2455.91 1617.96 2324.64 1556.57 2339.23 1556.68C2353.83 1556.78 2382.39 1538.62 2382.3 1550.99Z" fill="black"/>
<path d="M2341.24 998.787H2561.24C2547.59 1270.5 2511.4 1384.06 2480.88 1571.79H2422.34C2376.18 1350.88 2580.59 1302.86 2341.24 998.787Z" fill="#F0AA95"/>
<path d="M2551.99 1012.78L2334.37 981.435C2308.85 1254.34 2328.34 1372.74 2331.57 1564.29L2389.47 1572.63C2466.86 1358.91 2271.56 1281.91 2551.99 1012.78Z" fill="#F0AA95"/>
<path d="M2371.24 648.518C2325.14 674.537 2352.54 745.024 2404.11 733.076L2710.99 661.978C2741.46 654.918 2740.01 611.048 2709.14 606.01V606.01C2706.51 605.581 2703.83 605.522 2701.19 605.836L2388.37 642.918C2382.35 643.632 2376.52 645.536 2371.24 648.518V648.518Z" fill="#F3CEB9"/>
<path d="M2342.46 677.659C2340.54 612.289 2386.76 549.102 2452.16 549.102V549.102C2515.3 549.102 2561.58 607.957 2557.4 670.961C2548.89 799.344 2575.45 898.572 2575.45 1031.01C2515.2 1023.58 2461.01 1174.27 2301.74 1024.5C2308.54 879.386 2345.77 790.382 2342.46 677.659Z" fill="black"/>
<path d="M2501.03 608.553C2501.03 687.936 2529.01 657.336 2454.74 657.336C2380.47 657.336 2400.6 687.936 2400.6 608.553C2400.6 529.17 2380.47 464.817 2454.74 464.817C2529.01 464.817 2501.03 529.17 2501.03 608.553Z" fill="#F3CEB9"/>
<g filter="url(#filter3_d_331_5155)">
<path d="M2474.18 520.099C2461.86 527.565 2446.41 527.565 2434.1 520.099L2399.49 499.13C2366.03 478.849 2380.4 427.385 2419.53 427.385H2488.74C2527.87 427.385 2542.25 478.849 2508.78 499.13L2474.18 520.099Z" fill="#E4CFB0"/>
</g>
<path d="M2369.65 330.051C2326.13 431.455 2468.74 525.005 2404.78 622.677C2427.75 525.168 2307.22 431.455 2350.74 330.051C2394.27 228.647 2436.5 199.996 2511.74 232.286C2586.98 264.577 2413.17 228.647 2369.65 330.051Z" fill="#F7E2BE"/>
<path d="M2515.33 371.697C2558.85 473.101 2416.24 566.652 2480.2 664.323C2457.23 566.814 2613.96 451.394 2570.44 349.99C2526.91 248.586 2439.59 205.118 2364.36 237.409C2289.12 269.699 2471.81 270.293 2515.33 371.697Z" fill="#F7E2BE"/>
<path d="M2543.1 371.696C2586.62 473.1 2444.01 566.651 2507.97 664.323C2485 566.813 2609.77 456.691 2566.24 355.287C2522.72 253.883 2467.36 205.117 2392.12 237.408C2316.89 269.698 2499.58 270.292 2543.1 371.696Z" fill="#F7E2BE"/>
<path d="M2569.49 384.325C2541.73 483.126 2542.05 503.985 2453.97 503.985C2365.89 503.985 2379.6 486.101 2338.45 384.325C2338.45 303.077 2390.17 237.212 2453.97 237.212C2517.77 237.212 2569.49 303.077 2569.49 384.325Z" fill="#F3CEB9"/>
<path d="M2337.19 657.619C2368.29 682.966 2409.64 642.326 2384.83 610.788L2230.5 414.557C2218.86 399.756 2195.09 409.119 2196.68 427.883V427.883C2196.92 430.828 2197.86 433.675 2199.4 436.196L2329.75 649.114C2331.73 652.348 2334.25 655.224 2337.19 657.619V657.619Z" fill="#F3CEB9"/>
<path d="M2233.11 415.065C2225.87 436.897 2193.49 430.874 2194.59 407.901L2199.99 294.851C2200.44 285.37 2212.78 282.032 2217.95 289.99V289.99C2218.75 291.219 2219.26 292.611 2219.45 294.065L2233.95 406.312C2234.33 409.256 2234.04 412.247 2233.11 415.065V415.065Z" fill="#F3CEB9"/>
<path d="M2248.95 272.72C2238.04 262.813 2225.42 284.784 2219.3 279.231C2208.46 291.166 2213.57 306.665 2216.92 319.991C2227.82 329.898 2216.13 304.131 2226.97 292.196C2237.81 280.26 2259.86 282.628 2248.95 272.72Z" fill="#F3CEB9"/>
<path d="M2219.58 247.966C2207.83 251.651 2216.03 286.282 2209.45 288.347C2213.48 301.202 2205.55 312.614 2216.57 315.826C2228.32 312.141 2217.16 319.126 2220.81 300.59C2216.78 287.735 2231.33 244.281 2219.58 247.966Z" fill="#F3CEB9"/>
<path d="M2211.58 250.389C2200.47 255.091 2211.73 288.114 2205.5 290.749C2210.64 302.914 2203.98 314.797 2215.04 316.894C2226.16 312.192 2222.92 301.674 2217.77 289.509C2212.63 277.344 2222.7 245.686 2211.58 250.389Z" fill="#F3CEB9"/>
<path d="M2203.24 257C2194.43 261.412 2210.15 280.673 2196.29 291.077C2201.12 300.726 2201.13 305.519 2210.25 306.652C2219.07 302.24 2215.88 293.835 2211.05 284.186C2206.23 274.537 2212.06 252.588 2203.24 257Z" fill="#F3CEB9"/>
<path d="M2199.43 260.272C2194.38 264.413 2198.04 289.1 2198.24 296.627C2202.77 302.153 2201.23 300.911 2207.29 300.308C2212.34 296.167 2210.97 290.353 2204.52 285.679C2199.99 280.153 2204.48 256.131 2199.43 260.272Z" fill="#F3CEB9"/>
<path d="M2219.51 275.073C2219.68 268.671 2214.43 263.445 2208.03 263.625V263.625C2203.73 263.746 2199.88 266.324 2198.14 270.254L2197.36 271.994C2196.4 274.155 2196 276.522 2196.19 278.879L2198.18 304.124C2198.25 305.026 2198.76 305.835 2199.54 306.291V306.291C2200.09 306.611 2200.74 306.732 2201.37 306.632L2205.92 305.908C2213.38 304.721 2218.93 298.38 2219.12 290.829L2219.51 275.073Z" fill="#F3CEB9"/>
<path d="M2681.59 644.182C2688.86 674.292 2732.94 670.079 2734.38 639.136L2741.07 495.425C2741.64 483.086 2726.17 477.134 2718.32 486.68V486.68C2717.1 488.167 2716.23 489.91 2715.77 491.779L2681.61 631.529C2680.59 635.685 2680.58 640.024 2681.59 644.182V644.182Z" fill="#F3CEB9"/>
<path d="M2681.35 460.396C2696.61 449.358 2709.53 479.064 2718.09 472.878C2730.16 489.581 2721.88 508.124 2715.74 524.579C2700.47 535.617 2718.58 504.964 2706.51 488.261C2694.43 471.557 2666.08 471.434 2681.35 460.396Z" fill="#F3CEB9"/>
<path d="M2716.2 402.715C2730.6 409.065 2715.26 451.899 2723.33 455.458C2716.38 471.217 2724.83 486.841 2710.37 489.357C2695.97 483.007 2700.4 469.357 2707.35 453.598C2714.3 437.839 2701.79 396.365 2716.2 402.715Z" fill="#F3CEB9"/>
<path d="M2732.19 407.995C2745.65 415.548 2726.65 455.904 2734.19 460.137C2725.93 474.862 2732.7 490.904 2718.36 491.998C2704.9 484.445 2710.51 471.542 2718.77 456.818C2727.04 442.093 2718.74 400.442 2732.19 407.995Z" fill="#F3CEB9"/>
<path d="M2745.98 411.623C2756.56 418.481 2731.9 446.598 2748.03 461.786C2740.53 473.359 2742.08 479.237 2730.33 479.381C2719.75 472.523 2724.99 462.297 2732.5 450.724C2740 439.151 2735.41 404.765 2745.98 411.623Z" fill="#F3CEB9"/>
<path d="M2750.49 429.584C2756.32 435.562 2747.57 473.781 2746.24 483.315C2739.7 489.692 2742.43 480.96 2734.81 479.333C2728.99 473.355 2731.56 466.163 2740.41 461.141C2746.95 454.764 2744.66 423.607 2750.49 429.584Z" fill="#F3CEB9"/>
<path d="M2349.24 604C2387.66 628.47 2382.92 647.141 2391.73 688.624" stroke="black" stroke-width="44.8522"/>
<path d="M2718.41 467.566C2719.11 459.41 2726.52 453.514 2734.62 454.653V454.653C2740.07 455.417 2744.59 459.239 2746.25 464.48L2746.99 466.801C2747.9 469.683 2748.08 472.747 2747.51 475.716L2741.38 507.505C2741.17 508.64 2740.4 509.596 2739.35 510.064V510.064C2738.6 510.394 2737.77 510.455 2736.98 510.239L2731.3 508.673C2721.99 506.106 2715.84 497.261 2716.67 487.64L2718.41 467.566Z" fill="#F3CEB9"/>
<path d="M2335.33 374.052C2320.92 382.595 2344.35 387.985 2335.33 397.85" stroke="black" stroke-width="0.991588"/>
<path d="M2577.58 342.852C2591.99 351.395 2568.57 356.785 2577.58 366.65" stroke="black" stroke-width="0.991588"/>
<path d="M2349.6 330.351C2306.07 431.755 2448.69 525.306 2384.73 622.977C2407.69 525.468 2292.72 418.69 2336.25 317.286C2379.77 215.882 2414.51 198.496 2489.74 230.787C2564.98 263.077 2393.12 228.947 2349.6 330.351Z" fill="#F7E2BE"/>
<path d="M2373.24 322.787C2329.72 424.191 2497.97 692.008 2350.86 660.161C2373.82 562.652 2289.14 399.139 2332.67 297.735C2376.19 196.331 2425.01 211.496 2500.24 243.787C2575.48 276.078 2400.24 274.287 2373.24 322.787Z" fill="#F7E2BE"/>
<path d="M2469.17 523.137C2459.93 528.735 2448.35 528.735 2439.11 523.137L2369.88 481.186C2344.79 465.977 2355.57 427.385 2384.91 427.385L2523.36 427.385C2552.71 427.385 2563.49 465.977 2538.39 481.186L2469.17 523.137Z" fill="#F3CEB9"/>
<path d="M2374.68 437.543C2359.8 582.81 2392.31 593.221 2403.53 589.242C2384.43 596.017 2354.22 611.016 2337.99 408.787C2347.41 281.863 2353.23 301.965 2372.33 295.19C2391.42 288.415 2374.68 341.358 2374.68 437.543Z" fill="#F7E2BE"/>
<path d="M2539.91 338.389C2583.43 439.793 2416.6 697.956 2563.71 666.109C2540.74 568.6 2622.77 439.794 2579.24 338.39C2535.72 236.986 2484.66 167.735 2409.42 200.026C2334.19 232.317 2496.39 236.985 2539.91 338.389Z" fill="#F7E2BE"/>
<path d="M2363.41 294.762C2344.48 350.22 2447.05 668.116 2314.94 659.189C2380.04 595.213 2274.11 337.399 2376.25 294.76C2395.17 239.302 2314.86 300.721 2336.63 308.148C2358.4 315.575 2382.33 239.304 2363.41 294.762Z" fill="#F7E2BE"/>
<path d="M2371.83 572.901C2276.18 531.366 2429.03 368.857 2334.15 321.037" stroke="#F7E2BE" stroke-width="29.7476"/>
<path d="M2492.81 459.538C2492.81 457.074 2469.63 459.538 2455.52 459.538C2441.4 459.538 2414.97 455.174 2414.97 457.639C2414.97 460.103 2441.4 469.35 2455.52 469.35C2469.63 469.35 2492.81 462.002 2492.81 459.538Z" fill="white"/>
<path d="M2492.32 458.372C2492.32 455.907 2468.64 456.884 2454.53 456.884C2440.41 456.884 2416.46 455.907 2416.46 458.372C2416.46 460.836 2440.41 479.691 2454.53 479.691C2468.64 479.691 2492.32 460.836 2492.32 458.372Z" fill="white"/>
<path d="M2494.79 458.167C2494.79 460.631 2471.39 484.154 2454.14 484.154C2436.89 484.154 2412 458.769 2412 456.305C2412 453.841 2436.89 478.204 2454.14 478.204C2471.39 478.204 2494.79 455.703 2494.79 458.167Z" fill="#DE4C66"/>
<path d="M2496.28 458.784C2496.28 456.319 2471.99 448.372 2454.63 453.826C2440.26 449.364 2412 453.84 2412 456.305C2412 458.769 2437.38 458.784 2454.63 458.784C2471.88 458.784 2496.28 461.248 2496.28 458.784Z" fill="#DE4C66"/>
<path d="M2443.23 361.692C2443.23 369.086 2430.31 357.726 2414.97 357.726C2399.64 357.726 2394.64 361.692 2387.21 367.146C2387.21 359.753 2399.64 353.76 2414.97 353.76C2430.31 353.76 2443.23 354.299 2443.23 361.692Z" fill="#C4B397"/>
<path d="M2472.98 362.188C2472.98 369.581 2486.9 359.709 2502.23 359.709C2517.56 359.709 2522.56 363.675 2529.99 369.129C2529.99 361.736 2517.56 355.743 2502.23 355.743C2486.9 355.743 2472.98 354.795 2472.98 362.188Z" fill="#C4B397"/>
<path d="M2441.66 418.125C2426.29 430.52 2437.97 435.192 2445.24 431.287" stroke="black" stroke-width="0.991588"/>
<path d="M2463.65 418.152C2479.02 430.547 2468.52 435.192 2461.25 431.287" stroke="black" stroke-width="0.991588"/>
<ellipse cx="2442.22" cy="430.778" rx="2.97476" ry="0.991588" fill="black"/>
<ellipse cx="2464.22" cy="430.778" rx="2.97476" ry="0.991588" fill="black"/>
<path d="M2481.58 383.351C2487.37 385.685 2489.96 387.013 2499.74 385.787C2509.53 384.561 2517.64 384.04 2517 378.911C2509.86 374.865 2507.9 370.619 2498.12 371.845C2488.34 373.071 2488.2 378.254 2481.58 383.351Z" fill="white"/>
<circle cx="2500.19" cy="378.728" r="6.94112" fill="url(#paint0_radial_331_5155)"/>
<path d="M2481.58 383.351C2487.37 385.685 2488.34 376.8 2498.12 375.575C2507.9 374.349 2517.64 384.04 2517 378.911C2509.86 374.865 2507.9 370.619 2498.12 371.845C2488.34 373.071 2488.2 378.254 2481.58 383.351Z" fill="black"/>
<line y1="-0.495794" x2="2.80464" y2="-0.495794" transform="matrix(-0.707107 0.707107 0.707107 0.707107 2518.09 376.578)" stroke="black" stroke-width="0.991588"/>
<line y1="-0.495794" x2="3.61909" y2="-0.495794" transform="matrix(-0.434988 0.900436 0.900436 0.434988 2516.11 373.603)" stroke="black" stroke-width="0.991588"/>
<line y1="-0.495794" x2="4.54573" y2="-0.495794" transform="matrix(-0.277733 0.960658 0.960658 0.277733 2514.13 371.62)" stroke="black" stroke-width="0.991588"/>
<line y1="-0.495794" x2="4.54573" y2="-0.495794" transform="matrix(-0.277733 0.960658 0.960658 0.277733 2512.15 370.628)" stroke="black" stroke-width="0.991588"/>
<line y1="-0.495794" x2="4.54573" y2="-0.495794" transform="matrix(-0.117864 0.99303 0.99303 0.117864 2509.17 369.637)" stroke="black" stroke-width="0.991588"/>
<line y1="-0.495794" x2="4.54573" y2="-0.495794" transform="matrix(-0.117864 0.99303 0.99303 0.117864 2507.19 368.646)" stroke="black" stroke-width="0.991588"/>
<line y1="-0.495794" x2="4.54573" y2="-0.495794" transform="matrix(-0.0583328 0.998297 0.998297 0.0583328 2505.07 367.642)" stroke="black" stroke-width="0.991588"/>
<line y1="-0.495794" x2="4.54573" y2="-0.495794" transform="matrix(0.0862174 0.996276 0.996276 -0.0862174 2501.9 367.658)" stroke="black" stroke-width="0.991588"/>
<line y1="-0.495794" x2="4.54573" y2="-0.495794" transform="matrix(0.0862174 0.996276 0.996276 -0.0862174 2498.86 367.654)" stroke="black" stroke-width="0.991588"/>
<line y1="-0.495794" x2="4.54573" y2="-0.495794" transform="matrix(0.0862174 0.996276 0.996276 -0.0862174 2495.89 367.654)" stroke="black" stroke-width="0.991588"/>
<line y1="-0.495794" x2="3.53027" y2="-0.495794" transform="matrix(0.280893 0.959739 0.959739 -0.280893 2490.33 371.62)" stroke="black" stroke-width="0.991588"/>
<line y1="-0.495794" x2="2.40316" y2="-0.495794" transform="matrix(0.412705 0.910865 0.910865 -0.412705 2488.35 374.595)" stroke="black" stroke-width="0.991588"/>
<line y1="-0.495794" x2="1.84357" y2="-0.495794" transform="matrix(0.537986 0.842954 0.842954 -0.537986 2486.36 376.578)" stroke="black" stroke-width="0.991588"/>
<line y1="-0.495794" x2="1.54572" y2="-0.495794" transform="matrix(0.448643 0.893711 0.893711 -0.448643 2483.39 380.544)" stroke="black" stroke-width="0.991588"/>
<line y1="-0.495794" x2="1.84357" y2="-0.495794" transform="matrix(0.537986 0.842954 0.842954 -0.537986 2484.38 378.561)" stroke="black" stroke-width="0.991588"/>
<line y1="-0.495794" x2="4.54573" y2="-0.495794" transform="matrix(0.177956 0.984038 0.984038 -0.177956 2492.5 369.637)" stroke="black" stroke-width="0.991588"/>
<path d="M2428.76 381.496C2422.97 383.83 2420.37 385.158 2410.59 383.932C2400.81 382.706 2392.7 382.185 2393.34 377.056C2400.48 373.01 2402.43 368.764 2412.21 369.99C2422 371.216 2422.14 376.399 2428.76 381.496Z" fill="white"/>
<circle r="6.94112" transform="matrix(-1 0 0 1 2410.15 376.873)" fill="url(#paint1_radial_331_5155)"/>
<path d="M2428.76 381.496C2422.97 383.83 2422 374.946 2412.21 373.72C2402.43 372.494 2392.7 382.185 2393.34 377.056C2400.48 373.01 2402.43 368.764 2412.21 369.99C2422 371.216 2422.14 376.399 2428.76 381.496Z" fill="black"/>
<line x1="2392.6" y1="374.373" x2="2394.58" y2="376.356" stroke="black" stroke-width="0.991588"/>
<line x1="2394.67" y1="371.532" x2="2396.25" y2="374.791" stroke="black" stroke-width="0.991588"/>
<line x1="2396.69" y1="369.627" x2="2397.95" y2="373.994" stroke="black" stroke-width="0.991588"/>
<line x1="2398.67" y1="368.636" x2="2399.93" y2="373.003" stroke="black" stroke-width="0.991588"/>
<line x1="2401.66" y1="367.723" x2="2402.2" y2="372.237" stroke="black" stroke-width="0.991588"/>
<line x1="2403.64" y1="366.732" x2="2404.18" y2="371.246" stroke="black" stroke-width="0.991588"/>
<line x1="2405.76" y1="365.758" x2="2406.03" y2="370.296" stroke="black" stroke-width="0.991588"/>
<line x1="2408.93" y1="365.846" x2="2408.54" y2="370.375" stroke="black" stroke-width="0.991588"/>
<line x1="2411.97" y1="365.842" x2="2411.58" y2="370.37" stroke="black" stroke-width="0.991588"/>
<line x1="2414.94" y1="365.842" x2="2414.55" y2="370.37" stroke="black" stroke-width="0.991588"/>
<line x1="2420.48" y1="369.904" x2="2419.49" y2="373.293" stroke="black" stroke-width="0.991588"/>
<line x1="2422.44" y1="372.944" x2="2421.45" y2="375.133" stroke="black" stroke-width="0.991588"/>
<line x1="2424.39" y1="374.99" x2="2423.4" y2="376.544" stroke="black" stroke-width="0.991588"/>
<line x1="2427.39" y1="378.912" x2="2426.7" y2="380.293" stroke="black" stroke-width="0.991588"/>
<line x1="2426.37" y1="376.973" x2="2425.38" y2="378.527" stroke="black" stroke-width="0.991588"/>
<line x1="2418.33" y1="367.87" x2="2417.52" y2="372.343" stroke="black" stroke-width="0.991588"/>
<path d="M2412.49 456.389C2410.42 455.897 2409.16 455.009 2408.21 453.91" stroke="black" stroke-width="0.991588"/>
<path d="M2407.25 456.123C2408.05 454.143 2409.11 453.028 2410.34 452.253" stroke="black" stroke-width="0.991588"/>
<path d="M2493.44 459.364C2495.51 458.872 2496.77 457.983 2497.72 456.885" stroke="black" stroke-width="0.991588"/>
<path d="M2498.68 459.098C2497.88 457.118 2496.82 456.004 2495.59 455.228" stroke="black" stroke-width="0.991588"/>
<g filter="url(#filter4_f_331_5155)">
<ellipse cx="2505.79" cy="420.692" rx="13.8822" ry="14.378" fill="#E99985"/>
</g>
<g filter="url(#filter5_f_331_5155)">
<ellipse cx="2406.63" cy="419.7" rx="13.8822" ry="14.378" fill="#E99985"/>
</g>
<path d="M2445.24 431.287C2451.11 438.14 2454.6 437.764 2461.24 431.287" stroke="black"/>
<rect x="2182.25" y="277.834" width="75.1991" height="28.0094" rx="10" transform="rotate(-30.2068 2182.25 277.834)" fill="#EE8B17"/>
<rect x="2150.93" y="285.279" width="39.5729" height="46.871" rx="10" transform="rotate(-30.2068 2150.93 285.279)" fill="black"/>
<rect x="2211.25" y="209.466" width="36.3577" height="76" rx="11" transform="rotate(-30.5237 2211.25 209.466)" fill="#EE8B17"/>
<rect x="2198.25" y="181.044" width="29.6199" height="37.1275" rx="11" transform="rotate(-30.5237 2198.25 181.044)" fill="#ACACAC"/>
<rect x="2197.25" y="154.196" width="4.32441" height="37.1275" rx="2.1622" transform="rotate(-30.5237 2197.25 154.196)" fill="#ACACAC"/>
<path d="M2225.36 248.626C2230.32 248.213 2236 243.86 2236.33 247.712C2236.65 251.565 2232.89 255.023 2227.94 255.436C2222.98 255.849 2218.57 254.853 2218.25 251C2217.92 247.147 2220.41 249.039 2225.36 248.626Z" fill="#F3CEB9"/>
<path d="M2217.36 254.626C2222.32 254.213 2228 249.86 2228.33 253.712C2228.65 257.565 2224.89 261.023 2219.94 261.436C2214.99 261.849 2210.71 259.06 2210.39 255.208C2210.07 251.355 2212.41 255.039 2217.36 254.626Z" fill="#F3CEB9"/>
<path d="M2211.36 257.626C2216.32 257.213 2222 252.86 2222.33 256.712C2222.65 260.565 2218.89 264.023 2213.94 264.436C2208.99 264.849 2204.71 262.06 2204.39 258.208C2204.07 254.355 2206.41 258.039 2211.36 257.626Z" fill="#F3CEB9"/>
<path d="M2205.36 261.626C2210.32 261.213 2216 256.86 2216.33 260.712C2216.65 264.565 2212.89 268.023 2207.94 268.436C2202.99 268.849 2198.71 266.06 2198.39 262.208C2198.07 258.355 2200.41 262.039 2205.36 261.626Z" fill="#F3CEB9"/>
<path d="M2239.13 266.978C2242.81 270.319 2249.88 271.51 2247.28 274.372C2244.68 277.234 2239.59 276.846 2235.91 273.505C2232.23 270.163 2231.35 265.134 2233.95 262.272C2236.55 259.41 2235.45 263.636 2239.13 266.978Z" fill="#F3CEB9"/>
<path d="M3292 1560.23C3292 1593.95 3293.84 1621.29 3333.67 1621.29C3373.5 1621.29 3459 1655 3459 1621.29C3459 1587.57 3400.33 1555.27 3360.5 1555.27C3320.67 1555.27 3292 1526.51 3292 1560.23Z" fill="#C4C4C4"/>
<path d="M3298.59 1545.14C3298.59 1560.6 3290.97 1605.64 3309.09 1605.64C3327.22 1605.64 3484.59 1651.14 3456.09 1605.64C3206.59 1628.14 3390.63 1548.27 3372.5 1548.27C3354.37 1548.27 3298.59 1529.69 3298.59 1545.14Z" fill="black"/>
<path d="M3261 1556.05C3261 1589.77 3259.16 1617.11 3219.33 1617.11C3179.5 1617.11 3094 1650.83 3094 1617.11C3094 1583.39 3148.17 1550.59 3188 1550.59C3227.83 1550.59 3261 1522.33 3261 1556.05Z" fill="#C4C4C4"/>
<path d="M3254.94 1540.96C3254.94 1556.42 3262.57 1601.46 3244.44 1601.46C3226.31 1601.46 3068.94 1646.96 3097.44 1601.46C3346.94 1623.96 3170.37 1551.09 3188.5 1551.09C3206.63 1551.09 3254.94 1525.51 3254.94 1540.96Z" fill="black"/>
<path d="M3080 997H3469L3403.5 1563H3144L3080 997Z" fill="#617483"/>
<path d="M3057 551C3057 475.889 3117.89 415 3193 415H3343C3418.11 415 3479 475.889 3479 551V1023C3315.61 1074.1 3223.35 1079.6 3057 1023V551Z" fill="#C4C4C4"/>
<line x1="3276" y1="1554.94" x2="3282" y2="1080.94" stroke="black" stroke-opacity="0.03" stroke-width="10"/>
<path d="M3334.73 363.649C3334.73 441.328 3374.09 468 3269.64 468C3165.19 468 3193.5 441.328 3193.5 363.649C3193.5 285.971 3165.19 223 3269.64 223C3374.09 223 3334.73 285.971 3334.73 363.649Z" fill="#B38B74"/>
<path d="M3378.13 212.825C3351.3 327.5 3333.8 344 3269.46 344C3205.11 344 3179.13 315.5 3152.96 212.825C3118.13 107 3205.11 50 3269.46 50C3333.8 50 3407.8 113 3378.13 212.825Z" fill="#B38B74"/>
<path d="M3170.4 193.832C3170.4 208.099 3174.33 240 3162.07 240C3149.81 240 3126 208.099 3126 193.832C3126 179.565 3135.94 168 3148.2 168C3160.46 168 3170.4 179.565 3170.4 193.832Z" fill="#B38B74"/>
<path d="M3360.6 193.832C3360.6 208.099 3356.67 240 3368.93 240C3381.19 240 3405 208.099 3405 193.832C3405 179.565 3395.06 168 3382.8 168C3370.54 168 3360.6 179.565 3360.6 193.832Z" fill="#B38B74"/>
<path d="M3360.6 193.832C3360.6 208.099 3356.67 240 3368.93 240C3381.19 240 3405 208.099 3405 193.832C3405 179.565 3395.06 168 3382.8 168C3370.54 168 3360.6 179.565 3360.6 193.832Z" fill="#B38B74"/>
<path d="M3316.5 264.979C3316.5 273.373 3311.27 281.305 3302.11 287.258C3292.98 293.196 3280.22 296.951 3266 296.951C3251.78 296.951 3239.02 293.196 3229.89 287.258C3220.73 281.305 3215.5 273.373 3215.5 264.979C3215.5 262.812 3215.85 261.548 3216.25 260.829C3216.6 260.216 3217.06 259.869 3217.8 259.672C3218.66 259.447 3219.9 259.427 3221.66 259.706C3223.4 259.98 3225.44 260.511 3227.81 261.22C3229.41 261.7 3231.14 262.257 3232.98 262.851C3241.89 265.72 3253.48 269.451 3266 269.451C3278.52 269.451 3290.11 265.72 3299.02 262.851C3300.86 262.257 3302.59 261.7 3304.19 261.22C3306.56 260.511 3308.6 259.98 3310.34 259.706C3312.1 259.427 3313.34 259.447 3314.2 259.672C3314.94 259.869 3315.4 260.216 3315.75 260.829C3316.15 261.548 3316.5 262.812 3316.5 264.979Z" fill="white" stroke="#D99584" stroke-width="5"/>
<path d="M3259.36 217.115C3264.28 216.296 3254.73 224.984 3248.22 224.984C3239.69 224.984 3234.45 222.361 3236.41 217.771C3236.41 213.787 3241.7 210.558 3248.22 210.558C3254.73 210.558 3263.3 216.459 3259.36 217.115Z" fill="#C39C86"/>
<path d="M3275.8 217.115C3270.89 216.296 3280.43 224.984 3286.95 224.984C3295.47 224.984 3300.72 222.361 3298.75 217.771C3298.75 213.787 3293.46 210.558 3286.95 210.558C3280.43 210.558 3271.86 216.459 3275.8 217.115Z" fill="#C39C86"/>
<path d="M3182.75 159.753H3258.38V182.712C3258.38 203.283 3241.7 219.959 3221.13 219.959H3220C3199.43 219.959 3182.75 203.283 3182.75 182.712V159.753Z" stroke="black" stroke-width="5.50658"/>
<path d="M3277.47 159.753H3353.09V182.712C3353.09 203.283 3336.41 219.959 3315.84 219.959H3314.71C3294.14 219.959 3277.47 203.283 3277.47 182.712V159.753Z" stroke="black" stroke-width="5.50658"/>
<path d="M3280 185C3280 183.949 3279.69 182.909 3279.09 181.939C3278.48 180.968 3277.6 180.086 3276.49 179.343C3275.37 178.6 3274.05 178.011 3272.59 177.609C3271.14 177.207 3269.58 177 3268 177C3266.42 177 3264.86 177.207 3263.41 177.609C3261.95 178.011 3260.63 178.6 3259.51 179.343C3258.4 180.086 3257.52 180.968 3256.91 181.939C3256.31 182.909 3256 183.949 3256 185L3259.51 193.5C3259.51 193.145 3264.05 184.294 3264.26 183.967C3264.46 183.639 3264.76 183.341 3265.14 183.09C3265.51 182.84 3265.96 182.641 3266.45 182.505C3266.94 182.369 3267.47 182.299 3268 182.299C3268.53 182.299 3269.06 182.369 3269.55 182.505C3270.04 182.641 3270.49 182.84 3270.86 183.09C3271.24 183.341 3271.54 183.639 3271.74 183.967C3271.95 184.294 3276.49 193.145 3276.49 193.5L3280 185Z" fill="black"/>
<rect x="3261" y="157" width="14" height="23" fill="black"/>
<path d="M3145.85 190C3131.32 198.615 3154.94 204.051 3145.85 214" stroke="black"/>
<path d="M3387.15 190C3401.68 198.615 3378.06 204.051 3387.15 214" stroke="black"/>
<ellipse cx="3268.54" cy="218.426" rx="24.2618" ry="14.4259" fill="#CFA68F"/>
<path d="M3318.18 270.001C3318.18 280.495 3296 310.001 3266.18 310.001C3236.35 310.001 3213.68 276.994 3213.68 266.5C3213.68 256.007 3236.35 293.103 3266.18 293.103C3296 293.103 3318.18 259.508 3318.18 270.001Z" fill="#D99584"/>
<path d="M3240 170.419C3240 175.86 3227.58 168.243 3215.28 168.243C3202.97 168.243 3193 176.601 3193 171.16C3193 165.719 3202.97 164 3215.28 164C3227.58 164 3240 164.979 3240 170.419Z" fill="black"/>
<path d="M3340 172.123C3340 177.898 3327.56 168.503 3316.33 168.503C3305.1 168.503 3296 176.326 3296 170.551C3296 164.777 3305.1 164 3316.33 164C3327.56 164 3340 166.349 3340 172.123Z" fill="black"/>
<path d="M3176 225.5C3176 252.01 3183.73 267 3176 267C3168.27 267 3151.22 237.01 3151.22 210.5C3151.22 183.991 3137 138.252 3151.22 128.5C3176 111.5 3176 198.991 3176 225.5Z" fill="black"/>
<path d="M3355.44 227.982C3355.44 254.492 3347.7 269.482 3355.44 269.482C3363.17 269.482 3380.22 239.492 3380.22 212.982C3380.22 186.473 3394.44 142.752 3380.22 133C3355.44 116 3355.44 201.473 3355.44 227.982Z" fill="black"/>
<path d="M3152 80C3152 35.8172 3187.82 0 3232 0H3298C3342.18 0 3378 35.8172 3378 80V140H3152V80Z" fill="#D6C2A2"/>
<path d="M3145 140C3145 117.909 3162.91 100 3185 100H3345C3367.09 100 3385 117.909 3385 140V140H3145V140Z" fill="#836B3D"/>
<path d="M3372 298.783C3372 353.579 3325.44 398 3268 398C3210.56 398 3164 353.579 3164 298.783C3164 94.041 3210.56 328.631 3268 328.631C3325.44 328.631 3372 91.9389 3372 298.783Z" fill="url(#paint2_linear_331_5155)"/>
<path d="M3337 252.5C3337 263.27 3306.78 250 3269.5 250C3232.22 250 3202 263.27 3202 252.5C3202 241.73 3232.22 233 3269.5 233C3306.78 233 3337 241.73 3337 252.5Z" fill="black"/>
<rect x="3223.5" y="28.5" width="83" height="50" rx="7.5" fill="#E5E5E5" stroke="#79643D"/>
<ellipse cx="3218" cy="186.5" rx="21" ry="13.5" fill="white"/>
<ellipse cx="3218" cy="186.5" rx="21" ry="13.5" fill="white"/>
<ellipse cx="3318" cy="185.5" rx="21" ry="13.5" fill="white"/>
<circle cx="3218.5" cy="186.5" r="9.5" fill="#C4C4C4"/>
<circle cx="3218.5" cy="186.5" r="9.5" fill="#413026"/>
<path d="M3535.84 536.475C3536.49 484.692 3497.51 440.973 3445.99 435.718L3360.5 427L3422 720H3533.5L3535.84 536.475Z" fill="#C4C4C4"/>
<circle cx="3316.5" cy="186.5" r="9.5" fill="#413026"/>
<path d="M3339.5 568.5H3423.5V649C3423.5 659.77 3414.77 668.5 3404 668.5H3359C3348.23 668.5 3339.5 659.77 3339.5 649V568.5Z" stroke="#939191"/>
<path d="M3001.27 539.713C3000.54 489.957 3036.51 447.236 3085.66 439.475L3190 423L3115 728L3004 726.5L3001.27 539.713Z" fill="#C4C4C4"/>
<path d="M3135 161H3180V172C3162.35 165.813 3152.48 166.182 3135 172V161Z" fill="black"/>
<path d="M3350 160H3395V171C3377.35 164.813 3367.48 165.182 3350 171V160Z" fill="black"/>
<path d="M3153.87 642.83C3153.39 631.468 3162.48 622 3173.85 622H3373.99C3385.42 622 3394.53 631.569 3393.96 642.989L3380.44 915.989C3379.91 926.637 3371.13 935 3360.47 935H3185.19C3174.46 935 3165.65 926.544 3165.2 915.83L3153.87 642.83Z" fill="#B9A689"/>
<path d="M3145.47 785.55C3161.69 787.483 3172.96 802.625 3170.17 818.714V818.714C3168.29 829.52 3160.38 838.289 3149.82 841.261L3145.15 842.577C3139.34 844.212 3133.22 844.37 3127.34 843.037L3064.36 828.77C3062.11 828.26 3060.25 826.681 3059.39 824.543V824.543C3058.78 823.037 3058.71 821.367 3059.19 819.816L3062.68 808.597C3068.4 790.202 3086.43 778.51 3105.56 780.791L3145.47 785.55Z" fill="#B38B74"/>
<path d="M3160.99 737.24C3178.25 765.374 3124.64 784.011 3134.31 799.779C3103.53 818.669 3075.25 795.95 3047.31 783.041C3030.05 754.908 3078.18 796.397 3108.97 777.507C3139.75 758.617 3143.72 709.107 3160.99 737.24Z" fill="#B38B74"/>
<path d="M3257.15 805.774C3244.15 830.097 3171.34 797.625 3164.05 811.256C3137.44 797.028 3109.02 809.719 3106.54 784.124C3119.54 759.802 3142.81 769.353 3169.42 783.582C3196.03 797.81 3270.15 781.452 3257.15 805.774Z" fill="#B38B74"/>
<path d="M3245.8 833.029C3230.82 855.54 3162.83 816.997 3154.44 829.613C3129.8 813.222 3100.88 822.931 3100.87 797.721C3115.85 775.21 3137.65 786.721 3162.28 803.112C3186.91 819.503 3260.78 810.518 3245.8 833.029Z" fill="#B38B74"/>
<path d="M3237.64 856.638C3224.26 874.209 3175.67 827.328 3147 853.5C3127.77 838.855 3120.02 840.858 3121.33 820.306C3134.71 802.736 3151.88 813.255 3171.11 827.899C3190.34 842.544 3251.02 839.067 3237.64 856.638Z" fill="#B38B74"/>
<path d="M3205.66 862.131C3194.44 871.521 3141.63 853.183 3125.15 849.601C3114.87 837.327 3116.97 841.233 3120.82 828.149C3132.03 818.759 3144.26 824.207 3151.86 840.34C3162.14 852.613 3216.88 852.741 3205.66 862.131Z" fill="#B38B74"/>
<path d="M3143.55 801.049C3157.71 803.36 3167.03 817.076 3163.96 831.09V831.09C3161.91 840.502 3154.63 847.897 3145.25 850.105L3141.1 851.083C3135.94 852.297 3130.57 852.204 3125.46 850.811L3070.72 835.902C3068.77 835.369 3067.2 833.913 3066.52 832.004V832.004C3066.05 830.659 3066.05 829.191 3066.53 827.848L3070.02 818.135C3075.74 802.209 3092.01 792.632 3108.71 795.359L3143.55 801.049Z" fill="#B38B74"/>
<path d="M3388.11 739.795C3370.85 767.929 3424.46 786.566 3414.79 802.333C3445.57 821.223 3473.85 798.505 3501.79 785.596C3519.05 757.462 3470.91 798.952 3440.13 780.062C3409.35 761.172 3405.38 711.661 3388.11 739.795Z" fill="#B38B74"/>
<path d="M3291.95 808.328C3304.95 832.651 3377.76 800.179 3385.05 813.811C3411.66 799.582 3440.08 812.273 3442.56 786.678C3429.55 762.356 3406.29 771.907 3379.68 786.136C3353.07 800.364 3278.95 784.006 3291.95 808.328Z" fill="#B38B74"/>
<path d="M3303.29 835.584C3318.27 858.095 3386.27 819.551 3394.66 832.168C3419.29 815.777 3448.22 825.486 3448.23 800.275C3433.25 777.764 3411.45 789.275 3386.82 805.666C3362.19 822.057 3288.32 813.073 3303.29 835.584Z" fill="#B38B74"/>
<path d="M3311.46 859.192C3324.84 876.763 3377.83 827.827 3406.5 854C3425.73 839.355 3429.08 843.412 3427.77 822.861C3414.39 805.29 3397.22 815.809 3377.99 830.454C3358.76 845.098 3298.08 841.621 3311.46 859.192Z" fill="#B38B74"/>
<path d="M3343.44 864.686C3354.66 874.076 3407.47 855.738 3423.95 852.155C3434.22 839.882 3432.13 843.788 3428.28 830.704C3417.07 821.313 3404.84 826.762 3397.24 842.895C3386.96 855.168 3332.22 855.296 3343.44 864.686Z" fill="#B38B74"/>
<path d="M3411.52 801.235C3397.37 803.547 3388.04 817.262 3391.11 831.276V831.276C3393.16 840.688 3400.44 848.083 3409.82 850.291L3413.97 851.269C3419.13 852.483 3424.51 852.39 3429.62 850.998L3484.35 836.088C3486.3 835.556 3487.87 834.1 3488.55 832.191V832.191C3489.03 830.846 3489.02 829.377 3488.54 828.034L3485.05 818.321C3479.33 802.396 3463.07 792.818 3446.36 795.545L3411.52 801.235Z" fill="#B38B74"/>
<path d="M3536.5 689C3538 769.5 3510.93 841.5 3461.5 841.5C3412.07 841.5 3465.5 756.635 3465.5 676.002C3465.5 595.368 3453.07 638 3502.5 638C3547 638 3535 608.5 3536.5 689Z" fill="#B38B74"/>
<path d="M3000.41 684.261C2998.91 764.761 3025.98 836.762 3075.41 836.762C3124.84 836.762 3071.41 751.896 3071.41 671.263C3071.41 590.629 3083.84 633.261 3034.41 633.261C2989.91 633.261 3001.91 603.761 3000.41 684.261Z" fill="#B38B74"/>
<line x1="3204" y1="619" x2="3345" y2="619" stroke="#F2E144" stroke-width="6"/>
<path d="M3236 621.898C3267.57 612.468 3284.83 612.937 3315 621.898V637H3236V621.898Z" fill="#A09A9A"/>
<path d="M3194 618.5L3204 616V622L3194 618.5Z" fill="#DBCAAB"/>
<path d="M3194 618.5L3195.67 618.082V619.118L3194 618.5Z" fill="black"/>
<path d="M3345 616H3352C3353.11 616 3354 616.895 3354 618V620C3354 621.105 3353.11 622 3352 622H3345V616Z" fill="#ED9191"/>
<path d="M3413.38 783.303C3397.16 785.237 3385.89 800.379 3388.68 816.468V816.468C3390.56 827.274 3398.48 836.043 3409.03 839.015L3413.71 840.331C3419.51 841.965 3425.63 842.124 3431.51 840.791L3494.5 826.524C3496.75 826.014 3498.6 824.435 3499.47 822.297V822.297C3500.08 820.791 3500.14 819.121 3499.66 817.569L3496.17 806.351C3490.45 787.956 3472.42 776.264 3453.29 778.545L3413.38 783.303Z" fill="#B38B74"/>
<path d="M600.863 529.349C551.864 489.849 557.434 519.349 503.863 519.349C450.291 519.349 452.364 488.849 406.863 529.349C406.863 476.606 450.291 433.849 503.863 433.849C557.434 433.849 600.863 476.606 600.863 529.349Z" fill="#EEDDA0"/>
<path d="M515.863 1575.51C515.863 1602.37 517.334 1624.14 549.2 1624.14C581.067 1624.14 649.469 1651 649.469 1624.14C649.469 1597.28 602.532 1571.56 570.666 1571.56C538.799 1571.56 515.863 1548.65 515.863 1575.51Z" fill="white"/>
<path d="M521.233 1563.28C521.233 1575.65 515.092 1611.71 529.689 1611.71C544.285 1611.71 671.008 1648.13 648.06 1611.71C447.149 1629.72 578.856 1569.27 564.259 1569.27C549.663 1569.27 521.233 1550.91 521.233 1563.28Z" fill="#E1AAC4"/>
<path d="M475.204 1575.47C475.012 1602.33 473.386 1624.09 441.52 1623.86C409.654 1623.64 341.062 1650 341.254 1623.15C341.445 1596.29 388.565 1570.91 420.431 1571.13C452.296 1571.36 475.395 1548.62 475.204 1575.47Z" fill="white"/>
<path d="M469.918 1563.21C469.829 1575.58 475.713 1611.68 461.117 1611.57C446.521 1611.47 319.541 1646.98 342.749 1610.73C543.525 1630.17 412.254 1568.79 426.85 1568.89C441.446 1568.99 470.006 1550.84 469.918 1563.21Z" fill="#E1AAC4"/>
<path d="M387.299 1016.41L645.863 1007C645.708 1276.04 600.372 1385.78 576.537 1573.01L510.655 1576.74C446.333 1361.67 673.697 1301.23 387.299 1016.41Z" fill="#65BAC6"/>
<path d="M625.487 1017.26L368.863 980.5C356.229 1248.86 395.267 1382.78 410.156 1569.85L475.734 1574.49C550.155 1360.84 326.101 1297.43 625.487 1017.26Z" fill="#65BAC6"/>
<path d="M948.938 622.488C962.879 635.158 936.462 653.909 944.275 661.01C930.412 676.263 910.562 671.968 893.196 669.341C879.256 656.671 912.977 668.092 926.841 652.838C940.704 637.585 934.998 609.818 948.938 622.488Z" fill="#F3CEB9"/>
<path d="M1012.55 644.736C1009.3 660.136 964.226 653.932 962.402 662.563C945.551 659.002 931.997 670.482 926.563 656.85C929.817 641.45 944.086 642.981 960.937 646.541C977.788 650.102 1015.81 629.336 1012.55 644.736Z" fill="#F3CEB9"/>
<path d="M1010.67 661.479C1006.05 676.202 962.648 665.903 960.056 674.154C943.947 669.093 929.639 679.019 925.619 665.205C930.245 650.483 944.025 653.32 960.134 658.381C976.244 663.443 1015.3 646.757 1010.67 661.479Z" fill="#F3CEB9"/>
<path d="M1009.96 675.717C1005.42 687.478 972.834 669.126 961.287 688.035C948.419 683.07 942.986 685.795 940.428 674.324C944.966 662.564 956.052 665.595 968.92 670.56C981.789 675.524 1014.5 663.956 1009.96 675.717Z" fill="#F3CEB9"/>
<path d="M993.306 683.823C988.654 690.755 949.453 690.045 939.849 690.706C932.264 685.616 941.37 686.491 941.397 678.707C946.05 671.775 953.617 672.815 960.352 680.446C967.937 685.536 997.958 676.891 993.306 683.823Z" fill="#F3CEB9"/>
<path d="M949.54 660.232C957.667 659.245 964.959 665.278 965.511 673.446V673.446C965.882 678.932 963.072 684.143 958.284 686.846L956.164 688.043C953.532 689.53 950.57 690.335 947.547 690.385L915.178 690.928C914.022 690.948 912.929 690.399 912.254 689.461V689.461C911.779 688.8 911.547 687.995 911.597 687.182L911.962 681.303C912.561 671.665 919.952 663.826 929.539 662.661L949.54 660.232Z" fill="#F3CEB9"/>
<path d="M350.664 652.201C346.819 593.46 392.675 542.849 451.542 542.849H557.228C613.475 542.849 658.642 589.24 656.61 645.45C649.915 830.63 641.401 980.037 659.863 1061.94C539.111 1082.9 469.553 1083.41 341.863 1061.94C356.951 897.697 359.818 792.059 350.664 652.201Z" fill="#848484"/>
<path d="M131.996 914.622C116.687 925.6 103.885 895.842 95.3049 901.995C83.2929 885.244 91.6504 866.735 97.8558 850.304C113.164 839.326 94.9343 869.907 106.946 886.658C118.958 903.409 147.304 903.644 131.996 914.622Z" fill="#F3CEB9"/>
<path d="M96.9178 972.165C82.5407 965.758 98.0468 922.985 89.9891 919.394C96.9998 903.663 88.6134 888.005 103.081 885.546C117.458 891.954 112.973 905.586 105.962 921.317C98.9513 937.049 111.295 978.572 96.9178 972.165Z" fill="#F3CEB9"/>
<path d="M80.9413 966.822C67.5144 959.215 86.6736 918.935 79.1484 914.672C87.4713 899.98 80.7614 883.911 95.1117 882.874C108.539 890.48 102.878 903.361 94.5549 918.053C86.2321 932.744 94.3681 974.428 80.9413 966.822Z" fill="#F3CEB9"/>
<path d="M67.1668 963.139C56.6174 956.239 81.3862 928.219 65.315 912.968C72.8649 901.425 71.3381 895.541 83.0904 895.443C93.6398 902.343 88.3543 912.548 80.8045 924.092C73.2546 935.635 77.7162 970.039 67.1668 963.139Z" fill="#F3CEB9"/>
<path d="M62.7302 945.16C56.9261 939.159 65.8302 900.976 67.1952 891.447C73.7614 885.096 70.9984 893.817 78.6038 895.474C84.4079 901.475 81.8064 908.657 72.934 913.644C66.3678 919.995 68.5343 951.161 62.7302 945.16Z" fill="#F3CEB9"/>
<path d="M94.9634 907.305C94.2266 915.459 86.8004 921.325 78.6978 920.155V920.155C73.2561 919.369 68.7488 915.529 67.1082 910.281L66.3819 907.958C65.4798 905.072 65.3129 902.007 65.8964 899.041L72.1447 867.276C72.3678 866.142 73.1325 865.189 74.1916 864.725V864.725C74.9376 864.398 75.7736 864.34 76.5578 864.56L82.2295 866.148C91.5289 868.752 97.6462 877.621 96.777 887.239L94.9634 907.305Z" fill="#F3CEB9"/>
<path d="M547.697 546.649C547.697 580.78 575.665 615.849 501.45 615.849C427.234 615.849 447.349 580.78 447.349 546.649C447.349 512.518 423.147 485 497.363 485C571.579 485 547.697 512.518 547.697 546.649Z" fill="#F3CEB9"/>
<g filter="url(#filter6_d_331_5155)">
<path d="M521.95 535.748C508.457 545.457 490.269 545.457 476.776 535.748L450.808 517.062C420.326 495.129 435.841 447 473.394 447L525.331 447C562.884 447 578.4 495.129 547.918 517.062L521.95 535.748Z" fill="#E4CFB0"/>
</g>
<path d="M615.903 403.113C588.138 501.914 588.466 522.773 500.383 522.773C412.3 522.773 426.014 504.889 384.863 403.113C384.863 321.865 436.583 256 500.383 256C564.183 256 615.903 321.865 615.903 403.113Z" fill="#F3CEB9"/>
<path d="M521.399 540.1C508.657 547.822 492.679 547.822 479.937 540.1L450.088 522.011C415.472 501.034 430.342 447.803 470.819 447.803H530.517C570.994 447.803 585.864 501.034 551.248 522.011L521.399 540.1Z" fill="#F3CEB9"/>
<path d="M539.532 479.387C539.532 476.923 516.354 479.387 502.24 479.387C488.126 479.387 461.692 475.024 461.692 477.488C461.692 479.952 488.126 489.199 502.24 489.199C516.354 489.199 539.532 481.851 539.532 479.387Z" fill="white"/>
<path d="M539.038 478.221C539.038 475.757 515.365 476.734 501.251 476.734C487.136 476.734 463.181 475.757 463.181 478.221C463.181 480.685 487.136 499.54 501.251 499.54C515.365 499.54 539.038 480.685 539.038 478.221Z" fill="white"/>
<path d="M541.516 478.016C541.516 480.48 518.111 504.003 500.861 504.003C483.61 504.003 458.718 478.618 458.718 476.154C458.718 473.69 483.61 498.053 500.861 498.053C518.111 498.053 541.516 475.552 541.516 478.016Z" fill="#DE4C66"/>
<path d="M543.003 478.633C543.003 476.168 518.709 468.221 501.357 473.675C486.979 469.213 458.718 473.689 458.718 476.154C458.718 478.618 484.106 478.633 501.357 478.633C518.607 478.633 543.003 481.097 543.003 478.633Z" fill="#DE4C66"/>
<path d="M489.954 381.542C489.954 388.935 477.028 377.575 461.694 377.575C446.36 377.575 441.366 381.542 433.929 386.995C433.929 379.602 446.36 373.609 461.694 373.609C477.028 373.609 489.954 374.148 489.954 381.542Z" fill="#D5C1A0"/>
<path d="M519.7 382.037C519.7 389.43 533.618 379.558 548.952 379.558C564.286 379.558 569.279 383.524 576.716 388.978C576.716 381.585 564.286 375.592 548.952 375.592C533.618 375.592 519.7 374.644 519.7 382.037Z" fill="#C4B397"/>
<path d="M488.554 428.207C471.689 441.808 484.499 446.934 492.483 442.649" stroke="black" stroke-width="1.08804"/>
<path d="M512.673 428.237C529.538 441.838 518.024 446.934 510.04 442.65" stroke="black" stroke-width="1.08804"/>
<ellipse cx="489.164" cy="442.091" rx="3.26412" ry="1.08804" fill="black"/>
<ellipse cx="513.304" cy="442.091" rx="3.26412" ry="1.08804" fill="black"/>
<path d="M488.746 399.579C482.957 401.913 477.027 409.305 467.246 408.079C457.465 406.853 449.303 402.264 449.946 397.135C457.08 393.089 459.039 388.843 468.82 390.069C478.601 391.295 482.126 394.483 488.746 399.579Z" fill="white"/>
<circle r="6.94112" transform="matrix(-1 0 0 1 467.686 401.02)" fill="url(#paint3_radial_331_5155)"/>
<path d="M488.746 399.579C482.957 401.913 478.601 395.025 468.82 393.799C459.039 392.573 449.303 402.264 449.946 397.135C457.08 393.089 459.039 388.843 468.82 390.069C478.601 391.295 482.126 394.483 488.746 399.579Z" fill="#D3AC97"/>
<path d="M512.728 399.579C518.517 401.913 524.447 409.305 534.228 408.079C544.009 406.853 552.171 402.264 551.528 397.135C544.393 393.089 542.435 388.843 532.654 390.069C522.873 391.295 519.348 394.483 512.728 399.579Z" fill="white"/>
<circle cx="533.787" cy="401.02" r="6.94112" fill="url(#paint4_radial_331_5155)"/>
<path d="M512.728 399.579C518.517 401.913 522.873 395.025 532.654 393.799C542.435 392.573 552.171 402.264 551.528 397.135C544.393 393.089 542.435 388.843 532.654 390.069C522.873 391.295 519.348 394.483 512.728 399.579Z" fill="#D3AC97"/>
<path d="M459.214 476.238C457.139 475.746 455.879 474.858 454.93 473.759" stroke="black" stroke-width="0.991588"/>
<path d="M453.977 475.972C454.772 473.992 455.837 472.878 457.065 472.102" stroke="black" stroke-width="0.991588"/>
<path d="M540.162 479.213C542.237 478.721 543.497 477.833 544.446 476.734" stroke="black" stroke-width="0.991588"/>
<path d="M545.398 478.947C544.603 476.967 543.538 475.853 542.31 475.077" stroke="black" stroke-width="0.991588"/>
<g filter="url(#filter7_f_331_5155)">
<ellipse cx="552.509" cy="440.541" rx="13.8822" ry="14.378" fill="#E99985"/>
</g>
<g filter="url(#filter8_f_331_5155)">
<ellipse cx="453.348" cy="439.549" rx="13.8822" ry="14.378" fill="#E99985"/>
</g>
<path d="M492.484 442.649C498.918 450.17 502.754 449.756 510.04 442.649" stroke="black" stroke-width="1.09727"/>
<line y1="-0.495794" x2="4.54573" y2="-0.495794" transform="matrix(-0.532541 0.846404 0.846404 0.532541 553.346 393.028)" stroke="#B19585" stroke-width="0.991588"/>
<line y1="-0.495794" x2="4.54573" y2="-0.495794" transform="matrix(-0.532541 0.846404 0.846404 0.532541 551.346 392.028)" stroke="#B19585" stroke-width="0.991588"/>
<line y1="-0.495794" x2="4.54573" y2="-0.495794" transform="matrix(-0.532541 0.846404 0.846404 0.532541 549.346 390.028)" stroke="#B19585" stroke-width="0.991588"/>
<line y1="-0.495794" x2="4.54573" y2="-0.495794" transform="matrix(-0.532541 0.846404 0.846404 0.532541 547.346 389.028)" stroke="#B19585" stroke-width="0.991588"/>
<line y1="-0.495794" x2="4.54573" y2="-0.495794" transform="matrix(-0.287803 0.95769 0.95769 0.287803 543.79 386.775)" stroke="#B19585" stroke-width="0.991588"/>
<path d="M538.854 385.011L538.347 390.028" stroke="#B19585" stroke-width="0.991588"/>
<line y1="-0.495794" x2="4.54573" y2="-0.495794" transform="matrix(-0.0335096 0.999438 0.999438 0.0335096 536.346 385.028)" stroke="#B19585" stroke-width="0.991588"/>
<line y1="-0.495794" x2="4.54573" y2="-0.495794" transform="matrix(0.162202 0.986758 0.986758 -0.162202 532.901 385.057)" stroke="#B19585" stroke-width="0.991588"/>
<line y1="-0.495794" x2="4.54573" y2="-0.495794" transform="matrix(0.162202 0.986758 0.986758 -0.162202 529.609 385.028)" stroke="#B19585" stroke-width="0.991588"/>
<line y1="-0.495794" x2="4.54573" y2="-0.495794" transform="matrix(0.162202 0.986758 0.986758 -0.162202 526.609 386.028)" stroke="#B19585" stroke-width="0.991588"/>
<line y1="-0.495794" x2="4.54573" y2="-0.495794" transform="matrix(0.162202 0.986758 0.986758 -0.162202 523.609 387.028)" stroke="#B19585" stroke-width="0.991588"/>
<line y1="-0.495794" x2="4.54573" y2="-0.495794" transform="matrix(0.342567 0.939493 0.939493 -0.342567 521.199 388.135)" stroke="#B19585" stroke-width="0.991588"/>
<line y1="-0.495794" x2="2.51059" y2="-0.495794" transform="matrix(0.591005 0.806668 0.806668 -0.591005 519.346 391.028)" stroke="#B19585" stroke-width="0.991588"/>
<line y1="-0.495794" x2="2.51059" y2="-0.495794" transform="matrix(0.591005 0.806668 0.806668 -0.591005 516.863 393.028)" stroke="#B19585" stroke-width="0.991588"/>
<line y1="-0.495794" x2="2.51059" y2="-0.495794" transform="matrix(0.591005 0.806668 0.806668 -0.591005 514.863 395.028)" stroke="#B19585" stroke-width="0.991588"/>
<line x1="448.282" y1="392.736" x2="450.703" y2="396.583" stroke="#B19585" stroke-width="0.991588"/>
<line x1="450.282" y1="391.736" x2="452.703" y2="395.583" stroke="#B19585" stroke-width="0.991588"/>
<line x1="452.282" y1="389.736" x2="454.703" y2="393.583" stroke="#B19585" stroke-width="0.991588"/>
<line x1="454.282" y1="388.736" x2="456.703" y2="392.583" stroke="#B19585" stroke-width="0.991588"/>
<line x1="457.894" y1="386.604" x2="459.203" y2="390.958" stroke="#B19585" stroke-width="0.991588"/>
<path d="M462.355 384.984L462.862 390" stroke="#B19585" stroke-width="0.991588"/>
<line x1="465.358" y1="384.983" x2="465.511" y2="389.527" stroke="#B19585" stroke-width="0.991588"/>
<line x1="468.797" y1="385.109" x2="468.06" y2="389.595" stroke="#B19585" stroke-width="0.991588"/>
<line x1="472.089" y1="385.08" x2="471.352" y2="389.566" stroke="#B19585" stroke-width="0.991588"/>
<line x1="475.089" y1="386.08" x2="474.352" y2="390.566" stroke="#B19585" stroke-width="0.991588"/>
<line x1="478.089" y1="387.08" x2="477.352" y2="391.566" stroke="#B19585" stroke-width="0.991588"/>
<line x1="480.476" y1="388.277" x2="478.919" y2="392.548" stroke="#B19585" stroke-width="0.991588"/>
<line x1="482.263" y1="391.293" x2="480.779" y2="393.318" stroke="#B19585" stroke-width="0.991588"/>
<line x1="484.746" y1="393.293" x2="483.262" y2="395.318" stroke="#B19585" stroke-width="0.991588"/>
<line x1="486.746" y1="395.293" x2="485.262" y2="397.318" stroke="#B19585" stroke-width="0.991588"/>
<path d="M494.663 404.155C494.329 408.78 491.372 413.018 486.378 416.046C481.389 419.071 474.548 420.75 467.047 420.209C463.618 419.961 459.561 418.405 455.309 415.843C451.091 413.301 446.853 409.873 443.099 406.112C439.342 402.348 436.131 398.313 433.927 394.594C432.939 392.927 432.195 391.394 431.683 390.026C435.008 391.493 438.029 392.187 440.863 392.293C444.96 392.447 448.424 391.36 451.549 390.005C453.055 389.353 454.452 388.667 455.799 388.006C460.245 385.824 464.154 383.906 469.638 384.302C477.139 384.843 483.668 387.487 488.171 391.197C492.679 394.912 494.997 399.53 494.663 404.155Z" stroke="#EF4B9A" stroke-width="5"/>
<path d="M507.832 404.155C508.166 408.78 511.123 413.018 516.118 416.046C521.106 419.071 527.948 420.75 535.448 420.209C538.877 419.961 542.934 418.405 547.186 415.843C551.405 413.301 555.642 409.873 559.396 406.112C563.153 402.348 566.364 398.313 568.568 394.594C569.556 392.927 570.3 391.394 570.812 390.026C567.487 391.493 564.466 392.187 561.632 392.293C557.536 392.447 554.071 391.36 550.946 390.005C549.441 389.353 548.044 388.667 546.696 388.006C542.25 385.824 538.342 383.906 532.857 384.302C525.356 384.843 518.827 387.487 514.324 391.197C509.816 394.912 507.498 399.53 507.832 404.155Z" stroke="#EF4B9A" stroke-width="5"/>
<path d="M397.348 496.126C444.643 506.051 382.022 406.04 392.287 357.124C402.552 308.207 579.986 314.768 459.807 278.821C457.765 308.024 379.628 268.083 369.363 317C359.098 365.916 443.388 490.971 397.348 496.126Z" fill="#EEDDA0"/>
<path d="M397.351 496.124C444.646 506.049 398.099 404.766 408.364 355.85C418.629 306.934 512.471 313.297 392.292 277.35C390.249 306.553 395.628 273.584 385.363 322.5C375.098 371.416 443.391 490.97 397.351 496.124Z" fill="#EEDDA0"/>
<path d="M614.368 502.848C567.073 512.773 593.13 408.71 582.865 359.794C566.868 334.848 453.183 281.296 573.363 245.349C575.405 274.552 620.103 302.932 630.368 351.848C640.633 400.765 568.328 497.693 614.368 502.848Z" fill="#EEDDA0"/>
<path d="M433.022 385.089C476.01 407.164 429.32 318.961 444.664 289.081C460.008 259.202 624.897 321.197 516.924 257.82C511.579 276.983 426.649 242.071 411.305 271.951C395.962 301.831 476.614 396.52 433.022 385.089Z" fill="#EEDDA0"/>
<path d="M405.517 396.421C448.505 418.496 401.816 330.293 417.16 300.413C432.503 270.534 530.336 312.558 422.363 249.181C417.017 268.344 399.145 253.404 383.801 283.283C368.457 313.163 449.109 407.852 405.517 396.421Z" fill="#EEDDA0"/>
<path d="M453.023 375.087C496.011 397.162 449.322 308.959 464.665 279.08C480.009 249.2 712.363 420.849 536.926 247.818C536.924 234.849 446.65 232.07 431.307 261.949C415.963 291.829 496.615 386.518 453.023 375.087Z" fill="#EEDDA0"/>
<path d="M469.02 374.088C512.008 396.163 465.319 307.961 480.663 278.081C496.006 248.201 560.836 324.328 452.863 260.951C447.517 280.114 462.648 231.071 447.304 260.951C431.96 290.83 512.612 385.52 469.02 374.088Z" fill="#EEDDA0"/>
<path d="M489.018 374.088C532.006 396.163 485.317 307.96 500.66 278.08C516.004 248.201 565.335 324.328 457.363 260.951C452.017 280.114 482.645 231.071 467.302 260.95C451.958 290.83 532.61 385.519 489.018 374.088Z" fill="#EEDDA0"/>
<path d="M504.024 375.089C547.012 397.164 500.323 308.961 515.667 279.081C531.01 249.201 590.278 325.328 482.306 261.951C476.96 281.114 497.652 232.071 482.308 261.951C466.964 291.83 547.616 386.52 504.024 375.089Z" fill="#EEDDA0"/>
<path d="M600.077 416.504C600.077 425.619 598.677 446 603.037 446C607.396 446 615.863 425.619 615.863 416.504C615.863 407.389 612.329 400 607.97 400C603.611 400 600.077 407.389 600.077 416.504Z" fill="#F3CEB9"/>
<path d="M607.477 413.849C611.628 419.234 604.879 422.631 607.477 428.849" stroke="black"/>
<path d="M405.649 418.504C405.649 427.619 407.048 448 402.689 448C398.33 448 389.863 427.619 389.863 418.504C389.863 409.389 393.397 402 397.756 402C402.115 402 405.649 409.389 405.649 418.504Z" fill="#F3CEB9"/>
<path d="M398.249 415.849C394.098 421.234 400.847 424.631 398.249 430.849" stroke="black"/>
<path d="M324.199 580.998C368.212 563.356 418.176 584.894 435.568 629.007V629.007L157.406 738.673L128.363 659.5L324.199 580.998Z" fill="#848484"/>
<path d="M622.765 576.648C581.11 546.771 532.109 602.786 567.26 640.098V640.098L720.863 752.5L774.119 685.206L622.765 576.648Z" fill="#848484"/>
<path d="M446.863 595C489.802 615.866 509.411 616.637 552.363 595L553.863 1075.95C510.877 1080.11 486.878 1079.57 443.863 1075.35L446.863 595Z" fill="#E1AAC4"/>
<path d="M403.363 405.849L439.588 400.368" stroke="#EF4B9A" stroke-width="5"/>
<path d="M494.182 406.833C498.844 399.515 501.881 399.682 507.889 406.32" stroke="#EF4B9A" stroke-width="5"/>
<path d="M601.205 407.33L564.98 401.849" stroke="#EF4B9A" stroke-width="5"/>
<path d="M409.363 456.5C409.363 459.877 408.541 462.91 407.237 465.082C405.928 467.264 404.189 468.5 402.363 468.5C400.536 468.5 398.797 467.264 397.488 465.082C396.185 462.91 395.363 459.877 395.363 456.5C395.363 453.123 396.185 450.09 397.488 447.918C398.797 445.736 400.536 444.5 402.363 444.5C404.189 444.5 405.928 445.736 407.237 447.918C408.541 450.09 409.363 453.123 409.363 456.5Z" stroke="#DBA722"/>
<path d="M407.363 454.5C407.363 457.877 406.541 460.91 405.237 463.082C403.928 465.264 402.189 466.5 400.363 466.5C398.536 466.5 396.797 465.264 395.488 463.082C394.185 460.91 393.363 457.877 393.363 454.5C393.363 451.123 394.185 448.09 395.488 445.918C396.797 443.736 398.536 442.5 400.363 442.5C402.189 442.5 403.928 443.736 405.237 445.918C406.541 448.09 407.363 451.123 407.363 454.5Z" stroke="#DBA722"/>
<path d="M612.363 452.5C612.363 455.877 611.541 458.91 610.237 461.082C608.928 463.264 607.189 464.5 605.363 464.5C603.536 464.5 601.797 463.264 600.488 461.082C599.185 458.91 598.363 455.877 598.363 452.5C598.363 449.123 599.185 446.09 600.488 443.918C601.797 441.736 603.536 440.5 605.363 440.5C607.189 440.5 608.928 441.736 610.237 443.918C611.541 446.09 612.363 449.123 612.363 452.5Z" stroke="#DBA722"/>
<path d="M610.363 450.5C610.363 453.877 609.541 456.91 608.237 459.082C606.928 461.264 605.189 462.5 603.363 462.5C601.536 462.5 599.797 461.264 598.488 459.082C597.185 456.91 596.363 453.877 596.363 450.5C596.363 447.123 597.185 444.09 598.488 441.918C599.797 439.736 601.536 438.5 603.363 438.5C605.189 438.5 606.928 439.736 608.237 441.918C609.541 444.09 610.363 447.123 610.363 450.5Z" stroke="#DBA722"/>
<path d="M126.363 662L199.599 713.364C156.407 778.511 136.369 816.095 110.591 885.654C82.3891 876.059 65.5663 871.377 63.8541 843.409C93.2104 774.807 107.283 738.191 126.363 662Z" fill="#848484"/>
<path d="M721.363 753.5L728.957 660.753C807.099 662.662 849.583 659.631 922.195 644.448C929.075 673.432 934.062 690.167 911.292 706.498C837.587 718.142 796.026 729.117 721.363 753.5Z" fill="#848484"/>
<circle cx="434.363" cy="601.5" r="3.5" fill="#ABA4A4"/>
<circle cx="570.363" cy="601.5" r="3.5" fill="#ABA4A4"/>
<path d="M433.863 601C452.785 658.145 403.862 678.986 429.863 740" stroke="white" stroke-width="3"/>
<path d="M571.117 601.254C552.196 658.399 601.119 679.24 575.117 740.254" stroke="white" stroke-width="3"/>
<line x1="484.746" y1="393.293" x2="483.262" y2="395.318" stroke="#B1A185" stroke-width="0.991588"/>
<path d="M142.364 678.501C142.364 687.061 133.409 694.001 122.364 694.001C111.318 694.001 123.364 750.5 111.863 714C117.863 695.001 118.863 663 132.363 656.5C223.863 617 142.364 669.94 142.364 678.501Z" fill="#848484"/>
<path d="M722.571 730.842C716.814 724.507 703.037 716.57 694.863 723.999C686.689 731.428 658.825 684.253 674.863 719C692.082 729.025 715.605 758.119 729.967 753.85C824.247 721.541 728.329 737.177 722.571 730.842Z" fill="#848484"/>
<path d="M390.862 801.5C390.862 871.364 334.226 908.986 264.362 908.986C194.498 908.986 137.862 871.364 137.862 801.5C137.862 731.636 194.498 675 264.362 675C334.226 675 390.862 731.636 390.862 801.5Z" fill="url(#paint5_linear_331_5155)"/>
<path d="M341.525 851.5C341.525 921.364 337.274 910.482 267.41 910.482C197.546 910.482 187.862 921.364 187.862 851.5C187.862 781.636 201.426 725 271.29 725C341.154 725 341.525 781.636 341.525 851.5Z" fill="url(#paint6_linear_331_5155)"/>
<path d="M378.862 801.5C378.862 871.364 334.226 848.452 264.362 848.452C194.498 848.452 150.362 871.364 150.362 801.5C150.362 731.636 194.498 692.461 264.362 692.461C334.226 692.461 378.862 731.636 378.862 801.5Z" fill="url(#paint7_linear_331_5155)"/>
<path d="M236.862 877C236.862 864.85 246.712 855 258.862 855H270.862C283.013 855 292.862 864.85 292.862 877V899C292.862 904.523 288.385 909 282.862 909H246.862C241.339 909 236.862 904.523 236.862 899V877Z" fill="#C4C4C4"/>
<line x1="252.362" y1="850.008" x2="251.362" y2="910.008" stroke="black"/>
<line x1="282.362" y1="851.008" x2="281.362" y2="910.008" stroke="black"/>
<line x1="266.362" y1="851.008" x2="265.362" y2="910.008" stroke="black"/>
<defs>
<filter id="filter0_d_331_5155" x="1517.72" y="494.598" width="154.618" height="106.246" filterUnits="userSpaceOnUse" color-interpolation-filters="sRGB">
<feFlood flood-opacity="0" result="BackgroundImageFix"/>
<feColorMatrix in="SourceAlpha" type="matrix" values="0 0 0 0 0 0 0 0 0 0 0 0 0 0 0 0 0 0 127 0" result="hardAlpha"/>
<feOffset dy="3.96635"/>
<feGaussianBlur stdDeviation="1.98318"/>
<feComposite in2="hardAlpha" operator="out"/>
<feColorMatrix type="matrix" values="0 0 0 0 0 0 0 0 0 0 0 0 0 0 0 0 0 0 0.25 0"/>
<feBlend mode="normal" in2="BackgroundImageFix" result="effect1_dropShadow_331_5155"/>
<feBlend mode="normal" in="SourceGraphic" in2="effect1_dropShadow_331_5155" result="shape"/>
</filter>
<filter id="filter1_f_331_5155" x="1593.13" y="433.864" width="107.092" height="108.083" filterUnits="userSpaceOnUse" color-interpolation-filters="sRGB">
<feFlood flood-opacity="0" result="BackgroundImageFix"/>
<feBlend mode="normal" in="SourceGraphic" in2="BackgroundImageFix" result="shape"/>
<feGaussianBlur stdDeviation="19.8318" result="effect1_foregroundBlur_331_5155"/>
</filter>
<filter id="filter2_f_331_5155" x="1493.97" y="432.872" width="107.092" height="108.083" filterUnits="userSpaceOnUse" color-interpolation-filters="sRGB">
<feFlood flood-opacity="0" result="BackgroundImageFix"/>
<feBlend mode="normal" in="SourceGraphic" in2="BackgroundImageFix" result="shape"/>
<feGaussianBlur stdDeviation="19.8318" result="effect1_foregroundBlur_331_5155"/>
</filter>
<filter id="filter3_d_331_5155" x="2376.83" y="427.385" width="154.618" height="106.246" filterUnits="userSpaceOnUse" color-interpolation-filters="sRGB">
<feFlood flood-opacity="0" result="BackgroundImageFix"/>
<feColorMatrix in="SourceAlpha" type="matrix" values="0 0 0 0 0 0 0 0 0 0 0 0 0 0 0 0 0 0 127 0" result="hardAlpha"/>
<feOffset dy="3.96635"/>
<feGaussianBlur stdDeviation="1.98318"/>
<feComposite in2="hardAlpha" operator="out"/>
<feColorMatrix type="matrix" values="0 0 0 0 0 0 0 0 0 0 0 0 0 0 0 0 0 0 0.25 0"/>
<feBlend mode="normal" in2="BackgroundImageFix" result="effect1_dropShadow_331_5155"/>
<feBlend mode="normal" in="SourceGraphic" in2="effect1_dropShadow_331_5155" result="shape"/>
</filter>
<filter id="filter4_f_331_5155" x="2452.24" y="366.65" width="107.091" height="108.083" filterUnits="userSpaceOnUse" color-interpolation-filters="sRGB">
<feFlood flood-opacity="0" result="BackgroundImageFix"/>
<feBlend mode="normal" in="SourceGraphic" in2="BackgroundImageFix" result="shape"/>
<feGaussianBlur stdDeviation="19.8318" result="effect1_foregroundBlur_331_5155"/>
</filter>
<filter id="filter5_f_331_5155" x="2353.08" y="365.659" width="107.091" height="108.083" filterUnits="userSpaceOnUse" color-interpolation-filters="sRGB">
<feFlood flood-opacity="0" result="BackgroundImageFix"/>
<feBlend mode="normal" in="SourceGraphic" in2="BackgroundImageFix" result="shape"/>
<feGaussianBlur stdDeviation="19.8318" result="effect1_foregroundBlur_331_5155"/>
</filter>
<filter id="filter6_d_331_5155" x="430.682" y="447" width="137.361" height="103.962" filterUnits="userSpaceOnUse" color-interpolation-filters="sRGB">
<feFlood flood-opacity="0" result="BackgroundImageFix"/>
<feColorMatrix in="SourceAlpha" type="matrix" values="0 0 0 0 0 0 0 0 0 0 0 0 0 0 0 0 0 0 127 0" result="hardAlpha"/>
<feOffset dy="3.96635"/>
<feGaussianBlur stdDeviation="1.98318"/>
<feComposite in2="hardAlpha" operator="out"/>
<feColorMatrix type="matrix" values="0 0 0 0 0 0 0 0 0 0 0 0 0 0 0 0 0 0 0.25 0"/>
<feBlend mode="normal" in2="BackgroundImageFix" result="effect1_dropShadow_331_5155"/>
<feBlend mode="normal" in="SourceGraphic" in2="effect1_dropShadow_331_5155" result="shape"/>
</filter>
<filter id="filter7_f_331_5155" x="498.963" y="386.5" width="107.092" height="108.083" filterUnits="userSpaceOnUse" color-interpolation-filters="sRGB">
<feFlood flood-opacity="0" result="BackgroundImageFix"/>
<feBlend mode="normal" in="SourceGraphic" in2="BackgroundImageFix" result="shape"/>
<feGaussianBlur stdDeviation="19.8318" result="effect1_foregroundBlur_331_5155"/>
</filter>
<filter id="filter8_f_331_5155" x="399.802" y="385.508" width="107.092" height="108.083" filterUnits="userSpaceOnUse" color-interpolation-filters="sRGB">
<feFlood flood-opacity="0" result="BackgroundImageFix"/>
<feBlend mode="normal" in="SourceGraphic" in2="BackgroundImageFix" result="shape"/>
<feGaussianBlur stdDeviation="19.8318" result="effect1_foregroundBlur_331_5155"/>
</filter>
<radialGradient id="paint0_radial_331_5155" cx="0" cy="0" r="1" gradientUnits="userSpaceOnUse" gradientTransform="translate(2500.19 378.728) rotate(90) scale(6.94112)">
<stop offset="0.5" stop-color="#858585"/>
<stop offset="1" stop-color="#CFE1EF"/>
</radialGradient>
<radialGradient id="paint1_radial_331_5155" cx="0" cy="0" r="1" gradientUnits="userSpaceOnUse" gradientTransform="translate(6.94112 6.94112) rotate(90) scale(6.94112)">
<stop offset="0.5" stop-color="#858585"/>
<stop offset="1" stop-color="#CFE1EF"/>
</radialGradient>
<linearGradient id="paint2_linear_331_5155" x1="3268" y1="214" x2="3268" y2="398" gradientUnits="userSpaceOnUse">
<stop stop-color="#C4C4C4"/>
<stop offset="0.59375"/>
</linearGradient>
<radialGradient id="paint3_radial_331_5155" cx="0" cy="0" r="1" gradientUnits="userSpaceOnUse" gradientTransform="translate(6.94112 6.94112) rotate(90) scale(6.94112)">
<stop offset="0.6875" stop-color="#63573A"/>
<stop offset="1" stop-color="#AA9D27"/>
</radialGradient>
<radialGradient id="paint4_radial_331_5155" cx="0" cy="0" r="1" gradientUnits="userSpaceOnUse" gradientTransform="translate(533.787 401.02) rotate(90) scale(6.94112)">
<stop offset="0.6875" stop-color="#63573A"/>
<stop offset="1" stop-color="#AA9D27"/>
</radialGradient>
<linearGradient id="paint5_linear_331_5155" x1="264.362" y1="675" x2="264.362" y2="908.986" gradientUnits="userSpaceOnUse">
<stop offset="0.598958"/>
<stop offset="1" stop-color="#585858"/>
</linearGradient>
<linearGradient id="paint6_linear_331_5155" x1="264.694" y1="725" x2="264.694" y2="911.096" gradientUnits="userSpaceOnUse">
<stop/>
<stop offset="1"/>
</linearGradient>
<linearGradient id="paint7_linear_331_5155" x1="200.362" y1="813" x2="496.862" y2="717.5" gradientUnits="userSpaceOnUse">
<stop stop-color="#838282"/>
<stop offset="0.348958" stop-color="#C4C4C4"/>
</linearGradient>
</defs>
</svg>
