<svg width="70" height="70" viewBox="0 0 70 70" fill="none" xmlns="http://www.w3.org/2000/svg">
<path d="M64.1667 35.7204C64.1683 41.8409 62.2446 47.8068 58.6678 52.7733C55.091 57.7399 50.0425 61.4554 44.2371 63.3938C42.7583 63.6854 42.2333 62.7696 42.2333 61.9908C42.2333 61.0342 42.2683 57.8871 42.2683 53.9904C42.3424 53.0009 42.204 52.007 41.8624 51.0754C41.5209 50.1437 40.984 49.2959 40.2879 48.5888C46.7862 47.8654 53.6054 45.4008 53.6054 34.195C53.6505 31.2978 52.5765 28.4949 50.6071 26.3696C51.4972 23.853 51.3929 21.0914 50.3154 18.6492C50.3154 18.6492 47.8712 17.8646 42.3033 21.6388C37.5231 20.3321 32.4798 20.3321 27.6996 21.6388C22.1287 17.8646 19.6787 18.6492 19.6787 18.6492C18.6039 21.0921 18.4996 23.8526 19.3871 26.3696C17.42 28.4962 16.3473 31.2985 16.3917 34.195C16.3917 45.3717 23.1992 47.8742 29.6771 48.6092C28.6168 49.6447 27.9601 51.0241 27.825 52.5C27.1097 52.9028 26.3215 53.1597 25.5062 53.2558C24.6909 53.352 23.8647 53.2854 23.0753 53.06C22.2859 52.8345 21.549 52.4547 20.9075 51.9426C20.2659 51.4304 19.7322 50.7961 19.3375 50.0763C18.8703 49.2706 18.2256 48.582 17.4523 48.0629C16.6791 47.5439 15.7976 47.208 14.875 47.0808C14.875 47.0808 12.0254 47.0429 14.6737 48.8542C16.2266 49.8449 17.3739 51.3585 17.9083 53.1213C17.9083 53.1213 19.6175 58.7913 27.7317 57.0296C27.7462 59.465 27.7725 61.2967 27.7725 61.9879C27.7725 62.7608 27.2387 63.6621 25.7804 63.3938C20.6861 61.6964 16.1592 58.6257 12.6985 54.5199C9.23791 50.4142 6.97786 45.4328 6.16743 40.1246C5.35701 34.8165 6.02766 29.3876 8.1055 24.4363C10.1833 19.4849 13.5877 15.2033 17.9435 12.0631C22.2992 8.92299 27.4373 7.04622 32.7916 6.63965C38.1458 6.23307 43.5084 7.31246 48.2884 9.75889C53.0683 12.2053 57.0802 15.9238 59.8819 20.5046C62.6835 25.0854 64.1663 30.3508 64.1667 35.7204Z" fill="#A0C1B9"/>
</svg>
