<svg width="510" height="437" viewBox="0 0 510 437" fill="none" xmlns="http://www.w3.org/2000/svg">
<ellipse cx="91.994" cy="214.569" rx="61.1212" ry="59.4234" transform="rotate(58.865 91.994 214.569)" fill="#BAD8BA"/>
<path d="M129.25 323.309C103.042 328.856 112.979 282.143 102.335 264.524C91.6918 246.904 78.1709 255.318 94.223 245.622C110.275 235.925 160.059 211.225 170.703 228.845C181.346 246.464 143.571 320.278 129.25 323.309Z" fill="#BAD8BA"/>
<path d="M156.465 287.367C135.667 343.237 81.6404 370.915 42.8099 271.061C14.6936 216.308 41.3999 156.537 59.5424 186.571C88.4194 187.31 137.341 186.752 154.795 215.646C172.249 244.54 153.696 270.196 156.465 287.367Z" fill="#BAD8BA"/>
<ellipse cx="183.283" cy="135.292" rx="12.7336" ry="12.1677" transform="rotate(58.865 183.283 135.292)" fill="#BAD8BA"/>
<path d="M155.254 184.509C137.744 180.967 94.8146 151.377 127.617 150.405C155.556 145.76 161.93 134.967 162.944 133.363C177.164 110.868 173.344 174.848 193.554 158.313C189.911 176.323 172.763 188.051 155.254 184.509Z" fill="#BAD8BA"/>
<path d="M173.738 188.993C145.647 205.962 108.725 196.295 91.2713 167.401C68.335 140.924 123.817 159.973 151.908 143.004C190.623 155.652 148.047 150.295 150.271 163.828C159.831 196.071 201.829 172.023 173.738 188.993Z" fill="#BAD8BA"/>
<path d="M193.468 246.83C184.7 219.729 66.7756 254.366 49.3216 225.472C31.8677 196.578 26.7625 146.534 135.382 150.674C183.27 179.6 201.767 147.832 219.221 176.726C240.968 178.796 209.655 174.571 193.468 246.83Z" fill="#BAD8BA"/>
<path d="M187.782 243.985C164.239 258.207 131.977 293.894 118.671 225.896C99.813 183.733 43.912 168.905 95.6659 176.32C158.431 165.844 194.321 108.142 208.947 132.354C240.985 233.004 199.366 190.374 187.782 243.985Z" fill="#BAD8BA"/>
<path d="M215.609 250.646C172.749 263.974 183.441 253.762 174.714 239.315C165.987 224.868 170.298 206.279 184.344 197.794C198.389 189.31 213.888 193.618 222.615 208.065C265.625 212.498 236.482 244.155 215.609 250.646Z" fill="#BAD8BA"/>
<path d="M235.03 237.922C208.145 254.163 192.742 216.077 184.015 201.63C175.288 187.183 167.627 190.372 213.322 183.926C227.893 204.216 235.85 203.707 242.58 214.849C246.53 221.388 243.696 232.688 235.03 237.922Z" fill="#BAD8BA"/>
<path d="M122.513 326.387C108.943 348.8 79.2475 335.76 61.7936 306.866C44.3396 277.972 52.9628 240.793 81.0539 223.824C109.145 206.855 146.067 216.522 163.521 245.415C174.856 287.165 142.155 273.529 122.513 326.387Z" fill="#BAD8BA"/>
<path d="M213.38 154.47C210.233 156.371 206.397 156.842 202.717 155.779C187.227 171.921 216.639 92.003 224.843 92.9976C192.92 79.5534 158.594 139.298 161.546 136.523C162.318 132.771 194.724 130.697 197.871 128.796L205.626 141.633L213.38 154.47Z" fill="#BAD8BA"/>
<ellipse cx="482.758" cy="22.4897" rx="15.5633" ry="16.1292" transform="rotate(58.865 482.758 22.4897)" fill="#D9D0B2"/>
<path d="M435.718 66.1114C434.255 63.6893 426.839 50.3175 411.676 59.1466C414.133 53.3643 418.347 40.9012 425.972 36.2953C433.597 31.6894 460.32 18.7281 464.765 26.0853C467.847 34.4716 456.553 55.1786 435.718 66.1114Z" fill="#D9D0B2"/>
<path d="M227.833 200.284C219.563 193.709 121.313 249.423 206.043 232.622C178.073 243.236 186.095 161.032 196.395 154.81C206.696 148.588 249.805 163.87 242.781 168.113C225.1 178.794 214.129 189.388 227.833 200.284Z" fill="#BAD8BA"/>
<rect x="213.084" y="148.712" width="4.98618" height="24.8675" rx="2.26375" transform="rotate(57.565 213.084 148.712)" fill="#C4C4C4"/>
<path d="M225.309 151.231C210.862 159.958 187.083 139.941 185.04 122.331C175.424 106.413 201.355 92.971 207.274 92.3708C247.868 84.0482 214.679 118.312 217.599 137.375C222.937 153.325 238.797 134.157 225.309 151.231Z" fill="#BAD8BA"/>
<path d="M400.128 41.6716L410.912 59.5244L211.299 188.784L196.082 163.595L400.128 41.6716Z" fill="url(#paint0_linear_314_4536)"/>
<rect x="486.507" y="5.64307" width="19.6137" height="90.5632" rx="7.92312" transform="rotate(73.5057 486.507 5.64307)" fill="#D9D0B2"/>
<path d="M174.806 260.81C159.757 268.186 155.153 302.704 147.241 302.193C139.329 301.683 156.18 250.242 163.938 245.556C171.697 240.869 201.65 245.597 204.397 250.145C219.184 254.375 182.945 256.821 174.806 260.81Z" fill="#BAD8BA"/>
<path d="M413.32 57.4919C410.761 62.0127 408.647 54.6808 404.849 48.3937C401.051 42.1067 400.358 35.5689 403.301 33.7912C406.243 32.0134 417.445 39.1459 421.243 45.433C425.04 51.7201 413.315 55.8419 413.32 57.4919Z" fill="#D9D0B2"/>
<rect x="404.966" y="38.7368" width="20.9397" height="5.65937" transform="rotate(58.865 404.966 38.7368)" fill="#D9D0B2"/>
<path d="M458.291 21.038C458.989 19.2745 461.19 18.6837 462.678 19.8604L478.11 32.0697C480.493 33.9552 478.634 37.7596 475.682 37.0375L468.378 35.2506C467.277 34.9813 466.122 35.3946 465.442 36.3011L461.366 41.734C460.596 42.7602 459.232 43.1401 458.043 42.6596L453.483 40.8177C452.041 40.2353 451.339 38.5984 451.911 37.1524L458.291 21.038Z" fill="#D9D0B2"/>
<path d="M412.788 25.4152C410.782 26.6272 407.446 25.8745 406.476 24.2693C405.506 22.6641 407.417 21.0565 409.423 19.8444C411.43 18.6323 414.67 19.7735 415.639 21.3787C416.609 22.9839 414.795 24.2031 412.788 25.4152Z" fill="url(#paint1_linear_314_4536)"/>
<path d="M425.539 21.3497C423.532 22.5618 420.196 21.8091 419.227 20.2039C418.257 18.5987 420.167 16.991 422.174 15.779C424.18 14.5669 427.42 15.7081 428.39 17.3133C429.36 18.9185 427.545 20.1377 425.539 21.3497Z" fill="url(#paint2_linear_314_4536)"/>
<path d="M437.467 18.1129C435.461 19.325 432.125 18.5723 431.155 16.9671C430.185 15.3619 432.095 13.7542 434.102 12.5421C436.108 11.3301 439.349 12.4713 440.318 14.0765C441.288 15.6817 439.474 16.9008 437.467 18.1129Z" fill="url(#paint3_linear_314_4536)"/>
<path d="M449.103 14.3878C447.097 15.5999 443.761 14.8472 442.791 13.242C441.821 11.6368 443.731 10.0291 445.738 8.81705C447.744 7.60497 450.985 8.74618 451.954 10.3514C452.924 11.9566 451.11 13.1757 449.103 14.3878Z" fill="url(#paint4_linear_314_4536)"/>
<path d="M461.031 11.151C459.025 12.3631 455.689 11.6104 454.719 10.0052C453.749 8.39997 455.66 6.79231 457.666 5.58023C459.673 4.36815 462.913 5.50937 463.882 7.11458C464.852 8.71978 463.038 9.93892 461.031 11.151Z" fill="url(#paint5_linear_314_4536)"/>
<path d="M472.96 7.91174C470.953 9.12382 467.617 8.37113 466.647 6.76592C465.678 5.16071 467.588 3.55306 469.594 2.34098C471.601 1.1289 474.841 2.27011 475.811 3.87532C476.78 5.48053 474.966 6.69966 472.96 7.91174Z" fill="url(#paint6_linear_314_4536)"/>
<path d="M200.631 189.996C205.125 226.471 183.942 223.888 169.586 253.998C78.065 166.693 132.219 210.436 169.715 144.368C167.358 147.505 201.784 92.4522 214.015 114.899C207.814 137.381 180.715 153.448 200.631 189.996Z" fill="#EDE7D9"/>
<path d="M209.963 155.146C197.315 162.458 172.693 178.114 184.231 162.199C180.514 143.537 209.336 109.918 212.115 112.174C220.8 121.069 202.79 125.265 206.507 143.928C208.933 156.104 232.767 141.963 209.963 155.146Z" fill="#EDE7D9"/>
<path d="M200.887 158.78L205.346 173.301L215.131 184.92L202.061 192.042L187.817 165.902L200.887 158.78Z" fill="#EDE7D9"/>
<path d="M235.969 221.786C231.29 224.335 221.186 219.077 216.84 211.102C212.494 203.126 180.613 209.705 219.524 184.941C224.776 181.6 211.054 188.919 215.4 196.894C220.646 206.521 236.724 211.074 235.969 221.786Z" fill="#EDE7D9"/>
<path d="M192.448 244.681C137.706 223.681 187.793 240.748 181.675 229.519C175.556 218.291 179.157 204.523 189.717 198.769C200.277 193.014 210.984 210.723 234.388 216.804C245.71 233.55 201.575 248.182 192.448 244.681Z" fill="#EDE7D9"/>
<rect x="203.562" y="178.668" width="25.3589" height="14.3333" transform="rotate(61.4134 203.562 178.668)" fill="#EDE7D9"/>
<path d="M215.131 184.919L216.719 187.413L210.244 193.233L207.87 188.876L215.131 184.919Z" fill="#EDE7D9"/>
<path d="M220.071 183.116L220.705 184.118L213.23 189.99L212.21 188.159L220.071 183.116Z" fill="#EDE7D9"/>
<path d="M159.398 262.376C145.629 269.879 134.396 271.221 131.92 266.676C129.443 262.131 138.597 252.365 152.366 244.862C166.134 237.36 204.535 236.908 207.011 241.453C209.208 247.79 177.291 241.639 159.398 262.376Z" fill="#EDE7D9"/>
<path d="M160.828 260.968C149.186 273.59 134.573 312.445 126.342 297.34C118.111 282.235 129.23 250.794 143.236 244.814C167.175 234.594 163.811 207.107 172.042 222.212C180.273 237.317 190.629 224.639 160.828 260.968Z" fill="#EDE7D9"/>
<path d="M159.156 262.508C154.21 265.203 147.071 261.645 143.21 254.56C139.35 247.475 139.974 260.718 132.737 258.383C115.364 297.357 136.739 229.435 140.6 236.519C144.46 243.604 164.102 259.813 159.156 262.508Z" fill="#EDE7D9"/>
<rect x="135.273" y="193.906" width="59.5382" height="16.5384" transform="rotate(61.4134 135.273 193.906)" fill="#EDE7D9"/>
<path d="M108.717 263.482C95.7989 270.799 79.8946 267.139 73.1941 255.309C66.4936 243.478 71.5342 227.956 84.4526 220.64C97.3711 213.323 100.718 224.094 107.419 235.925C114.119 247.756 121.636 256.165 108.717 263.482Z" fill="url(#paint7_linear_314_4536)"/>
<circle cx="414.699" cy="34.1337" r="1.69781" transform="rotate(57.5046 414.699 34.1337)" fill="#9E9D9D"/>
<circle cx="427.502" cy="30.0052" r="1.69781" transform="rotate(57.5046 427.502 30.0052)" fill="#9E9D9D"/>
<circle cx="439.35" cy="26.4833" r="1.69781" transform="rotate(57.5046 439.35 26.4833)" fill="#9E9D9D"/>
<circle cx="450.59" cy="22.0072" r="1.69781" transform="rotate(57.5046 450.59 22.0072)" fill="#9E9D9D"/>
<circle cx="463.697" cy="18.3573" r="1.69781" transform="rotate(57.5046 463.697 18.3573)" fill="#9E9D9D"/>
<circle cx="475.544" cy="14.8353" r="1.69781" transform="rotate(57.5046 475.544 14.8353)" fill="#9E9D9D"/>
<line x1="413.412" y1="35.2883" x2="91.1647" y2="227.798" stroke="#C6C6C6" stroke-width="0.565937"/>
<line x1="426.043" y1="31.9399" x2="94.207" y2="232.57" stroke="#C6C6C6" stroke-width="0.565937"/>
<line x1="440.756" y1="26.5932" x2="97.2477" y2="237.342" stroke="#C6C6C6" stroke-width="0.565937"/>
<line x1="451.174" y1="23.9831" x2="100.898" y2="243.068" stroke="#C6C6C6" stroke-width="0.565937"/>
<line x1="462.243" y1="20.288" x2="104.245" y2="248.318" stroke="#C6C6C6" stroke-width="0.565937"/>
<line x1="474.57" y1="16.4637" x2="106.982" y2="252.615" stroke="#C6C6C6" stroke-width="0.565937"/>
<line x1="385.662" y1="50.5738" x2="396.565" y2="68.5224" stroke="#9E9D9D" stroke-width="0.565937"/>
<line x1="372.783" y1="58.7188" x2="383.686" y2="76.6674" stroke="#9E9D9D" stroke-width="0.565937"/>
<line x1="359.903" y1="66.8619" x2="370.806" y2="84.8105" stroke="#9E9D9D" stroke-width="0.565937"/>
<line x1="345.773" y1="74.7993" x2="357.552" y2="93.6612" stroke="#9E9D9D" stroke-width="0.565937"/>
<line x1="335.262" y1="81.0239" x2="347.041" y2="99.8859" stroke="#9E9D9D" stroke-width="0.565937"/>
<line x1="324.003" y1="88.6654" x2="335.614" y2="106.987" stroke="#9E9D9D" stroke-width="0.565937"/>
<line x1="310.248" y1="95.8943" x2="322.903" y2="115.67" stroke="#9E9D9D" stroke-width="0.565937"/>
<line x1="297.537" y1="104.582" x2="309.149" y2="122.903" stroke="#9E9D9D" stroke-width="0.565937"/>
<line x1="283.038" y1="113.231" x2="294.817" y2="132.093" stroke="#9E9D9D" stroke-width="0.565937"/>
<line x1="270.531" y1="120.667" x2="282.31" y2="139.528" stroke="#9E9D9D" stroke-width="0.565937"/>
<line x1="257.822" y1="129.356" x2="268.725" y2="147.305" stroke="#9E9D9D" stroke-width="0.565937"/>
<line x1="244.943" y1="137.502" x2="255.846" y2="155.45" stroke="#9E9D9D" stroke-width="0.565937"/>
<line x1="232.063" y1="145.645" x2="242.966" y2="163.593" stroke="#9E9D9D" stroke-width="0.565937"/>
<line x1="217.933" y1="153.582" x2="229.713" y2="172.443" stroke="#9E9D9D" stroke-width="0.565937"/>
<line x1="207.422" y1="159.807" x2="219.201" y2="178.669" stroke="#9E9D9D" stroke-width="0.565937"/>
<rect x="173.671" y="177.4" width="12.4506" height="27.34" rx="2.82969" transform="rotate(-31.8061 173.671 177.4)" fill="#756F62"/>
<rect x="137.409" y="200.116" width="12.4506" height="27.7718" rx="2.82969" transform="rotate(-31.8061 137.409 200.116)" fill="#756F62"/>
<circle cx="134.641" cy="282.317" r="5.37641" transform="rotate(-17.241 134.641 282.317)" fill="#070707"/>
<circle cx="106.012" cy="324.68" r="2.26375" transform="rotate(-17.241 106.012 324.68)" fill="#6C6C6C"/>
<circle cx="145.824" cy="261.069" r="5.37641" transform="rotate(-17.241 145.824 261.069)" fill="#070707"/>
<circle cx="371.821" cy="71.3077" r="1.13187" fill="#EDE7D9"/>
<circle cx="345.788" cy="87.1538" r="1.13187" fill="#EDE7D9"/>
<circle cx="322.584" cy="101.302" r="1.13187" fill="#EDE7D9"/>
<circle cx="295.986" cy="118.282" r="1.13187" fill="#EDE7D9"/>
<circle cx="269.953" cy="134.128" r="1.13187" fill="#EDE7D9"/>
<circle cx="243.353" cy="151.105" r="1.13187" fill="#EDE7D9"/>
<circle cx="218.452" cy="165.821" r="1.13187" fill="#EDE7D9"/>
<defs>
<linearGradient id="paint0_linear_314_4536" x1="407.145" y1="53.2881" x2="203.691" y2="176.189" gradientUnits="userSpaceOnUse">
<stop stop-color="#8E5A3C"/>
<stop offset="1" stop-color="#6A4E36"/>
</linearGradient>
<linearGradient id="paint1_linear_314_4536" x1="414.981" y1="20.2888" x2="406.988" y2="25.1171" gradientUnits="userSpaceOnUse">
<stop stop-color="#9E9D9D"/>
<stop offset="1" stop-color="#CECECE"/>
</linearGradient>
<linearGradient id="paint2_linear_314_4536" x1="427.732" y1="16.2234" x2="419.739" y2="21.0516" gradientUnits="userSpaceOnUse">
<stop stop-color="#9E9D9D"/>
<stop offset="1" stop-color="#CECECE"/>
</linearGradient>
<linearGradient id="paint3_linear_314_4536" x1="439.66" y1="12.9866" x2="431.667" y2="17.8148" gradientUnits="userSpaceOnUse">
<stop stop-color="#9E9D9D"/>
<stop offset="1" stop-color="#CECECE"/>
</linearGradient>
<linearGradient id="paint4_linear_314_4536" x1="451.296" y1="9.26146" x2="443.303" y2="14.0897" gradientUnits="userSpaceOnUse">
<stop stop-color="#9E9D9D"/>
<stop offset="1" stop-color="#CECECE"/>
</linearGradient>
<linearGradient id="paint5_linear_314_4536" x1="463.224" y1="6.02464" x2="455.231" y2="10.8529" gradientUnits="userSpaceOnUse">
<stop stop-color="#9E9D9D"/>
<stop offset="1" stop-color="#CECECE"/>
</linearGradient>
<linearGradient id="paint6_linear_314_4536" x1="475.152" y1="2.78538" x2="467.159" y2="7.61365" gradientUnits="userSpaceOnUse">
<stop stop-color="#9E9D9D"/>
<stop offset="1" stop-color="#CECECE"/>
</linearGradient>
<linearGradient id="paint7_linear_314_4536" x1="107.543" y1="235.855" x2="73.1941" y2="255.309" gradientUnits="userSpaceOnUse">
<stop stop-color="#A29F9F"/>
<stop offset="1" stop-color="#BFBABA"/>
</linearGradient>
</defs>
</svg>
