<svg width="150" height="150" viewBox="0 0 150 150" fill="none" xmlns="http://www.w3.org/2000/svg">
<path d="M39.748 109.06H28.984V98.8H24.664V124H28.984V113.164H39.748V124H44.068V98.8H39.748V109.06ZM60.6828 98.368C53.3388 98.368 47.9388 103.948 47.9388 111.4C47.9388 118.852 53.3388 124.432 60.6828 124.432C68.0268 124.432 73.4268 118.852 73.4268 111.4C73.4268 103.948 68.0268 98.368 60.6828 98.368ZM60.6828 120.328C55.6068 120.328 52.3308 116.26 52.3308 111.4C52.3308 106.54 55.6068 102.472 60.6828 102.472C65.7588 102.472 69.0348 106.54 69.0348 111.4C69.0348 116.26 65.7588 120.328 60.6828 120.328ZM77.3281 98.8V124H81.6481V107.08L89.5321 119.068L97.4161 107.08V124H101.736V98.8H97.7401L89.5321 111.472L81.3241 98.8H77.3281ZM111.39 102.904H122.334V98.8H107.07V124H122.55V119.896H111.39V113.128H121.47V109.024H111.39V102.904Z" fill="#A0C1B9"/>
<ellipse cx="46.9906" cy="67.2971" rx="10.6242" ry="10.3291" transform="rotate(58.865 46.9906 67.2971)" fill="#BAD8BA"/>
<path d="M53.4665 86.1983C48.9108 87.1624 50.6382 79.0428 48.7881 75.9801C46.938 72.9175 44.5878 74.3801 47.378 72.6946C50.1682 71.0091 58.8218 66.7157 60.6718 69.7784C62.5219 72.841 55.9558 85.6715 53.4665 86.1983Z" fill="#BAD8BA"/>
<path d="M58.1969 79.9504C54.5819 89.6619 45.1908 94.4728 38.4412 77.1161C33.554 67.5987 38.1961 57.2093 41.3497 62.4298C46.3691 62.5582 54.8727 62.4614 57.9066 67.4837C60.9405 72.5061 57.7156 76.9657 58.1969 79.9504Z" fill="#BAD8BA"/>
<ellipse cx="62.8586" cy="53.5168" rx="2.21338" ry="2.115" transform="rotate(58.865 62.8586 53.5168)" fill="#BAD8BA"/>
<path d="M57.9865 62.0719C54.9429 61.4562 47.4808 56.3127 53.1826 56.1439C58.039 55.3364 59.1468 53.4604 59.3231 53.1816C61.7949 49.2714 61.1309 60.3926 64.6439 57.5185C64.0106 60.649 61.03 62.6876 57.9865 62.0719Z" fill="#BAD8BA"/>
<path d="M61.1995 62.8513C56.3167 65.8009 49.8989 64.1206 46.865 59.0982C42.8782 54.496 52.5222 57.807 57.405 54.8574C64.1345 57.0559 56.7338 56.1248 57.1205 58.4771C58.7822 64.0817 66.0824 59.9017 61.1995 62.8513Z" fill="#BAD8BA"/>
<path d="M64.6289 72.9044C63.1049 68.1936 42.607 74.2142 39.5732 69.1919C36.5393 64.1695 35.6519 55.4708 54.5324 56.1904C62.8563 61.2183 66.0716 55.6964 69.1054 60.7188C72.8856 61.0787 67.4426 60.3442 64.6289 72.9044Z" fill="#BAD8BA"/>
<path d="M63.6405 72.4097C59.5482 74.8818 53.9404 81.085 51.6275 69.2655C48.3496 61.9366 38.6328 59.3591 47.6287 60.6481C58.5387 58.8272 64.7771 48.7972 67.3194 53.0058C72.8884 70.501 65.654 63.091 63.6405 72.4097Z" fill="#BAD8BA"/>
<path d="M68.4775 73.5678C61.0275 75.8845 62.8859 74.1095 61.3689 71.5983C59.852 69.0871 60.6015 65.8559 63.0429 64.3811C65.4843 62.9063 68.1784 63.6552 69.6953 66.1663C77.1714 66.9369 72.1057 72.4395 68.4775 73.5678Z" fill="#BAD8BA"/>
<path d="M71.8534 71.356C67.1802 74.179 64.5027 67.5588 62.9858 65.0476C61.4688 62.5364 60.1372 63.0907 68.08 61.9703C70.6127 65.4972 71.9958 65.4087 73.1657 67.3453C73.8523 68.4819 73.3596 70.4461 71.8534 71.356Z" fill="#BAD8BA"/>
<path d="M52.2956 86.7332C49.9369 90.629 44.775 88.3624 41.7412 83.34C38.7073 78.3176 40.2062 71.8551 45.089 68.9055C49.9719 65.9559 56.3897 67.6362 59.4236 72.6586C61.3938 79.9155 55.7097 77.5453 52.2956 86.7332Z" fill="#BAD8BA"/>
<path d="M68.0901 56.85C67.5429 57.1805 66.8762 57.2624 66.2365 57.0776C63.544 59.8835 68.6565 45.992 70.0826 46.1648C64.5336 43.828 58.5671 54.2129 59.0802 53.7305C59.2143 53.0784 64.8471 52.7178 65.3943 52.3873L66.7422 54.6187L68.0901 56.85Z" fill="#BAD8BA"/>
<ellipse cx="114.914" cy="33.9092" rx="2.70524" ry="2.80361" transform="rotate(58.865 114.914 33.9092)" fill="#D9D0B2"/>
<path d="M106.737 41.4917C106.483 41.0707 105.194 38.7464 102.558 40.2811C102.985 39.276 103.718 37.1096 105.043 36.309C106.368 35.5084 111.014 33.2555 111.786 34.5343C112.322 35.992 110.359 39.5914 106.737 41.4917Z" fill="#D9D0B2"/>
<path d="M70.6023 64.814C69.1649 63.6711 52.0868 73.3554 66.8147 70.4349C61.953 72.2799 63.3474 57.9911 65.1378 56.9095C66.9282 55.828 74.4215 58.4844 73.2006 59.222C70.1272 61.0785 68.2203 62.92 70.6023 64.814Z" fill="#BAD8BA"/>
<rect x="68.0388" y="55.8495" width="0.866707" height="4.32251" rx="0.393489" transform="rotate(57.565 68.0388 55.8495)" fill="#C4C4C4"/>
<path d="M70.1635 56.2871C67.6523 57.8041 63.5189 54.3247 63.164 51.2637C61.4925 48.4967 65.9999 46.1603 67.0287 46.0559C74.0848 44.6093 68.3159 50.565 68.8234 53.8787C69.7512 56.6511 72.5081 53.3193 70.1635 56.2871Z" fill="#BAD8BA"/>
<path d="M100.551 37.2436L102.425 40.3468L67.7283 62.8149L65.0834 58.4365L100.551 37.2436Z" fill="url(#paint0_linear_147_4190)"/>
<rect x="115.566" y="30.981" width="3.40928" height="15.7419" rx="1.37721" transform="rotate(73.5057 115.566 30.981)" fill="#D9D0B2"/>
<path d="M61.385 75.3345C58.7691 76.6166 57.9689 82.6166 56.5936 82.5279C55.2184 82.4392 58.1474 73.4977 59.496 72.683C60.8446 71.8684 66.0511 72.6903 66.5286 73.4808C69.0989 74.216 62.7998 74.6411 61.385 75.3345Z" fill="#BAD8BA"/>
<path d="M102.844 39.9934C102.399 40.7793 102.032 39.5048 101.372 38.412C100.711 37.3192 100.591 36.1827 101.103 35.8737C101.614 35.5647 103.561 36.8045 104.221 37.8973C104.881 38.9902 102.843 39.7066 102.844 39.9934Z" fill="#D9D0B2"/>
<rect x="101.392" y="36.7333" width="3.63977" height="0.983723" transform="rotate(58.865 101.392 36.7333)" fill="#D9D0B2"/>
<path d="M110.661 33.6567C110.782 33.3501 111.165 33.2474 111.424 33.452L114.106 35.5742C114.52 35.9019 114.197 36.5632 113.684 36.4377L112.414 36.1271C112.223 36.0803 112.022 36.1522 111.904 36.3097L111.195 37.2541C111.062 37.4324 110.825 37.4985 110.618 37.415L109.825 37.0948C109.575 36.9936 109.453 36.709 109.552 36.4577L110.661 33.6567Z" fill="#D9D0B2"/>
<path d="M102.752 34.4179C102.403 34.6286 101.823 34.4977 101.654 34.2187C101.486 33.9397 101.818 33.6603 102.167 33.4496C102.515 33.2389 103.079 33.4373 103.247 33.7163C103.416 33.9953 103.1 34.2072 102.752 34.4179Z" fill="url(#paint1_linear_147_4190)"/>
<path d="M104.968 33.7112C104.619 33.9219 104.039 33.791 103.871 33.512C103.702 33.233 104.034 32.9535 104.383 32.7429C104.732 32.5322 105.295 32.7305 105.463 33.0096C105.632 33.2886 105.317 33.5005 104.968 33.7112Z" fill="url(#paint2_linear_147_4190)"/>
<path d="M107.041 33.1482C106.693 33.3589 106.113 33.2281 105.944 32.9491C105.776 32.6701 106.108 32.3906 106.456 32.1799C106.805 31.9692 107.368 32.1676 107.537 32.4466C107.705 32.7256 107.39 32.9376 107.041 33.1482Z" fill="url(#paint3_linear_147_4190)"/>
<path d="M109.064 32.5011C108.715 32.7118 108.135 32.5809 107.967 32.3019C107.798 32.0229 108.13 31.7435 108.479 31.5328C108.828 31.3221 109.391 31.5204 109.559 31.7995C109.728 32.0785 109.413 32.2904 109.064 32.5011Z" fill="url(#paint4_linear_147_4190)"/>
<path d="M111.137 31.9382C110.789 32.1488 110.209 32.018 110.04 31.739C109.872 31.46 110.204 31.1805 110.552 30.9698C110.901 30.7592 111.464 30.9575 111.633 31.2365C111.801 31.5156 111.486 31.7275 111.137 31.9382Z" fill="url(#paint5_linear_147_4190)"/>
<path d="M113.211 31.3752C112.862 31.5859 112.282 31.4551 112.114 31.1761C111.945 30.897 112.277 30.6176 112.626 30.4069C112.975 30.1962 113.538 30.3946 113.706 30.6736C113.875 30.9526 113.559 31.1645 113.211 31.3752Z" fill="url(#paint6_linear_147_4190)"/>
<path d="M65.8741 63.0253C66.6553 69.3655 62.9732 68.9166 60.4779 74.1503C44.5695 58.9747 53.9827 66.5782 60.5002 55.0942C60.0906 55.6395 66.0745 46.0701 68.2006 49.9718C67.1227 53.8797 62.4124 56.6725 65.8741 63.0253Z" fill="#EDE7D9"/>
<path d="M67.4962 56.968C65.2978 58.2389 61.0179 60.9602 63.0235 58.1939C62.3774 54.95 67.3872 49.1063 67.8702 49.4985C69.3798 51.0445 66.2494 51.774 66.8955 55.0179C67.3171 57.1344 71.46 54.6765 67.4962 56.968Z" fill="#EDE7D9"/>
<path d="M65.9184 57.5994L66.6936 60.1234L68.3943 62.1431L66.1225 63.3811L63.6465 58.8373L65.9184 57.5994Z" fill="#EDE7D9"/>
<path d="M72.0166 68.5512C71.2033 68.9943 69.4469 68.0803 68.6915 66.694C67.9361 65.3077 62.3946 66.4513 69.1581 62.1468C70.071 61.5659 67.6858 62.8381 68.4412 64.2244C69.353 65.8978 72.1478 66.6892 72.0166 68.5512Z" fill="#EDE7D9"/>
<path d="M64.4515 72.5307C54.9363 68.8805 63.6425 71.8471 62.579 69.8954C61.5154 67.9436 62.1413 65.5505 63.9769 64.5503C65.8125 63.55 67.6736 66.6281 71.7417 67.6852C73.7098 70.596 66.0381 73.1394 64.4515 72.5307Z" fill="#EDE7D9"/>
<rect x="66.3835" y="61.0563" width="4.40793" height="2.49144" transform="rotate(61.4134 66.3835 61.0563)" fill="#EDE7D9"/>
<path d="M68.3943 62.1431L68.6704 62.5765L67.5449 63.5882L67.1322 62.8309L68.3943 62.1431Z" fill="#EDE7D9"/>
<path d="M69.2533 61.8296L69.3634 62.0036L68.064 63.0244L67.8868 62.7062L69.2533 61.8296Z" fill="#EDE7D9"/>
<path d="M58.7068 75.6065C56.3136 76.9107 54.3611 77.144 53.9306 76.354C53.5001 75.564 55.0912 73.8664 57.4845 72.5623C59.8777 71.2582 66.5526 71.1797 66.9831 71.9697C67.365 73.0711 61.8171 72.002 58.7068 75.6065Z" fill="#EDE7D9"/>
<path d="M58.9555 75.3619C56.9318 77.5559 54.3918 84.3098 52.9611 81.6842C51.5304 79.0586 53.4631 73.5934 55.8977 72.554C60.0587 70.7776 59.474 65.9997 60.9048 68.6253C62.3355 71.2509 64.1356 69.0471 58.9555 75.3619Z" fill="#EDE7D9"/>
<path d="M58.6648 75.6295C57.8051 76.0979 56.5641 75.4794 55.8931 74.2479C55.222 73.0164 55.3305 75.3183 54.0726 74.9125C51.0528 81.687 54.7682 69.8806 55.4393 71.1121C56.1103 72.3436 59.5245 75.161 58.6648 75.6295Z" fill="#EDE7D9"/>
<rect x="54.5133" y="63.7051" width="10.349" height="2.87473" transform="rotate(61.4134 54.5133 63.7051)" fill="#EDE7D9"/>
<path d="M49.8974 75.7989C47.6519 77.0707 44.8874 76.4346 43.7227 74.3782C42.558 72.3218 43.4342 69.6238 45.6797 68.352C47.9252 67.0802 48.507 68.9525 49.6717 71.0089C50.8364 73.0653 52.143 74.5271 49.8974 75.7989Z" fill="url(#paint7_linear_147_4190)"/>
<circle cx="103.084" cy="35.9331" r="0.295117" transform="rotate(57.5046 103.084 35.9331)" fill="#9E9D9D"/>
<circle cx="105.309" cy="35.2154" r="0.295117" transform="rotate(57.5046 105.309 35.2154)" fill="#9E9D9D"/>
<circle cx="107.369" cy="34.6034" r="0.295117" transform="rotate(57.5046 107.369 34.6034)" fill="#9E9D9D"/>
<circle cx="109.322" cy="33.8255" r="0.295117" transform="rotate(57.5046 109.322 33.8255)" fill="#9E9D9D"/>
<circle cx="111.601" cy="33.1907" r="0.295117" transform="rotate(57.5046 111.601 33.1907)" fill="#9E9D9D"/>
<circle cx="113.66" cy="32.5788" r="0.295117" transform="rotate(57.5046 113.66 32.5788)" fill="#9E9D9D"/>
<line x1="102.86" y1="36.1339" x2="46.8464" y2="69.5962" stroke="#C6C6C6" stroke-width="0.0983723"/>
<line x1="105.056" y1="35.5519" x2="47.3751" y2="70.4258" stroke="#C6C6C6" stroke-width="0.0983723"/>
<line x1="107.613" y1="34.6226" x2="47.9038" y2="71.2552" stroke="#C6C6C6" stroke-width="0.0983723"/>
<line x1="109.424" y1="34.1689" x2="48.5384" y2="72.2507" stroke="#C6C6C6" stroke-width="0.0983723"/>
<line x1="111.348" y1="33.5266" x2="49.1201" y2="73.1632" stroke="#C6C6C6" stroke-width="0.0983723"/>
<line x1="113.491" y1="32.8616" x2="49.5959" y2="73.9098" stroke="#C6C6C6" stroke-width="0.0983723"/>
<line x1="98.0363" y1="38.7908" x2="99.9315" y2="41.9107" stroke="#9E9D9D" stroke-width="0.0983723"/>
<line x1="95.7977" y1="40.2065" x2="97.6929" y2="43.3264" stroke="#9E9D9D" stroke-width="0.0983723"/>
<line x1="93.559" y1="41.6222" x2="95.4542" y2="44.7421" stroke="#9E9D9D" stroke-width="0.0983723"/>
<line x1="91.103" y1="43.0018" x2="93.1504" y2="46.2804" stroke="#9E9D9D" stroke-width="0.0983723"/>
<line x1="89.2758" y1="44.0839" x2="91.3232" y2="47.3625" stroke="#9E9D9D" stroke-width="0.0983723"/>
<line x1="87.3188" y1="45.4118" x2="89.3371" y2="48.5965" stroke="#9E9D9D" stroke-width="0.0983723"/>
<line x1="84.9278" y1="46.6687" x2="87.1275" y2="50.106" stroke="#9E9D9D" stroke-width="0.0983723"/>
<line x1="82.7184" y1="48.1786" x2="84.7367" y2="51.3632" stroke="#9E9D9D" stroke-width="0.0983723"/>
<line x1="80.198" y1="49.682" x2="82.2455" y2="52.9606" stroke="#9E9D9D" stroke-width="0.0983723"/>
<line x1="78.0242" y1="50.9747" x2="80.0716" y2="54.2533" stroke="#9E9D9D" stroke-width="0.0983723"/>
<line x1="75.815" y1="52.4849" x2="77.7102" y2="55.6048" stroke="#9E9D9D" stroke-width="0.0983723"/>
<line x1="73.5763" y1="53.9006" x2="75.4715" y2="57.0205" stroke="#9E9D9D" stroke-width="0.0983723"/>
<line x1="71.3377" y1="55.3164" x2="73.2329" y2="58.4362" stroke="#9E9D9D" stroke-width="0.0983723"/>
<line x1="68.8817" y1="56.6959" x2="70.9291" y2="59.9745" stroke="#9E9D9D" stroke-width="0.0983723"/>
<line x1="67.0544" y1="57.778" x2="69.1019" y2="61.0566" stroke="#9E9D9D" stroke-width="0.0983723"/>
<rect x="61.1878" y="60.8361" width="2.16419" height="4.75229" rx="0.491861" transform="rotate(-31.8061 61.1878 60.8361)" fill="#756F62"/>
<rect x="54.8848" y="64.7847" width="2.16419" height="4.82735" rx="0.491861" transform="rotate(-31.8061 54.8848 64.7847)" fill="#756F62"/>
<circle cx="54.4036" cy="79.0727" r="0.934536" transform="rotate(-17.241 54.4036 79.0727)" fill="#070707"/>
<circle cx="49.4273" cy="86.4365" r="0.393489" transform="rotate(-17.241 49.4273 86.4365)" fill="#6C6C6C"/>
<circle cx="56.3474" cy="75.3794" r="0.934536" transform="rotate(-17.241 56.3474 75.3794)" fill="#070707"/>
<circle cx="95.6306" cy="42.3949" r="0.196745" fill="#EDE7D9"/>
<circle cx="91.1054" cy="45.1493" r="0.196745" fill="#EDE7D9"/>
<circle cx="87.0722" cy="47.6086" r="0.196745" fill="#EDE7D9"/>
<circle cx="82.4487" cy="50.5598" r="0.196745" fill="#EDE7D9"/>
<circle cx="77.9236" cy="53.3142" r="0.196745" fill="#EDE7D9"/>
<circle cx="73.3001" cy="56.2654" r="0.196745" fill="#EDE7D9"/>
<circle cx="68.9717" cy="58.8231" r="0.196745" fill="#EDE7D9"/>
<defs>
<linearGradient id="paint0_linear_147_4190" x1="101.771" y1="39.2628" x2="66.4058" y2="60.6257" gradientUnits="userSpaceOnUse">
<stop stop-color="#8E5A3C"/>
<stop offset="1" stop-color="#6A4E36"/>
</linearGradient>
<linearGradient id="paint1_linear_147_4190" x1="103.133" y1="33.5268" x2="101.743" y2="34.3661" gradientUnits="userSpaceOnUse">
<stop stop-color="#9E9D9D"/>
<stop offset="1" stop-color="#CECECE"/>
</linearGradient>
<linearGradient id="paint2_linear_147_4190" x1="105.349" y1="32.8201" x2="103.96" y2="33.6594" gradientUnits="userSpaceOnUse">
<stop stop-color="#9E9D9D"/>
<stop offset="1" stop-color="#CECECE"/>
</linearGradient>
<linearGradient id="paint3_linear_147_4190" x1="107.422" y1="32.2572" x2="106.033" y2="33.0964" gradientUnits="userSpaceOnUse">
<stop stop-color="#9E9D9D"/>
<stop offset="1" stop-color="#CECECE"/>
</linearGradient>
<linearGradient id="paint4_linear_147_4190" x1="109.445" y1="31.61" x2="108.056" y2="32.4493" gradientUnits="userSpaceOnUse">
<stop stop-color="#9E9D9D"/>
<stop offset="1" stop-color="#CECECE"/>
</linearGradient>
<linearGradient id="paint5_linear_147_4190" x1="111.518" y1="31.0471" x2="110.129" y2="31.8863" gradientUnits="userSpaceOnUse">
<stop stop-color="#9E9D9D"/>
<stop offset="1" stop-color="#CECECE"/>
</linearGradient>
<linearGradient id="paint6_linear_147_4190" x1="113.592" y1="30.4842" x2="112.203" y2="31.3234" gradientUnits="userSpaceOnUse">
<stop stop-color="#9E9D9D"/>
<stop offset="1" stop-color="#CECECE"/>
</linearGradient>
<linearGradient id="paint7_linear_147_4190" x1="49.6933" y1="70.9967" x2="43.7227" y2="74.3782" gradientUnits="userSpaceOnUse">
<stop stop-color="#A29F9F"/>
<stop offset="1" stop-color="#BFBABA"/>
</linearGradient>
</defs>
</svg>
