<svg width="200" height="70" viewBox="0 0 200 70" fill="none" xmlns="http://www.w3.org/2000/svg">
<g clip-path="url(#clip0_118_3027)">
<path d="M91.748 53.06H80.984V42.8H76.664V68H80.984V57.164H91.748V68H96.068V42.8H91.748V53.06ZM112.683 42.368C105.339 42.368 99.9388 47.948 99.9388 55.4C99.9388 62.852 105.339 68.432 112.683 68.432C120.027 68.432 125.427 62.852 125.427 55.4C125.427 47.948 120.027 42.368 112.683 42.368ZM112.683 64.328C107.607 64.328 104.331 60.26 104.331 55.4C104.331 50.54 107.607 46.472 112.683 46.472C117.759 46.472 121.035 50.54 121.035 55.4C121.035 60.26 117.759 64.328 112.683 64.328ZM129.328 42.8V68H133.648V51.08L141.532 63.068L149.416 51.08V68H153.736V42.8H149.74L141.532 55.472L133.324 42.8H129.328ZM163.39 46.904H174.334V42.8H159.07V68H174.55V63.896H163.39V57.128H173.47V53.024H163.39V46.904Z" fill="#A0C1B9"/>
<ellipse cx="41.5954" cy="43.3725" rx="12.3548" ry="12.0116" transform="rotate(58.865 41.5954 43.3725)" fill="#BAD8BA"/>
<path d="M49.1261 65.3526C43.8284 66.4738 45.8371 57.0316 43.6856 53.47C41.5342 49.9084 38.8011 51.6092 42.0458 49.6492C45.2905 47.6892 55.3537 42.6964 57.5052 46.258C59.6566 49.8195 52.0209 64.74 49.1261 65.3526Z" fill="#BAD8BA"/>
<path d="M54.6271 58.0869C50.4232 69.3803 39.5024 74.975 31.6533 54.791C25.97 43.7233 31.3683 31.6415 35.0356 37.7124C40.8727 37.8617 50.7614 37.7491 54.2895 43.5895C57.8176 49.43 54.0674 54.616 54.6271 58.0869Z" fill="#BAD8BA"/>
<ellipse cx="60.0481" cy="27.3475" rx="2.57392" ry="2.45952" transform="rotate(58.865 60.0481 27.3475)" fill="#BAD8BA"/>
<path d="M54.3823 37.2962C50.8431 36.5802 42.1654 30.5989 48.796 30.4025C54.4434 29.4636 55.7317 27.282 55.9368 26.9577C58.8111 22.4106 58.039 35.3434 62.1242 32.0011C61.3878 35.6415 57.9216 38.0122 54.3823 37.2962Z" fill="#BAD8BA"/>
<path d="M58.1188 38.2025C52.4406 41.6326 44.9774 39.6786 41.4493 33.8381C36.813 28.4862 48.0279 32.3366 53.7062 28.9065C61.5318 31.4631 52.9257 30.3804 53.3753 33.1159C55.3077 39.6334 63.797 34.7724 58.1188 38.2025Z" fill="#BAD8BA"/>
<path d="M62.1068 49.8933C60.3346 44.4151 36.4977 51.4164 32.9696 45.576C29.4416 39.7355 28.4096 29.6198 50.3656 30.4566C60.0455 36.3036 63.7844 29.8822 67.3125 35.7227C71.7084 36.1412 65.3788 35.2871 62.1068 49.8933Z" fill="#BAD8BA"/>
<path d="M60.9574 49.318C56.1985 52.1927 49.6773 59.4064 46.9876 45.6616C43.1757 37.1388 31.8761 34.1415 42.3374 35.6405C55.0245 33.5229 62.2791 21.8591 65.2355 26.7532C71.7117 47.0983 63.2989 38.4813 60.9574 49.318Z" fill="#BAD8BA"/>
<path d="M66.5823 50.6647C57.9188 53.3587 60.0799 51.2946 58.3158 48.3744C56.5518 45.4541 57.4233 41.6965 60.2624 39.9815C63.1016 38.2664 66.2344 39.1373 67.9985 42.0576C76.6924 42.9536 70.8015 49.3526 66.5823 50.6647Z" fill="#BAD8BA"/>
<path d="M70.5082 48.0925C65.0737 51.3753 61.96 43.6768 60.196 40.7565C58.432 37.8363 56.8834 38.4809 66.1201 37.178C69.0653 41.2794 70.6737 41.1765 72.0342 43.4286C72.8326 44.7503 72.2597 47.0344 70.5082 48.0925Z" fill="#BAD8BA"/>
<path d="M47.7644 65.9747C45.0215 70.505 39.0189 67.8692 35.4908 62.0287C31.9628 56.1882 33.7058 48.673 39.384 45.2429C45.0623 41.8128 52.5255 43.7669 56.0535 49.6073C58.3448 58.0464 51.7348 55.2901 47.7644 65.9747Z" fill="#BAD8BA"/>
<path d="M66.1317 31.2237C65.4955 31.6081 64.7202 31.7033 63.9763 31.4884C60.8452 34.7513 66.7905 18.597 68.4489 18.798C61.9959 16.0805 55.0575 28.157 55.6542 27.5961C55.8102 26.8377 62.3606 26.4184 62.9968 26.0341L64.5643 28.6289L66.1317 31.2237Z" fill="#BAD8BA"/>
<ellipse cx="120.583" cy="4.54598" rx="3.1459" ry="3.2603" transform="rotate(58.865 120.583 4.54598)" fill="#D9D0B2"/>
<path d="M111.074 13.3637C110.779 12.8741 109.279 10.1711 106.214 11.9558C106.711 10.787 107.563 8.26776 109.104 7.33674C110.645 6.40572 116.047 3.78577 116.946 5.27293C117.569 6.9681 115.286 11.1537 111.074 13.3637Z" fill="#D9D0B2"/>
<path d="M69.0532 40.485C67.3816 39.1559 47.5216 50.4177 64.6486 47.0215C58.995 49.167 60.6165 32.5507 62.6986 31.293C64.7806 30.0353 73.4945 33.1244 72.0747 33.9821C68.5007 36.141 66.2832 38.2825 69.0532 40.485Z" fill="#BAD8BA"/>
<rect x="66.0721" y="30.0602" width="1.00789" height="5.02662" rx="0.457585" transform="rotate(57.565 66.0721 30.0602)" fill="#C4C4C4"/>
<path d="M68.5429 30.5691C65.6227 32.3331 60.816 28.287 60.4032 24.7274C58.4595 21.5097 63.7011 18.7927 64.8975 18.6713C73.1029 16.989 66.3943 23.9149 66.9845 27.7683C68.0635 30.9923 71.2694 27.1178 68.5429 30.5691Z" fill="#BAD8BA"/>
<path d="M103.88 8.42344L106.06 12.0321L65.7111 38.1602L62.6353 33.0685L103.88 8.42344Z" fill="url(#paint0_linear_118_3027)"/>
<rect x="121.341" y="1.14087" width="3.96463" height="18.3061" rx="1.60155" transform="rotate(73.5057 121.341 1.14087)" fill="#D9D0B2"/>
<path d="M58.3345 52.7192C55.2925 54.2101 54.3619 61.1874 52.7626 61.0843C51.1634 60.9812 54.5695 50.5831 56.1378 49.6358C57.706 48.6884 63.7606 49.6442 64.316 50.5635C67.3049 51.4184 59.9797 51.9129 58.3345 52.7192Z" fill="#BAD8BA"/>
<path d="M106.547 11.6212C106.03 12.535 105.602 11.053 104.835 9.78217C104.067 8.51132 103.927 7.1898 104.522 6.83046C105.117 6.47112 107.381 7.91285 108.148 9.18369C108.916 10.4545 106.546 11.2877 106.547 11.6212Z" fill="#D9D0B2"/>
<rect x="104.858" y="7.83008" width="4.23267" height="1.14396" transform="rotate(58.865 104.858 7.83008)" fill="#D9D0B2"/>
<path d="M115.637 4.25227C115.778 3.89582 116.223 3.77638 116.524 4.01425L119.643 6.48218C120.125 6.86331 119.749 7.63231 119.152 7.48635L117.676 7.12515C117.454 7.07072 117.22 7.15427 117.083 7.3375L116.259 8.43568C116.103 8.64311 115.827 8.7199 115.587 8.62278L114.665 8.25048C114.374 8.13274 114.232 7.80186 114.348 7.50958L115.637 4.25227Z" fill="#D9D0B2"/>
<path d="M106.439 5.13758C106.034 5.38258 105.359 5.23044 105.163 4.90597C104.967 4.5815 105.353 4.25653 105.759 4.01153C106.165 3.76652 106.82 3.9972 107.016 4.32167C107.212 4.64614 106.845 4.89257 106.439 5.13758Z" fill="url(#paint1_linear_118_3027)"/>
<path d="M109.017 4.31568C108.611 4.56068 107.937 4.40854 107.741 4.08407C107.545 3.7596 107.931 3.43463 108.336 3.18963C108.742 2.94462 109.397 3.1753 109.593 3.49977C109.789 3.82424 109.422 4.07067 109.017 4.31568Z" fill="url(#paint2_linear_118_3027)"/>
<path d="M111.428 3.66102C111.022 3.90602 110.348 3.75387 110.152 3.4294C109.956 3.10493 110.342 2.77997 110.748 2.53496C111.153 2.28996 111.808 2.52064 112.004 2.84511C112.2 3.16958 111.833 3.41601 111.428 3.66102Z" fill="url(#paint3_linear_118_3027)"/>
<path d="M113.78 2.90845C113.374 3.15346 112.7 3.00131 112.504 2.67684C112.308 2.35237 112.694 2.0274 113.1 1.7824C113.505 1.53739 114.16 1.76807 114.356 2.09255C114.552 2.41702 114.185 2.66345 113.78 2.90845Z" fill="url(#paint4_linear_118_3027)"/>
<path d="M116.191 2.25391C115.785 2.49892 115.111 2.34677 114.915 2.0223C114.719 1.69783 115.105 1.37286 115.511 1.12786C115.916 0.882854 116.571 1.11353 116.767 1.438C116.963 1.76248 116.597 2.00891 116.191 2.25391Z" fill="url(#paint5_linear_118_3027)"/>
<path d="M118.602 1.59925C118.197 1.84425 117.522 1.69211 117.326 1.36764C117.13 1.04317 117.516 0.7182 117.922 0.473195C118.328 0.228191 118.983 0.458871 119.179 0.783341C119.375 1.10781 119.008 1.35424 118.602 1.59925Z" fill="url(#paint6_linear_118_3027)"/>
<path d="M63.5548 38.4049C64.4633 45.7779 60.1814 45.2558 57.2796 51.3421C38.7799 33.6945 49.7264 42.5366 57.3056 29.1819C56.8293 29.816 63.7879 18.6878 66.2603 23.2251C65.0068 27.7696 59.5292 31.0173 63.5548 38.4049Z" fill="#EDE7D9"/>
<path d="M65.4411 31.3608C62.8846 32.8387 57.9076 36.0033 60.2398 32.7864C59.4885 29.0141 65.3144 22.2185 65.8761 22.6746C67.6316 24.4725 63.9913 25.3207 64.7426 29.0931C65.2329 31.5544 70.0506 28.696 65.4411 31.3608Z" fill="#EDE7D9"/>
<path d="M63.6063 32.0951L64.5078 35.0303L66.4856 37.379L63.8437 38.8186L60.9644 33.5347L63.6063 32.0951Z" fill="#EDE7D9"/>
<path d="M70.6979 44.8308C69.7521 45.3461 67.7096 44.2833 66.8312 42.6712C65.9527 41.059 59.5085 42.3889 67.3738 37.3832C68.4354 36.7077 65.6616 38.1872 66.5401 39.7993C67.6004 41.7452 70.8504 42.6655 70.6979 44.8308Z" fill="#EDE7D9"/>
<path d="M61.9005 49.4587C50.8353 45.2138 60.9597 48.6637 59.7229 46.394C58.4861 44.1243 59.214 41.3414 61.3486 40.1782C63.4832 39.015 65.6475 42.5946 70.3783 43.8238C72.6668 47.2087 63.7456 50.1665 61.9005 49.4587Z" fill="#EDE7D9"/>
<rect x="64.1472" y="36.1151" width="5.12594" height="2.89727" transform="rotate(61.4134 64.1472 36.1151)" fill="#EDE7D9"/>
<path d="M66.4856 37.379L66.8067 37.883L65.4977 39.0594L65.0179 38.1788L66.4856 37.379Z" fill="#EDE7D9"/>
<path d="M67.4844 37.0143L67.6126 37.2168L66.1015 38.4038L65.8953 38.0337L67.4844 37.0143Z" fill="#EDE7D9"/>
<path d="M55.2201 53.0355C52.437 54.5521 50.1664 54.8235 49.6658 53.9048C49.1652 52.9861 51.0155 51.0119 53.7986 49.4954C56.5817 47.9788 64.3438 47.8876 64.8445 48.8063C65.2886 50.0871 58.837 48.8438 55.2201 53.0355Z" fill="#EDE7D9"/>
<path d="M55.5093 52.751C53.1559 55.3024 50.2022 63.1564 48.5384 60.1031C46.8746 57.0498 49.1221 50.6944 51.9534 49.4857C56.7922 47.4199 56.1122 41.8637 57.776 44.917C59.4398 47.9703 61.5331 45.4075 55.5093 52.751Z" fill="#EDE7D9"/>
<path d="M55.1711 53.0622C54.1714 53.607 52.7283 52.8877 51.948 51.4556C51.1676 50.0235 51.2937 52.7003 49.831 52.2284C46.3193 60.1065 50.6399 46.3769 51.4203 47.809C52.2006 49.241 56.1709 52.5174 55.1711 53.0622Z" fill="#EDE7D9"/>
<rect x="50.3434" y="39.1954" width="12.0348" height="3.34301" transform="rotate(61.4134 50.3434 39.1954)" fill="#EDE7D9"/>
<path d="M44.9757 53.2592C42.3644 54.7382 39.1496 53.9985 37.7952 51.6071C36.4408 49.2157 37.4596 46.0782 40.0709 44.5992C42.6822 43.1203 43.3588 45.2975 44.7132 47.6889C46.0676 50.0803 47.587 51.7802 44.9757 53.2592Z" fill="url(#paint7_linear_118_3027)"/>
<circle cx="106.826" cy="6.89961" r="0.343189" transform="rotate(57.5046 106.826 6.89961)" fill="#9E9D9D"/>
<circle cx="109.413" cy="6.06489" r="0.343189" transform="rotate(57.5046 109.413 6.06489)" fill="#9E9D9D"/>
<circle cx="111.808" cy="5.35322" r="0.343189" transform="rotate(57.5046 111.808 5.35322)" fill="#9E9D9D"/>
<circle cx="114.08" cy="4.44856" r="0.343189" transform="rotate(57.5046 114.08 4.44856)" fill="#9E9D9D"/>
<circle cx="116.73" cy="3.7104" r="0.343189" transform="rotate(57.5046 116.73 3.7104)" fill="#9E9D9D"/>
<circle cx="119.125" cy="2.99885" r="0.343189" transform="rotate(57.5046 119.125 2.99885)" fill="#9E9D9D"/>
<line x1="106.565" y1="7.13309" x2="41.4276" y2="46.0461" stroke="#C6C6C6" stroke-width="0.114396"/>
<line x1="109.119" y1="6.4563" x2="42.0425" y2="47.0109" stroke="#C6C6C6" stroke-width="0.114396"/>
<line x1="112.093" y1="5.37554" x2="42.6573" y2="47.9754" stroke="#C6C6C6" stroke-width="0.114396"/>
<line x1="114.199" y1="4.84805" x2="43.3953" y2="49.1331" stroke="#C6C6C6" stroke-width="0.114396"/>
<line x1="116.436" y1="4.1011" x2="44.0717" y2="50.1942" stroke="#C6C6C6" stroke-width="0.114396"/>
<line x1="118.928" y1="3.32779" x2="44.625" y2="51.0624" stroke="#C6C6C6" stroke-width="0.114396"/>
<line x1="100.956" y1="10.2227" x2="103.16" y2="13.8508" stroke="#9E9D9D" stroke-width="0.114396"/>
<line x1="98.3527" y1="11.8691" x2="100.557" y2="15.4972" stroke="#9E9D9D" stroke-width="0.114396"/>
<line x1="95.7494" y1="13.5155" x2="97.9533" y2="17.1435" stroke="#9E9D9D" stroke-width="0.114396"/>
<line x1="92.8933" y1="15.1197" x2="95.2743" y2="18.9324" stroke="#9E9D9D" stroke-width="0.114396"/>
<line x1="90.7685" y1="16.378" x2="93.1494" y2="20.1907" stroke="#9E9D9D" stroke-width="0.114396"/>
<line x1="88.4927" y1="17.9224" x2="90.8398" y2="21.6258" stroke="#9E9D9D" stroke-width="0.114396"/>
<line x1="85.7122" y1="19.3838" x2="88.2702" y2="23.3811" stroke="#9E9D9D" stroke-width="0.114396"/>
<line x1="83.1429" y1="21.1397" x2="85.49" y2="24.8431" stroke="#9E9D9D" stroke-width="0.114396"/>
<line x1="80.212" y1="22.888" x2="82.593" y2="26.7007" stroke="#9E9D9D" stroke-width="0.114396"/>
<line x1="77.684" y1="24.3913" x2="80.065" y2="28.204" stroke="#9E9D9D" stroke-width="0.114396"/>
<line x1="75.115" y1="26.1475" x2="77.3189" y2="29.7756" stroke="#9E9D9D" stroke-width="0.114396"/>
<line x1="72.5117" y1="27.7939" x2="74.7156" y2="31.422" stroke="#9E9D9D" stroke-width="0.114396"/>
<line x1="69.9084" y1="29.4403" x2="72.1123" y2="33.0683" stroke="#9E9D9D" stroke-width="0.114396"/>
<line x1="67.0523" y1="31.0445" x2="69.4333" y2="34.8572" stroke="#9E9D9D" stroke-width="0.114396"/>
<line x1="64.9274" y1="32.3028" x2="67.3084" y2="36.1155" stroke="#9E9D9D" stroke-width="0.114396"/>
<rect x="58.1052" y="35.8591" width="2.51672" height="5.5264" rx="0.571982" transform="rotate(-31.8061 58.1052 35.8591)" fill="#756F62"/>
<rect x="50.7755" y="40.4509" width="2.51672" height="5.61369" rx="0.571982" transform="rotate(-31.8061 50.7755 40.4509)" fill="#756F62"/>
<circle cx="50.2158" cy="57.0663" r="1.08677" transform="rotate(-17.241 50.2158 57.0663)" fill="#070707"/>
<circle cx="44.429" cy="65.6296" r="0.457585" transform="rotate(-17.241 44.429 65.6296)" fill="#6C6C6C"/>
<circle cx="52.4763" cy="52.7714" r="1.08677" transform="rotate(-17.241 52.4763 52.7714)" fill="#070707"/>
<circle cx="98.1584" cy="14.414" r="0.228793" fill="#EDE7D9"/>
<circle cx="92.8961" cy="17.6171" r="0.228793" fill="#EDE7D9"/>
<circle cx="88.2059" cy="20.477" r="0.228793" fill="#EDE7D9"/>
<circle cx="82.8293" cy="23.9088" r="0.228793" fill="#EDE7D9"/>
<circle cx="77.567" cy="27.112" r="0.228793" fill="#EDE7D9"/>
<circle cx="72.1904" cy="30.5439" r="0.228793" fill="#EDE7D9"/>
<circle cx="67.157" cy="33.5181" r="0.228793" fill="#EDE7D9"/>
</g>
<defs>
<linearGradient id="paint0_linear_118_3027" x1="105.299" y1="10.7716" x2="64.1732" y2="35.6143" gradientUnits="userSpaceOnUse">
<stop stop-color="#8E5A3C"/>
<stop offset="1" stop-color="#6A4E36"/>
</linearGradient>
<linearGradient id="paint1_linear_118_3027" x1="106.882" y1="4.10136" x2="105.267" y2="5.07732" gradientUnits="userSpaceOnUse">
<stop stop-color="#9E9D9D"/>
<stop offset="1" stop-color="#CECECE"/>
</linearGradient>
<linearGradient id="paint2_linear_118_3027" x1="109.46" y1="3.27946" x2="107.844" y2="4.25542" gradientUnits="userSpaceOnUse">
<stop stop-color="#9E9D9D"/>
<stop offset="1" stop-color="#CECECE"/>
</linearGradient>
<linearGradient id="paint3_linear_118_3027" x1="111.871" y1="2.62479" x2="110.255" y2="3.60076" gradientUnits="userSpaceOnUse">
<stop stop-color="#9E9D9D"/>
<stop offset="1" stop-color="#CECECE"/>
</linearGradient>
<linearGradient id="paint4_linear_118_3027" x1="114.223" y1="1.87223" x2="112.607" y2="2.8482" gradientUnits="userSpaceOnUse">
<stop stop-color="#9E9D9D"/>
<stop offset="1" stop-color="#CECECE"/>
</linearGradient>
<linearGradient id="paint5_linear_118_3027" x1="116.634" y1="1.21769" x2="115.019" y2="2.19366" gradientUnits="userSpaceOnUse">
<stop stop-color="#9E9D9D"/>
<stop offset="1" stop-color="#CECECE"/>
</linearGradient>
<linearGradient id="paint6_linear_118_3027" x1="119.045" y1="0.563027" x2="117.43" y2="1.53899" gradientUnits="userSpaceOnUse">
<stop stop-color="#9E9D9D"/>
<stop offset="1" stop-color="#CECECE"/>
</linearGradient>
<linearGradient id="paint7_linear_118_3027" x1="44.7383" y1="47.6747" x2="37.7952" y2="51.6071" gradientUnits="userSpaceOnUse">
<stop stop-color="#A29F9F"/>
<stop offset="1" stop-color="#BFBABA"/>
</linearGradient>
<clipPath id="clip0_118_3027">
<rect width="200" height="70" fill="white"/>
</clipPath>
</defs>
</svg>
