<svg width="199" height="528" viewBox="0 0 199 528" fill="none" xmlns="http://www.w3.org/2000/svg">
<path d="M66.0154 201.148C66.0154 219.015 72.3151 212.128 55.5978 212.128C38.8805 212.128 43.4118 219.015 43.4118 201.148C43.4118 183.28 38.8805 168.796 55.5978 168.796C72.3151 168.796 66.0154 183.28 66.0154 201.148Z" fill="#E4BDA7"/>
<path d="M118.736 195.172C114.619 190.532 107.52 190.109 102.88 194.226L69.6698 223.695C66.8082 226.234 65.1705 229.877 65.1705 233.703V233.703C65.1705 245.864 80.0812 251.718 88.3555 242.807L118.566 210.268C122.5 206.03 122.574 199.497 118.736 195.172V195.172Z" fill="#F4E8C1"/>
<path d="M105.122 192.899C96.9741 207.295 114.829 215.33 120.743 202.273" stroke="#EDE7D9" stroke-width="2.23185"/>
<path d="M103.198 201.372C106.168 212.153 121.975 210.349 122.441 199.176L125.065 136.256C125.309 130.394 117.29 128.49 114.872 133.836V133.836C114.695 134.227 114.566 134.639 114.488 135.061L103.01 196.981C102.739 198.44 102.804 199.941 103.198 201.372V201.372Z" fill="#E4BDA7"/>
<path d="M54.0112 510.706C54.0112 518.232 53.6008 524.333 44.7111 524.333C35.8213 524.333 16.7393 531.858 16.7393 524.333C16.7393 516.807 28.8289 509.488 37.7187 509.488C46.6084 509.488 54.0112 503.181 54.0112 510.706Z" fill="#A8A5A5"/>
<path d="M51.556 510.706C51.556 518.232 51.9663 524.333 60.8561 524.333C69.7458 524.333 88.8279 531.858 88.8279 524.333C88.8279 516.807 75.7339 509.599 66.8442 509.599C57.9544 509.599 51.556 503.181 51.556 510.706Z" fill="#A8A5A5"/>
<path d="M53.0274 507.338C53.0274 510.787 51.3253 520.841 55.3709 520.841C59.4165 520.841 94.5395 530.996 88.1791 520.841C32.4941 525.863 73.568 508.037 69.5224 508.037C65.4768 508.037 53.0274 503.889 53.0274 507.338Z" fill="#737373"/>
<path d="M52.6589 507.338C52.6589 510.788 54.361 520.841 50.3154 520.841C46.2697 520.841 11.1468 530.996 17.5072 520.841C73.1922 525.863 33.7846 509.599 37.8302 509.599C41.8759 509.599 52.6589 503.889 52.6589 507.338Z" fill="#737373"/>
<path d="M20.3101 325.695H87.0424L69.8571 509.822H37.4953L20.3101 325.695Z" fill="#70A0AF"/>
<path d="M58.5141 323.947C58.5141 327.292 72.0985 331.498 79.9809 331.498C87.8633 331.498 87.0587 327.292 87.0587 323.947C87.0587 320.602 80.6687 325.598 72.7864 325.598C64.904 325.598 58.5141 320.602 58.5141 323.947Z" fill="#F4E8C1"/>
<line x1="54.2735" y1="509.813" x2="55.8358" y2="325.685" stroke="black" stroke-opacity="0.03" stroke-width="2.23185"/>
<path d="M22.059 240.749C21.11 224.474 34.0525 210.755 50.3554 210.755H58.6979C74.3521 210.755 87.0424 223.445 87.0424 239.099V325.695H20.3101L24.4882 289.763C24.6782 288.129 24.7256 286.481 24.6298 284.839L22.059 240.749Z" fill="#F4E8C1"/>
<path d="M79.9006 167.76C73.6514 189.998 68.929 202.05 54.5691 202.05C40.2091 202.05 37.1606 190.668 27.8984 167.76C27.8984 149.473 39.5395 134.648 53.8995 134.648C68.2595 134.648 79.9006 149.473 79.9006 167.76Z" fill="#E4BDA7"/>
<path d="M65.7908 138.726C81.0148 147.237 74.754 179.408 82.8137 164.991C74.4324 162.658 87.6003 127.189 72.089 127.189C56.8649 118.678 67.6243 117.766 48.0966 112.218C62.0573 152.88 50.5667 130.215 65.7908 138.726Z" fill="url(#paint0_linear_136_3070)"/>
<path d="M42.5993 138.83C27.3752 147.341 31.581 182.41 25.5763 165.094C25.5763 142.348 22.6536 127.293 36.301 127.293C51.5251 118.782 40.7657 117.869 60.2934 112.322C82.9136 148.932 57.8233 130.319 42.5993 138.83Z" fill="url(#paint1_linear_136_3070)"/>
<path d="M31.7814 165.187C31.7814 168.372 32.6597 175.491 29.9234 175.491C27.1871 175.491 21.8723 168.372 21.8723 165.187C21.8723 162.003 24.0905 159.422 26.8268 159.422C29.5631 159.422 31.7814 162.003 31.7814 165.187Z" fill="#E4BDA7"/>
<path d="M77.3566 163.625C77.3566 166.809 76.4782 173.929 79.2145 173.929C81.9508 173.929 87.2656 166.809 87.2656 163.625C87.2656 160.441 85.0474 157.86 82.3111 157.86C79.5748 157.86 77.3566 160.441 77.3566 163.625Z" fill="#E4BDA7"/>
<path d="M44.4664 194.844C42.7088 192.877 41.2395 190.41 39.7307 187.535C41.0434 189.074 42.4479 190.623 43.8902 192.02C45.4474 193.528 47.1264 194.935 48.8622 195.979C50.5777 197.011 52.5488 197.81 54.6374 197.81C56.6933 197.81 58.6551 197.057 60.3827 196.071C62.13 195.074 63.831 193.728 65.416 192.279C66.7836 191.03 68.1205 189.653 69.3816 188.272C67.8049 191.19 66.3622 193.513 64.6934 195.302C62.3114 197.857 59.441 199.334 54.6374 199.334C49.9619 199.334 46.9495 197.622 44.4664 194.844Z" stroke="url(#paint2_linear_136_3070)" stroke-width="5.57963"/>
<path d="M65.9515 177.272C65.9515 179.145 64.7834 180.916 62.7406 182.244C60.7031 183.57 57.855 184.408 54.6806 184.408C51.5062 184.408 48.6582 183.57 46.6206 182.244C44.5778 180.916 43.4098 179.145 43.4098 177.272C43.4098 176.788 43.4869 176.506 43.5777 176.346C43.6552 176.209 43.7575 176.132 43.9237 176.088C44.1142 176.037 44.3916 176.033 44.7848 176.095C45.1723 176.156 45.6279 176.275 46.1563 176.433C46.5135 176.54 46.8999 176.664 47.312 176.797C49.3004 177.437 51.887 178.27 54.6806 178.27C57.4742 178.27 60.0609 177.437 62.0492 176.797C62.4613 176.664 62.8477 176.54 63.2049 176.433C63.7334 176.275 64.1889 176.156 64.5765 176.095C64.9697 176.033 65.247 176.037 65.4375 176.088C65.6037 176.132 65.7061 176.209 65.7835 176.346C65.8743 176.506 65.9515 176.788 65.9515 177.272Z" fill="white" stroke="#D99584" stroke-width="1.11593"/>
<path d="M67.1791 176.942C67.1791 177.435 64.4754 177.723 55.0212 177.723C45.5669 177.723 42.1824 177.658 42.1824 177.165C42.1824 176.672 45.5669 171.028 55.0212 171.028C64.4754 171.028 67.1791 176.449 67.1791 176.942Z" fill="url(#paint3_linear_136_3070)"/>
<path d="M59.8531 198.766C59.8531 199.571 57.0633 197.077 55.0768 200.823C52.9344 196.854 50.033 199.936 50.033 199.13C50.033 198.325 51.3626 189.106 55.0768 189.106C58.7909 189.106 59.8531 197.961 59.8531 198.766Z" fill="url(#paint4_linear_136_3070)"/>
<path d="M52.8647 169.08C53.8907 168.909 51.898 170.723 50.5365 170.723C48.7561 170.723 47.6605 170.175 48.0713 169.217C48.0713 168.385 49.175 167.71 50.5365 167.71C51.898 167.71 53.6865 168.943 52.8647 169.08Z" fill="#F8D1BC"/>
<path d="M56.2976 169.08C55.2717 168.909 57.2644 170.723 58.6258 170.723C60.4062 170.723 61.5018 170.175 61.091 169.217C61.091 168.385 59.9873 167.71 58.6258 167.71C57.2644 167.71 55.4759 168.943 56.2976 169.08Z" fill="#F8D1BC"/>
<path d="M35.6548 156.019H52.5329V161.143C52.5329 165.734 48.811 169.456 44.22 169.456H43.9677C39.3766 169.456 35.6548 165.734 35.6548 161.143V156.019Z" fill="url(#paint5_linear_136_3070)" stroke="white" stroke-width="1.22899"/>
<path d="M56.7934 156.019H73.6715V161.143C73.6715 165.734 69.9497 169.456 65.3586 169.456H65.1064C60.5153 169.456 56.7934 165.734 56.7934 161.143V156.019Z" fill="url(#paint6_linear_136_3070)" stroke="white" stroke-width="1.22899"/>
<path d="M57.3589 161.654C57.3589 161.419 57.2896 161.187 57.155 160.971C57.0204 160.754 56.8231 160.557 56.5744 160.391C56.3258 160.226 56.0305 160.094 55.7056 160.004C55.3806 159.915 55.0324 159.868 54.6807 159.868C54.329 159.868 53.9807 159.915 53.6558 160.004C53.3308 160.094 53.0356 160.226 52.7869 160.391C52.5382 160.557 52.3409 160.754 52.2063 160.971C52.0717 161.187 52.0024 161.419 52.0024 161.654L52.7869 163.551C52.7869 163.472 53.7999 161.496 53.8454 161.423C53.8908 161.35 53.9574 161.284 54.0414 161.228C54.1253 161.172 54.225 161.127 54.3347 161.097C54.4444 161.067 54.5619 161.051 54.6807 161.051C54.7994 161.051 54.917 161.067 55.0267 161.097C55.1363 161.127 55.236 161.172 55.32 161.228C55.4039 161.284 55.4705 161.35 55.516 161.423C55.5614 161.496 56.5744 163.472 56.5744 163.551L57.3589 161.654Z" fill="white"/>
<rect x="53.1184" y="155.405" width="3.12459" height="5.13326" fill="white"/>
<path d="M67.179 213.433C67.179 219.59 61.7332 225.485 55.0154 225.485C48.2976 225.485 42.8518 218.698 42.8518 212.54C42.8518 206.382 47.4014 208.761 54.1191 208.761C60.8369 208.761 67.179 207.275 67.179 213.433Z" fill="#E4BDA7"/>
<path d="M101.882 117.93C108.33 113.233 113.845 125.793 117.459 123.161C122.599 130.216 117.666 137.463 115.09 144.44C108.642 149.138 117.717 136.747 112.578 129.692C107.438 122.637 95.4339 122.627 101.882 117.93Z" fill="#E4BDA7"/>
<path d="M108.284 100.442C113.623 102.398 115.05 120.213 119.516 120.437C119.078 129.155 127.914 134.635 121.524 138.442C113.557 138.043 113.185 130.779 113.623 122.061C114.06 113.343 100.317 100.042 108.284 100.442Z" fill="#E4BDA7"/>
<path d="M123.337 95.6634C125.358 100.836 121.061 115.96 124.261 117.741C120.784 123.989 123.676 130.772 117.602 131.257C111.893 128.079 114.249 122.606 117.727 116.358C121.205 110.111 117.627 92.485 123.337 95.6634Z" fill="#E4BDA7"/>
<path d="M133.806 102.417C137.032 106.67 124.091 114.562 128.332 122.931C123.678 126.461 122.526 128.786 117.824 127.153C114.598 122.9 118.158 119.582 122.811 116.052C127.465 112.522 130.58 98.1643 133.806 102.417Z" fill="#E4BDA7"/>
<path d="M137.678 117.211C136.563 119.854 125.85 122.344 126.854 125.357C123.031 125.949 123.75 127.183 121.524 124.752C120.983 121.258 124.103 120.445 127.926 119.854C131.749 119.262 137.138 113.717 137.678 117.211Z" fill="#E4BDA7"/>
<path d="M129.349 122.201C128.706 124.159 124.953 135.442 125.023 136.992C122.615 137.1 117.665 120.339 116.431 118.244C116.306 115.479 117.051 119.118 119.46 119.009C121.868 118.901 129.224 119.436 129.349 122.201Z" fill="#E4BDA7"/>
<path d="M24.9971 157.413H35.0404V159.868C31.1003 158.487 28.8982 158.57 24.9971 159.868V157.413Z" fill="white"/>
<path d="M79.9006 156.297H74.321V158.752C76.51 157.371 77.7333 157.454 79.9006 158.752V156.297Z" fill="white"/>
<path d="M27.1955 165.448C23.9533 167.371 29.2251 168.584 27.1955 170.804" stroke="black" stroke-width="0.223185"/>
<path d="M81.273 163.886C84.5152 165.809 79.2434 167.022 81.273 169.242" stroke="black" stroke-width="0.223185"/>
<ellipse cx="54.7822" cy="169.354" rx="5.06732" ry="3.013" fill="#EEB8A7"/>
<path d="M66.3255 178.393C66.3255 180.735 61.376 187.32 54.7199 187.32C48.0638 187.32 43.0027 179.954 43.0027 177.612C43.0027 175.27 48.0638 183.549 54.7199 183.549C61.376 183.549 66.3255 176.051 66.3255 178.393Z" fill="#D99584"/>
<path d="M66.3255 178.393C66.3255 180.735 61.376 187.32 54.7199 187.32C48.0638 187.32 43.0027 179.954 43.0027 177.612C43.0027 175.27 48.0638 183.549 54.7199 183.549C61.376 183.549 66.3255 176.051 66.3255 178.393Z" fill="#D99584"/>
<path d="M66.3255 178.393C66.3255 180.735 61.376 187.32 54.7199 187.32C48.0638 187.32 43.0027 179.954 43.0027 177.612C43.0027 175.27 48.0638 183.549 54.7199 183.549C61.376 183.549 66.3255 176.051 66.3255 178.393Z" fill="#D99584"/>
<path d="M77.6234 172.369C76.9262 179.477 71.6822 200.265 60.1883 199.261C69.3388 176.273 73.2857 179.269 73.983 172.161C74.6802 165.054 77.8577 158.692 79.6058 158.864C77.3697 172.767 78.3207 165.262 77.6234 172.369Z" fill="#79643D"/>
<path d="M31.7056 171.974C32.4029 179.082 37.6468 199.87 49.1407 198.865C39.9902 175.877 36.0433 178.874 35.346 171.766C34.6488 164.658 31.3598 159.027 29.6116 159.199C31.8478 173.102 31.0083 164.866 31.7056 171.974Z" fill="#79643D"/>
<path d="M51.2527 151.473C51.5453 153.049 47.6023 151.277 43.4583 152.046C39.3142 152.816 38.1216 153.912 36.3276 155.447C36.035 153.872 39.1573 151.971 43.3013 151.201C47.4454 150.431 50.9601 149.898 51.2527 151.473Z" fill="#A78E64"/>
<path d="M57.5299 150.965C57.2115 152.531 61.4806 151.222 65.7156 152.084C69.9505 152.945 71.1588 154.065 72.9778 155.638C73.2963 154.072 70.1214 152.105 65.8864 151.244C61.6515 150.382 57.8484 149.4 57.5299 150.965Z" fill="#A78E64"/>
<ellipse cx="36.2792" cy="303.117" rx="24.104" ry="23.4344" transform="rotate(58.865 36.2792 303.117)" fill="#BAD8BA"/>
<path d="M50.9715 346C40.6357 348.187 44.5547 329.766 40.3572 322.817C36.1598 315.869 30.8277 319.187 37.158 315.363C43.4884 311.539 63.1215 301.798 67.3189 308.747C71.5163 315.695 56.6192 344.805 50.9715 346Z" fill="#BAD8BA"/>
<path d="M61.704 331.825C53.5022 353.858 32.196 364.773 16.8826 325.394C5.79456 303.802 16.3265 280.23 23.4813 292.075C34.8693 292.366 54.1621 292.146 61.0453 303.541C67.9285 314.935 60.612 325.053 61.704 331.825Z" fill="#BAD8BA"/>
<ellipse cx="72.2802" cy="271.853" rx="5.02166" ry="4.79848" transform="rotate(58.865 72.2802 271.853)" fill="#BAD8BA"/>
<path d="M61.2264 291.262C54.3213 289.865 37.3914 278.196 50.3276 277.813C61.3456 275.981 63.8591 271.725 64.259 271.092C69.8669 262.221 68.3605 287.452 76.3307 280.932C74.8939 288.034 68.1315 292.659 61.2264 291.262Z" fill="#BAD8BA"/>
<path d="M68.5161 293.031C57.438 299.723 42.8774 295.91 35.9942 284.516C26.949 274.074 48.8291 281.586 59.9072 274.894C75.1749 279.882 58.3844 277.77 59.2617 283.107C63.0317 295.822 79.5942 286.339 68.5161 293.031Z" fill="#BAD8BA"/>
<path d="M76.2966 315.839C72.839 305.151 26.3337 318.811 19.4505 307.416C12.5673 296.021 10.554 276.286 53.3898 277.919C72.2749 289.326 79.5695 276.798 86.4527 288.192C95.029 289.009 82.6801 287.343 76.2966 315.839Z" fill="#BAD8BA"/>
<path d="M74.0542 314.717C64.7697 320.325 52.0469 334.399 46.7994 307.583C39.3625 290.955 17.3172 285.108 37.727 288.032C62.4793 283.901 76.6329 261.145 82.4007 270.693C95.0357 310.386 78.6224 293.575 74.0542 314.717Z" fill="#BAD8BA"/>
<path d="M85.0281 317.344C68.1258 322.6 72.3421 318.573 68.9005 312.876C65.4589 307.178 67.1592 299.847 72.6983 296.501C78.2373 293.155 84.3496 294.854 87.7912 300.552C104.753 302.3 93.2598 314.784 85.0281 317.344Z" fill="#BAD8BA"/>
<path d="M92.6874 312.326C82.0848 318.731 76.0102 303.711 72.5686 298.014C69.127 292.316 66.1058 293.574 84.1263 291.032C89.8725 299.034 93.0104 298.833 95.6647 303.227C97.2224 305.805 96.1047 310.262 92.6874 312.326Z" fill="#BAD8BA"/>
<path d="M48.3149 347.214C42.9636 356.052 31.2526 350.91 24.3694 339.515C17.4862 328.12 20.8868 313.458 31.965 306.766C43.0431 300.074 57.6036 303.887 64.4868 315.281C68.9569 331.746 56.0609 326.368 48.3149 347.214Z" fill="#BAD8BA"/>
<path d="M84.1491 279.415C82.9078 280.165 81.3952 280.351 79.9439 279.932C73.8352 286.297 85.4343 254.781 88.6698 255.173C76.0802 249.871 62.5435 273.432 63.7077 272.338C64.0119 270.858 76.7917 270.04 78.033 269.29L81.0911 274.353L84.1491 279.415Z" fill="#BAD8BA"/>
<ellipse cx="190.382" cy="227.367" rx="6.13759" ry="6.36077" transform="rotate(58.865 190.382 227.367)" fill="#D9D0B2"/>
<path d="M171.831 244.571C171.254 243.615 168.329 238.342 162.35 241.824C163.319 239.544 164.981 234.629 167.988 232.812C170.995 230.996 181.533 225.884 183.286 228.786C184.502 232.093 180.048 240.259 171.831 244.571Z" fill="#D9D0B2"/>
<path d="M89.8491 297.484C86.5879 294.891 47.8414 316.862 81.2558 310.236C70.2256 314.422 73.3893 282.004 77.4513 279.55C81.5132 277.097 98.514 283.123 95.7439 284.797C88.7711 289.009 84.4448 293.187 89.8491 297.484Z" fill="#BAD8BA"/>
<rect x="84.033" y="277.145" width="1.96637" height="9.80683" rx="0.89274" transform="rotate(57.565 84.033 277.145)" fill="#C4C4C4"/>
<path d="M88.8534 278.138C83.1561 281.58 73.7784 273.686 72.973 266.741C69.1809 260.463 79.4071 255.162 81.7412 254.926C97.7499 251.644 84.6615 265.156 85.8131 272.674C87.918 278.964 94.1728 271.405 88.8534 278.138Z" fill="#BAD8BA"/>
<path d="M157.796 234.932L162.049 241.973L83.3286 292.948L77.3279 283.014L157.796 234.932Z" fill="url(#paint7_linear_136_3070)"/>
<rect x="191.861" y="220.724" width="7.73491" height="35.7148" rx="3.12459" transform="rotate(73.5057 191.861 220.724)" fill="#D9D0B2"/>
<path d="M68.937 321.352C63.0022 324.261 61.1865 337.874 58.0664 337.673C54.9463 337.471 61.5916 317.185 64.6513 315.337C67.7109 313.488 79.5233 315.353 80.6068 317.147C86.4382 318.815 72.1468 319.779 68.937 321.352Z" fill="#BAD8BA"/>
<path d="M162.998 241.171C161.989 242.954 161.155 240.063 159.658 237.583C158.16 235.104 157.887 232.526 159.047 231.825C160.208 231.123 164.625 233.936 166.123 236.416C167.621 238.895 162.996 240.521 162.998 241.171Z" fill="#D9D0B2"/>
<rect x="159.704" y="233.775" width="8.25785" height="2.23185" transform="rotate(58.865 159.704 233.775)" fill="#D9D0B2"/>
<path d="M180.733 226.794C181.009 226.099 181.877 225.866 182.463 226.33L188.549 231.145C189.489 231.888 188.756 233.389 187.592 233.104L184.711 232.399C184.277 232.293 183.821 232.456 183.553 232.814L181.946 234.956C181.642 235.361 181.104 235.511 180.635 235.321L178.837 234.595C178.268 234.365 177.992 233.72 178.217 233.149L180.733 226.794Z" fill="#D9D0B2"/>
<path d="M162.788 228.521C161.997 228.999 160.681 228.703 160.299 228.07C159.917 227.437 160.67 226.803 161.461 226.325C162.253 225.847 163.53 226.297 163.913 226.93C164.295 227.563 163.58 228.043 162.788 228.521Z" fill="url(#paint8_linear_136_3070)"/>
<path d="M167.817 226.918C167.026 227.396 165.71 227.099 165.328 226.466C164.945 225.833 165.698 225.199 166.49 224.721C167.281 224.243 168.559 224.693 168.941 225.326C169.324 225.959 168.608 226.44 167.817 226.918Z" fill="url(#paint9_linear_136_3070)"/>
<path d="M172.521 225.641C171.73 226.119 170.414 225.822 170.032 225.189C169.649 224.556 170.403 223.922 171.194 223.444C171.985 222.966 173.263 223.416 173.645 224.049C174.028 224.682 173.312 225.163 172.521 225.641Z" fill="url(#paint10_linear_136_3070)"/>
<path d="M177.11 224.173C176.319 224.651 175.003 224.354 174.621 223.721C174.238 223.088 174.991 222.454 175.783 221.976C176.574 221.498 177.852 221.948 178.234 222.581C178.617 223.214 177.901 223.695 177.11 224.173Z" fill="url(#paint11_linear_136_3070)"/>
<path d="M181.814 222.895C181.023 223.373 179.707 223.077 179.325 222.444C178.942 221.811 179.696 221.177 180.487 220.699C181.278 220.221 182.556 220.671 182.938 221.304C183.321 221.937 182.605 222.417 181.814 222.895Z" fill="url(#paint12_linear_136_3070)"/>
<path d="M186.518 221.618C185.727 222.096 184.411 221.8 184.029 221.167C183.646 220.533 184.4 219.899 185.191 219.421C185.982 218.943 187.26 219.394 187.642 220.027C188.025 220.66 187.309 221.14 186.518 221.618Z" fill="url(#paint13_linear_136_3070)"/>
<path d="M79.1218 293.426C80.8942 307.81 72.5402 306.792 66.8789 318.666C30.7864 284.236 52.1428 301.486 66.9296 275.432C66.0004 276.669 79.5765 254.958 84.4001 263.81C81.9546 272.676 71.2679 279.012 79.1218 293.426Z" fill="#EDE7D9"/>
<path d="M82.8019 279.683C77.8142 282.566 68.1042 288.74 72.6543 282.464C71.1885 275.104 82.5547 261.846 83.6506 262.736C87.0755 266.244 79.9733 267.899 81.4392 275.258C82.3956 280.06 91.7949 274.484 82.8019 279.683Z" fill="#EDE7D9"/>
<path d="M79.2222 281.115L80.9809 286.842L84.8395 291.424L79.6852 294.233L74.0678 283.924L79.2222 281.115Z" fill="#EDE7D9"/>
<path d="M93.0576 305.962C91.2125 306.968 87.2276 304.894 85.5138 301.749C83.7999 298.604 71.2274 301.198 86.5723 291.432C88.6435 290.114 83.2319 293.001 84.9458 296.146C87.0146 299.942 93.3553 301.738 93.0576 305.962Z" fill="#EDE7D9"/>
<path d="M75.8941 314.991C54.3062 306.71 74.0587 313.44 71.6457 309.012C69.2327 304.584 70.6527 299.154 74.8173 296.885C78.9818 294.616 83.2044 301.599 92.434 303.998C96.899 310.602 79.4938 316.372 75.8941 314.991Z" fill="#EDE7D9"/>
<rect x="80.2773" y="288.958" width="10.0006" height="5.65252" transform="rotate(61.4134 80.2773 288.958)" fill="#EDE7D9"/>
<path d="M84.8396 291.424L85.466 292.407L82.9123 294.702L81.9761 292.984L84.8396 291.424Z" fill="#EDE7D9"/>
<path d="M86.7881 290.713L87.0381 291.108L84.0901 293.424L83.6879 292.701L86.7881 290.713Z" fill="#EDE7D9"/>
<path d="M62.8606 321.969C57.4309 324.928 53.0011 325.458 52.0244 323.665C51.0477 321.873 54.6576 318.021 60.0874 315.063C65.5172 312.104 80.6609 311.926 81.6376 313.718C82.5042 316.217 69.9171 313.792 62.8606 321.969Z" fill="#EDE7D9"/>
<path d="M63.4249 321.415C58.8335 326.392 53.0709 341.715 49.8249 335.758C46.5788 329.801 50.9637 317.402 56.4874 315.044C65.9278 311.014 64.6013 300.174 67.8473 306.131C71.0933 312.088 75.1773 307.088 63.4249 321.415Z" fill="#EDE7D9"/>
<path d="M62.7653 322.021C60.8148 323.084 57.9994 321.681 56.477 318.887C54.9545 316.093 55.2006 321.315 52.3468 320.395C45.4955 335.765 53.9249 308.979 55.4474 311.773C56.9699 314.566 64.7158 320.959 62.7653 322.021Z" fill="#EDE7D9"/>
<rect x="53.3464" y="294.968" width="23.4797" height="6.52214" transform="rotate(61.4134 53.3464 294.968)" fill="#EDE7D9"/>
<path d="M42.8742 322.406C37.7797 325.291 31.5076 323.848 28.8652 319.183C26.2227 314.517 28.2106 308.396 33.3051 305.51C38.3997 302.625 39.7197 306.873 42.3621 311.538C45.0045 316.204 47.9688 319.52 42.8742 322.406Z" fill="url(#paint14_linear_136_3070)"/>
<circle cx="163.542" cy="231.959" r="0.669555" transform="rotate(57.5046 163.542 231.959)" fill="#9E9D9D"/>
<circle cx="168.591" cy="230.331" r="0.669555" transform="rotate(57.5046 168.591 230.331)" fill="#9E9D9D"/>
<circle cx="173.263" cy="228.943" r="0.669555" transform="rotate(57.5046 173.263 228.943)" fill="#9E9D9D"/>
<circle cx="177.696" cy="227.177" r="0.669555" transform="rotate(57.5046 177.696 227.177)" fill="#9E9D9D"/>
<circle cx="182.865" cy="225.737" r="0.669555" transform="rotate(57.5046 182.865 225.737)" fill="#9E9D9D"/>
<circle cx="187.537" cy="224.349" r="0.669555" transform="rotate(57.5046 187.537 224.349)" fill="#9E9D9D"/>
<line x1="163.035" y1="232.415" x2="35.952" y2="308.333" stroke="#C6C6C6" stroke-width="0.223185"/>
<line x1="168.016" y1="231.094" x2="37.1516" y2="310.215" stroke="#C6C6C6" stroke-width="0.223185"/>
<line x1="173.818" y1="228.986" x2="38.3511" y2="312.097" stroke="#C6C6C6" stroke-width="0.223185"/>
<line x1="177.927" y1="227.957" x2="39.7909" y2="314.356" stroke="#C6C6C6" stroke-width="0.223185"/>
<line x1="182.292" y1="226.499" x2="41.1105" y2="316.426" stroke="#C6C6C6" stroke-width="0.223185"/>
<line x1="187.153" y1="224.991" x2="42.19" y2="318.12" stroke="#C6C6C6" stroke-width="0.223185"/>
<line x1="152.091" y1="238.443" x2="156.391" y2="245.521" stroke="#9E9D9D" stroke-width="0.223185"/>
<line x1="147.012" y1="241.655" x2="151.311" y2="248.733" stroke="#9E9D9D" stroke-width="0.223185"/>
<line x1="141.933" y1="244.867" x2="146.232" y2="251.945" stroke="#9E9D9D" stroke-width="0.223185"/>
<line x1="136.361" y1="247.997" x2="141.006" y2="255.435" stroke="#9E9D9D" stroke-width="0.223185"/>
<line x1="132.215" y1="250.452" x2="136.86" y2="257.89" stroke="#9E9D9D" stroke-width="0.223185"/>
<line x1="127.775" y1="253.464" x2="132.354" y2="260.69" stroke="#9E9D9D" stroke-width="0.223185"/>
<line x1="122.35" y1="256.316" x2="127.341" y2="264.114" stroke="#9E9D9D" stroke-width="0.223185"/>
<line x1="117.338" y1="259.742" x2="121.917" y2="266.967" stroke="#9E9D9D" stroke-width="0.223185"/>
<line x1="111.62" y1="263.153" x2="116.265" y2="270.591" stroke="#9E9D9D" stroke-width="0.223185"/>
<line x1="106.687" y1="266.085" x2="111.333" y2="273.524" stroke="#9E9D9D" stroke-width="0.223185"/>
<line x1="101.675" y1="269.512" x2="105.975" y2="276.59" stroke="#9E9D9D" stroke-width="0.223185"/>
<line x1="96.5964" y1="272.724" x2="100.896" y2="279.802" stroke="#9E9D9D" stroke-width="0.223185"/>
<line x1="91.5172" y1="275.935" x2="95.8171" y2="283.014" stroke="#9E9D9D" stroke-width="0.223185"/>
<line x1="85.9452" y1="279.065" x2="90.5905" y2="286.504" stroke="#9E9D9D" stroke-width="0.223185"/>
<line x1="81.7995" y1="281.52" x2="86.4448" y2="288.959" stroke="#9E9D9D" stroke-width="0.223185"/>
<rect x="68.4895" y="288.459" width="4.91007" height="10.7819" rx="1.11593" transform="rotate(-31.8061 68.4895 288.459)" fill="#756F62"/>
<rect x="54.1895" y="297.417" width="4.91007" height="10.9522" rx="1.11593" transform="rotate(-31.8061 54.1895 297.417)" fill="#756F62"/>
<circle cx="53.0975" cy="329.833" r="2.12026" transform="rotate(-17.241 53.0975 329.833)" fill="#070707"/>
<circle cx="41.8074" cy="346.54" r="0.89274" transform="rotate(-17.241 41.8074 346.54)" fill="#6C6C6C"/>
<circle cx="57.5077" cy="321.454" r="2.12026" transform="rotate(-17.241 57.5077 321.454)" fill="#070707"/>
<circle cx="146.633" cy="246.62" r="0.44637" fill="#EDE7D9"/>
<circle cx="136.366" cy="252.869" r="0.44637" fill="#EDE7D9"/>
<circle cx="127.215" cy="258.448" r="0.44637" fill="#EDE7D9"/>
<circle cx="116.726" cy="265.144" r="0.44637" fill="#EDE7D9"/>
<circle cx="106.459" cy="271.393" r="0.44637" fill="#EDE7D9"/>
<circle cx="95.9696" cy="278.089" r="0.44637" fill="#EDE7D9"/>
<circle cx="86.1495" cy="283.891" r="0.44637" fill="#EDE7D9"/>
<path d="M16.5067 288.636C10.3869 288.455 6.16671 282.433 8.08428 276.618L23.3442 230.347C23.5 229.875 23.8211 229.474 24.2485 229.219V229.219C25.6502 228.383 27.4225 229.425 27.3741 231.056L25.9289 279.757C25.7789 284.811 21.5605 288.786 16.5067 288.636V288.636Z" fill="#F4E8C1"/>
<path d="M13.1777 346.208C15.9037 345.905 18.0689 343.777 18.4177 341.056L25.8351 283.207C26.2249 280.166 22.4527 278.448 20.4142 280.737V280.737C19.6825 281.559 18.5717 281.934 17.4915 281.724L9.27352 280.129C8.47845 279.974 7.73987 280.583 7.73987 281.393V281.393L6.57957 340.183C6.50874 343.771 9.61035 346.603 13.1777 346.208V346.208Z" fill="#E4BDA7"/>
<path d="M23.7247 353.299C24.8169 356.776 22.7685 360.458 19.238 361.363V361.363C16.8669 361.971 14.3574 361.164 12.7851 359.288L12.0891 358.457C11.2246 357.426 10.6316 356.195 10.3638 354.876L7.49672 340.751C7.39433 340.246 7.54557 339.724 7.90154 339.352V339.352C8.15227 339.09 8.48587 338.923 8.84575 338.879L11.4487 338.561C15.7164 338.041 19.7481 340.639 21.0366 344.741L23.7247 353.299Z" fill="#E4BDA7"/>
<path d="M34.9776 352.03C30.8339 358.121 22.1286 348.917 19.8062 352.331C13.1413 347.797 15.174 339.961 15.2413 333.093C19.3851 327.002 15.3519 340.599 22.0167 345.133C28.6816 349.667 39.1214 345.939 34.9776 352.03Z" fill="#E4BDA7"/>
<path d="M29.8412 377.879C23.6999 377.462 23.6374 359.669 20.1955 359.435C20.6527 352.715 15.4662 348.095 20.4477 345.245C26.589 345.663 26.7765 351.272 26.3193 357.992C25.8621 364.712 35.9824 378.297 29.8412 377.879Z" fill="#E4BDA7"/>
<path d="M23.255 378.068C17.3013 377.082 18.9155 359.713 15.5787 359.161C16.6576 352.646 12.0314 347.649 17.1609 345.337C23.1147 346.323 22.7695 351.814 21.6906 358.328C20.6118 364.843 29.2087 379.054 23.255 378.068Z" fill="#E4BDA7"/>
<path d="M17.7024 378.569C12.9003 377.455 17.7743 363.882 9.82078 360.444C11.0395 355.19 10.1371 353.187 14.4392 351.57C19.2413 352.683 18.6739 357.142 17.4551 362.396C16.2364 367.651 22.5045 379.683 17.7024 378.569Z" fill="#E4BDA7"/>
<path d="M13.6542 372.564C10.7155 371.142 9.60873 358.714 8.82758 355.031C10.3839 351.816 9.78078 352.599 12.7963 352.184C15.735 353.606 15.7463 356.594 13.1597 359.619C11.6033 362.834 16.593 373.987 13.6542 372.564Z" fill="#E4BDA7"/>
<path d="M20.3943 354.328C21.221 357.421 19.2837 360.574 16.151 361.235V361.235C14.0472 361.678 11.8754 360.875 10.5668 359.169L9.98746 358.414C9.26794 357.475 8.79418 356.372 8.60924 355.205L6.62874 342.7C6.55802 342.254 6.71056 341.801 7.03705 341.488V341.488C7.26702 341.268 7.56612 341.134 7.88361 341.109L10.1799 340.929C13.945 340.634 17.3846 343.067 18.3598 346.715L20.3943 354.328Z" fill="#E4BDA7"/>
<path d="M7.1424 279.944C17.2974 279.719 17.52 282.509 25.2204 279.944" stroke="#EDE7D9" stroke-width="2.23185"/>
<path d="M67.1069 211.983L78.4894 216.223C87.3557 238.2 91.6963 247.034 92.8848 258.852L86.1893 258.852C82.9429 239.142 78.8578 229.369 67.1069 211.983Z" fill="#A8A5A5"/>
<path d="M85.2964 254.165L92.428 253.83L92.9143 256.508L93.331 258.963H86.3847L85.9447 256.954L85.2964 254.165Z" fill="#80693D"/>
<path d="M88.4806 256.777C88.1665 256.638 88.1209 256.211 88.3986 256.008L89.3358 255.325C89.6135 255.123 90.0061 255.297 90.0426 255.639L90.1655 256.792C90.202 257.134 89.8548 257.387 89.5407 257.247L88.4806 256.777Z" fill="#C4C4C4"/>
<defs>
<linearGradient id="paint0_linear_136_3070" x1="40.2471" y1="126.259" x2="89.1748" y2="153.612" gradientUnits="userSpaceOnUse">
<stop stop-color="#64543B"/>
<stop offset="1" stop-color="#62523B"/>
</linearGradient>
<linearGradient id="paint1_linear_136_3070" x1="68.4502" y1="126.538" x2="18.9476" y2="154.212" gradientUnits="userSpaceOnUse">
<stop stop-color="#66553B"/>
<stop offset="1" stop-color="#4F4638"/>
</linearGradient>
<linearGradient id="paint2_linear_136_3070" x1="54.5875" y1="160.535" x2="54.5875" y2="202.124" gradientUnits="userSpaceOnUse">
<stop stop-color="#63533B"/>
<stop offset="1" stop-color="#836B3D"/>
</linearGradient>
<linearGradient id="paint3_linear_136_3070" x1="54.6807" y1="171.028" x2="54.6807" y2="177.723" gradientUnits="userSpaceOnUse">
<stop stop-color="#806A32"/>
<stop offset="1" stop-color="#A89D7D"/>
</linearGradient>
<linearGradient id="paint4_linear_136_3070" x1="54.943" y1="189.106" x2="54.943" y2="200.042" gradientUnits="userSpaceOnUse">
<stop stop-color="#BEA669"/>
<stop offset="0.0001" stop-color="#B3A16D"/>
<stop offset="0.578125" stop-color="#80693D"/>
<stop offset="0.677083" stop-color="#80693D"/>
</linearGradient>
<linearGradient id="paint5_linear_136_3070" x1="44.0938" y1="155.405" x2="44.0938" y2="170.071" gradientUnits="userSpaceOnUse">
<stop/>
<stop offset="1" stop-color="#777777"/>
</linearGradient>
<linearGradient id="paint6_linear_136_3070" x1="65.2325" y1="155.405" x2="65.2325" y2="170.071" gradientUnits="userSpaceOnUse">
<stop/>
<stop offset="1" stop-color="#777777"/>
</linearGradient>
<linearGradient id="paint7_linear_136_3070" x1="160.563" y1="239.514" x2="80.3282" y2="287.981" gradientUnits="userSpaceOnUse">
<stop stop-color="#8E5A3C"/>
<stop offset="1" stop-color="#6A4E36"/>
</linearGradient>
<linearGradient id="paint8_linear_136_3070" x1="163.653" y1="226.5" x2="160.501" y2="228.404" gradientUnits="userSpaceOnUse">
<stop stop-color="#9E9D9D"/>
<stop offset="1" stop-color="#CECECE"/>
</linearGradient>
<linearGradient id="paint9_linear_136_3070" x1="168.682" y1="224.897" x2="165.53" y2="226.801" gradientUnits="userSpaceOnUse">
<stop stop-color="#9E9D9D"/>
<stop offset="1" stop-color="#CECECE"/>
</linearGradient>
<linearGradient id="paint10_linear_136_3070" x1="173.386" y1="223.619" x2="170.234" y2="225.523" gradientUnits="userSpaceOnUse">
<stop stop-color="#9E9D9D"/>
<stop offset="1" stop-color="#CECECE"/>
</linearGradient>
<linearGradient id="paint11_linear_136_3070" x1="177.975" y1="222.151" x2="174.822" y2="224.055" gradientUnits="userSpaceOnUse">
<stop stop-color="#9E9D9D"/>
<stop offset="1" stop-color="#CECECE"/>
</linearGradient>
<linearGradient id="paint12_linear_136_3070" x1="182.679" y1="220.874" x2="179.527" y2="222.778" gradientUnits="userSpaceOnUse">
<stop stop-color="#9E9D9D"/>
<stop offset="1" stop-color="#CECECE"/>
</linearGradient>
<linearGradient id="paint13_linear_136_3070" x1="187.383" y1="219.597" x2="184.231" y2="221.501" gradientUnits="userSpaceOnUse">
<stop stop-color="#9E9D9D"/>
<stop offset="1" stop-color="#CECECE"/>
</linearGradient>
<linearGradient id="paint14_linear_136_3070" x1="42.411" y1="311.511" x2="28.8652" y2="319.183" gradientUnits="userSpaceOnUse">
<stop stop-color="#A29F9F"/>
<stop offset="1" stop-color="#BFBABA"/>
</linearGradient>
</defs>
</svg>
