<svg width="199" height="528" viewBox="0 0 199 528" fill="none" xmlns="http://www.w3.org/2000/svg">
<path d="M66.0157 201.148C66.0157 219.015 72.3153 212.128 55.5981 212.128C38.8808 212.128 43.412 219.015 43.412 201.148C43.412 183.28 38.8808 168.796 55.5981 168.796C72.3153 168.796 66.0157 183.28 66.0157 201.148Z" fill="#E4BDA7"/>
<path d="M118.736 195.172C114.619 190.532 107.52 190.109 102.88 194.226L69.6698 223.695C66.8082 226.234 65.1705 229.877 65.1705 233.703V233.703C65.1705 245.864 80.0812 251.718 88.3555 242.807L118.566 210.268C122.5 206.03 122.574 199.497 118.736 195.172V195.172Z" fill="#F4E8C1"/>
<path d="M105.122 192.899C96.9741 207.295 114.829 215.33 120.743 202.273" stroke="#EDE7D9" stroke-width="2.23185"/>
<path d="M103.198 201.372C106.168 212.153 121.976 210.349 122.441 199.176L125.065 136.256C125.309 130.394 117.29 128.49 114.873 133.836V133.836C114.695 134.227 114.566 134.639 114.488 135.061L103.01 196.981C102.74 198.44 102.804 199.941 103.198 201.372V201.372Z" fill="#E4BDA7"/>
<path d="M54.0112 510.706C54.0112 518.232 53.6008 524.333 44.7111 524.333C35.8213 524.333 16.7393 531.858 16.7393 524.333C16.7393 516.807 28.8289 509.488 37.7187 509.488C46.6084 509.488 54.0112 503.181 54.0112 510.706Z" fill="#A8A5A5"/>
<path d="M51.5562 510.706C51.5562 518.232 51.9666 524.333 60.8563 524.333C69.7461 524.333 88.8281 531.858 88.8281 524.333C88.8281 516.807 75.7341 509.599 66.8444 509.599C57.9546 509.599 51.5562 503.181 51.5562 510.706Z" fill="#A8A5A5"/>
<path d="M53.0271 507.338C53.0271 510.787 51.325 520.841 55.3707 520.841C59.4163 520.841 94.5393 530.996 88.1789 520.841C32.4938 525.863 73.5678 508.037 69.5222 508.037C65.4765 508.037 53.0271 503.889 53.0271 507.338Z" fill="#737373"/>
<path d="M52.6589 507.338C52.6589 510.788 54.361 520.841 50.3154 520.841C46.2697 520.841 11.1468 530.996 17.5072 520.841C73.1922 525.863 33.7846 509.599 37.8302 509.599C41.8759 509.599 52.6589 503.889 52.6589 507.338Z" fill="#737373"/>
<path d="M20.3101 325.695H87.0424L69.8571 509.822H37.4953L20.3101 325.695Z" fill="#70A0AF"/>
<path d="M58.5139 323.947C58.5139 327.292 72.0983 331.498 79.9806 331.498C87.863 331.498 87.0584 327.292 87.0584 323.947C87.0584 320.602 80.6685 325.598 72.7861 325.598C64.9038 325.598 58.5139 320.602 58.5139 323.947Z" fill="#F4E8C1"/>
<line x1="54.2738" y1="509.813" x2="55.8361" y2="325.685" stroke="black" stroke-opacity="0.03" stroke-width="2.23185"/>
<path d="M22.059 240.749C21.11 224.474 34.0525 210.755 50.3554 210.755H58.6979C74.3521 210.755 87.0424 223.445 87.0424 239.099V325.695H20.3101L24.4882 289.763C24.6782 288.129 24.7256 286.481 24.6298 284.839L22.059 240.749Z" fill="#F4E8C1"/>
<path d="M79.9006 167.76C73.6514 189.998 68.929 202.05 54.5691 202.05C40.2091 202.05 37.1606 190.668 27.8984 167.76C27.8984 149.473 39.5395 134.648 53.8995 134.648C68.2595 134.648 79.9006 149.473 79.9006 167.76Z" fill="#E4BDA7"/>
<path d="M65.791 138.726C81.0151 147.237 74.7542 179.408 82.814 164.991C74.4327 162.658 87.6006 127.189 72.0892 127.189C56.8652 118.678 67.6246 117.766 48.0969 112.218C62.0575 152.88 50.567 130.215 65.791 138.726Z" fill="url(#paint0_linear_250_3231)"/>
<path d="M42.599 138.83C27.3749 147.341 31.5808 182.41 25.5761 165.094C25.5761 142.348 22.6534 127.293 36.3008 127.293C51.5249 118.782 40.7655 117.869 60.2932 112.322C82.9133 148.932 57.8231 130.319 42.599 138.83Z" fill="url(#paint1_linear_250_3231)"/>
<path d="M31.7816 165.187C31.7816 168.372 32.66 175.491 29.9237 175.491C27.1874 175.491 21.8726 168.372 21.8726 165.187C21.8726 162.003 24.0908 159.422 26.8271 159.422C29.5634 159.422 31.7816 162.003 31.7816 165.187Z" fill="#E4BDA7"/>
<path d="M77.3566 163.625C77.3566 166.809 76.4782 173.929 79.2145 173.929C81.9508 173.929 87.2656 166.809 87.2656 163.625C87.2656 160.441 85.0474 157.86 82.3111 157.86C79.5748 157.86 77.3566 160.441 77.3566 163.625Z" fill="#E4BDA7"/>
<path d="M44.4664 194.844C42.7088 192.877 41.2395 190.41 39.7307 187.535C41.0434 189.074 42.4479 190.623 43.8902 192.02C45.4474 193.528 47.1264 194.935 48.8622 195.979C50.5777 197.011 52.5488 197.81 54.6374 197.81C56.6933 197.81 58.6551 197.057 60.3827 196.071C62.13 195.074 63.831 193.728 65.416 192.279C66.7836 191.03 68.1205 189.653 69.3816 188.272C67.8049 191.19 66.3622 193.513 64.6934 195.302C62.3114 197.857 59.441 199.334 54.6374 199.334C49.9619 199.334 46.9495 197.622 44.4664 194.844Z" stroke="url(#paint2_linear_250_3231)" stroke-width="5.57963"/>
<path d="M65.9517 177.272C65.9517 179.145 64.7837 180.916 62.7409 182.244C60.7033 183.57 57.8552 184.408 54.6809 184.408C51.5065 184.408 48.6584 183.57 46.6208 182.244C44.578 180.916 43.41 179.145 43.41 177.272C43.41 176.788 43.4872 176.506 43.578 176.346C43.6554 176.209 43.7578 176.132 43.924 176.088C44.1145 176.037 44.3918 176.033 44.785 176.095C45.1726 176.156 45.6281 176.275 46.1565 176.433C46.5137 176.54 46.9001 176.664 47.3122 176.797C49.3006 177.437 51.8872 178.27 54.6809 178.27C57.4745 178.27 60.0611 177.437 62.0495 176.797C62.4616 176.664 62.848 176.54 63.2052 176.433C63.7336 176.275 64.1891 176.156 64.5767 176.095C64.9699 176.033 65.2473 176.037 65.4378 176.088C65.604 176.132 65.7063 176.209 65.7838 176.346C65.8745 176.506 65.9517 176.788 65.9517 177.272Z" fill="white" stroke="#D99584" stroke-width="1.11593"/>
<path d="M67.1789 176.942C67.1789 177.435 64.4751 177.723 55.0209 177.723C45.5667 177.723 42.1821 177.658 42.1821 177.165C42.1821 176.672 45.5667 171.028 55.0209 171.028C64.4751 171.028 67.1789 176.449 67.1789 176.942Z" fill="url(#paint3_linear_250_3231)"/>
<path d="M59.8533 198.766C59.8533 199.571 57.0635 197.077 55.077 200.823C52.9346 196.854 50.0332 199.936 50.0332 199.13C50.0332 198.325 51.3629 189.106 55.077 189.106C58.7912 189.106 59.8533 197.961 59.8533 198.766Z" fill="url(#paint4_linear_250_3231)"/>
<path d="M52.8645 169.08C53.8904 168.909 51.8978 170.723 50.5363 170.723C48.7559 170.723 47.6603 170.175 48.0711 169.217C48.0711 168.385 49.1748 167.71 50.5363 167.71C51.8978 167.71 53.6862 168.943 52.8645 169.08Z" fill="#F8D1BC"/>
<path d="M56.2976 169.08C55.2717 168.909 57.2644 170.723 58.6258 170.723C60.4062 170.723 61.5018 170.175 61.091 169.217C61.091 168.385 59.9873 167.71 58.6258 167.71C57.2644 167.71 55.4759 168.943 56.2976 169.08Z" fill="#F8D1BC"/>
<path d="M35.655 156.019H52.5331V161.143C52.5331 165.734 48.8113 169.456 44.2202 169.456H43.9679C39.3768 169.456 35.655 165.734 35.655 161.143V156.019Z" fill="url(#paint5_linear_250_3231)" stroke="white" stroke-width="1.22899"/>
<path d="M56.7932 156.019H73.6713V161.143C73.6713 165.734 69.9495 169.456 65.3584 169.456H65.1061C60.515 169.456 56.7932 165.734 56.7932 161.143V156.019Z" fill="url(#paint6_linear_250_3231)" stroke="white" stroke-width="1.22899"/>
<path d="M57.3589 161.654C57.3589 161.419 57.2896 161.187 57.155 160.971C57.0204 160.754 56.8231 160.557 56.5744 160.391C56.3258 160.226 56.0305 160.094 55.7056 160.004C55.3806 159.915 55.0324 159.868 54.6807 159.868C54.329 159.868 53.9807 159.915 53.6558 160.004C53.3308 160.094 53.0356 160.226 52.7869 160.391C52.5382 160.557 52.3409 160.754 52.2063 160.971C52.0717 161.187 52.0024 161.419 52.0024 161.654L52.7869 163.551C52.7869 163.472 53.7999 161.496 53.8454 161.423C53.8908 161.35 53.9574 161.284 54.0414 161.228C54.1253 161.172 54.225 161.127 54.3347 161.097C54.4444 161.067 54.5619 161.051 54.6807 161.051C54.7994 161.051 54.917 161.067 55.0267 161.097C55.1363 161.127 55.236 161.172 55.32 161.228C55.4039 161.284 55.4705 161.35 55.516 161.423C55.5614 161.496 56.5744 163.472 56.5744 163.551L57.3589 161.654Z" fill="white"/>
<rect x="53.1182" y="155.405" width="3.12459" height="5.13326" fill="white"/>
<path d="M67.1792 213.433C67.1792 219.59 61.7334 225.485 55.0156 225.485C48.2979 225.485 42.8521 218.698 42.8521 212.54C42.8521 206.382 47.4016 208.761 54.1194 208.761C60.8371 208.761 67.1792 207.275 67.1792 213.433Z" fill="#E4BDA7"/>
<path d="M101.882 117.93C108.329 113.233 113.845 125.793 117.459 123.161C122.598 130.216 117.666 137.463 115.09 144.44C108.642 149.138 117.717 136.747 112.578 129.692C107.438 122.637 95.4337 122.627 101.882 117.93Z" fill="#E4BDA7"/>
<path d="M108.285 100.442C113.623 102.398 115.05 120.213 119.516 120.437C119.078 129.155 127.914 134.635 121.525 138.442C113.557 138.043 113.185 130.779 113.623 122.061C114.06 113.343 100.317 100.042 108.285 100.442Z" fill="#E4BDA7"/>
<path d="M123.337 95.6634C125.358 100.836 121.062 115.96 124.262 117.741C120.784 123.989 123.676 130.772 117.603 131.257C111.893 128.079 114.249 122.606 117.727 116.358C121.205 110.111 117.627 92.485 123.337 95.6634Z" fill="#E4BDA7"/>
<path d="M133.806 102.417C137.032 106.67 124.091 114.562 128.332 122.931C123.678 126.461 122.526 128.786 117.824 127.153C114.598 122.9 118.158 119.582 122.811 116.052C127.465 112.522 130.58 98.1643 133.806 102.417Z" fill="#E4BDA7"/>
<path d="M137.678 117.211C136.563 119.854 125.85 122.344 126.854 125.357C123.031 125.949 123.75 127.183 121.524 124.752C120.983 121.258 124.103 120.445 127.926 119.854C131.749 119.262 137.138 113.717 137.678 117.211Z" fill="#E4BDA7"/>
<path d="M129.349 122.201C128.706 124.159 124.954 135.442 125.023 136.992C122.615 137.1 117.665 120.339 116.431 118.244C116.306 115.479 117.052 119.118 119.46 119.009C121.868 118.901 129.224 119.436 129.349 122.201Z" fill="#E4BDA7"/>
<path d="M24.9971 157.413H35.0404V159.868C31.1003 158.487 28.8982 158.57 24.9971 159.868V157.413Z" fill="white"/>
<path d="M79.9004 156.297H74.3208V158.752C76.5097 157.371 77.7331 157.454 79.9004 158.752V156.297Z" fill="white"/>
<path d="M27.1955 165.448C23.9533 167.371 29.2251 168.584 27.1955 170.804" stroke="black" stroke-width="0.223185"/>
<path d="M81.2732 163.886C84.5155 165.809 79.2436 167.022 81.2732 169.242" stroke="black" stroke-width="0.223185"/>
<ellipse cx="54.7822" cy="169.354" rx="5.06732" ry="3.013" fill="#EEB8A7"/>
<path d="M66.3253 178.393C66.3253 180.735 61.3758 187.32 54.7197 187.32C48.0635 187.32 43.0024 179.954 43.0024 177.612C43.0024 175.27 48.0635 183.549 54.7197 183.549C61.3758 183.549 66.3253 176.051 66.3253 178.393Z" fill="#D99584"/>
<path d="M66.3253 178.393C66.3253 180.735 61.3758 187.32 54.7197 187.32C48.0635 187.32 43.0024 179.954 43.0024 177.612C43.0024 175.27 48.0635 183.549 54.7197 183.549C61.3758 183.549 66.3253 176.051 66.3253 178.393Z" fill="#D99584"/>
<path d="M66.3253 178.393C66.3253 180.735 61.3758 187.32 54.7197 187.32C48.0635 187.32 43.0024 179.954 43.0024 177.612C43.0024 175.27 48.0635 183.549 54.7197 183.549C61.3758 183.549 66.3253 176.051 66.3253 178.393Z" fill="#D99584"/>
<path d="M77.6232 172.369C76.9259 179.477 71.682 200.265 60.1881 199.261C69.3385 176.273 73.2855 179.269 73.9827 172.161C74.68 165.054 77.8574 158.692 79.6056 158.864C77.3694 172.767 78.3204 165.262 77.6232 172.369Z" fill="#79643D"/>
<path d="M31.7054 171.974C32.4026 179.082 37.6465 199.87 49.1404 198.865C39.99 175.877 36.0431 178.874 35.3458 171.766C34.6485 164.658 31.3595 159.027 29.6114 159.199C31.8476 173.102 31.0081 164.866 31.7054 171.974Z" fill="#79643D"/>
<path d="M51.2527 151.473C51.5453 153.049 47.6023 151.277 43.4583 152.046C39.3142 152.816 38.1216 153.912 36.3276 155.447C36.035 153.872 39.1573 151.971 43.3013 151.201C47.4454 150.431 50.9601 149.898 51.2527 151.473Z" fill="#A78E64"/>
<path d="M57.5299 150.965C57.2115 152.531 61.4806 151.222 65.7156 152.084C69.9505 152.945 71.1588 154.065 72.9778 155.638C73.2963 154.072 70.1214 152.105 65.8864 151.244C61.6515 150.382 57.8484 149.4 57.5299 150.965Z" fill="#A78E64"/>
<ellipse cx="36.2794" cy="303.117" rx="24.104" ry="23.4344" transform="rotate(58.865 36.2794 303.117)" fill="#BAD8BA"/>
<path d="M50.9715 346C40.6357 348.187 44.5547 329.766 40.3572 322.817C36.1598 315.869 30.8277 319.187 37.158 315.363C43.4884 311.539 63.1215 301.798 67.3189 308.747C71.5163 315.695 56.6192 344.805 50.9715 346Z" fill="#BAD8BA"/>
<path d="M61.7038 331.825C53.502 353.858 32.1957 364.773 16.8824 325.394C5.79431 303.802 16.3263 280.23 23.4811 292.075C34.8691 292.366 54.1618 292.146 61.045 303.541C67.9282 314.935 60.6118 325.053 61.7038 331.825Z" fill="#BAD8BA"/>
<ellipse cx="72.2802" cy="271.853" rx="5.02166" ry="4.79848" transform="rotate(58.865 72.2802 271.853)" fill="#BAD8BA"/>
<path d="M61.2262 291.262C54.3211 289.865 37.3911 278.196 50.3273 277.813C61.3454 275.981 63.8588 271.725 64.2588 271.092C69.8666 262.221 68.3603 287.452 76.3304 280.932C74.8937 288.034 68.1313 292.659 61.2262 291.262Z" fill="#BAD8BA"/>
<path d="M68.5159 293.031C57.4377 299.723 42.8772 295.91 35.994 284.516C26.9488 274.074 48.8288 281.586 59.907 274.894C75.1746 279.882 58.3842 277.77 59.2615 283.107C63.0314 295.822 79.594 286.339 68.5159 293.031Z" fill="#BAD8BA"/>
<path d="M76.2966 315.839C72.839 305.151 26.3337 318.811 19.4505 307.416C12.5673 296.021 10.554 276.286 53.3898 277.919C72.2749 289.326 79.5695 276.798 86.4527 288.192C95.029 289.009 82.6801 287.343 76.2966 315.839Z" fill="#BAD8BA"/>
<path d="M74.054 314.717C64.7694 320.325 52.0467 334.399 46.7992 307.583C39.3622 290.955 17.3169 285.108 37.7268 288.032C62.4791 283.901 76.6326 261.145 82.4005 270.693C95.0354 310.386 78.6222 293.575 74.054 314.717Z" fill="#BAD8BA"/>
<path d="M85.0284 317.344C68.1261 322.6 72.3423 318.573 68.9007 312.876C65.4591 307.178 67.1595 299.847 72.6985 296.501C78.2376 293.155 84.3498 294.854 87.7914 300.552C104.753 302.3 93.2601 314.784 85.0284 317.344Z" fill="#BAD8BA"/>
<path d="M92.6876 312.326C82.0851 318.731 76.0104 303.711 72.5688 298.014C69.1272 292.316 66.106 293.574 84.1266 291.032C89.8727 299.034 93.0107 298.833 95.6649 303.227C97.2226 305.805 96.1049 310.262 92.6876 312.326Z" fill="#BAD8BA"/>
<path d="M48.3152 347.214C42.9638 356.052 31.2528 350.91 24.3696 339.515C17.4864 328.12 20.8871 313.458 31.9652 306.766C43.0433 300.074 57.6039 303.887 64.4871 315.281C68.9572 331.746 56.0612 326.368 48.3152 347.214Z" fill="#BAD8BA"/>
<path d="M84.1494 279.415C82.9081 280.165 81.3954 280.351 79.9442 279.932C73.8354 286.297 85.4345 254.781 88.67 255.173C76.0805 249.871 62.5438 273.432 63.7079 272.338C64.0122 270.858 76.7919 270.04 78.0332 269.29L81.0913 274.353L84.1494 279.415Z" fill="#BAD8BA"/>
<ellipse cx="190.382" cy="227.367" rx="6.13759" ry="6.36077" transform="rotate(58.865 190.382 227.367)" fill="#D9D0B2"/>
<path d="M171.831 244.571C171.254 243.615 168.329 238.342 162.35 241.824C163.319 239.544 164.981 234.629 167.988 232.812C170.995 230.996 181.533 225.884 183.286 228.786C184.502 232.093 180.048 240.259 171.831 244.571Z" fill="#D9D0B2"/>
<path d="M89.8488 297.484C86.5876 294.891 47.8412 316.862 81.2555 310.236C70.2254 314.422 73.389 282.004 77.451 279.55C81.513 277.097 98.5137 283.123 95.7437 284.797C88.7709 289.009 84.4445 293.187 89.8488 297.484Z" fill="#BAD8BA"/>
<rect x="84.0327" y="277.145" width="1.96637" height="9.80683" rx="0.89274" transform="rotate(57.565 84.0327 277.145)" fill="#C4C4C4"/>
<path d="M88.8534 278.138C83.1561 281.58 73.7784 273.686 72.973 266.741C69.1809 260.463 79.4071 255.162 81.7412 254.926C97.7499 251.644 84.6615 265.156 85.8131 272.674C87.918 278.964 94.1728 271.405 88.8534 278.138Z" fill="#BAD8BA"/>
<path d="M157.796 234.932L162.049 241.973L83.3284 292.948L77.3276 283.014L157.796 234.932Z" fill="url(#paint7_linear_250_3231)"/>
<rect x="191.861" y="220.724" width="7.73491" height="35.7148" rx="3.12459" transform="rotate(73.5057 191.861 220.724)" fill="#D9D0B2"/>
<path d="M68.937 321.352C63.0022 324.261 61.1865 337.874 58.0664 337.673C54.9463 337.471 61.5916 317.185 64.6513 315.337C67.7109 313.488 79.5233 315.353 80.6068 317.147C86.4382 318.815 72.1468 319.779 68.937 321.352Z" fill="#BAD8BA"/>
<path d="M162.998 241.171C161.989 242.954 161.155 240.063 159.658 237.583C158.16 235.104 157.887 232.526 159.047 231.825C160.208 231.123 164.625 233.936 166.123 236.416C167.621 238.895 162.996 240.521 162.998 241.171Z" fill="#D9D0B2"/>
<rect x="159.704" y="233.775" width="8.25785" height="2.23185" transform="rotate(58.865 159.704 233.775)" fill="#D9D0B2"/>
<path d="M180.733 226.794C181.009 226.099 181.877 225.866 182.463 226.33L188.549 231.145C189.489 231.888 188.756 233.389 187.592 233.104L184.711 232.399C184.277 232.293 183.821 232.456 183.553 232.814L181.946 234.956C181.642 235.361 181.104 235.511 180.635 235.321L178.837 234.595C178.268 234.365 177.992 233.72 178.217 233.149L180.733 226.794Z" fill="#D9D0B2"/>
<path d="M162.789 228.521C161.997 228.999 160.682 228.703 160.299 228.07C159.917 227.437 160.67 226.803 161.461 226.325C162.253 225.847 163.531 226.297 163.913 226.93C164.295 227.563 163.58 228.043 162.789 228.521Z" fill="url(#paint8_linear_250_3231)"/>
<path d="M167.817 226.918C167.026 227.396 165.71 227.099 165.328 226.466C164.945 225.833 165.698 225.199 166.49 224.721C167.281 224.243 168.559 224.693 168.941 225.326C169.324 225.959 168.608 226.44 167.817 226.918Z" fill="url(#paint9_linear_250_3231)"/>
<path d="M172.521 225.641C171.73 226.119 170.414 225.822 170.032 225.189C169.649 224.556 170.403 223.922 171.194 223.444C171.985 222.966 173.263 223.416 173.645 224.049C174.028 224.682 173.312 225.163 172.521 225.641Z" fill="url(#paint10_linear_250_3231)"/>
<path d="M177.11 224.173C176.319 224.651 175.003 224.354 174.621 223.721C174.238 223.088 174.991 222.454 175.783 221.976C176.574 221.498 177.852 221.948 178.234 222.581C178.617 223.214 177.901 223.695 177.11 224.173Z" fill="url(#paint11_linear_250_3231)"/>
<path d="M181.814 222.895C181.023 223.373 179.707 223.077 179.325 222.444C178.942 221.811 179.696 221.177 180.487 220.699C181.278 220.221 182.556 220.671 182.938 221.304C183.321 221.937 182.605 222.417 181.814 222.895Z" fill="url(#paint12_linear_250_3231)"/>
<path d="M186.518 221.618C185.727 222.096 184.411 221.8 184.029 221.167C183.646 220.533 184.4 219.899 185.191 219.421C185.982 218.943 187.26 219.394 187.642 220.027C188.025 220.66 187.309 221.14 186.518 221.618Z" fill="url(#paint13_linear_250_3231)"/>
<path d="M79.1215 293.426C80.894 307.81 72.54 306.792 66.8787 318.666C30.7861 284.236 52.1426 301.486 66.9294 275.432C66.0001 276.669 79.5762 254.958 84.3999 263.81C81.9543 272.676 71.2676 279.012 79.1215 293.426Z" fill="#EDE7D9"/>
<path d="M82.8019 279.683C77.8142 282.566 68.1042 288.74 72.6543 282.464C71.1885 275.104 82.5547 261.846 83.6506 262.736C87.0755 266.244 79.9733 267.899 81.4392 275.258C82.3956 280.06 91.7949 274.484 82.8019 279.683Z" fill="#EDE7D9"/>
<path d="M79.2222 281.115L80.9809 286.842L84.8395 291.424L79.6852 294.233L74.0678 283.924L79.2222 281.115Z" fill="#EDE7D9"/>
<path d="M93.0578 305.962C91.2128 306.968 87.2279 304.894 85.514 301.749C83.8001 298.604 71.2276 301.198 86.5726 291.432C88.6437 290.114 83.2322 293.001 84.9461 296.146C87.0148 299.942 93.3555 301.738 93.0578 305.962Z" fill="#EDE7D9"/>
<path d="M75.8944 314.991C54.3064 306.71 74.0589 313.44 71.6459 309.012C69.233 304.584 70.6529 299.154 74.8175 296.885C78.9821 294.616 83.2047 301.599 92.4343 303.998C96.8993 310.602 79.4941 316.372 75.8944 314.991Z" fill="#EDE7D9"/>
<rect x="80.2773" y="288.958" width="10.0006" height="5.65252" transform="rotate(61.4134 80.2773 288.958)" fill="#EDE7D9"/>
<path d="M84.8394 291.424L85.4658 292.407L82.9121 294.702L81.9759 292.984L84.8394 291.424Z" fill="#EDE7D9"/>
<path d="M86.7881 290.713L87.0381 291.108L84.0901 293.424L83.6879 292.701L86.7881 290.713Z" fill="#EDE7D9"/>
<path d="M62.8606 321.969C57.4309 324.928 53.0011 325.458 52.0244 323.665C51.0477 321.873 54.6576 318.021 60.0874 315.063C65.5172 312.104 80.6609 311.926 81.6376 313.718C82.5042 316.217 69.9171 313.792 62.8606 321.969Z" fill="#EDE7D9"/>
<path d="M63.4251 321.415C58.8338 326.392 53.0711 341.715 49.8251 335.758C46.5791 329.801 50.964 317.402 56.4876 315.044C65.928 311.014 64.6015 300.174 67.8475 306.131C71.0935 312.088 75.1776 307.088 63.4251 321.415Z" fill="#EDE7D9"/>
<path d="M62.7653 322.021C60.8148 323.084 57.9994 321.681 56.477 318.887C54.9545 316.093 55.2006 321.315 52.3468 320.395C45.4955 335.765 53.9249 308.979 55.4474 311.773C56.9699 314.566 64.7158 320.959 62.7653 322.021Z" fill="#EDE7D9"/>
<rect x="53.3467" y="294.968" width="23.4797" height="6.52214" transform="rotate(61.4134 53.3467 294.968)" fill="#EDE7D9"/>
<path d="M42.8742 322.406C37.7797 325.291 31.5076 323.848 28.8652 319.183C26.2227 314.517 28.2106 308.396 33.3051 305.51C38.3997 302.625 39.7197 306.873 42.3621 311.538C45.0045 316.204 47.9688 319.52 42.8742 322.406Z" fill="url(#paint14_linear_250_3231)"/>
<circle cx="163.542" cy="231.959" r="0.669555" transform="rotate(57.5046 163.542 231.959)" fill="#9E9D9D"/>
<circle cx="168.591" cy="230.331" r="0.669555" transform="rotate(57.5046 168.591 230.331)" fill="#9E9D9D"/>
<circle cx="173.264" cy="228.943" r="0.669555" transform="rotate(57.5046 173.264 228.943)" fill="#9E9D9D"/>
<circle cx="177.696" cy="227.177" r="0.669555" transform="rotate(57.5046 177.696 227.177)" fill="#9E9D9D"/>
<circle cx="182.865" cy="225.737" r="0.669555" transform="rotate(57.5046 182.865 225.737)" fill="#9E9D9D"/>
<circle cx="187.538" cy="224.349" r="0.669555" transform="rotate(57.5046 187.538 224.349)" fill="#9E9D9D"/>
<line x1="163.034" y1="232.415" x2="35.9517" y2="308.333" stroke="#C6C6C6" stroke-width="0.223185"/>
<line x1="168.016" y1="231.094" x2="37.1516" y2="310.215" stroke="#C6C6C6" stroke-width="0.223185"/>
<line x1="173.818" y1="228.986" x2="38.3511" y2="312.097" stroke="#C6C6C6" stroke-width="0.223185"/>
<line x1="177.927" y1="227.957" x2="39.7909" y2="314.356" stroke="#C6C6C6" stroke-width="0.223185"/>
<line x1="182.292" y1="226.499" x2="41.1105" y2="316.426" stroke="#C6C6C6" stroke-width="0.223185"/>
<line x1="187.153" y1="224.991" x2="42.19" y2="318.12" stroke="#C6C6C6" stroke-width="0.223185"/>
<line x1="152.09" y1="238.443" x2="156.39" y2="245.521" stroke="#9E9D9D" stroke-width="0.223185"/>
<line x1="147.012" y1="241.655" x2="151.312" y2="248.733" stroke="#9E9D9D" stroke-width="0.223185"/>
<line x1="141.933" y1="244.867" x2="146.233" y2="251.945" stroke="#9E9D9D" stroke-width="0.223185"/>
<line x1="136.36" y1="247.997" x2="141.006" y2="255.435" stroke="#9E9D9D" stroke-width="0.223185"/>
<line x1="132.215" y1="250.452" x2="136.86" y2="257.89" stroke="#9E9D9D" stroke-width="0.223185"/>
<line x1="127.775" y1="253.464" x2="132.354" y2="260.69" stroke="#9E9D9D" stroke-width="0.223185"/>
<line x1="122.35" y1="256.316" x2="127.341" y2="264.114" stroke="#9E9D9D" stroke-width="0.223185"/>
<line x1="117.338" y1="259.742" x2="121.917" y2="266.967" stroke="#9E9D9D" stroke-width="0.223185"/>
<line x1="111.62" y1="263.153" x2="116.265" y2="270.591" stroke="#9E9D9D" stroke-width="0.223185"/>
<line x1="106.687" y1="266.085" x2="111.333" y2="273.524" stroke="#9E9D9D" stroke-width="0.223185"/>
<line x1="101.675" y1="269.512" x2="105.975" y2="276.59" stroke="#9E9D9D" stroke-width="0.223185"/>
<line x1="96.5964" y1="272.724" x2="100.896" y2="279.802" stroke="#9E9D9D" stroke-width="0.223185"/>
<line x1="91.5172" y1="275.935" x2="95.8171" y2="283.014" stroke="#9E9D9D" stroke-width="0.223185"/>
<line x1="85.9452" y1="279.065" x2="90.5905" y2="286.504" stroke="#9E9D9D" stroke-width="0.223185"/>
<line x1="81.7997" y1="281.52" x2="86.445" y2="288.959" stroke="#9E9D9D" stroke-width="0.223185"/>
<rect x="68.4897" y="288.459" width="4.91007" height="10.7819" rx="1.11593" transform="rotate(-31.8061 68.4897 288.459)" fill="#756F62"/>
<rect x="54.1895" y="297.417" width="4.91007" height="10.9522" rx="1.11593" transform="rotate(-31.8061 54.1895 297.417)" fill="#756F62"/>
<circle cx="53.0977" cy="329.833" r="2.12026" transform="rotate(-17.241 53.0977 329.833)" fill="#070707"/>
<circle cx="41.8077" cy="346.54" r="0.89274" transform="rotate(-17.241 41.8077 346.54)" fill="#6C6C6C"/>
<circle cx="57.5079" cy="321.454" r="2.12026" transform="rotate(-17.241 57.5079 321.454)" fill="#070707"/>
<circle cx="146.632" cy="246.62" r="0.44637" fill="#EDE7D9"/>
<circle cx="136.366" cy="252.869" r="0.44637" fill="#EDE7D9"/>
<circle cx="127.215" cy="258.448" r="0.44637" fill="#EDE7D9"/>
<circle cx="116.726" cy="265.144" r="0.44637" fill="#EDE7D9"/>
<circle cx="106.459" cy="271.393" r="0.44637" fill="#EDE7D9"/>
<circle cx="95.9698" cy="278.089" r="0.44637" fill="#EDE7D9"/>
<circle cx="86.1495" cy="283.891" r="0.44637" fill="#EDE7D9"/>
<path d="M16.507 288.636C10.3872 288.455 6.16696 282.433 8.08452 276.618L23.3444 230.347C23.5003 229.875 23.8213 229.474 24.2487 229.219V229.219C25.6504 228.383 27.4228 229.425 27.3743 231.056L25.9291 279.757C25.7791 284.811 21.5607 288.786 16.507 288.636V288.636Z" fill="#F4E8C1"/>
<path d="M13.1774 346.208C15.9035 345.905 18.0686 343.777 18.4174 341.056L25.8348 283.207C26.2247 280.166 22.4525 278.448 20.414 280.737V280.737C19.6822 281.559 18.5715 281.934 17.4912 281.724L9.27328 280.129C8.47821 279.974 7.73963 280.583 7.73963 281.393V281.393L6.57932 340.183C6.5085 343.771 9.6101 346.603 13.1774 346.208V346.208Z" fill="#E4BDA7"/>
<path d="M23.7247 353.299C24.8169 356.776 22.7685 360.458 19.238 361.363V361.363C16.8669 361.971 14.3574 361.164 12.7851 359.288L12.0891 358.457C11.2246 357.426 10.6316 356.195 10.3638 354.876L7.49672 340.751C7.39433 340.246 7.54557 339.724 7.90154 339.352V339.352C8.15227 339.09 8.48587 338.923 8.84575 338.879L11.4487 338.561C15.7164 338.041 19.7481 340.639 21.0366 344.741L23.7247 353.299Z" fill="#E4BDA7"/>
<path d="M34.9779 352.03C30.8341 358.121 22.1288 348.917 19.8064 352.331C13.1416 347.797 15.1742 339.961 15.2416 333.093C19.3853 327.002 15.3521 340.599 22.017 345.133C28.6818 349.667 39.1216 345.939 34.9779 352.03Z" fill="#E4BDA7"/>
<path d="M29.8414 377.879C23.7001 377.462 23.6377 359.669 20.1957 359.435C20.6529 352.715 15.4665 348.095 20.448 345.245C26.5892 345.663 26.7767 351.272 26.3195 357.992C25.8624 364.712 35.9827 378.297 29.8414 377.879Z" fill="#E4BDA7"/>
<path d="M23.2552 378.068C17.3015 377.082 18.9158 359.713 15.579 359.161C16.6578 352.646 12.0316 347.649 17.1612 345.337C23.1149 346.323 22.7698 351.814 21.6909 358.328C20.612 364.843 29.2089 379.054 23.2552 378.068Z" fill="#E4BDA7"/>
<path d="M17.7021 378.569C12.9 377.455 17.774 363.882 9.82053 360.444C11.0393 355.19 10.1369 353.187 14.4389 351.57C19.241 352.683 18.6737 357.142 17.4549 362.396C16.2361 367.651 22.5042 379.683 17.7021 378.569Z" fill="#E4BDA7"/>
<path d="M13.6542 372.564C10.7155 371.142 9.60873 358.714 8.82758 355.031C10.3839 351.816 9.78078 352.599 12.7963 352.184C15.735 353.606 15.7463 356.594 13.1597 359.619C11.6033 362.834 16.593 373.987 13.6542 372.564Z" fill="#E4BDA7"/>
<path d="M20.3943 354.328C21.221 357.421 19.2837 360.574 16.151 361.235V361.235C14.0472 361.678 11.8754 360.875 10.5668 359.169L9.98746 358.414C9.26794 357.475 8.79418 356.372 8.60924 355.205L6.62874 342.7C6.55802 342.254 6.71056 341.801 7.03705 341.488V341.488C7.26702 341.268 7.56612 341.134 7.88361 341.109L10.1799 340.929C13.945 340.634 17.3846 343.067 18.3598 346.715L20.3943 354.328Z" fill="#E4BDA7"/>
<path d="M7.1424 279.944C17.2974 279.719 17.52 282.509 25.2204 279.944" stroke="#EDE7D9" stroke-width="2.23185"/>
<path d="M67.1069 211.983L78.4894 216.223C87.3557 238.2 91.6963 247.034 92.8848 258.852L86.1893 258.852C82.9429 239.142 78.8578 229.369 67.1069 211.983Z" fill="#A8A5A5"/>
<path d="M85.2964 254.165L92.428 253.83L92.9143 256.508L93.331 258.963H86.3847L85.9447 256.954L85.2964 254.165Z" fill="#80693D"/>
<path d="M88.4806 256.777C88.1665 256.638 88.1209 256.211 88.3986 256.008L89.3358 255.325C89.6135 255.123 90.0061 255.297 90.0426 255.639L90.1655 256.792C90.202 257.134 89.8548 257.387 89.5407 257.247L88.4806 256.777Z" fill="#C4C4C4"/>
<defs>
<linearGradient id="paint0_linear_250_3231" x1="40.2473" y1="126.259" x2="89.1751" y2="153.612" gradientUnits="userSpaceOnUse">
<stop stop-color="#64543B"/>
<stop offset="1" stop-color="#62523B"/>
</linearGradient>
<linearGradient id="paint1_linear_250_3231" x1="68.4499" y1="126.538" x2="18.9473" y2="154.212" gradientUnits="userSpaceOnUse">
<stop stop-color="#66553B"/>
<stop offset="1" stop-color="#4F4638"/>
</linearGradient>
<linearGradient id="paint2_linear_250_3231" x1="54.5875" y1="160.535" x2="54.5875" y2="202.124" gradientUnits="userSpaceOnUse">
<stop stop-color="#63533B"/>
<stop offset="1" stop-color="#836B3D"/>
</linearGradient>
<linearGradient id="paint3_linear_250_3231" x1="54.6805" y1="171.028" x2="54.6805" y2="177.723" gradientUnits="userSpaceOnUse">
<stop stop-color="#806A32"/>
<stop offset="1" stop-color="#A89D7D"/>
</linearGradient>
<linearGradient id="paint4_linear_250_3231" x1="54.9433" y1="189.106" x2="54.9433" y2="200.042" gradientUnits="userSpaceOnUse">
<stop stop-color="#BEA669"/>
<stop offset="0.0001" stop-color="#B3A16D"/>
<stop offset="0.578125" stop-color="#80693D"/>
<stop offset="0.677083" stop-color="#80693D"/>
</linearGradient>
<linearGradient id="paint5_linear_250_3231" x1="44.0941" y1="155.405" x2="44.0941" y2="170.071" gradientUnits="userSpaceOnUse">
<stop/>
<stop offset="1" stop-color="#777777"/>
</linearGradient>
<linearGradient id="paint6_linear_250_3231" x1="65.2322" y1="155.405" x2="65.2322" y2="170.071" gradientUnits="userSpaceOnUse">
<stop/>
<stop offset="1" stop-color="#777777"/>
</linearGradient>
<linearGradient id="paint7_linear_250_3231" x1="160.563" y1="239.514" x2="80.328" y2="287.981" gradientUnits="userSpaceOnUse">
<stop stop-color="#8E5A3C"/>
<stop offset="1" stop-color="#6A4E36"/>
</linearGradient>
<linearGradient id="paint8_linear_250_3231" x1="163.653" y1="226.5" x2="160.501" y2="228.404" gradientUnits="userSpaceOnUse">
<stop stop-color="#9E9D9D"/>
<stop offset="1" stop-color="#CECECE"/>
</linearGradient>
<linearGradient id="paint9_linear_250_3231" x1="168.682" y1="224.897" x2="165.53" y2="226.801" gradientUnits="userSpaceOnUse">
<stop stop-color="#9E9D9D"/>
<stop offset="1" stop-color="#CECECE"/>
</linearGradient>
<linearGradient id="paint10_linear_250_3231" x1="173.386" y1="223.619" x2="170.234" y2="225.523" gradientUnits="userSpaceOnUse">
<stop stop-color="#9E9D9D"/>
<stop offset="1" stop-color="#CECECE"/>
</linearGradient>
<linearGradient id="paint11_linear_250_3231" x1="177.975" y1="222.151" x2="174.822" y2="224.055" gradientUnits="userSpaceOnUse">
<stop stop-color="#9E9D9D"/>
<stop offset="1" stop-color="#CECECE"/>
</linearGradient>
<linearGradient id="paint12_linear_250_3231" x1="182.679" y1="220.874" x2="179.527" y2="222.778" gradientUnits="userSpaceOnUse">
<stop stop-color="#9E9D9D"/>
<stop offset="1" stop-color="#CECECE"/>
</linearGradient>
<linearGradient id="paint13_linear_250_3231" x1="187.383" y1="219.597" x2="184.231" y2="221.501" gradientUnits="userSpaceOnUse">
<stop stop-color="#9E9D9D"/>
<stop offset="1" stop-color="#CECECE"/>
</linearGradient>
<linearGradient id="paint14_linear_250_3231" x1="42.411" y1="311.511" x2="28.8652" y2="319.183" gradientUnits="userSpaceOnUse">
<stop stop-color="#A29F9F"/>
<stop offset="1" stop-color="#BFBABA"/>
</linearGradient>
</defs>
</svg>
