<svg width="531" height="174" viewBox="0 0 531 174" fill="none" xmlns="http://www.w3.org/2000/svg">
<path d="M20.1686 125.222C20.1686 128.857 18.3147 131.292 14.7161 131.292C11.0811 131.292 9.26357 128.857 9.26357 125.222C9.26357 116.825 9.26357 109.555 9.26357 109.555H4.90157V125.767C4.90157 131.365 8.71832 135.436 14.7161 135.436C20.7138 135.436 24.5306 131.365 24.5306 125.767V109.555H20.1686C20.1686 109.555 20.1686 116.825 20.1686 125.222ZM30.4366 135H34.7986V109.555H30.4366V135ZM56.2414 107.483L52.7518 105.92L38.2118 138.562L41.7014 140.125L56.2414 107.483ZM74.8356 125.222C74.8356 128.857 72.9817 131.292 69.3831 131.292C65.7481 131.292 63.9306 128.857 63.9306 125.222C63.9306 116.825 63.9306 109.555 63.9306 109.555H59.5686V125.767C59.5686 131.365 63.3853 135.436 69.3831 135.436C75.3808 135.436 79.1976 131.365 79.1976 125.767V109.555H74.8356C74.8356 109.555 74.8356 116.825 74.8356 125.222ZM98.5167 135H103.715L95.427 121.841L103.133 109.555H98.335L93.2096 118.352L88.0116 109.555H82.8499L90.5561 121.841L82.341 135H87.2482L92.8098 125.404L98.5167 135ZM136.8 109.555H128.585V135H136.8C144.216 135 149.377 129.62 149.377 122.277C149.377 114.935 144.216 109.555 136.8 109.555ZM136.873 130.856H132.947V113.699H136.873C141.817 113.699 144.943 117.625 144.943 122.277C144.943 126.894 141.817 130.856 136.873 130.856ZM157.654 113.699H168.704V109.555H153.292V135H168.922V130.856H157.654V124.022H167.832V119.878H157.654V113.699ZM193.273 109.555H188.729L182.041 125.876L175.28 109.555H170.518L181.896 135.872L193.273 109.555ZM200.394 113.699H211.444V109.555H196.032V135H211.662V130.856H200.394V124.022H210.572V119.878H200.394V113.699ZM215.875 135H231.069V130.856H220.237V109.555H215.875V135ZM245.464 109.119C238.048 109.119 232.596 114.753 232.596 122.277C232.596 129.802 238.048 135.436 245.464 135.436C252.879 135.436 258.332 129.802 258.332 122.277C258.332 114.753 252.879 109.119 245.464 109.119ZM245.464 131.292C240.339 131.292 237.031 127.185 237.031 122.277C237.031 117.37 240.339 113.263 245.464 113.263C250.589 113.263 253.897 117.37 253.897 122.277C253.897 127.185 250.589 131.292 245.464 131.292ZM270.377 121.696H266.633V113.699H270.377C273.358 113.699 274.921 115.298 274.921 117.697C274.921 120.096 273.358 121.696 270.377 121.696ZM262.271 135H266.633V125.84H270.922C275.975 125.84 279.355 122.35 279.355 117.697C279.355 113.045 275.975 109.555 270.922 109.555H262.271V135ZM287.222 113.699H298.272V109.555H282.86V135H298.49V130.856H287.222V124.022H297.4V119.878H287.222V113.699ZM302.703 135H307.065V125.404H309.064L315.099 135H320.188L313.826 125.113C317.461 124.204 319.497 121.296 319.497 117.479C319.497 112.827 316.116 109.555 311.064 109.555H302.703V135ZM310.518 121.26H307.065V113.699H310.518C313.317 113.699 315.062 114.971 315.062 117.479C315.062 119.987 313.317 121.26 310.518 121.26ZM353.48 109.555H345.265V135H353.48C360.896 135 366.058 129.62 366.058 122.277C366.058 114.935 360.896 109.555 353.48 109.555ZM353.553 130.856H349.627V113.699H353.553C358.497 113.699 361.623 117.625 361.623 122.277C361.623 126.894 358.497 130.856 353.553 130.856ZM374.334 113.699H385.384V109.555H369.972V135H385.602V130.856H374.334V124.022H384.512V119.878H374.334V113.699ZM402.538 128.348C402.538 130.42 400.284 131.292 398.103 131.292C394.25 131.292 392.069 127.476 392.069 127.476L388.798 130.238C388.798 130.238 391.742 135.436 398.103 135.436C402.901 135.436 406.973 132.964 406.973 128.348C406.973 123.732 403.737 121.987 399.848 120.533C396.358 119.224 394.359 118.533 394.359 116.316C394.359 114.608 396.068 113.263 398.249 113.263C401.411 113.263 403.519 116.134 403.519 116.134L406.536 113.154C406.536 113.154 403.556 109.119 398.249 109.119C393.123 109.119 389.924 112.717 389.924 116.316C389.924 121.042 394.141 123.077 397.885 124.386C400.902 125.44 402.538 126.203 402.538 128.348ZM411.943 135H416.305V109.555H411.943V135ZM434.112 131.365C428.987 131.365 425.17 127.185 425.17 122.277C425.17 117.37 428.805 113.19 433.931 113.19C438.256 113.19 440.365 115.844 440.365 115.844L443.345 112.936C443.345 112.936 440.183 109.119 433.931 109.119C426.479 109.119 420.736 114.753 420.736 122.277C420.736 129.802 426.661 135.436 434.112 135.436C440.292 135.436 443.527 132.237 443.527 132.237V120.678H433.458V124.749H439.238V130.129C439.238 130.129 437.747 131.365 434.112 131.365ZM448.103 109.555V135H452.465V117.516L465.188 135H469.113V109.555H464.751V127.076L452.029 109.555H448.103Z" fill="#F4E8C1"/>
<rect x="3" y="89.2903" width="467.379" height="8.37097" fill="#A0C1B9"/>
<circle cx="333.185" cy="121.185" r="4.18548" fill="#F4E8C1"/>
<circle cx="117.185" cy="121.185" r="4.18548" fill="#F4E8C1"/>
<path d="M507.923 116.509C509.157 118.561 508.526 121.207 506.511 122.419C504.497 123.631 503.365 126.08 502.04 123.972C499.507 119.942 500.026 116.2 502.04 114.988C504.054 113.776 506.688 114.457 507.923 116.509Z" fill="#70A0AF"/>
<path d="M486.441 53.7338C484.823 52.2269 484.733 49.6935 486.24 48.0753L497.026 36.4923C497.956 35.4942 499.268 34.9418 500.632 34.9746V34.9746C504.965 35.0788 506.924 40.4428 503.677 43.3152L491.822 53.8026C490.278 55.1685 487.95 55.1387 486.441 53.7338V53.7338Z" fill="#A0C1B9"/>
<path d="M504.372 33.6508C504.372 40.0202 502.127 37.565 508.086 37.565C514.045 37.565 512.43 40.0202 512.43 33.6508C512.43 27.2814 514.045 22.118 508.086 22.118C502.127 22.118 504.372 27.2814 504.372 33.6508Z" fill="#E4BDA7"/>
<path d="M486.652 47.9909C492.937 47.0362 491.988 54.393 487.766 54.1569" stroke="#EDE7D9" stroke-width="0.795611"/>
<path d="M489.103 48.0689C492.55 50.0703 490.496 55.3565 486.601 54.5044L464.671 49.7055C462.628 49.2584 462.698 46.321 464.76 45.9721V45.9721C464.911 45.9466 465.065 45.9394 465.218 45.9507L487.606 47.6062C488.133 47.6452 488.645 47.8034 489.103 48.0689V48.0689Z" fill="#E4BDA7"/>
<path d="M508.652 144.002C508.652 146.685 508.798 148.86 511.967 148.86C515.136 148.86 521.938 151.543 521.938 148.86C521.938 146.177 517.629 143.568 514.46 143.568C511.291 143.568 508.652 141.32 508.652 144.002Z" fill="#A8A5A5"/>
<path d="M524.438 135.199C527.069 136.282 529.143 137.303 527.864 140.411C526.585 143.518 526.47 151.272 523.84 150.189C521.209 149.106 520.573 143.492 521.852 140.384C523.131 137.277 521.807 134.116 524.438 135.199Z" fill="#A8A5A5"/>
<path d="M523.049 135.229C524.255 135.725 528.014 136.576 527.432 137.991C526.85 139.405 525.347 153.144 522.712 149.46C532.479 130.716 520.338 142.51 520.92 141.096C521.502 139.681 521.843 134.733 523.049 135.229Z" fill="#737373"/>
<path d="M509.134 142.802C509.134 144.032 508.527 147.615 509.969 147.615C511.411 147.615 523.932 151.235 521.665 147.615C501.814 149.406 515.862 143.608 514.42 143.608C512.978 143.608 509.134 141.572 509.134 142.802Z" fill="#737373"/>
<path d="M511.833 78.0253H496.876L500.727 119.954H507.981L511.833 78.0253Z" fill="#70A0AF"/>
<path d="M508.371 117.01L502.206 124.25L521.745 139.859L525.175 136.133L508.371 117.01Z" fill="#70A0AF"/>
<path d="M523.418 78.2496L510.492 77.0706L507.755 143.879L514.023 144.451L523.418 78.2496Z" fill="#70A0AF"/>
<path d="M507.059 81.9372C507.059 83.1296 502.217 84.629 499.407 84.629C496.597 84.629 496.884 83.1296 496.884 81.9372C496.884 80.7448 499.162 82.526 501.972 82.526C504.782 82.526 507.059 80.7448 507.059 81.9372Z" fill="#A0C1B9"/>
<line x1="508.572" y1="112.772" x2="510.402" y2="79.1176" stroke="black" stroke-opacity="0.03" stroke-width="0.795611"/>
<path d="M520.114 47.6781C520.413 41.9002 515.809 37.0514 510.023 37.0514H506.98C501.399 37.0514 496.876 41.5752 496.876 47.1557V83.1968H520.664L519.153 68.5637C519.1 68.0454 519.087 67.5238 519.114 67.0035L520.114 47.6781Z" fill="#A0C1B9"/>
<path d="M499.423 21.7491C501.65 29.6765 503.334 33.9728 508.453 33.9728C513.572 33.9728 514.658 29.9152 517.96 21.7491C517.96 15.23 513.81 9.94531 508.691 9.94531C503.572 9.94531 499.423 15.23 499.423 21.7491Z" fill="#E4BDA7"/>
<path d="M504.452 11.3989C499.025 14.4329 501.257 25.9011 498.384 20.7617C501.372 19.9302 496.678 7.28617 502.207 7.28617C507.634 4.25221 503.799 3.92685 510.76 1.94937C505.783 16.4443 509.879 8.36495 504.452 11.3989Z" fill="url(#paint0_linear_98_2579)"/>
<path d="M512.72 11.436C518.147 14.47 516.648 26.9714 518.788 20.7988C518.788 12.6902 519.83 7.32322 514.965 7.32326C509.538 4.2893 513.373 3.96393 506.412 1.98646C498.349 15.0373 507.293 8.40204 512.72 11.436Z" fill="url(#paint1_linear_98_2579)"/>
<path d="M516.576 20.8317C516.576 21.9668 516.263 24.5049 517.238 24.5049C518.214 24.5049 520.108 21.9668 520.108 20.8317C520.108 19.6966 519.318 18.7765 518.342 18.7765C517.367 18.7765 516.576 19.6966 516.576 20.8317Z" fill="#E4BDA7"/>
<path d="M500.329 20.2748C500.329 21.4099 500.643 23.948 499.667 23.948C498.692 23.948 496.797 21.4099 496.797 20.2748C496.797 19.1398 497.588 18.2196 498.563 18.2196C499.539 18.2196 500.329 19.1398 500.329 20.2748Z" fill="#E4BDA7"/>
<path d="M512.054 31.4035C512.681 30.7025 513.204 29.8231 513.742 28.7981C513.274 29.3469 512.774 29.8991 512.259 30.3969C511.704 30.9344 511.106 31.4362 510.487 31.8084C509.876 32.1763 509.173 32.4609 508.428 32.4609C507.695 32.4609 506.996 32.1926 506.38 31.8412C505.757 31.4858 505.151 31.0056 504.586 30.4894C504.098 30.044 503.622 29.553 503.172 29.0608C503.734 30.1011 504.249 30.929 504.844 31.5671C505.693 32.4779 506.716 33.0043 508.428 33.0043C510.095 33.0043 511.169 32.3939 512.054 31.4035Z" stroke="url(#paint2_linear_98_2579)" stroke-width="1.98903"/>
<path d="M504.395 25.1397C504.395 25.8075 504.811 26.4386 505.54 26.9123C506.266 27.3847 507.281 27.6834 508.413 27.6834C509.545 27.6834 510.56 27.3847 511.286 26.9123C512.014 26.4386 512.431 25.8075 512.431 25.1397C512.431 24.9673 512.403 24.8667 512.371 24.8095C512.343 24.7607 512.307 24.7331 512.248 24.7175C512.18 24.6996 512.081 24.698 511.941 24.7201C511.802 24.742 511.64 24.7842 511.452 24.8407C511.324 24.8788 511.187 24.9231 511.04 24.9704C510.331 25.1986 509.409 25.4955 508.413 25.4955C507.417 25.4955 506.495 25.1986 505.786 24.9704C505.639 24.9231 505.501 24.8788 505.374 24.8407C505.186 24.7842 505.023 24.742 504.885 24.7201C504.745 24.698 504.646 24.6996 504.578 24.7175C504.519 24.7331 504.483 24.7607 504.455 24.8095C504.423 24.8667 504.395 24.9673 504.395 25.1397Z" fill="white" stroke="#D99584" stroke-width="0.397806"/>
<path d="M503.958 25.0221C503.958 25.1978 504.921 25.3005 508.292 25.3005C511.662 25.3005 512.868 25.2774 512.868 25.1016C512.868 24.9259 511.662 22.9137 508.292 22.9137C504.921 22.9137 503.958 24.8463 503.958 25.0221Z" fill="url(#paint3_linear_98_2579)"/>
<path d="M506.569 32.8018C506.569 33.0889 507.564 32.1998 508.272 33.5351C509.035 32.1203 510.07 33.2189 510.07 32.9318C510.07 32.6447 509.596 29.3582 508.272 29.3582C506.948 29.3582 506.569 32.5147 506.569 32.8018Z" fill="url(#paint4_linear_98_2579)"/>
<path d="M509.06 22.2193C508.695 22.1583 509.405 22.8052 509.89 22.8052C510.525 22.8052 510.916 22.6099 510.769 22.2681C510.769 21.9715 510.376 21.7311 509.89 21.7311C509.405 21.7311 508.767 22.1705 509.06 22.2193Z" fill="#F8D1BC"/>
<path d="M507.837 22.2193C508.202 22.1583 507.492 22.8052 507.007 22.8052C506.372 22.8052 505.981 22.6099 506.128 22.2681C506.128 21.9715 506.521 21.7311 507.007 21.7311C507.492 21.7311 508.129 22.1705 507.837 22.2193Z" fill="#F8D1BC"/>
<path d="M515.195 17.5635H509.179V19.3902C509.179 21.0268 510.505 22.3535 512.142 22.3535H512.232C513.869 22.3535 515.195 21.0268 515.195 19.3901V17.5635Z" fill="url(#paint5_linear_98_2579)" stroke="white" stroke-width="0.43811"/>
<path d="M507.66 17.5635H501.643V19.3902C501.643 21.0268 502.97 22.3535 504.607 22.3535H504.696C506.333 22.3535 507.66 21.0268 507.66 19.3901V17.5635Z" fill="url(#paint6_linear_98_2579)" stroke="white" stroke-width="0.43811"/>
<path d="M507.458 19.5722C507.458 19.4886 507.483 19.4058 507.531 19.3286C507.579 19.2514 507.649 19.1812 507.738 19.1221C507.827 19.063 507.932 19.0161 508.048 18.9841C508.164 18.9521 508.288 18.9357 508.413 18.9357C508.538 18.9357 508.663 18.9521 508.778 18.9841C508.894 19.0161 508.999 19.063 509.088 19.1221C509.177 19.1812 509.247 19.2514 509.295 19.3286C509.343 19.4058 509.368 19.4886 509.368 19.5722L509.088 20.2484C509.088 20.2202 508.727 19.516 508.711 19.4899C508.695 19.4639 508.671 19.4402 508.641 19.4202C508.611 19.4003 508.575 19.3844 508.536 19.3736C508.497 19.3628 508.455 19.3573 508.413 19.3573C508.371 19.3573 508.329 19.3628 508.29 19.3736C508.251 19.3844 508.215 19.4003 508.185 19.4202C508.155 19.4402 508.131 19.4639 508.115 19.4899C508.099 19.516 507.738 20.2202 507.738 20.2484L507.458 19.5722Z" fill="white"/>
<rect width="1.11386" height="1.82991" transform="matrix(-1 0 0 1 508.97 17.3445)" fill="white"/>
<path d="M503.957 38.0303C503.957 40.2253 505.899 42.3266 508.294 42.3266C510.688 42.3266 512.63 39.9071 512.63 37.712C512.63 35.5169 511.008 36.3648 508.613 36.3648C506.218 36.3648 503.957 35.8352 503.957 38.0303Z" fill="#E4BDA7"/>
<path d="M462.767 43.2124C463.221 43.7897 467.096 46.8666 467.57 47.1518C467.127 47.8881 461.174 46.0486 460.309 46.0015C459.463 45.4927 460.69 45.9896 461.134 45.2534C461.577 44.5171 461.922 42.7035 462.767 43.2124Z" fill="#E4BDA7"/>
<path d="M518.995 18.0605H515.414V18.9357C516.819 18.4434 517.604 18.4728 518.995 18.9357V18.0605Z" fill="white"/>
<path d="M499.423 17.6626H501.412V18.5378C500.631 18.0455 500.195 18.0749 499.423 18.5378V17.6626Z" fill="white"/>
<path d="M518.211 20.9246C519.367 21.61 517.487 22.0425 518.211 22.834" stroke="black" stroke-width="0.0795611"/>
<path d="M498.933 20.3677C497.778 21.0531 499.657 21.4856 498.933 22.2771" stroke="black" stroke-width="0.0795611"/>
<ellipse rx="1.8064" ry="1.07408" transform="matrix(-1 0 0 1 508.377 22.317)" fill="#EEB8A7"/>
<path d="M504.262 25.5392C504.262 26.3741 506.026 28.7217 508.399 28.7217C510.772 28.7217 512.576 26.0956 512.576 25.2607C512.576 24.4258 510.772 27.3773 508.399 27.3773C506.026 27.3773 504.262 24.7044 504.262 25.5392Z" fill="#D99584"/>
<path d="M504.262 25.5392C504.262 26.3741 506.026 28.7217 508.399 28.7217C510.772 28.7217 512.576 26.0956 512.576 25.2607C512.576 24.4258 510.772 27.3773 508.399 27.3773C506.026 27.3773 504.262 24.7044 504.262 25.5392Z" fill="#D99584"/>
<path d="M504.262 25.5392C504.262 26.3741 506.026 28.7217 508.399 28.7217C510.772 28.7217 512.576 26.0956 512.576 25.2607C512.576 24.4258 510.772 27.3773 508.399 27.3773C506.026 27.3773 504.262 24.7044 504.262 25.5392Z" fill="#D99584"/>
<path d="M500.234 23.392C500.483 25.9257 502.352 33.3361 506.45 32.9782C503.188 24.7833 501.781 25.8516 501.532 23.3178C501.284 20.7841 500.151 18.5163 499.528 18.5774C500.325 23.5335 499.986 20.8582 500.234 23.392Z" fill="#79643D"/>
<path d="M516.603 23.2511C516.355 25.7848 514.485 33.1952 510.388 32.8373C513.65 24.6424 515.057 25.7107 515.305 23.1769C515.554 20.6432 516.726 18.6358 517.35 18.6969C516.552 23.653 516.852 20.7173 516.603 23.2511Z" fill="#79643D"/>
<path d="M509.635 15.9429C509.531 16.5046 510.936 15.8729 512.413 16.1472C513.891 16.4216 514.316 16.8122 514.955 17.3596C515.06 16.7979 513.947 16.1203 512.469 15.8459C510.992 15.5716 509.739 15.3813 509.635 15.9429Z" fill="#A78E64"/>
<path d="M507.397 15.7617C507.511 16.3198 505.989 15.8533 504.479 16.1603C502.97 16.4674 502.539 16.8668 501.89 17.4275C501.777 16.8694 502.909 16.168 504.418 15.8609C505.928 15.5538 507.284 15.2036 507.397 15.7617Z" fill="#A78E64"/>
<path d="M520.735 62.213C522.916 62.1483 524.421 60.0017 523.737 57.9289L518.297 41.4341C518.242 41.2656 518.127 41.1228 517.975 41.032V41.032C517.475 40.7339 516.843 41.1052 516.861 41.6868L517.376 59.0478C517.429 60.8494 518.933 62.2665 520.735 62.213V62.213Z" fill="#A0C1B9"/>
<path d="M521.922 82.7362C520.95 82.6284 520.178 81.8696 520.054 80.8998L517.409 60.2777C517.271 59.1938 518.615 58.5811 519.342 59.3973V59.3973C519.603 59.6902 519.999 59.824 520.384 59.7492L523.313 59.1804C523.597 59.1253 523.86 59.3424 523.86 59.6311V59.6311L524.274 80.5885C524.299 81.8677 523.193 82.8773 521.922 82.7362V82.7362Z" fill="#E4BDA7"/>
<path d="M518.162 85.2642C517.772 86.5037 518.503 87.8163 519.761 88.139V88.139C520.607 88.3558 521.501 88.0681 522.062 87.3993L522.31 87.1032C522.618 86.7354 522.829 86.2965 522.925 85.8263L523.947 80.7911C523.983 80.6113 523.929 80.425 523.803 80.2924V80.2924C523.713 80.1991 523.594 80.1395 523.466 80.1239L522.538 80.0106C521.017 79.825 519.579 80.7513 519.12 82.2135L518.162 85.2642Z" fill="#E4BDA7"/>
<path d="M514.15 84.8118C515.627 86.9831 518.731 83.7022 519.558 84.9191C521.934 83.3028 521.21 80.5094 521.186 78.061C519.709 75.8897 521.146 80.7368 518.77 82.3532C516.395 83.9695 512.673 82.6405 514.15 84.8118Z" fill="#E4BDA7"/>
<path d="M515.981 94.0266C518.171 93.8777 518.193 87.5352 519.42 87.4517C519.257 85.0562 521.106 83.4091 519.33 82.3931C517.141 82.5421 517.074 84.5416 517.237 86.9371C517.4 89.3326 513.792 94.1756 515.981 94.0266Z" fill="#E4BDA7"/>
<path d="M518.329 94.0938C520.451 93.7423 519.876 87.5507 521.066 87.3537C520.681 85.0314 522.33 83.2499 520.501 82.4257C518.379 82.7772 518.502 84.7348 518.887 87.0571C519.271 89.3794 516.207 94.4453 518.329 94.0938Z" fill="#E4BDA7"/>
<path d="M520.309 94.2724C522.02 93.8753 520.283 89.0365 523.118 87.8112C522.684 85.9381 523.005 85.2242 521.472 84.6475C519.76 85.0446 519.962 86.634 520.397 88.5071C520.831 90.3802 518.597 94.6695 520.309 94.2724Z" fill="#E4BDA7"/>
<path d="M521.752 92.1318C522.799 91.6247 523.194 87.1944 523.472 85.8816C522.917 84.7353 523.132 85.0147 522.058 84.8667C521.01 85.3737 521.006 86.4386 521.928 87.517C522.483 88.6633 520.704 92.6388 521.752 92.1318Z" fill="#E4BDA7"/>
<path d="M519.349 85.6307C519.054 86.7333 519.745 87.8574 520.862 88.0929V88.0929C521.612 88.2511 522.386 87.9647 522.852 87.3565L523.059 87.0872C523.315 86.7528 523.484 86.3596 523.55 85.9434L524.256 81.4858C524.281 81.3266 524.227 81.1652 524.111 81.0537V81.0537C524.029 80.9751 523.922 80.9274 523.809 80.9185L522.99 80.8543C521.648 80.7491 520.422 81.6165 520.074 82.9171L519.349 85.6307Z" fill="#E4BDA7"/>
<path d="M460.543 43.9429C459.282 43.6275 458.015 44.434 457.767 45.7094V45.7094C457.601 46.566 457.941 47.442 458.642 47.962L458.952 48.1922C459.337 48.4781 459.788 48.6632 460.263 48.7307L465.35 49.4535C465.531 49.4793 465.714 49.4145 465.839 49.28V49.28C465.927 49.1853 465.979 49.063 465.987 48.934L466.046 48.0011C466.141 46.4714 465.132 45.0914 463.645 44.7193L460.543 43.9429Z" fill="#E4BDA7"/>
<path d="M460.757 39.9117C458.677 41.5146 462.136 44.4186 460.97 45.3169C462.724 47.5932 463.345 48.0946 465.787 47.926C467.868 46.3231 465.238 46.6549 463.485 44.3787C461.731 42.1024 462.838 38.3088 460.757 39.9117Z" fill="#E4BDA7"/>
<path d="M456.98 37.9174C455.73 39.7208 460.672 43.697 459.971 44.7078C461.944 46.0756 462.077 48.5482 463.979 47.7949C465.229 45.9916 463.709 44.6913 461.736 43.3234C459.762 41.9555 458.231 36.114 456.98 37.9174Z" fill="#E4BDA7"/>
<path d="M455.463 39.7096C454.412 41.5871 459.609 45.0022 459.02 46.0545C461.075 47.2036 461.437 49.604 463.223 48.6898C464.273 46.8122 462.667 45.6865 460.612 44.5374C458.558 43.3883 456.513 37.832 455.463 39.7096Z" fill="#E4BDA7"/>
<path d="M454.087 41.1447C453.329 42.73 458.194 44.3928 457.382 47.3727C459.116 48.2025 459.473 48.8994 460.881 48.0612C461.639 46.4759 460.271 45.6419 458.537 44.8121C456.802 43.9824 454.846 39.5594 454.087 41.1447Z" fill="#E4BDA7"/>
<path d="M454.859 43.6081C454.601 44.7431 457.816 47.8167 458.668 48.8536C459.91 49.1357 459.558 49.1293 460.344 48.3818C460.602 47.2469 459.773 46.579 458.354 46.6263C457.113 46.3443 455.117 42.4732 454.859 43.6081Z" fill="#E4BDA7"/>
<path d="M460.247 45.1497C459.129 44.9207 458.047 45.6765 457.878 46.8052V46.8052C457.765 47.5632 458.096 48.3191 458.731 48.7489L459.012 48.9391C459.361 49.1754 459.763 49.3208 460.183 49.362L464.674 49.8034C464.835 49.8192 464.993 49.7554 465.097 49.6326V49.6326C465.171 49.5461 465.212 49.4369 465.214 49.3234L465.23 48.5024C465.256 47.1564 464.317 45.9836 462.998 45.7134L460.247 45.1497Z" fill="#E4BDA7"/>
<path d="M524.073 59.1143C520.453 59.0343 520.374 60.0288 517.629 59.1143" stroke="#EDE7D9" stroke-width="0.795611"/>
<path d="M28.2576 29.1226C27.0522 29.1226 26.1816 29.9932 26.1816 31.1986V57.383C26.1816 62.5395 25.8468 65.687 20.8912 65.687C17.2749 65.687 16.0695 63.9458 15.7347 60.9992C15.5338 59.5929 14.4623 58.6554 13.056 58.9232L5.62255 60.5974C4.685 60.7983 4.08229 61.535 4.14926 62.4725C4.41713 67.629 6.62707 77.2054 20.8912 77.2054C36.7626 77.2054 37.7001 65.3521 37.7001 60.9323V31.1986C37.7001 29.9932 36.8295 29.1226 35.6241 29.1226H28.2576ZM76.5189 73.7231C76.5189 75.1964 75.8492 76 74.5099 76H67.0095C65.7371 76 65.0004 75.3303 65.0004 73.991V68.1648C65.0004 66.8254 64.3308 66.1557 62.9914 66.1557H57.2322C55.9598 66.1557 55.2232 66.8254 55.2232 68.1648V73.991C55.2232 75.3303 54.5535 76 53.2141 76H45.7137C44.4413 76 43.7047 75.1964 43.7047 73.7231V45.3288C43.7047 36.8908 45.0441 27.9172 60.1118 27.9172C75.1795 27.9172 76.5189 36.8908 76.5189 45.3288V73.7231ZM65.0004 45.3288C65.0004 42.1143 64.5317 40.5071 60.1118 40.5071C55.6919 40.5071 55.2232 42.1143 55.2232 45.3288V52.6283C55.2232 53.9006 55.9598 54.6373 57.2322 54.6373H62.9914C64.3308 54.5703 65.0004 53.9006 65.0004 52.5613V45.3288ZM105.923 51.155C105.655 50.8201 105.722 50.5523 105.923 50.2174L119.45 31.6004C120.388 30.1941 119.852 29.1226 118.178 29.1226H108.267C107.195 29.1226 106.459 29.5244 105.856 30.395L95.3421 44.86C95.0072 45.3957 94.5384 45.2618 94.5384 44.5921V31.1316C94.5384 29.7923 93.8688 29.1226 92.5294 29.1226H84.8951C83.6227 29.1226 82.8861 29.7923 82.8861 31.1316V73.991C82.8861 75.2634 83.6227 76 84.8951 76H92.5294C93.8688 76 94.5384 75.2634 94.5384 73.991V66.5575C94.5384 66.2227 94.6054 65.9548 94.8063 65.687L97.552 61.9368C97.8199 61.535 98.2217 61.535 98.4895 61.9368L106.794 74.6606C107.396 75.5982 108.133 76 109.204 76H119.25C120.857 76 121.459 74.9285 120.522 73.5892L105.923 51.155ZM154.746 29.1226C156.085 29.1226 156.755 29.7923 156.755 31.1316V38.632C156.755 39.9044 156.085 40.641 154.746 40.641H138.539C137.267 40.641 136.53 41.3107 136.53 42.6501V44.793C136.53 46.0654 137.267 46.8021 138.539 46.8021H148.919C150.259 46.8021 150.928 47.4717 150.928 48.8111V56.3115C150.928 57.5839 150.259 58.3205 148.919 58.3205H138.539C137.267 58.3205 136.53 58.9902 136.53 60.3295V62.4725C136.53 63.7449 137.267 64.4815 138.539 64.4815H154.746C156.085 64.4815 156.755 65.1512 156.755 66.4906V73.991C156.755 75.3303 156.085 76 154.746 76H126.619C125.347 76 124.61 75.2634 124.61 73.991V31.1316C124.61 29.7923 125.347 29.1226 126.619 29.1226H154.746ZM191.474 29.1226C192.813 29.1226 193.483 29.7923 193.483 31.1316V62.4725C193.483 63.7449 194.219 64.4815 195.492 64.4815H210.426C211.765 64.4815 212.435 65.1512 212.435 66.4906V73.991C212.435 75.3303 211.765 76 210.426 76H183.973C182.701 76 181.964 75.2634 181.964 73.991V31.1316C181.964 29.7923 182.701 29.1226 183.973 29.1226H191.474ZM249.039 73.7231C249.039 75.1964 248.37 76 247.03 76H239.53C238.258 76 237.521 75.3303 237.521 73.991V68.1648C237.521 66.8254 236.851 66.1557 235.512 66.1557H229.753C228.48 66.1557 227.744 66.8254 227.744 68.1648V73.991C227.744 75.3303 227.074 76 225.735 76H218.234C216.962 76 216.225 75.1964 216.225 73.7231V45.3288C216.225 36.8908 217.564 27.9172 232.632 27.9172C247.7 27.9172 249.039 36.8908 249.039 45.3288V73.7231ZM237.521 45.3288C237.521 42.1143 237.052 40.5071 232.632 40.5071C228.212 40.5071 227.744 42.1143 227.744 45.3288V52.6283C227.744 53.9006 228.48 54.6373 229.753 54.6373H235.512C236.851 54.5703 237.521 53.9006 237.521 52.5613V45.3288ZM286.413 44.0564C287.618 43.7885 288.221 43.0519 288.154 41.8464C287.752 37.0248 284.537 28.0511 270.742 28.0511C255.741 28.0511 254.536 39.9044 254.603 41.9134C254.603 57.316 274.76 56.0436 276.033 61.7359C276.434 63.544 274.024 65.4861 270.742 65.4861C267.595 65.4861 265.117 63.611 264.849 60.3965C264.715 58.9902 263.978 58.3875 262.639 58.6554L255.072 60.3295C253.866 60.5974 253.264 61.3341 253.33 62.5395C253.665 67.763 256.679 77.0045 270.742 77.0045C286.613 77.0045 288.89 65.1512 288.89 63.1422C288.89 47.7396 267.729 47.8735 266.791 42.6501C266.523 41.1098 268.13 39.5695 270.742 39.5695C273.89 39.5695 276.1 41.3107 276.568 44.0564C276.769 45.3957 277.439 45.9985 278.778 45.7306L286.413 44.0564ZM303.239 29.1226C304.512 29.1226 305.248 29.8592 305.248 31.1316V47.8735C305.248 49.1459 305.985 49.8826 307.257 49.8826H313.686C315.026 49.8826 315.695 49.1459 315.695 47.8735V31.1316C315.695 29.8592 316.432 29.1226 317.704 29.1226H325.205C326.544 29.1226 327.214 29.7923 327.214 31.1316V73.991C327.214 75.2634 326.544 76 325.205 76H317.704C316.432 76 315.695 75.2634 315.695 73.991V63.4101C315.695 62.0707 315.026 61.401 313.686 61.401H307.257C305.985 61.401 305.248 62.0707 305.248 63.4101V73.991C305.248 75.2634 304.579 76 303.239 76H295.739C294.466 76 293.73 75.2634 293.73 73.991V31.1316C293.73 29.7923 294.4 29.1226 295.739 29.1226H303.239ZM364.02 29.1226C365.359 29.1226 366.029 29.7923 366.029 31.1316V38.632C366.029 39.9044 365.359 40.641 364.02 40.641H347.814C346.541 40.641 345.805 41.3107 345.805 42.6501V44.793C345.805 46.0654 346.541 46.8021 347.814 46.8021H358.194C359.533 46.8021 360.203 47.4717 360.203 48.8111V56.3115C360.203 57.5839 359.533 58.3205 358.194 58.3205H347.814C346.541 58.3205 345.805 58.9902 345.805 60.3295V62.4725C345.805 63.7449 346.541 64.4815 347.814 64.4815H364.02C365.359 64.4815 366.029 65.1512 366.029 66.4906V73.991C366.029 75.3303 365.359 76 364.02 76H335.893C334.621 76 333.884 75.2634 333.884 73.991V31.1316C333.884 29.7923 334.621 29.1226 335.893 29.1226H364.02ZM383.015 29.1226C384.153 29.1226 384.89 29.5914 385.358 30.6628L394.466 52.9631C394.734 53.5658 395.27 53.4319 395.27 52.7622V31.1316C395.27 29.7923 396.006 29.1226 397.279 29.1226H404.779C406.118 29.1226 406.788 29.7923 406.788 31.1316V73.991C406.788 75.2634 406.118 76 404.779 76H394.935C393.796 76 393.06 75.5312 392.591 74.4597L383.483 52.1595C383.215 51.5568 382.68 51.6907 382.68 52.3604V73.991C382.68 75.2634 382.01 76 380.671 76H373.17C371.898 76 371.161 75.2634 371.161 73.991V31.1316C371.161 29.7923 371.898 29.1226 373.17 29.1226H383.015ZM422.849 29.1226C424.189 29.1226 424.858 29.7923 424.858 31.1316V73.991C424.858 75.2634 424.189 76 422.849 76H415.483C414.211 76 413.474 75.2634 413.474 73.991V31.1316C413.474 29.7923 414.211 29.1226 415.483 29.1226H422.849ZM454.561 51.155C454.293 50.8201 454.36 50.5523 454.561 50.2174L468.088 31.6004C469.026 30.1941 468.49 29.1226 466.816 29.1226H456.905C455.833 29.1226 455.096 29.5244 454.494 30.395L443.98 44.86C443.645 45.3957 443.176 45.2618 443.176 44.5921V31.1316C443.176 29.7923 442.507 29.1226 441.167 29.1226H433.533C432.26 29.1226 431.524 29.7923 431.524 31.1316V73.991C431.524 75.2634 432.26 76 433.533 76H441.167C442.507 76 443.176 75.2634 443.176 73.991V66.5575C443.176 66.2227 443.243 65.9548 443.444 65.687L446.19 61.9368C446.458 61.535 446.859 61.535 447.127 61.9368L455.431 74.6606C456.034 75.5982 456.771 76 457.842 76H467.887C469.495 76 470.097 74.9285 469.16 73.5892L454.561 51.155Z" fill="#F4E8C1"/>
<defs>
<linearGradient id="paint0_linear_98_2579" x1="513.558" y1="6.95473" x2="496.116" y2="16.7054" gradientUnits="userSpaceOnUse">
<stop stop-color="#64543B"/>
<stop offset="1" stop-color="#62523B"/>
</linearGradient>
<linearGradient id="paint1_linear_98_2579" x1="503.504" y1="7.05403" x2="521.151" y2="16.9193" gradientUnits="userSpaceOnUse">
<stop stop-color="#66553B"/>
<stop offset="1" stop-color="#4F4638"/>
</linearGradient>
<linearGradient id="paint2_linear_98_2579" x1="508.446" y1="19.1732" x2="508.446" y2="33.9988" gradientUnits="userSpaceOnUse">
<stop stop-color="#63533B"/>
<stop offset="1" stop-color="#836B3D"/>
</linearGradient>
<linearGradient id="paint3_linear_98_2579" x1="508.413" y1="22.9137" x2="508.413" y2="25.3005" gradientUnits="userSpaceOnUse">
<stop stop-color="#806A32"/>
<stop offset="1" stop-color="#A89D7D"/>
</linearGradient>
<linearGradient id="paint4_linear_98_2579" x1="508.319" y1="29.3582" x2="508.319" y2="33.2566" gradientUnits="userSpaceOnUse">
<stop stop-color="#BEA669"/>
<stop offset="0.0001" stop-color="#B3A16D"/>
<stop offset="0.578125" stop-color="#80693D"/>
<stop offset="0.677083" stop-color="#80693D"/>
</linearGradient>
<linearGradient id="paint5_linear_98_2579" x1="512.187" y1="17.3445" x2="512.187" y2="22.5726" gradientUnits="userSpaceOnUse">
<stop/>
<stop offset="1" stop-color="#777777"/>
</linearGradient>
<linearGradient id="paint6_linear_98_2579" x1="504.651" y1="17.3445" x2="504.651" y2="22.5726" gradientUnits="userSpaceOnUse">
<stop/>
<stop offset="1" stop-color="#777777"/>
</linearGradient>
</defs>
</svg>
