<svg width="892" height="2365" viewBox="0 0 892 2365" fill="none" xmlns="http://www.w3.org/2000/svg">
<path d="M295.787 901.259C295.787 981.315 324.013 950.456 249.11 950.456C174.207 950.456 194.509 981.315 194.509 901.259C194.509 821.203 174.207 756.304 249.11 756.304C324.013 756.304 295.787 821.203 295.787 901.259Z" fill="#E4BDA7"/>
<path d="M532.004 874.486C513.557 853.697 481.751 851.799 460.963 870.245L312.16 1002.29C299.338 1013.66 292 1029.98 292 1047.13V1047.13C292 1101.61 358.809 1127.85 395.883 1087.92L531.242 942.125C548.871 923.137 549.201 893.866 532.004 874.486V874.486Z" fill="#D37D64"/>
<path d="M471.008 864.3C434.5 928.804 514.5 964.804 541 906.304" stroke="#EDE7D9" stroke-width="10"/>
<path d="M462.385 902.263C475.695 950.569 546.52 942.489 548.608 892.427L560.363 610.508C561.458 584.242 525.526 575.709 514.695 599.663V599.663C513.901 601.417 513.323 603.261 512.972 605.155L461.543 882.592C460.332 889.128 460.62 895.855 462.385 902.263V902.263Z" fill="#E4BDA7"/>
<path d="M242 2288.26C242 2321.98 240.161 2349.32 200.33 2349.32C160.499 2349.32 75.0001 2383.04 75.0001 2349.32C75.0001 2315.6 129.169 2282.8 169 2282.8C208.831 2282.8 242 2254.54 242 2288.26Z" fill="#A8A5A5"/>
<path d="M231 2288.26C231 2321.98 232.839 2349.32 272.67 2349.32C312.501 2349.32 398 2383.04 398 2349.32C398 2315.6 339.331 2283.3 299.5 2283.3C259.669 2283.3 231 2254.54 231 2288.26Z" fill="#A8A5A5"/>
<path d="M237.592 2273.17C237.592 2288.63 229.966 2333.67 248.093 2333.67C266.219 2333.67 423.591 2379.17 395.093 2333.67C145.591 2356.17 329.626 2276.3 311.5 2276.3C293.373 2276.3 237.592 2257.72 237.592 2273.17Z" fill="#737373"/>
<path d="M235.941 2273.17C235.941 2288.63 243.568 2333.67 225.441 2333.67C207.314 2333.67 49.9425 2379.17 78.4408 2333.67C327.943 2356.17 151.373 2283.3 169.5 2283.3C187.627 2283.3 235.941 2257.72 235.941 2273.17Z" fill="#737373"/>
<path d="M91.0001 1459.3H390L313 2284.3H168L91.0001 1459.3Z" fill="#70A0AF"/>
<path d="M262.176 1451.47C262.176 1466.46 323.042 1485.3 358.36 1485.3C393.677 1485.3 390.072 1466.46 390.072 1451.47C390.072 1436.48 361.442 1458.87 326.124 1458.87C290.806 1458.87 262.176 1436.48 262.176 1451.47Z" fill="#D37D64"/>
<line x1="243.176" y1="2284.26" x2="250.176" y2="1459.26" stroke="black" stroke-opacity="0.03" stroke-width="10"/>
<path d="M98.8364 1078.7C94.5844 1005.77 152.575 944.304 225.621 944.304H263C333.14 944.304 390 1001.16 390 1071.3V1459.3H91.0001L109.721 1298.31C110.572 1290.99 110.784 1283.6 110.355 1276.25L98.8364 1078.7Z" fill="#D37D64"/>
<path d="M358 751.665C330 851.304 308.841 905.304 244.5 905.304C180.159 905.304 166.5 854.304 125 751.665C125 669.728 177.159 603.304 241.5 603.304C305.841 603.304 358 669.728 358 751.665Z" fill="#E4BDA7"/>
<path d="M294.78 621.575C362.993 659.709 334.941 803.852 371.053 739.255C333.5 728.804 392.5 569.882 323 569.882C254.787 531.749 302.996 527.659 215.5 502.804C278.052 684.99 226.568 583.442 294.78 621.575Z" fill="url(#paint0_linear_81_1631)"/>
<path d="M190.868 622.04C122.655 660.174 141.5 817.304 114.595 739.72C114.595 637.804 101.5 570.347 162.648 570.348C230.861 532.214 182.653 528.124 270.148 503.269C371.5 667.305 259.081 583.907 190.868 622.04Z" fill="url(#paint1_linear_81_1631)"/>
<path d="M142.398 740.136C142.398 754.403 146.334 786.304 134.074 786.304C121.814 786.304 98.0001 754.403 98.0001 740.136C98.0001 725.87 107.939 714.304 120.199 714.304C132.46 714.304 142.398 725.87 142.398 740.136Z" fill="#E4BDA7"/>
<path d="M346.602 733.136C346.602 747.403 342.666 779.304 354.926 779.304C367.187 779.304 391 747.403 391 733.136C391 718.87 381.061 707.304 368.801 707.304C356.541 707.304 346.602 718.87 346.602 733.136Z" fill="#E4BDA7"/>
<path d="M199.234 873.014C191.359 864.203 184.775 853.15 178.015 840.266C183.897 847.164 190.19 854.105 196.653 860.362C203.63 867.117 211.153 873.424 218.93 878.103C226.616 882.727 235.448 886.304 244.806 886.304C254.018 886.304 262.808 882.932 270.548 878.515C278.377 874.048 285.999 868.013 293.101 861.524C299.228 855.926 305.218 849.755 310.869 843.568C303.804 856.644 297.34 867.05 289.863 875.07C279.19 886.517 266.329 893.134 244.806 893.134C223.857 893.134 210.36 885.462 199.234 873.014Z" stroke="url(#paint2_linear_81_1631)" stroke-width="25"/>
<path d="M295.5 794.283C295.5 802.677 290.267 810.609 281.114 816.563C271.984 822.501 259.223 826.255 245 826.255C230.777 826.255 218.016 822.501 208.887 816.563C199.734 810.609 194.5 802.677 194.5 794.283C194.5 792.116 194.846 790.852 195.253 790.133C195.6 789.52 196.058 789.173 196.803 788.977C197.656 788.751 198.899 788.731 200.661 789.01C202.397 789.285 204.439 789.815 206.806 790.524C208.407 791.004 210.138 791.561 211.984 792.156C220.893 795.024 232.483 798.755 245 798.755C257.517 798.755 269.107 795.024 278.016 792.156C279.862 791.561 281.594 791.004 283.194 790.524C285.562 789.815 287.603 789.285 289.339 789.01C291.101 788.731 292.344 788.751 293.197 788.977C293.942 789.173 294.401 789.52 294.748 790.133C295.154 790.852 295.5 792.116 295.5 794.283Z" fill="white" stroke="#D99584" stroke-width="5"/>
<path d="M301 792.804C301 795.013 288.886 796.304 246.525 796.304C204.165 796.304 189 796.013 189 793.804C189 791.595 204.165 766.304 246.525 766.304C288.886 766.304 301 790.595 301 792.804Z" fill="url(#paint3_linear_81_1631)"/>
<path d="M268.176 890.588C268.176 894.196 255.676 883.021 246.775 899.804C237.176 882.021 224.176 895.829 224.176 892.221C224.176 888.613 230.134 847.304 246.775 847.304C263.417 847.304 268.176 886.979 268.176 890.588Z" fill="url(#paint4_linear_81_1631)"/>
<path d="M236.864 757.577C241.46 756.811 232.532 764.94 226.432 764.94C218.455 764.94 213.546 762.486 215.386 758.19C215.386 754.463 220.332 751.44 226.432 751.44C232.532 751.44 240.546 756.963 236.864 757.577Z" fill="#F8D1BC"/>
<path d="M252.245 757.577C247.648 756.811 256.576 764.94 262.677 764.94C270.654 764.94 275.563 762.486 273.722 758.19C273.722 754.463 268.777 751.44 262.677 751.44C256.576 751.44 248.563 756.963 252.245 757.577Z" fill="#F8D1BC"/>
<path d="M159.753 699.057H235.377V722.016C235.377 742.587 218.701 759.263 198.13 759.263H197C176.429 759.263 159.753 742.587 159.753 722.016V699.057Z" fill="url(#paint5_linear_81_1631)" stroke="white" stroke-width="5.50658"/>
<path d="M254.466 699.057H330.09V722.016C330.09 742.587 313.414 759.263 292.843 759.263H291.713C271.142 759.263 254.466 742.587 254.466 722.016V699.057Z" fill="url(#paint6_linear_81_1631)" stroke="white" stroke-width="5.50658"/>
<path d="M257 724.304C257 723.254 256.69 722.213 256.087 721.243C255.484 720.272 254.6 719.39 253.485 718.647C252.371 717.904 251.048 717.315 249.592 716.913C248.136 716.511 246.576 716.304 245 716.304C243.424 716.304 241.864 716.511 240.408 716.913C238.952 717.315 237.629 717.904 236.515 718.647C235.401 719.39 234.517 720.272 233.914 721.243C233.311 722.213 233 723.254 233 724.304L236.515 732.804C236.515 732.45 241.054 723.598 241.258 723.271C241.461 722.943 241.759 722.645 242.136 722.395C242.512 722.144 242.958 721.945 243.45 721.809C243.941 721.673 244.468 721.604 245 721.604C245.532 721.604 246.059 721.673 246.55 721.809C247.042 721.945 247.488 722.144 247.865 722.395C248.241 722.645 248.539 722.943 248.743 723.271C248.946 723.598 253.485 732.45 253.485 732.804L257 724.304Z" fill="white"/>
<rect x="238" y="696.304" width="14" height="23" fill="white"/>
<path d="M301 956.304C301 983.894 276.6 1010.3 246.5 1010.3C216.401 1010.3 192 979.894 192 952.304C192 924.714 212.385 935.371 242.484 935.371C272.584 935.371 301 928.714 301 956.304Z" fill="#E4BDA7"/>
<path d="M456.489 528.395C485.379 507.349 510.092 563.628 526.283 551.832C549.312 583.444 527.211 615.915 515.67 647.178C486.78 668.224 527.442 612.709 504.413 581.097C481.384 549.485 427.599 549.441 456.489 528.395Z" fill="#E4BDA7"/>
<path d="M485.176 450.04C509.095 458.804 515.491 538.623 535.499 539.627C533.538 578.688 573.127 603.243 544.5 620.303C508.801 618.511 507.134 585.965 509.095 546.904C511.056 507.843 449.478 448.248 485.176 450.04Z" fill="#E4BDA7"/>
<path d="M552.622 428.629C561.676 451.804 542.425 519.568 556.763 527.55C541.181 555.543 554.14 585.937 526.927 588.109C501.343 573.868 511.901 549.348 527.484 521.354C543.067 493.361 527.038 414.388 552.622 428.629Z" fill="#E4BDA7"/>
<path d="M599.529 458.889C613.984 477.944 556.001 513.304 575.001 550.804C554.15 566.621 548.985 577.036 527.92 569.721C513.465 550.665 529.416 535.796 550.267 519.979C571.117 504.162 585.074 439.833 599.529 458.889Z" fill="#E4BDA7"/>
<path d="M616.879 525.174C611.879 537.014 563.879 548.174 568.379 561.674C551.25 564.325 554.469 569.856 544.498 558.961C542.075 543.307 556.051 539.665 573.18 537.014C590.309 534.363 614.456 509.52 616.879 525.174Z" fill="#E4BDA7"/>
<path d="M579.557 547.531C576.676 556.304 559.864 606.861 560.176 613.804C549.386 614.29 527.206 539.188 521.676 529.804C521.118 517.415 524.458 533.717 535.249 533.231C546.039 532.745 578.999 535.142 579.557 547.531Z" fill="#E4BDA7"/>
<path d="M112 705.304H157V716.304C139.346 710.117 129.48 710.486 112 716.304V705.304Z" fill="white"/>
<path d="M358 700.304H333V711.304C342.808 705.117 348.289 705.486 358 711.304V700.304Z" fill="white"/>
<path d="M121.851 741.304C107.323 749.92 130.944 755.355 121.851 765.304" stroke="black"/>
<path d="M364.15 734.304C378.677 742.92 355.056 748.355 364.15 758.304" stroke="black"/>
<ellipse cx="245.455" cy="758.804" rx="22.7045" ry="13.5" fill="#EEB8A7"/>
<path d="M297.176 799.305C297.176 809.799 274.999 839.305 245.176 839.305C215.353 839.305 192.676 806.298 192.676 795.804C192.676 785.311 215.353 822.407 245.176 822.407C274.999 822.407 297.176 788.812 297.176 799.305Z" fill="#D99584"/>
<path d="M297.176 799.305C297.176 809.799 274.999 839.305 245.176 839.305C215.353 839.305 192.676 806.298 192.676 795.804C192.676 785.311 215.353 822.407 245.176 822.407C274.999 822.407 297.176 788.812 297.176 799.305Z" fill="#D99584"/>
<path d="M297.176 799.305C297.176 809.799 274.999 839.305 245.176 839.305C215.353 839.305 192.676 806.298 192.676 795.804C192.676 785.311 215.353 822.407 245.176 822.407C274.999 822.407 297.176 788.812 297.176 799.305Z" fill="#D99584"/>
<path d="M347.797 772.316C344.673 804.163 321.177 897.304 269.678 892.805C310.677 789.804 328.361 803.231 331.486 771.384C334.61 739.538 348.847 711.034 356.679 711.802C346.66 774.095 350.921 740.47 347.797 772.316Z" fill="#79643D"/>
<path d="M142.058 770.545C145.182 802.391 168.678 895.533 220.177 891.033C179.178 788.033 161.494 801.459 158.369 769.613C155.245 737.766 140.509 712.536 132.676 713.304C142.695 775.597 138.934 738.698 142.058 770.545Z" fill="#79643D"/>
<path d="M229.64 678.688C230.951 685.747 213.285 677.808 194.717 681.256C176.149 684.704 170.806 689.614 162.767 696.494C161.456 689.435 175.446 680.917 194.014 677.469C212.581 674.021 228.329 671.629 229.64 678.688Z" fill="#A78E64"/>
<path d="M257.767 676.412C256.34 683.427 275.468 677.563 294.443 681.423C313.418 685.282 318.832 690.303 326.982 697.349C328.409 690.335 314.183 681.519 295.208 677.659C276.233 673.8 259.193 669.397 257.767 676.412Z" fill="#A78E64"/>
<ellipse cx="162.552" cy="1358.14" rx="108" ry="105" transform="rotate(58.865 162.552 1358.14)" fill="#BAD8BA"/>
<path d="M228.382 1550.28C182.072 1560.08 199.631 1477.54 180.824 1446.41C162.017 1415.28 138.126 1430.14 166.49 1413.01C194.853 1395.88 282.821 1352.23 301.628 1383.37C320.435 1414.5 253.687 1544.93 228.382 1550.28Z" fill="#BAD8BA"/>
<path d="M276.47 1486.77C239.721 1585.49 144.256 1634.4 75.6434 1457.96C25.9624 1361.21 73.1519 1255.6 105.209 1308.66C156.234 1309.97 242.677 1308.99 273.518 1360.04C304.359 1411.09 271.577 1456.43 276.47 1486.77Z" fill="#BAD8BA"/>
<ellipse cx="323.858" cy="1218.06" rx="22.5" ry="21.5" transform="rotate(58.865 323.858 1218.06)" fill="#BAD8BA"/>
<path d="M274.33 1305.03C243.391 1298.77 167.535 1246.48 225.497 1244.76C274.864 1236.56 286.126 1217.49 287.918 1214.65C313.044 1174.9 306.295 1287.95 342.006 1258.74C335.568 1290.56 305.269 1311.28 274.33 1305.03Z" fill="#BAD8BA"/>
<path d="M306.992 1312.95C257.356 1342.93 192.116 1325.85 161.275 1274.8C120.747 1228.01 218.783 1261.67 268.419 1231.69C336.827 1254.04 261.596 1244.57 265.527 1268.48C282.419 1325.46 356.629 1282.96 306.992 1312.95Z" fill="#BAD8BA"/>
<path d="M341.854 1415.14C326.362 1367.26 117.991 1428.46 87.1501 1377.4C56.3093 1326.35 47.2885 1237.92 239.218 1245.24C323.834 1296.35 356.519 1240.22 387.359 1291.27C425.786 1294.93 370.456 1287.46 341.854 1415.14Z" fill="#BAD8BA"/>
<path d="M331.806 1410.11C290.206 1435.24 233.2 1498.3 209.689 1378.15C176.367 1303.65 77.5906 1277.45 169.039 1290.55C279.944 1272.04 343.36 1170.08 369.203 1212.86C425.815 1390.71 352.274 1315.39 331.806 1410.11Z" fill="#BAD8BA"/>
<path d="M380.976 1421.89C305.244 1445.44 324.135 1427.39 308.714 1401.87C293.294 1376.34 300.913 1343.49 325.731 1328.5C350.549 1313.51 377.935 1321.12 393.356 1346.65C469.354 1354.48 417.859 1410.42 380.976 1421.89Z" fill="#BAD8BA"/>
<path d="M415.294 1399.4C367.789 1428.1 340.571 1360.8 325.15 1335.28C309.73 1309.75 296.193 1315.38 376.936 1303.99C402.682 1339.85 416.742 1338.95 428.634 1358.63C435.614 1370.19 430.606 1390.15 415.294 1399.4Z" fill="#BAD8BA"/>
<path d="M216.479 1555.72C192.502 1595.32 140.03 1572.28 109.189 1521.23C78.3482 1470.17 93.5852 1404.48 143.222 1374.49C192.858 1344.51 258.098 1361.59 288.939 1412.64C308.967 1486.41 251.186 1462.32 216.479 1555.72Z" fill="#BAD8BA"/>
<path d="M377.038 1251.94C371.476 1255.3 364.698 1256.14 358.196 1254.26C330.825 1282.78 382.796 1141.57 397.293 1143.32C340.884 1119.57 280.232 1225.14 285.448 1220.23C286.811 1213.6 344.072 1209.94 349.634 1206.58L363.336 1229.26L377.038 1251.94Z" fill="#BAD8BA"/>
<ellipse cx="853.023" cy="1018.74" rx="27.5" ry="28.5" transform="rotate(58.865 853.023 1018.74)" fill="#D9D0B2"/>
<path d="M769.905 1095.82C767.319 1091.54 754.215 1067.91 727.422 1083.51C731.764 1073.3 739.21 1051.27 752.683 1043.13C766.156 1035 813.376 1012.09 821.229 1025.09C826.675 1039.91 806.719 1076.5 769.905 1095.82Z" fill="#D9D0B2"/>
<path d="M402.576 1332.9C387.964 1321.28 214.357 1419.73 364.073 1390.04C314.651 1408.8 328.826 1263.54 347.026 1252.55C365.227 1241.55 441.4 1268.56 428.988 1276.06C397.746 1294.93 378.361 1313.65 402.576 1332.9Z" fill="#BAD8BA"/>
<rect x="376.516" y="1241.77" width="8.81048" height="43.9404" rx="4" transform="rotate(57.565 376.516 1241.77)" fill="#C4C4C4"/>
<path d="M398.115 1246.22C372.588 1261.64 330.57 1226.27 326.962 1195.16C309.971 1167.03 355.79 1143.28 366.248 1142.22C437.977 1127.51 379.333 1188.05 384.493 1221.74C393.924 1249.92 421.949 1216.05 398.115 1246.22Z" fill="#BAD8BA"/>
<path d="M707.017 1052.63L726.073 1084.18L373.361 1312.58L346.474 1268.07L707.017 1052.63Z" fill="url(#paint7_linear_81_1631)"/>
<rect x="859.648" y="988.973" width="34.657" height="160.023" rx="14" transform="rotate(73.5057 859.648 988.973)" fill="#D9D0B2"/>
<path d="M308.878 1439.85C282.286 1452.88 274.151 1513.87 260.171 1512.97C246.191 1512.07 275.966 1421.17 289.675 1412.89C303.384 1404.61 356.311 1412.97 361.165 1421C387.293 1428.48 323.26 1432.8 308.878 1439.85Z" fill="#BAD8BA"/>
<path d="M730.329 1080.59C725.808 1088.58 722.071 1075.62 715.36 1064.51C708.649 1053.4 707.425 1041.85 712.625 1038.71C717.825 1035.57 737.617 1048.17 744.328 1059.28C751.039 1070.39 730.32 1077.67 730.329 1080.59Z" fill="#D9D0B2"/>
<rect x="715.566" y="1047.45" width="37" height="10" transform="rotate(58.865 715.566 1047.45)" fill="#D9D0B2"/>
<path d="M809.791 1016.17C811.025 1013.06 814.915 1012.01 817.543 1014.09L844.811 1035.66C849.022 1039 845.736 1045.72 840.52 1044.44L827.614 1041.28C825.669 1040.81 823.628 1041.54 822.426 1043.14L815.224 1052.74C813.864 1054.55 811.454 1055.23 809.352 1054.38L801.295 1051.12C798.747 1050.09 797.507 1047.2 798.519 1044.65L809.791 1016.17Z" fill="#D9D0B2"/>
<path d="M729.387 1023.91C725.842 1026.05 719.947 1024.72 718.234 1021.89C716.521 1019.05 719.896 1016.21 723.441 1014.07C726.987 1011.92 732.712 1013.94 734.425 1016.78C736.139 1019.61 732.933 1021.77 729.387 1023.91Z" fill="url(#paint8_linear_81_1631)"/>
<path d="M751.918 1016.73C748.373 1018.87 742.478 1017.54 740.765 1014.7C739.051 1011.86 742.427 1009.02 745.972 1006.88C749.518 1004.74 755.243 1006.76 756.956 1009.59C758.67 1012.43 755.464 1014.58 751.918 1016.73Z" fill="url(#paint9_linear_81_1631)"/>
<path d="M772.995 1011C769.45 1013.15 763.555 1011.82 761.842 1008.98C760.129 1006.14 763.504 1003.3 767.049 1001.16C770.595 999.018 776.32 1001.03 778.033 1003.87C779.747 1006.71 776.541 1008.86 772.995 1011Z" fill="url(#paint10_linear_81_1631)"/>
<path d="M793.555 1004.42C790.01 1006.57 784.115 1005.24 782.402 1002.4C780.689 999.564 784.064 996.723 787.609 994.581C791.155 992.44 796.88 994.456 798.593 997.292C800.307 1000.13 797.101 1002.28 793.555 1004.42Z" fill="url(#paint11_linear_81_1631)"/>
<path d="M814.633 998.703C811.088 1000.84 805.193 999.514 803.48 996.678C801.766 993.842 805.141 991.001 808.687 988.859C812.232 986.717 817.958 988.734 819.671 991.57C821.384 994.407 818.179 996.561 814.633 998.703Z" fill="url(#paint12_linear_81_1631)"/>
<path d="M835.71 992.98C832.165 995.122 826.27 993.792 824.557 990.955C822.843 988.119 826.219 985.278 829.764 983.136C833.31 980.995 839.035 983.011 840.748 985.848C842.462 988.684 839.256 990.838 835.71 992.98Z" fill="url(#paint13_linear_81_1631)"/>
<path d="M354.511 1314.72C362.453 1379.17 325.022 1374.61 299.656 1427.81C137.94 1273.54 233.63 1350.83 299.883 1234.09C295.72 1239.64 356.549 1142.36 378.161 1182.02C367.204 1221.75 319.321 1250.14 354.511 1314.72Z" fill="#EDE7D9"/>
<path d="M371.001 1253.14C348.653 1266.06 305.146 1293.72 325.533 1265.6C318.966 1232.63 369.893 1173.22 374.803 1177.21C390.149 1192.93 358.327 1200.34 364.895 1233.32C369.18 1254.83 411.294 1229.85 371.001 1253.14Z" fill="#EDE7D9"/>
<path d="M354.962 1259.56L362.842 1285.22L380.131 1305.75L357.036 1318.33L331.867 1272.15L354.962 1259.56Z" fill="#EDE7D9"/>
<path d="M416.953 1370.89C408.686 1375.4 390.831 1366.1 383.152 1352.01C375.473 1337.92 319.14 1349.54 387.895 1305.79C397.175 1299.88 372.928 1312.81 380.607 1326.91C389.876 1343.92 418.286 1351.96 416.953 1370.89Z" fill="#EDE7D9"/>
<path d="M340.05 1411.35C243.324 1374.24 331.826 1404.4 321.015 1384.56C310.203 1364.71 316.566 1340.39 335.225 1330.22C353.885 1320.05 372.805 1351.34 414.159 1362.09C434.165 1391.68 356.179 1417.53 340.05 1411.35Z" fill="#EDE7D9"/>
<rect x="359.69" y="1294.7" width="44.8086" height="25.3266" transform="rotate(61.4134 359.69 1294.7)" fill="#EDE7D9"/>
<path d="M380.131 1305.75L382.938 1310.16L371.496 1320.44L367.301 1312.74L380.131 1305.75Z" fill="#EDE7D9"/>
<path d="M388.862 1302.56L389.982 1304.33L376.773 1314.71L374.971 1311.47L388.862 1302.56Z" fill="#EDE7D9"/>
<path d="M281.653 1442.61C257.324 1455.87 237.476 1458.24 233.1 1450.21C228.724 1442.18 244.899 1424.92 269.227 1411.67C293.556 1398.41 361.409 1397.61 365.785 1405.64C369.667 1416.84 313.27 1405.97 281.653 1442.61Z" fill="#EDE7D9"/>
<path d="M284.181 1440.12C263.609 1462.43 237.789 1531.08 223.245 1504.39C208.701 1477.7 228.348 1422.15 253.097 1411.58C295.395 1393.52 289.452 1344.95 303.996 1371.64C318.54 1398.34 336.839 1375.93 284.181 1440.12Z" fill="#EDE7D9"/>
<path d="M281.225 1442.84C272.486 1447.61 259.871 1441.32 253.05 1428.8C246.228 1416.28 247.331 1439.68 234.544 1435.56C203.846 1504.42 241.615 1384.4 248.437 1396.92C255.258 1409.44 289.965 1438.08 281.225 1442.84Z" fill="#EDE7D9"/>
<rect x="239.023" y="1321.63" width="105.203" height="29.223" transform="rotate(61.4134 239.023 1321.63)" fill="#EDE7D9"/>
<path d="M192.101 1444.57C169.275 1457.5 141.172 1451.03 129.332 1430.13C117.493 1409.22 126.399 1381.79 149.226 1368.87C172.053 1355.94 177.967 1374.97 189.807 1395.87C201.646 1416.78 214.928 1431.64 192.101 1444.57Z" fill="url(#paint14_linear_81_1631)"/>
<circle cx="732.764" cy="1039.31" r="3" transform="rotate(57.5046 732.764 1039.31)" fill="#9E9D9D"/>
<circle cx="755.386" cy="1032.02" r="3" transform="rotate(57.5046 755.386 1032.02)" fill="#9E9D9D"/>
<circle cx="776.322" cy="1025.8" r="3" transform="rotate(57.5046 776.322 1025.8)" fill="#9E9D9D"/>
<circle cx="796.183" cy="1017.89" r="3" transform="rotate(57.5046 796.183 1017.89)" fill="#9E9D9D"/>
<circle cx="819.343" cy="1011.43" r="3" transform="rotate(57.5046 819.343 1011.43)" fill="#9E9D9D"/>
<circle cx="840.278" cy="1005.21" r="3" transform="rotate(57.5046 840.278 1005.21)" fill="#9E9D9D"/>
<line x1="730.49" y1="1041.35" x2="161.086" y2="1381.51" stroke="#C6C6C6"/>
<line x1="752.809" y1="1035.44" x2="166.461" y2="1389.95" stroke="#C6C6C6"/>
<line x1="778.807" y1="1025.99" x2="171.835" y2="1398.38" stroke="#C6C6C6"/>
<line x1="797.216" y1="1021.38" x2="178.286" y2="1408.5" stroke="#C6C6C6"/>
<line x1="816.775" y1="1014.85" x2="184.199" y2="1417.77" stroke="#C6C6C6"/>
<line x1="838.555" y1="1008.09" x2="189.036" y2="1425.36" stroke="#C6C6C6"/>
<line x1="681.456" y1="1068.36" x2="700.721" y2="1100.08" stroke="#9E9D9D"/>
<line x1="658.699" y1="1082.75" x2="677.964" y2="1114.47" stroke="#9E9D9D"/>
<line x1="635.941" y1="1097.15" x2="655.207" y2="1128.86" stroke="#9E9D9D"/>
<line x1="610.975" y1="1111.17" x2="631.788" y2="1144.5" stroke="#9E9D9D"/>
<line x1="592.401" y1="1122.17" x2="613.214" y2="1155.5" stroke="#9E9D9D"/>
<line x1="572.507" y1="1135.67" x2="593.024" y2="1168.04" stroke="#9E9D9D"/>
<line x1="548.201" y1="1148.44" x2="570.562" y2="1183.39" stroke="#9E9D9D"/>
<line x1="525.742" y1="1163.79" x2="546.259" y2="1196.17" stroke="#9E9D9D"/>
<line x1="500.121" y1="1179.08" x2="520.934" y2="1212.41" stroke="#9E9D9D"/>
<line x1="478.023" y1="1192.22" x2="498.836" y2="1225.55" stroke="#9E9D9D"/>
<line x1="455.565" y1="1207.57" x2="474.831" y2="1239.28" stroke="#9E9D9D"/>
<line x1="432.808" y1="1221.96" x2="452.074" y2="1253.68" stroke="#9E9D9D"/>
<line x1="410.051" y1="1236.35" x2="429.317" y2="1268.07" stroke="#9E9D9D"/>
<line x1="385.085" y1="1250.38" x2="405.898" y2="1283.71" stroke="#9E9D9D"/>
<line x1="366.51" y1="1261.38" x2="387.323" y2="1294.7" stroke="#9E9D9D"/>
<rect x="306.873" y="1292.46" width="22" height="48.3092" rx="5" transform="rotate(-31.8061 306.873 1292.46)" fill="#756F62"/>
<rect x="242.8" y="1332.6" width="22" height="49.0723" rx="5" transform="rotate(-31.8061 242.8 1332.6)" fill="#756F62"/>
<circle cx="237.908" cy="1477.85" r="9.5" transform="rotate(-17.241 237.908 1477.85)" fill="#070707"/>
<circle cx="187.322" cy="1552.7" r="4" transform="rotate(-17.241 187.322 1552.7)" fill="#6C6C6C"/>
<circle cx="257.668" cy="1440.3" r="9.5" transform="rotate(-17.241 257.668 1440.3)" fill="#070707"/>
<circle cx="657" cy="1105" r="2" fill="#EDE7D9"/>
<circle cx="611" cy="1133" r="2" fill="#EDE7D9"/>
<circle cx="570" cy="1158" r="2" fill="#EDE7D9"/>
<circle cx="523" cy="1188" r="2" fill="#EDE7D9"/>
<circle cx="477" cy="1216" r="2" fill="#EDE7D9"/>
<circle cx="430" cy="1246" r="2" fill="#EDE7D9"/>
<circle cx="386" cy="1272" r="2" fill="#EDE7D9"/>
<path d="M73.9583 1293.26C46.5378 1292.44 27.6289 1265.46 36.2207 1239.41L104.594 1032.09C105.292 1029.97 106.731 1028.18 108.646 1027.03V1027.03C114.926 1023.29 122.867 1027.95 122.65 1035.26L116.175 1253.47C115.503 1276.12 96.6019 1293.93 73.9583 1293.26V1293.26Z" fill="#D37D64"/>
<path d="M59.0412 1551.21C71.2556 1549.86 80.9566 1540.32 82.5196 1528.13L115.754 1268.93C117.501 1255.31 100.599 1247.61 91.4652 1257.86V1257.86C88.1866 1261.55 83.2097 1263.23 78.3697 1262.29L41.5483 1255.14C37.986 1254.45 34.6767 1257.18 34.6767 1260.8V1260.8L29.4779 1524.22C29.1605 1540.3 43.0575 1552.98 59.0412 1551.21V1551.21Z" fill="#E4BDA7"/>
<path d="M106.298 1582.98C111.192 1598.56 102.014 1615.06 86.1952 1619.12V1619.12C75.5714 1621.84 64.327 1618.22 57.2826 1609.82L54.1638 1606.1C50.2905 1601.47 47.6333 1595.96 46.4337 1590.05L33.5873 1526.76C33.1286 1524.5 33.8062 1522.16 35.4012 1520.49V1520.49C36.5246 1519.32 38.0194 1518.57 39.6318 1518.37L51.2943 1516.95C70.4163 1514.62 88.4809 1526.26 94.2539 1544.64L106.298 1582.98Z" fill="#E4BDA7"/>
<path d="M156.719 1577.3C138.152 1604.59 99.1474 1563.35 88.7417 1578.65C58.8793 1558.33 67.9867 1523.22 68.2885 1492.45C86.855 1465.16 68.7839 1526.08 98.6463 1546.4C128.509 1566.71 175.285 1550.01 156.719 1577.3Z" fill="#E4BDA7"/>
<path d="M133.704 1693.12C106.187 1691.25 105.908 1611.53 90.4857 1610.48C92.5342 1580.37 69.2959 1559.67 91.6158 1546.9C119.132 1548.77 119.972 1573.9 117.924 1604.01C115.875 1634.12 161.22 1694.99 133.704 1693.12Z" fill="#E4BDA7"/>
<path d="M104.194 1693.96C77.5181 1689.55 84.7509 1611.72 69.8001 1609.25C74.634 1580.06 53.9058 1557.67 76.8893 1547.31C103.565 1551.73 102.019 1576.33 97.1851 1605.52C92.3511 1634.71 130.87 1698.38 104.194 1693.96Z" fill="#E4BDA7"/>
<path d="M79.3146 1696.21C57.7984 1691.22 79.6367 1630.4 44.0004 1615C49.4612 1591.46 45.4179 1582.48 64.6935 1575.24C86.2097 1580.23 83.6677 1600.2 78.2069 1623.75C72.7461 1647.29 100.831 1701.2 79.3146 1696.21Z" fill="#E4BDA7"/>
<path d="M61.1767 1669.3C48.0095 1662.93 43.0504 1607.25 39.5504 1590.75C46.5237 1576.34 43.8213 1579.85 57.3327 1577.99C70.4999 1584.36 70.5505 1597.75 58.9607 1611.3C51.9874 1625.71 74.3439 1675.68 61.1767 1669.3Z" fill="#E4BDA7"/>
<path d="M91.3765 1587.59C95.0805 1601.45 86.4004 1615.58 72.3642 1618.54V1618.54C62.9377 1620.53 53.2069 1616.93 47.3437 1609.28L44.7478 1605.9C41.5239 1601.7 39.4012 1596.75 38.5725 1591.52L29.6987 1535.5C29.3818 1533.49 30.0653 1531.47 31.5282 1530.06V1530.06C32.5586 1529.08 33.8987 1528.48 35.3213 1528.37L45.6101 1527.56C62.4797 1526.24 77.8914 1537.14 82.2607 1553.49L91.3765 1587.59Z" fill="#E4BDA7"/>
<path d="M32 1254.31C77.5002 1253.3 78.4976 1265.8 113 1254.31" stroke="#EDE7D9" stroke-width="10"/>
<path d="M300.676 949.804L351.676 968.804C391.403 1067.27 410.851 1106.85 416.176 1159.8L386.176 1159.8C371.631 1071.5 353.327 1027.71 300.676 949.804Z" fill="#A8A5A5"/>
<path d="M382.176 1138.8L414.13 1137.3L416.309 1149.3L418.176 1160.3H387.052L385.081 1151.3L382.176 1138.8Z" fill="#80693D"/>
<path d="M396.443 1150.51C395.035 1149.89 394.831 1147.97 396.075 1147.07L400.275 1144.01C401.519 1143.1 403.278 1143.88 403.441 1145.41L403.992 1150.58C404.155 1152.11 402.6 1153.24 401.193 1152.62L396.443 1150.51Z" fill="#C4C4C4"/>
<defs>
<linearGradient id="paint0_linear_81_1631" x1="180.33" y1="565.717" x2="399.555" y2="688.272" gradientUnits="userSpaceOnUse">
<stop stop-color="#64543B"/>
<stop offset="1" stop-color="#62523B"/>
</linearGradient>
<linearGradient id="paint1_linear_81_1631" x1="306.696" y1="566.964" x2="84.8947" y2="690.959" gradientUnits="userSpaceOnUse">
<stop stop-color="#66553B"/>
<stop offset="1" stop-color="#4F4638"/>
</linearGradient>
<linearGradient id="paint2_linear_81_1631" x1="244.582" y1="719.292" x2="244.582" y2="905.634" gradientUnits="userSpaceOnUse">
<stop stop-color="#63533B"/>
<stop offset="1" stop-color="#836B3D"/>
</linearGradient>
<linearGradient id="paint3_linear_81_1631" x1="245" y1="766.304" x2="245" y2="796.304" gradientUnits="userSpaceOnUse">
<stop stop-color="#806A32"/>
<stop offset="1" stop-color="#A89D7D"/>
</linearGradient>
<linearGradient id="paint4_linear_81_1631" x1="246.176" y1="847.304" x2="246.176" y2="896.304" gradientUnits="userSpaceOnUse">
<stop stop-color="#BEA669"/>
<stop offset="0.0001" stop-color="#B3A16D"/>
<stop offset="0.578125" stop-color="#80693D"/>
<stop offset="0.677083" stop-color="#80693D"/>
</linearGradient>
<linearGradient id="paint5_linear_81_1631" x1="197.565" y1="696.304" x2="197.565" y2="762.016" gradientUnits="userSpaceOnUse">
<stop/>
<stop offset="1" stop-color="#777777"/>
</linearGradient>
<linearGradient id="paint6_linear_81_1631" x1="292.278" y1="696.304" x2="292.278" y2="762.016" gradientUnits="userSpaceOnUse">
<stop/>
<stop offset="1" stop-color="#777777"/>
</linearGradient>
<linearGradient id="paint7_linear_81_1631" x1="719.417" y1="1073.16" x2="359.917" y2="1290.32" gradientUnits="userSpaceOnUse">
<stop stop-color="#8E5A3C"/>
<stop offset="1" stop-color="#6A4E36"/>
</linearGradient>
<linearGradient id="paint8_linear_81_1631" x1="733.262" y1="1014.85" x2="719.139" y2="1023.38" gradientUnits="userSpaceOnUse">
<stop stop-color="#9E9D9D"/>
<stop offset="1" stop-color="#CECECE"/>
</linearGradient>
<linearGradient id="paint9_linear_81_1631" x1="755.793" y1="1007.67" x2="741.67" y2="1016.2" gradientUnits="userSpaceOnUse">
<stop stop-color="#9E9D9D"/>
<stop offset="1" stop-color="#CECECE"/>
</linearGradient>
<linearGradient id="paint10_linear_81_1631" x1="776.87" y1="1001.95" x2="762.747" y2="1010.48" gradientUnits="userSpaceOnUse">
<stop stop-color="#9E9D9D"/>
<stop offset="1" stop-color="#CECECE"/>
</linearGradient>
<linearGradient id="paint11_linear_81_1631" x1="797.43" y1="995.367" x2="783.307" y2="1003.9" gradientUnits="userSpaceOnUse">
<stop stop-color="#9E9D9D"/>
<stop offset="1" stop-color="#CECECE"/>
</linearGradient>
<linearGradient id="paint12_linear_81_1631" x1="818.508" y1="989.644" x2="804.384" y2="998.176" gradientUnits="userSpaceOnUse">
<stop stop-color="#9E9D9D"/>
<stop offset="1" stop-color="#CECECE"/>
</linearGradient>
<linearGradient id="paint13_linear_81_1631" x1="839.585" y1="983.922" x2="825.462" y2="992.453" gradientUnits="userSpaceOnUse">
<stop stop-color="#9E9D9D"/>
<stop offset="1" stop-color="#CECECE"/>
</linearGradient>
<linearGradient id="paint14_linear_81_1631" x1="190.026" y1="1395.75" x2="129.332" y2="1430.13" gradientUnits="userSpaceOnUse">
<stop stop-color="#A29F9F"/>
<stop offset="1" stop-color="#BFBABA"/>
</linearGradient>
</defs>
</svg>
