<svg width="70" height="70" viewBox="0 0 70 70" fill="none" xmlns="http://www.w3.org/2000/svg">
<rect x="1.5" y="1.5" width="67" height="67" rx="11.5" stroke="#A0C1B9" stroke-width="3"/>
<path d="M9.98177 20.8234C10.1803 20.8234 10.3088 20.9052 10.3906 21.0921L11.9792 24.9818C12.0259 25.0869 12.1194 25.0636 12.1194 24.9467V21.1738C12.1194 20.9402 12.2479 20.8234 12.4698 20.8234H13.778C14.0117 20.8234 14.1285 20.9402 14.1285 21.1738V28.6496C14.1285 28.8715 14.0117 29 13.778 29H12.061C11.8624 29 11.7339 28.9182 11.6521 28.7313L10.0635 24.8416C10.0168 24.7365 9.92336 24.7599 9.92336 24.8767V28.6496C9.92336 28.8715 9.80655 29 9.57294 29H8.26468C8.04275 29 7.91426 28.8715 7.91426 28.6496V21.1738C7.91426 20.9402 8.04275 20.8234 8.26468 20.8234H9.98177ZM20.9599 28.6029C20.9599 28.8598 20.843 29 20.6094 29H19.3012C19.0792 29 18.9507 28.8832 18.9507 28.6496V27.6333C18.9507 27.3997 18.8339 27.2829 18.6003 27.2829H17.5958C17.3738 27.2829 17.2453 27.3997 17.2453 27.6333V28.6496C17.2453 28.8832 17.1285 29 16.8949 29H15.5867C15.3647 29 15.2362 28.8598 15.2362 28.6029V23.6502C15.2362 22.1784 15.4699 20.6131 18.098 20.6131C20.7262 20.6131 20.9599 22.1784 20.9599 23.6502V28.6029ZM18.9507 23.6502C18.9507 23.0895 18.869 22.8091 18.098 22.8091C17.3271 22.8091 17.2453 23.0895 17.2453 23.6502V24.9234C17.2453 25.1453 17.3738 25.2738 17.5958 25.2738H18.6003C18.8339 25.2621 18.9507 25.1453 18.9507 24.9117V23.6502ZM27.4787 23.4282C27.6889 23.3815 27.7941 23.253 27.7824 23.0428C27.7123 22.2017 27.1516 20.6365 24.7454 20.6365C22.1288 20.6365 21.9186 22.704 21.9303 23.0544C21.9303 25.741 25.4462 25.5191 25.6681 26.512C25.7382 26.8274 25.3177 27.1661 24.7454 27.1661C24.1964 27.1661 23.7642 26.839 23.7174 26.2784C23.6941 26.0331 23.5656 25.9279 23.332 25.9747L22.012 26.2667C21.8018 26.3134 21.6967 26.4419 21.7083 26.6521C21.7667 27.5633 22.2924 29.1752 24.7454 29.1752C27.5137 29.1752 27.9109 27.1077 27.9109 26.7573C27.9109 24.0707 24.2197 24.094 24.0562 23.1829C24.0095 22.9143 24.2898 22.6456 24.7454 22.6456C25.2944 22.6456 25.6798 22.9493 25.7616 23.4282C25.7966 23.6619 25.9134 23.767 26.1471 23.7203L27.4787 23.4282ZM30.4137 20.8234C30.6356 20.8234 30.7641 20.9519 30.7641 21.1738V24.094C30.7641 24.316 30.8926 24.4445 31.1145 24.4445H32.2359C32.4695 24.4445 32.5863 24.316 32.5863 24.094V21.1738C32.5863 20.9519 32.7148 20.8234 32.9367 20.8234H34.245C34.4786 20.8234 34.5954 20.9402 34.5954 21.1738V28.6496C34.5954 28.8715 34.4786 29 34.245 29H32.9367C32.7148 29 32.5863 28.8715 32.5863 28.6496V26.804C32.5863 26.5704 32.4695 26.4536 32.2359 26.4536H31.1145C30.8926 26.4536 30.7641 26.5704 30.7641 26.804V28.6496C30.7641 28.8715 30.6473 29 30.4137 29H29.1054C28.8835 29 28.755 28.8715 28.755 28.6496V21.1738C28.755 20.9402 28.8718 20.8234 29.1054 20.8234H30.4137ZM37.0789 20.8234C37.2891 20.8234 37.4176 20.9285 37.4643 21.1271L38.4923 25.6126C38.5156 25.7177 38.6091 25.7177 38.6324 25.6126L39.6603 21.1271C39.7071 20.9285 39.8356 20.8234 40.0458 20.8234H41.4358C41.6811 20.8234 41.7979 20.9636 41.7395 21.2089L40.0341 28.6963C39.9874 28.8949 39.8589 29 39.6487 29H37.476C37.2658 29 37.1373 28.8949 37.0906 28.6963L35.3852 21.2089C35.3267 20.9636 35.4436 20.8234 35.6889 20.8234H37.0789ZM44.1701 20.8234C44.4037 20.8234 44.5205 20.9402 44.5205 21.1738V28.6496C44.5205 28.8715 44.4037 29 44.1701 29H42.8852C42.6632 29 42.5347 28.8715 42.5347 28.6496V21.1738C42.5347 20.9402 42.6632 20.8234 42.8852 20.8234H44.1701ZM47.3418 20.8234C47.5754 20.8234 47.6922 20.9402 47.6922 21.1738V26.6405C47.6922 26.8624 47.8207 26.9909 48.0426 26.9909H50.6475C50.8811 26.9909 50.9979 27.1077 50.9979 27.3413V28.6496C50.9979 28.8832 50.8811 29 50.6475 29H46.0335C45.8116 29 45.6831 28.8715 45.6831 28.6496V21.1738C45.6831 20.9402 45.8116 20.8234 46.0335 20.8234H47.3418ZM53.3761 20.8234C53.6097 20.8234 53.7266 20.9402 53.7266 21.1738V26.6405C53.7266 26.8624 53.855 26.9909 54.077 26.9909H56.6818C56.9154 26.9909 57.0322 27.1077 57.0322 27.3413V28.6496C57.0322 28.8832 56.9154 29 56.6818 29H52.0679C51.8459 29 51.7175 28.8715 51.7175 28.6496V21.1738C51.7175 20.9402 51.8459 20.8234 52.0679 20.8234H53.3761ZM63.0082 20.8234C63.2418 20.8234 63.3586 20.9402 63.3586 21.1738V22.4821C63.3586 22.704 63.2418 22.8325 63.0082 22.8325H60.1814C59.9595 22.8325 59.831 22.9493 59.831 23.1829V23.5567C59.831 23.7787 59.9595 23.9071 60.1814 23.9071H61.9919C62.2256 23.9071 62.3424 24.024 62.3424 24.2576V25.5658C62.3424 25.7878 62.2256 25.9163 61.9919 25.9163H60.1814C59.9595 25.9163 59.831 26.0331 59.831 26.2667V26.6405C59.831 26.8624 59.9595 26.9909 60.1814 26.9909H63.0082C63.2418 26.9909 63.3586 27.1077 63.3586 27.3413V28.6496C63.3586 28.8832 63.2418 29 63.0082 29H58.1022C57.8803 29 57.7518 28.8715 57.7518 28.6496V21.1738C57.7518 20.9402 57.8803 20.8234 58.1022 20.8234H63.0082Z" fill="#A0C1B9"/>
<path d="M16.1185 34.4282C16.3287 34.3815 16.4339 34.253 16.4222 34.0428C16.3521 33.2017 15.7914 31.6365 13.3852 31.6365C10.7687 31.6365 10.5584 33.704 10.5701 34.0544C10.5701 36.741 14.086 36.5191 14.308 37.512C14.378 37.8274 13.9575 38.1661 13.3852 38.1661C12.8362 38.1661 12.404 37.839 12.3573 37.2784C12.3339 37.0331 12.2054 36.9279 11.9718 36.9747L10.6519 37.2667C10.4416 37.3134 10.3365 37.4419 10.3482 37.6521C10.4066 38.5633 10.9322 40.1752 13.3852 40.1752C16.1535 40.1752 16.5507 38.1077 16.5507 37.7573C16.5507 35.0707 12.8595 35.094 12.696 34.1829C12.6493 33.9143 12.9296 33.6456 13.3852 33.6456C13.9342 33.6456 14.3196 33.9493 14.4014 34.4282C14.4365 34.6619 14.5533 34.767 14.7869 34.7203L16.1185 34.4282ZM23.1418 34.4516C23.1418 33.6807 22.9783 31.6131 20.2099 31.6131C17.4415 31.6131 17.278 33.6807 17.278 34.4516V37.3718C17.278 38.1427 17.4415 40.2103 20.2099 40.2103C22.9783 40.2103 23.1418 38.1427 23.1418 37.3718V34.4516ZM21.1327 36.7527C21.1327 37.6521 21.0743 38.2011 20.2099 38.2011C19.3455 38.2011 19.2871 37.6521 19.2871 36.7527V35.0707C19.2871 34.1713 19.3455 33.6223 20.2099 33.6223C21.0743 33.6223 21.1327 34.1713 21.1327 35.0707V36.7527ZM29.5666 31.8234C29.8002 31.8234 29.917 31.9402 29.917 32.1738V33.4821C29.917 33.704 29.8002 33.8325 29.5666 33.8325H26.623C26.4011 33.8325 26.2726 33.9493 26.2726 34.1829V34.5567C26.2726 34.7787 26.4011 34.9071 26.623 34.9071H28.5504C28.784 34.9071 28.9008 35.024 28.9008 35.2576V36.5658C28.9008 36.7878 28.784 36.9163 28.5504 36.9163H26.623C26.4011 36.9163 26.2726 37.0331 26.2726 37.2667V39.6496C26.2726 39.8715 26.1558 40 25.9222 40H24.5439C24.3219 40 24.1934 39.8715 24.1934 39.6496V32.1738C24.1934 31.9402 24.3219 31.8234 24.5439 31.8234H29.5666ZM30.1951 32.2089C30.1484 31.9636 30.2652 31.8234 30.5105 31.8234H31.9005C32.1108 31.8234 32.2626 31.9285 32.286 32.1271L32.9518 36.998C32.9751 37.1148 33.0686 37.1148 33.092 36.998L33.8746 32.1271C33.9096 31.9285 34.0498 31.8234 34.26 31.8234H35.2646C35.4749 31.8234 35.615 31.9285 35.6501 32.1271L36.4327 36.998C36.456 37.1148 36.5495 37.1148 36.5729 36.998L37.2387 32.1271C37.262 31.9285 37.4139 31.8234 37.6241 31.8234H39.0141C39.2594 31.8234 39.3763 31.9636 39.3295 32.2089L37.8928 39.6963C37.8577 39.8949 37.7176 40 37.5073 40H35.8603C35.6501 40 35.5216 39.8949 35.4749 39.6963L34.8324 36.8228C34.809 36.706 34.7156 36.706 34.6922 36.8228L34.0498 39.6963C34.0031 39.8949 33.8746 40 33.6643 40H32.0173C31.8071 40 31.6669 39.8949 31.6319 39.6963L30.1951 32.2089ZM45.6232 39.6029C45.6232 39.8598 45.5064 40 45.2728 40H43.9645C43.7426 40 43.6141 39.8832 43.6141 39.6496V38.6333C43.6141 38.3997 43.4973 38.2829 43.2637 38.2829H42.2591C42.0372 38.2829 41.9087 38.3997 41.9087 38.6333V39.6496C41.9087 39.8832 41.7919 40 41.5583 40H40.25C40.0281 40 39.8996 39.8598 39.8996 39.6029V34.6502C39.8996 33.1784 40.1332 31.6131 42.7614 31.6131C45.3896 31.6131 45.6232 33.1784 45.6232 34.6502V39.6029ZM43.6141 34.6502C43.6141 34.0895 43.5324 33.8091 42.7614 33.8091C41.9905 33.8091 41.9087 34.0895 41.9087 34.6502V35.9234C41.9087 36.1453 42.0372 36.2738 42.2591 36.2738H43.2637C43.4973 36.2621 43.6141 36.1453 43.6141 35.9117V34.6502ZM51.6515 37.0681C51.6281 37.0097 51.6398 36.9513 51.6865 36.9163C52.3056 36.4724 52.5742 35.7131 52.5742 34.6268C52.5742 32.7111 51.7332 31.8234 49.654 31.8234H47.0959C46.8857 31.8234 46.7338 31.9753 46.7338 32.1855V39.6379C46.7338 39.8481 46.8857 40 47.0959 40H48.4042C48.6144 40 48.7663 39.8481 48.7663 39.6379V37.7923C48.7663 37.5821 48.9181 37.4302 49.1284 37.4302H49.5956C49.6307 37.4302 49.6657 37.4536 49.6891 37.4886L50.9039 39.8365C50.9506 39.9416 51.0557 40 51.1725 40H52.5042C52.8663 40 53.0532 39.6729 52.8896 39.3692L51.6515 37.0681ZM49.7241 33.8325C50.2848 33.8325 50.5651 33.9026 50.5651 34.6268C50.5651 35.351 50.2848 35.4211 49.7241 35.4211H49.1284C48.9181 35.4211 48.7663 35.2693 48.7663 35.059V34.1946C48.7663 33.9844 48.9181 33.8325 49.1284 33.8325H49.7241ZM58.9143 31.8234C59.1479 31.8234 59.2647 31.9402 59.2647 32.1738V33.4821C59.2647 33.704 59.1479 33.8325 58.9143 33.8325H56.0875C55.8656 33.8325 55.7371 33.9493 55.7371 34.1829V34.5567C55.7371 34.7787 55.8656 34.9071 56.0875 34.9071H57.8981C58.1317 34.9071 58.2485 35.024 58.2485 35.2576V36.5658C58.2485 36.7878 58.1317 36.9163 57.8981 36.9163H56.0875C55.8656 36.9163 55.7371 37.0331 55.7371 37.2667V37.6405C55.7371 37.8624 55.8656 37.9909 56.0875 37.9909H58.9143C59.1479 37.9909 59.2647 38.1077 59.2647 38.3413V39.6496C59.2647 39.8832 59.1479 40 58.9143 40H54.0083C53.7864 40 53.6579 39.8715 53.6579 39.6496V32.1738C53.6579 31.9402 53.7864 31.8234 54.0083 31.8234H58.9143Z" fill="#A0C1B9"/>
<path d="M20.9152 45.4282C21.1254 45.3815 21.2306 45.253 21.2189 45.0428C21.1488 44.2017 20.5881 42.6365 18.1819 42.6365C15.5653 42.6365 15.3551 44.704 15.3668 45.0544C15.3668 47.741 18.8827 47.5191 19.1046 48.512C19.1747 48.8274 18.7542 49.1661 18.1819 49.1661C17.6329 49.1661 17.2007 48.839 17.1539 48.2784C17.1306 48.0331 17.0021 47.9279 16.7685 47.9747L15.4485 48.2667C15.2383 48.3134 15.1331 48.4419 15.1448 48.6521C15.2032 49.5633 15.7289 51.1752 18.1819 51.1752C20.9502 51.1752 21.3474 49.1077 21.3474 48.7573C21.3474 46.0707 17.6562 46.094 17.4927 45.1829C17.446 44.9143 17.7263 44.6456 18.1819 44.6456C18.7309 44.6456 19.1163 44.9493 19.1981 45.4282C19.2331 45.6619 19.3499 45.767 19.5836 45.7203L20.9152 45.4282ZM22.0747 48.3718C22.0747 49.1427 22.2382 51.2103 25.0066 51.2103C27.4946 51.2103 27.8801 49.5399 27.9268 48.6521C27.9385 48.4769 27.8333 48.3484 27.6698 48.3134L26.3499 48.0214C26.1163 47.963 25.9294 48.1148 25.8943 48.3601C25.8242 48.8974 25.649 49.2011 25.0066 49.2011C24.1422 49.2011 24.0838 48.6521 24.0838 47.7527V46.0707C24.0838 45.1713 24.1422 44.6223 25.0066 44.6223C25.6373 44.6223 25.8476 44.926 25.906 45.4399C25.941 45.6852 26.1279 45.8487 26.3732 45.802L27.6698 45.51C27.8333 45.475 27.9385 45.3465 27.9268 45.1829C27.8801 44.2835 27.4946 42.6131 25.0066 42.6131C22.2382 42.6131 22.0747 44.6807 22.0747 45.4516V48.3718ZM30.3864 42.8234C30.6084 42.8234 30.7368 42.9519 30.7368 43.1738V46.094C30.7368 46.316 30.8653 46.4445 31.0873 46.4445H32.2086C32.4423 46.4445 32.5591 46.316 32.5591 46.094V43.1738C32.5591 42.9519 32.6876 42.8234 32.9095 42.8234H34.2177C34.4514 42.8234 34.5682 42.9402 34.5682 43.1738V50.6496C34.5682 50.8715 34.4514 51 34.2177 51H32.9095C32.6876 51 32.5591 50.8715 32.5591 50.6496V48.804C32.5591 48.5704 32.4423 48.4536 32.2086 48.4536H31.0873C30.8653 48.4536 30.7368 48.5704 30.7368 48.804V50.6496C30.7368 50.8715 30.62 51 30.3864 51H29.0782C28.8562 51 28.7277 50.8715 28.7277 50.6496V43.1738C28.7277 42.9402 28.8446 42.8234 29.0782 42.8234H30.3864ZM41.4787 45.4516C41.4787 44.6807 41.3151 42.6131 38.5468 42.6131C35.7784 42.6131 35.6149 44.6807 35.6149 45.4516V48.3718C35.6149 49.1427 35.7784 51.2103 38.5468 51.2103C41.3151 51.2103 41.4787 49.1427 41.4787 48.3718V45.4516ZM39.4696 47.7527C39.4696 48.6521 39.4112 49.2011 38.5468 49.2011C37.6824 49.2011 37.624 48.6521 37.624 47.7527V46.0707C37.624 45.1713 37.6824 44.6223 38.5468 44.6223C39.4112 44.6223 39.4696 45.1713 39.4696 46.0707V47.7527ZM48.2773 45.4516C48.2773 44.6807 48.1138 42.6131 45.3454 42.6131C42.577 42.6131 42.4135 44.6807 42.4135 45.4516V48.3718C42.4135 49.1427 42.577 51.2103 45.3454 51.2103C48.1138 51.2103 48.2773 49.1427 48.2773 48.3718V45.4516ZM46.2682 47.7527C46.2682 48.6521 46.2098 49.2011 45.3454 49.2011C44.481 49.2011 44.4226 48.6521 44.4226 47.7527V46.0707C44.4226 45.1713 44.481 44.6223 45.3454 44.6223C46.2098 44.6223 46.2682 45.1713 46.2682 46.0707V47.7527ZM50.9876 42.8234C51.2212 42.8234 51.338 42.9402 51.338 43.1738V48.6405C51.338 48.8624 51.4665 48.9909 51.6885 48.9909H54.2933C54.5269 48.9909 54.6437 49.1077 54.6437 49.3413V50.6496C54.6437 50.8832 54.5269 51 54.2933 51H49.6794C49.4574 51 49.3289 50.8715 49.3289 50.6496V43.1738C49.3289 42.9402 49.4574 42.8234 49.6794 42.8234H50.9876Z" fill="#A0C1B9"/>
</svg>
