<svg width="200" height="70" viewBox="0 0 200 70" fill="none" xmlns="http://www.w3.org/2000/svg">
<g clip-path="url(#clip0_118_2924)">
<path d="M59.664 69H63.984V59.496H65.964L71.94 69H76.98L70.68 59.208C74.28 58.308 76.296 55.428 76.296 51.648C76.296 47.04 72.948 43.8 67.944 43.8H59.664V69ZM67.404 55.392H63.984V47.904H67.404C70.176 47.904 71.904 49.164 71.904 51.648C71.904 54.132 70.176 55.392 67.404 55.392ZM84.9723 47.904H95.9163V43.8H80.6523V69H96.1323V64.896H84.9723V58.128H95.0523V54.024H84.9723V47.904ZM112.905 62.412C112.905 64.464 110.673 65.328 108.513 65.328C104.697 65.328 102.537 61.548 102.537 61.548L99.2966 64.284C99.2966 64.284 102.213 69.432 108.513 69.432C113.265 69.432 117.297 66.984 117.297 62.412C117.297 57.84 114.093 56.112 110.241 54.672C106.785 53.376 104.805 52.692 104.805 50.496C104.805 48.804 106.497 47.472 108.657 47.472C111.789 47.472 113.877 50.316 113.877 50.316L116.865 47.364C116.865 47.364 113.913 43.368 108.657 43.368C103.581 43.368 100.413 46.932 100.413 50.496C100.413 55.176 104.589 57.192 108.297 58.488C111.285 59.532 112.905 60.288 112.905 62.412ZM136.835 59.316C136.835 62.916 134.999 65.328 131.435 65.328C127.835 65.328 126.035 62.916 126.035 59.316C126.035 51 126.035 43.8 126.035 43.8H121.715V59.856C121.715 65.4 125.495 69.432 131.435 69.432C137.375 69.432 141.155 65.4 141.155 59.856V43.8H136.835C136.835 43.8 136.835 51 136.835 59.316ZM146.5 43.8V69H150.82V52.08L158.704 64.068L166.588 52.08V69H170.908V43.8H166.912L158.704 56.472L150.496 43.8H146.5ZM180.562 47.904H191.506V43.8H176.242V69H191.722V64.896H180.562V58.128H190.642V54.024H180.562V47.904Z" fill="#A0C1B9"/>
<rect x="6" y="5" width="50.7937" height="64" rx="5.07936" fill="#B1A185"/>
<rect x="11.0793" y="9.06348" width="40.6349" height="56.8889" fill="white"/>
<line x1="14.127" y1="26.8414" x2="47.6508" y2="26.8414" stroke="black" stroke-width="1.01587"/>
<line x1="14.127" y1="32.9366" x2="47.6508" y2="32.9366" stroke="black" stroke-width="1.01587"/>
<line x1="14.127" y1="39.0316" x2="47.6508" y2="39.0316" stroke="black" stroke-width="1.01587"/>
<line x1="14.127" y1="46.1427" x2="47.6508" y2="46.1427" stroke="black" stroke-width="1.01587"/>
<line x1="14.127" y1="52.2379" x2="47.6508" y2="52.2379" stroke="black" stroke-width="1.01587"/>
<line x1="14.127" y1="59.3492" x2="47.6508" y2="59.3492" stroke="black" stroke-width="1.01587"/>
<rect x="24.2857" y="5" width="14.2222" height="5.07936" fill="#CFCFCF"/>
<line x1="14.127" y1="15.6667" x2="47.6508" y2="15.6667" stroke="black" stroke-width="1.01587"/>
<line x1="14.127" y1="21.7618" x2="47.6508" y2="21.7618" stroke="black" stroke-width="1.01587"/>
</g>
<defs>
<clipPath id="clip0_118_2924">
<rect width="200" height="70" fill="white"/>
</clipPath>
</defs>
</svg>
