<svg width="70" height="70" viewBox="0 0 70 70" fill="none" xmlns="http://www.w3.org/2000/svg">
<path d="M61.25 17.5001C61.247 16.7258 60.9389 15.9838 60.3925 15.4351L48.7258 3.76843C48.456 3.49885 48.1359 3.28481 47.7837 3.13843C47.4298 2.99096 47.0501 2.9156 46.6667 2.91676H11.6667C10.8931 2.91676 10.1513 3.22405 9.60427 3.77103C9.05729 4.31801 8.75 5.05988 8.75 5.83343V64.1668C8.75 64.9403 9.05729 65.6822 9.60427 66.2292C10.1513 66.7761 10.8931 67.0834 11.6667 67.0834H58.3333C59.1069 67.0834 59.8488 66.7761 60.3957 66.2292C60.9427 65.6822 61.25 64.9403 61.25 64.1668V17.5001ZM55.4167 61.2501H14.5833V8.75009H43.75V17.5001C43.75 18.2736 44.0573 19.0155 44.6043 19.5625C45.1513 20.1095 45.8931 20.4168 46.6667 20.4168H55.4167V61.2501ZM46.6667 26.2501C47.4402 26.2501 48.1821 26.5574 48.7291 27.1044C49.276 27.6513 49.5833 28.3932 49.5833 29.1668C49.5833 29.9403 49.276 30.6822 48.7291 31.2292C48.1821 31.7761 47.4402 32.0834 46.6667 32.0834H23.3333C22.5598 32.0834 21.8179 31.7761 21.2709 31.2292C20.724 30.6822 20.4167 29.9403 20.4167 29.1668C20.4167 28.3932 20.724 27.6513 21.2709 27.1044C21.8179 26.5574 22.5598 26.2501 23.3333 26.2501H46.6667ZM20.4167 17.5001C20.4167 16.7265 20.724 15.9847 21.2709 15.4377C21.8179 14.8907 22.5598 14.5834 23.3333 14.5834H35C35.7735 14.5834 36.5154 14.8907 37.0624 15.4377C37.6094 15.9847 37.9167 16.7265 37.9167 17.5001C37.9167 18.2736 37.6094 19.0155 37.0624 19.5625C36.5154 20.1095 35.7735 20.4168 35 20.4168H23.3333C22.5598 20.4168 21.8179 20.1095 21.2709 19.5625C20.724 19.0155 20.4167 18.2736 20.4167 17.5001ZM49.5833 40.8334C49.5833 41.607 49.276 42.3488 48.7291 42.8958C48.1821 43.4428 47.4402 43.7501 46.6667 43.7501H23.3333C22.5598 43.7501 21.8179 43.4428 21.2709 42.8958C20.724 42.3488 20.4167 41.607 20.4167 40.8334C20.4167 40.0599 20.724 39.318 21.2709 38.771C21.8179 38.2241 22.5598 37.9168 23.3333 37.9168H46.6667C47.4402 37.9168 48.1821 38.2241 48.7291 38.771C49.276 39.318 49.5833 40.0599 49.5833 40.8334ZM49.5833 52.5001C49.5833 53.2736 49.276 54.0155 48.7291 54.5625C48.1821 55.1095 47.4402 55.4168 46.6667 55.4168H23.3333C22.5598 55.4168 21.8179 55.1095 21.2709 54.5625C20.724 54.0155 20.4167 53.2736 20.4167 52.5001C20.4167 51.7265 20.724 50.9847 21.2709 50.4377C21.8179 49.8907 22.5598 49.5834 23.3333 49.5834H46.6667C47.4402 49.5834 48.1821 49.8907 48.7291 50.4377C49.276 50.9847 49.5833 51.7265 49.5833 52.5001Z" fill="#A0C1B9"/>
</svg>
