<svg width="670" height="613" viewBox="0 0 670 613" fill="none" xmlns="http://www.w3.org/2000/svg">
<path d="M307.335 317.42C319.368 324.602 258.167 476.498 201.177 476.498C144.187 476.498 97.9868 445.975 97.9868 408.322C97.9868 370.669 144.187 340.146 201.177 340.146C258.167 340.146 250.394 394.725 307.335 317.42Z" fill="#706993"/>
<path d="M68.9352 326.684C87.944 352.485 117.446 363.018 103.354 373.4C89.2612 383.783 62.4272 371.284 43.4184 345.483C24.4097 319.683 20.4243 290.35 34.5168 279.967C48.6093 269.585 49.9265 300.883 68.9352 326.684Z" fill="#706993"/>
<path d="M107.881 254.316C117.548 302.492 142.547 338.103 125.385 341.547C108.223 344.99 86.4732 308.728 76.8061 260.552C67.139 212.376 73.2149 170.53 90.3771 167.086C107.539 163.643 98.2138 206.141 107.881 254.316Z" fill="#706993"/>
<path d="M159.817 229.586C164.009 278.543 184.847 316.737 167.407 318.23C149.966 319.723 132.43 281.246 128.238 232.289C124.046 183.332 134.786 142.434 152.227 140.941C169.667 139.448 155.625 180.628 159.817 229.586Z" fill="#706993"/>
<path d="M223.185 227.89C217.836 276.735 230.9 318.236 213.5 316.331C196.1 314.425 186.33 273.284 191.679 224.44C197.028 175.596 215.47 137.545 232.87 139.45C250.27 141.356 228.534 179.046 223.185 227.89Z" fill="#706993"/>
<path d="M277.464 319.373C267.837 367.557 279.024 359.232 216.625 359.232C233.79 362.662 298.918 373.766 308.544 325.582C318.171 277.398 312.06 235.557 294.895 232.128C277.729 228.699 287.091 271.189 277.464 319.373Z" fill="#706993"/>
<path d="M363.158 317.42C351.125 324.602 412.327 476.498 469.317 476.498C526.307 476.498 572.507 445.975 572.507 408.322C572.507 370.669 526.307 340.146 469.317 340.146C412.327 340.146 420.1 394.725 363.158 317.42Z" fill="#70A0AF"/>
<path d="M601.558 326.684C582.55 352.485 553.047 363.018 567.14 373.4C581.232 383.783 608.066 371.284 627.075 345.483C646.084 319.683 650.069 290.35 635.977 279.967C621.884 269.585 620.567 300.883 601.558 326.684Z" fill="#70A0AF"/>
<path d="M562.613 254.316C552.946 302.492 527.947 338.103 545.109 341.547C562.271 344.99 584.02 308.728 593.688 260.552C603.355 212.376 597.279 170.53 580.117 167.086C562.954 163.643 572.28 206.141 562.613 254.316Z" fill="#70A0AF"/>
<path d="M510.677 229.586C506.485 278.543 485.646 316.737 503.087 318.23C520.527 319.723 538.064 281.246 542.256 232.289C546.448 183.332 535.707 142.434 518.267 140.941C500.826 139.448 514.869 180.628 510.677 229.586Z" fill="#70A0AF"/>
<path d="M447.309 227.89C452.658 276.735 439.594 318.236 456.994 316.331C474.394 314.425 484.164 273.284 478.815 224.44C473.466 175.596 455.024 137.545 437.624 139.45C420.224 141.356 441.96 179.046 447.309 227.89Z" fill="#70A0AF"/>
<path d="M393.03 319.373C402.656 367.557 391.47 359.232 453.869 359.232C436.704 362.662 371.576 373.766 361.95 325.582C352.323 277.398 358.434 235.557 375.599 232.128C392.764 228.699 383.403 271.189 393.03 319.373Z" fill="#70A0AF"/>
<path d="M181.674 413.176C181.674 422.776 176.778 429.208 167.274 429.208C157.674 429.208 152.874 422.776 152.874 413.176C152.874 391 152.874 371.8 152.874 371.8H141.354V414.616C141.354 429.4 151.434 440.152 167.274 440.152C183.114 440.152 193.194 429.4 193.194 414.616V371.8H181.674C181.674 371.8 181.674 391 181.674 413.176ZM208.792 439H220.312V371.8H208.792V439Z" fill="#EEDDA0"/>
<path d="M473.487 413.176C473.487 422.776 468.591 429.208 459.087 429.208C449.487 429.208 444.687 422.776 444.687 413.176C444.687 391 444.687 371.8 444.687 371.8H433.167V414.616C433.167 429.4 443.247 440.152 459.087 440.152C474.927 440.152 485.007 429.4 485.007 414.616V371.8H473.487C473.487 371.8 473.487 391 473.487 413.176ZM536.028 439H549.756L527.868 404.248L548.22 371.8H535.548L522.012 395.032L508.284 371.8H494.652L515.004 404.248L493.308 439H506.268L520.956 413.656L536.028 439Z" fill="#EEDDA0"/>
</svg>
