<svg width="653" height="928" viewBox="0 0 653 928" fill="none" xmlns="http://www.w3.org/2000/svg">
<path d="M336.5 905L486.5 898L514.861 556H138.14L166 896L336.5 905Z" fill="#D9AD84"/>
<path d="M509 554.5C509 555.271 508.631 556.59 506.696 558.482C504.752 560.382 501.617 562.454 497.128 564.577C488.176 568.809 474.904 572.753 458.102 576.114C424.581 582.818 378.05 587 326.5 587C274.95 587 228.419 582.818 194.898 576.114C178.096 572.753 164.824 568.809 155.872 564.577C151.383 562.454 148.248 560.382 146.304 558.482C144.369 556.59 144 555.271 144 554.5C144 553.729 144.369 552.41 146.304 550.518C148.248 548.618 151.383 546.546 155.872 544.423C164.824 540.191 178.096 536.247 194.898 532.886C228.419 526.182 274.95 522 326.5 522C378.05 522 424.581 526.182 458.102 532.886C474.904 536.247 488.176 540.191 497.128 544.423C501.617 546.546 504.752 548.618 506.696 550.518C508.631 552.41 509 553.729 509 554.5Z" fill="#79643D" stroke="#D9AD84" stroke-width="10"/>
<path d="M385 553.7C417.5 526.5 361.047 543 331.5 543C301.953 543 278 547.791 278 553.7C278 559.609 328.953 570.5 358.5 570.5C388.047 570.5 385 559.609 385 553.7Z" fill="#6B5C40"/>
<ellipse rx="160.5" ry="32.1" transform="matrix(1 0 0 -1 326.5 895.1)" fill="#D9AD84"/>
<path d="M399.939 491.244C399.508 541.338 397.63 377.629 343.519 547.301C306.261 566.306 309.147 442.817 203.047 486.204C312.593 336.434 294.248 548.53 331.506 529.525C348.713 423.482 400.343 444.315 399.939 491.244Z" fill="#BAD8BA"/>
<path d="M266.142 539.907C287.895 579.764 218.547 447.8 320.174 555.42C348.115 551.251 293.521 453.945 368.477 433.484C245.98 370.617 346.853 530.781 318.912 534.95C264.213 459.05 245.762 502.568 266.142 539.907Z" fill="#BAD8BA"/>
<path d="M283.971 356.335C309.08 394.168 224.697 271.273 272.49 411.365C255.769 434.136 195.161 340.457 142.101 397.216C143.629 259.537 238.251 423.471 254.971 400.701C213.348 316.914 260.448 320.892 283.971 356.335Z" fill="#BAD8BA"/>
<path d="M374.304 356.335C349.195 394.168 433.577 271.273 385.785 411.365C402.505 434.136 463.113 340.457 516.173 397.216C514.645 259.537 420.023 423.471 403.303 400.701C444.927 316.914 397.826 320.892 374.304 356.335Z" fill="#BAD8BA"/>
<path d="M269.514 425.215C303.488 483.736 321.214 536.876 326.7 533.691C332.187 530.506 309.092 480.483 275.117 421.962C241.143 363.441 209.153 318.582 203.667 321.767C198.18 324.952 235.539 366.694 269.514 425.215Z" fill="#A5BAA5"/>
<path d="M385.12 425.215C351.145 483.736 333.42 536.876 327.934 533.691C322.447 530.506 345.542 480.483 379.516 421.962C413.491 363.441 445.481 318.582 450.967 321.767C456.453 324.952 419.095 366.694 385.12 425.215Z" fill="#A5BAA5"/>
<path d="M298.335 181.42C310.368 188.602 249.167 340.498 192.176 340.498C135.186 340.498 88.9863 309.975 88.9863 272.322C88.9863 234.669 135.186 204.146 192.176 204.146C249.167 204.146 241.393 258.725 298.335 181.42Z" fill="#706993"/>
<path d="M59.9352 190.684C78.944 216.485 108.446 227.018 94.3537 237.4C80.2612 247.783 53.4272 235.284 34.4184 209.483C15.4097 183.683 11.4243 154.35 25.5168 143.967C39.6093 133.585 40.9265 164.883 59.9352 190.684Z" fill="#706993"/>
<path d="M98.881 118.316C108.548 166.492 133.547 202.103 116.385 205.547C99.2227 208.99 77.4732 172.728 67.8061 124.552C58.139 76.3762 64.2149 34.5301 81.3771 31.0863C98.5393 27.6425 89.2138 70.1406 98.881 118.316Z" fill="#706993"/>
<path d="M150.817 93.5855C155.009 142.543 175.848 180.737 158.407 182.23C140.967 183.723 123.43 145.246 119.238 96.2894C115.047 47.3323 125.787 6.43421 143.227 4.94089C160.668 3.44758 146.625 44.6284 150.817 93.5855Z" fill="#706993"/>
<path d="M214.185 91.8904C208.836 140.735 221.9 182.236 204.5 180.331C187.1 178.425 177.33 137.284 182.679 88.4402C188.028 39.596 206.47 1.5447 223.87 3.45019C241.27 5.35568 219.534 43.0462 214.185 91.8904Z" fill="#706993"/>
<path d="M268.464 183.373C258.837 231.557 270.024 223.232 207.625 223.232C224.79 226.662 289.918 237.766 299.544 189.582C309.171 141.398 303.06 99.5573 285.895 96.128C268.729 92.6986 278.091 135.189 268.464 183.373Z" fill="#706993"/>
<path d="M354.158 181.42C342.125 188.602 403.327 340.498 460.317 340.498C517.307 340.498 563.507 309.975 563.507 272.322C563.507 234.669 517.307 204.146 460.317 204.146C403.327 204.146 411.1 258.725 354.158 181.42Z" fill="#70A0AF"/>
<path d="M592.559 190.684C573.55 216.485 544.048 227.018 558.14 237.4C572.233 247.783 599.067 235.284 618.076 209.483C637.084 183.683 641.07 154.35 626.977 143.967C612.885 133.585 611.568 164.883 592.559 190.684Z" fill="#70A0AF"/>
<path d="M553.613 118.316C543.946 166.492 518.947 202.103 536.109 205.547C553.271 208.99 575.02 172.728 584.688 124.552C594.355 76.3762 588.279 34.5301 571.117 31.0863C553.954 27.6425 563.28 70.1406 553.613 118.316Z" fill="#70A0AF"/>
<path d="M501.677 93.5855C497.485 142.543 476.646 180.737 494.087 182.23C511.527 183.723 529.064 145.246 533.256 96.2894C537.448 47.3323 526.707 6.43421 509.267 4.94089C491.826 3.44758 505.869 44.6284 501.677 93.5855Z" fill="#70A0AF"/>
<path d="M438.309 91.8904C443.658 140.735 430.594 182.236 447.994 180.331C465.394 178.425 475.164 137.284 469.815 88.4402C464.466 39.596 446.024 1.5447 428.624 3.45019C411.224 5.35568 432.96 43.0462 438.309 91.8904Z" fill="#70A0AF"/>
<path d="M384.03 183.373C393.657 231.557 382.47 223.232 444.869 223.232C427.704 226.662 362.577 237.766 352.95 189.582C343.323 141.398 349.435 99.5573 366.6 96.128C383.765 92.6986 374.404 135.189 384.03 183.373Z" fill="#70A0AF"/>
<path d="M172.674 277.176C172.674 286.776 167.778 293.208 158.274 293.208C148.674 293.208 143.874 286.776 143.874 277.176C143.874 255 143.874 235.8 143.874 235.8H132.354V278.616C132.354 293.4 142.434 304.152 158.274 304.152C174.114 304.152 184.194 293.4 184.194 278.616V235.8H172.674C172.674 235.8 172.674 255 172.674 277.176ZM199.792 303H211.312V235.8H199.792V303Z" fill="#EEDDA0"/>
<path d="M464.487 277.176C464.487 286.776 459.591 293.208 450.087 293.208C440.487 293.208 435.687 286.776 435.687 277.176C435.687 255 435.687 235.8 435.687 235.8H424.167V278.616C424.167 293.4 434.247 304.152 450.087 304.152C465.927 304.152 476.007 293.4 476.007 278.616V235.8H464.487C464.487 235.8 464.487 255 464.487 277.176ZM527.028 303H540.756L518.868 268.248L539.22 235.8H526.548L513.012 259.032L499.284 235.8H485.652L506.004 268.248L484.308 303H497.268L511.956 277.656L527.028 303Z" fill="#EEDDA0"/>
<path d="M138.5 620C155.814 669.649 461.5 691.5 514 616" stroke="black" stroke-opacity="0.2" stroke-width="10"/>
<rect x="120" y="603.486" width="22.2651" height="49" transform="rotate(-3.87241 120 603.486)" fill="#F4E8C1"/>
<rect x="511.033" y="602" width="22.2651" height="49" transform="rotate(4.7214 511.033 602)" fill="#F4E8C1"/>
</svg>
