<svg width="150" height="150" viewBox="0 0 150 150" fill="none" xmlns="http://www.w3.org/2000/svg">
<path d="M57.244 98.8H52.744L47.272 113.92L41.656 98.8H38.092L32.368 113.92L27.04 98.8H22.144L32.08 124.864L39.748 105.964L47.308 124.864L57.244 98.8ZM70.8078 98.368C63.4638 98.368 58.0638 103.948 58.0638 111.4C58.0638 118.852 63.4638 124.432 70.8078 124.432C78.1518 124.432 83.5518 118.852 83.5518 111.4C83.5518 103.948 78.1518 98.368 70.8078 98.368ZM70.8078 120.328C65.7318 120.328 62.4558 116.26 62.4558 111.4C62.4558 106.54 65.7318 102.472 70.8078 102.472C75.8838 102.472 79.1598 106.54 79.1598 111.4C79.1598 116.26 75.8838 120.328 70.8078 120.328ZM87.4531 124H91.7731V114.496H93.7531L99.7291 124H104.769L98.4691 114.208C102.069 113.308 104.085 110.428 104.085 106.648C104.085 102.04 100.737 98.8 95.7331 98.8H87.4531V124ZM95.1931 110.392H91.7731V102.904H95.1931C97.9651 102.904 99.6931 104.164 99.6931 106.648C99.6931 109.132 97.9651 110.392 95.1931 110.392ZM112.761 98.8H108.441V124H112.761V112.624L122.661 124H128.385L117.297 111.184L127.161 98.8H121.761L112.761 110.104V98.8Z" fill="#A0C1B9"/>
<path d="M41.0765 18.0712C41.0352 17.4924 41.4936 17 42.074 17H109.913C110.498 17 110.958 17.5 110.91 18.083L107.576 58.083C107.533 58.6013 107.1 59 106.58 59H44.9311C44.4065 59 43.971 58.5946 43.9337 58.0712L41.0765 18.0712Z" fill="#323232"/>
<path d="M45 19H107L103.9 56.2H47.6571L45 19Z" fill="#F4E8C1"/>
<path d="M41.1186 85.8935C41.0552 86.4845 41.5184 87 42.1129 87H109.867C110.469 87 110.934 86.4728 110.859 85.876L107.609 59.876C107.547 59.3755 107.122 59 106.617 59H44.8986C44.3875 59 43.9587 59.3853 43.9043 59.8935L41.1186 85.8935Z" fill="#999999"/>
<path d="M47.0145 63.799C47.0067 63.9076 47.0927 64 47.2015 64H51.8584C51.9682 64 52.0545 63.9061 52.0453 63.7967L51.8238 61.1718C51.8156 61.0747 51.7344 61 51.637 61H47.3914C47.2931 61 47.2115 61.076 47.2044 61.174L47.0145 63.799Z" fill="#363636"/>
<path d="M54.0808 63.754C54.041 63.8752 54.1313 64 54.259 64H76.7273C76.8588 64 76.9495 63.8682 76.9024 63.7454L75.8961 61.1204C75.8684 61.0479 75.7987 61 75.7211 61H55.1215C55.0405 61 54.9686 61.052 54.9433 61.129L54.0808 63.754Z" fill="#363636"/>
<path d="M81.0808 63.754C81.041 63.8752 81.1313 64 81.259 64H103.727C103.859 64 103.949 63.8682 103.902 63.7454L102.896 61.1204C102.868 61.0479 102.799 61 102.721 61H82.1215C82.0405 61 81.9686 61.052 81.9433 61.129L81.0808 63.754Z" fill="#363636"/>
<path d="M65.1333 78.7296C65.0719 78.8542 65.1625 79 65.3014 79H87.6759C87.8201 79 87.9103 78.844 87.8384 78.719L86.9041 77.094C86.8706 77.0359 86.8086 77 86.7415 77H66.1023C66.0309 77 65.9657 77.0406 65.9342 77.1046L65.1333 78.7296Z" fill="#363636"/>
<path d="M54.0174 67.7965C54.0081 67.906 54.0944 68 54.2043 68H59.7928C59.9037 68 59.9904 67.9042 59.9794 67.7938L59.7169 65.1688C59.7073 65.073 59.6266 65 59.5303 65H54.4293C54.3319 65 54.2508 65.0745 54.2424 65.1715L54.0174 67.7965Z" fill="#363636"/>
<path d="M47.0174 67.7965C47.0081 67.906 47.0944 68 47.2043 68H52.7928C52.9037 68 52.9904 67.9042 52.9794 67.7938L52.7169 65.1688C52.7073 65.073 52.6266 65 52.5303 65H47.4293C47.3319 65 47.2508 65.0745 47.2424 65.1715L47.0174 67.7965Z" fill="#363636"/>
<path d="M61.0174 67.7965C61.0081 67.906 61.0944 68 61.2043 68H66.7928C66.9037 68 66.9904 67.9042 66.9794 67.7938L66.7169 65.1688C66.7073 65.073 66.6266 65 66.5303 65H61.4293C61.3319 65 61.2508 65.0745 61.2424 65.1715L61.0174 67.7965Z" fill="#363636"/>
<path d="M68.0174 67.7965C68.0081 67.906 68.0944 68 68.2043 68H73.7928C73.9037 68 73.9904 67.9042 73.9794 67.7938L73.7169 65.1688C73.7073 65.073 73.6266 65 73.5303 65H68.4293C68.3319 65 68.2508 65.0745 68.2424 65.1715L68.0174 67.7965Z" fill="#363636"/>
<path d="M75.0174 67.7965C75.0081 67.906 75.0944 68 75.2043 68H80.7928C80.9037 68 80.9904 67.9042 80.9794 67.7938L80.7169 65.1688C80.7073 65.073 80.6266 65 80.5303 65H75.4293C75.3319 65 75.2508 65.0745 75.2424 65.1715L75.0174 67.7965Z" fill="#363636"/>
<path d="M82.0174 67.7965C82.0081 67.906 82.0944 68 82.2043 68H87.7928C87.9037 68 87.9904 67.9042 87.9794 67.7938L87.7169 65.1688C87.7073 65.073 87.6266 65 87.5303 65H82.4293C82.3319 65 82.2508 65.0745 82.2424 65.1715L82.0174 67.7965Z" fill="#363636"/>
<path d="M89.0174 67.7965C89.0081 67.906 89.0944 68 89.2043 68H94.7928C94.9037 68 94.9904 67.9042 94.9794 67.7938L94.7169 65.1688C94.7073 65.073 94.6266 65 94.5303 65H89.4293C89.3319 65 89.2508 65.0745 89.2424 65.1715L89.0174 67.7965Z" fill="#363636"/>
<path d="M96.0174 67.7965C96.0081 67.906 96.0944 68 96.2043 68H101.793C101.904 68 101.99 67.9042 101.979 67.7938L101.717 65.1688C101.707 65.073 101.627 65 101.53 65H96.4293C96.3319 65 96.2508 65.0745 96.2424 65.1715L96.0174 67.7965Z" fill="#363636"/>
<path d="M54.0174 71.7965C54.0081 71.906 54.0944 72 54.2043 72H59.7928C59.9037 72 59.9904 71.9042 59.9794 71.7938L59.7169 69.1688C59.7073 69.073 59.6266 69 59.5303 69H54.4293C54.3319 69 54.2508 69.0745 54.2424 69.1715L54.0174 71.7965Z" fill="#363636"/>
<path d="M47.0174 71.7965C47.0081 71.906 47.0944 72 47.2043 72H52.7928C52.9037 72 52.9904 71.9042 52.9794 71.7938L52.7169 69.1688C52.7073 69.073 52.6266 69 52.5303 69H47.4293C47.3319 69 47.2508 69.0745 47.2424 69.1715L47.0174 71.7965Z" fill="#363636"/>
<path d="M61.0174 71.7965C61.0081 71.906 61.0944 72 61.2043 72H66.7928C66.9037 72 66.9904 71.9042 66.9794 71.7938L66.7169 69.1688C66.7073 69.073 66.6266 69 66.5303 69H61.4293C61.3319 69 61.2508 69.0745 61.2424 69.1715L61.0174 71.7965Z" fill="#363636"/>
<path d="M68.0174 71.7965C68.0081 71.906 68.0944 72 68.2043 72H73.7928C73.9037 72 73.9904 71.9042 73.9794 71.7938L73.7169 69.1688C73.7073 69.073 73.6266 69 73.5303 69H68.4293C68.3319 69 68.2508 69.0745 68.2424 69.1715L68.0174 71.7965Z" fill="#363636"/>
<path d="M75.0174 71.7965C75.0081 71.906 75.0944 72 75.2043 72H80.7928C80.9037 72 80.9904 71.9042 80.9794 71.7938L80.7169 69.1688C80.7073 69.073 80.6266 69 80.5303 69H75.4293C75.3319 69 75.2508 69.0745 75.2424 69.1715L75.0174 71.7965Z" fill="#363636"/>
<path d="M82.0174 71.7965C82.0081 71.906 82.0944 72 82.2043 72H87.7928C87.9037 72 87.9904 71.9042 87.9794 71.7938L87.7169 69.1688C87.7073 69.073 87.6266 69 87.5303 69H82.4293C82.3319 69 82.2508 69.0745 82.2424 69.1715L82.0174 71.7965Z" fill="#363636"/>
<path d="M89.0174 71.7965C89.0081 71.906 89.0944 72 89.2043 72H94.7928C94.9037 72 94.9904 71.9042 94.9794 71.7938L94.7169 69.1688C94.7073 69.073 94.6266 69 94.5303 69H89.4293C89.3319 69 89.2508 69.0745 89.2424 69.1715L89.0174 71.7965Z" fill="#363636"/>
<path d="M96.0174 71.7965C96.0081 71.906 96.0944 72 96.2043 72H101.793C101.904 72 101.99 71.9042 101.979 71.7938L101.717 69.1688C101.707 69.073 101.627 69 101.53 69H96.4293C96.3319 69 96.2508 69.0745 96.2424 69.1715L96.0174 71.7965Z" fill="#363636"/>
<path d="M54.0174 75.7965C54.0081 75.906 54.0944 76 54.2043 76H59.7928C59.9037 76 59.9904 75.9042 59.9794 75.7938L59.7169 73.1688C59.7073 73.073 59.6266 73 59.5303 73H54.4293C54.3319 73 54.2508 73.0745 54.2424 73.1715L54.0174 75.7965Z" fill="#363636"/>
<path d="M47.0174 75.7965C47.0081 75.906 47.0944 76 47.2043 76H52.7928C52.9037 76 52.9904 75.9042 52.9794 75.7938L52.7169 73.1688C52.7073 73.073 52.6266 73 52.5303 73H47.4293C47.3319 73 47.2508 73.0745 47.2424 73.1715L47.0174 75.7965Z" fill="#363636"/>
<path d="M61.0174 75.7965C61.0081 75.906 61.0944 76 61.2043 76H66.7928C66.9037 76 66.9904 75.9042 66.9794 75.7938L66.7169 73.1688C66.7073 73.073 66.6266 73 66.5303 73H61.4293C61.3319 73 61.2508 73.0745 61.2424 73.1715L61.0174 75.7965Z" fill="#363636"/>
<path d="M68.0174 75.7965C68.0081 75.906 68.0944 76 68.2043 76H73.7928C73.9037 76 73.9904 75.9042 73.9794 75.7938L73.7169 73.1688C73.7073 73.073 73.6266 73 73.5303 73H68.4293C68.3319 73 68.2508 73.0745 68.2424 73.1715L68.0174 75.7965Z" fill="#363636"/>
<path d="M75.0174 75.7965C75.0081 75.906 75.0944 76 75.2043 76H80.7928C80.9037 76 80.9904 75.9042 80.9794 75.7938L80.7169 73.1688C80.7073 73.073 80.6266 73 80.5303 73H75.4293C75.3319 73 75.2508 73.0745 75.2424 73.1715L75.0174 75.7965Z" fill="#363636"/>
<path d="M82.0174 75.7965C82.0081 75.906 82.0944 76 82.2043 76H87.7928C87.9037 76 87.9904 75.9042 87.9794 75.7938L87.7169 73.1688C87.7073 73.073 87.6266 73 87.5303 73H82.4293C82.3319 73 82.2508 73.0745 82.2424 73.1715L82.0174 75.7965Z" fill="#363636"/>
<path d="M89.0174 75.7965C89.0081 75.906 89.0944 76 89.2043 76H94.7928C94.9037 76 94.9904 75.9042 94.9794 75.7938L94.7169 73.1688C94.7073 73.073 94.6266 73 94.5303 73H89.4293C89.3319 73 89.2508 73.0745 89.2424 73.1715L89.0174 75.7965Z" fill="#363636"/>
<path d="M96.0174 75.7965C96.0081 75.906 96.0944 76 96.2043 76H101.793C101.904 76 101.99 75.9042 101.979 75.7938L101.717 73.1688C101.707 73.073 101.627 73 101.53 73H96.4293C96.3319 73 96.2508 73.0745 96.2424 73.1715L96.0174 75.7965Z" fill="#363636"/>
<g clip-path="url(#clip0_141_3068)">
<path d="M50.0158 35.4761C49.9906 35.4445 49.9969 35.4193 50.0158 35.3878L51.2897 33.6346C51.378 33.5021 51.3275 33.4012 51.1699 33.4012H50.2365C50.1356 33.4012 50.0662 33.4391 50.0095 33.5211L49.0193 34.8833C48.9878 34.9337 48.9437 34.9211 48.9437 34.858V33.5904C48.9437 33.4643 48.8806 33.4012 48.7545 33.4012H48.0355C47.9157 33.4012 47.8463 33.4643 47.8463 33.5904V37.6266C47.8463 37.7464 47.9157 37.8158 48.0355 37.8158H48.7545C48.8806 37.8158 48.9437 37.7464 48.9437 37.6266V36.9266C48.9437 36.895 48.95 36.8698 48.9689 36.8446L49.2275 36.4914C49.2527 36.4536 49.2905 36.4536 49.3158 36.4914L50.0978 37.6897C50.1545 37.778 50.2239 37.8158 50.3248 37.8158H51.2708C51.4221 37.8158 51.4789 37.7149 51.3906 37.5888L50.0158 35.4761ZM53.4279 33.4012C53.5351 33.4012 53.6045 33.4454 53.6486 33.5463L54.5063 35.6464C54.5315 35.7031 54.582 35.6905 54.582 35.6274V33.5904C54.582 33.4643 54.6514 33.4012 54.7712 33.4012H55.4775C55.6037 33.4012 55.6667 33.4643 55.6667 33.5904V37.6266C55.6667 37.7464 55.6037 37.8158 55.4775 37.8158H54.5505C54.4433 37.8158 54.3739 37.7717 54.3297 37.6707L53.472 35.5707C53.4468 35.5139 53.3964 35.5265 53.3964 35.5896V37.6266C53.3964 37.7464 53.3333 37.8158 53.2072 37.8158H52.5008C52.381 37.8158 52.3116 37.7464 52.3116 37.6266V33.5904C52.3116 33.4643 52.381 33.4012 52.5008 33.4012H53.4279ZM59.9352 34.8202C59.9352 34.404 59.8469 33.2877 58.3523 33.2877C56.8576 33.2877 56.7693 34.404 56.7693 34.8202V36.3968C56.7693 36.8131 56.8576 37.9293 58.3523 37.9293C59.8469 37.9293 59.9352 36.8131 59.9352 36.3968V34.8202ZM58.8505 36.0626C58.8505 36.5482 58.8189 36.8446 58.3523 36.8446C57.8856 36.8446 57.854 36.5482 57.854 36.0626V35.1544C57.854 34.6688 57.8856 34.3724 58.3523 34.3724C58.8189 34.3724 58.8505 34.6688 58.8505 35.1544V36.0626ZM60.812 33.6093C60.7868 33.4769 60.8498 33.4012 60.9823 33.4012H61.7328C61.8463 33.4012 61.9283 33.458 61.9409 33.5652L62.3003 36.195C62.313 36.2581 62.3634 36.2581 62.376 36.195L62.7986 33.5652C62.8175 33.458 62.8932 33.4012 63.0067 33.4012H63.549C63.6626 33.4012 63.7382 33.458 63.7572 33.5652L64.1797 36.195C64.1923 36.2581 64.2428 36.2581 64.2554 36.195L64.6148 33.5652C64.6275 33.458 64.7094 33.4012 64.823 33.4012H65.5734C65.7059 33.4012 65.7689 33.4769 65.7437 33.6093L64.968 37.6518C64.9491 37.759 64.8734 37.8158 64.7599 37.8158H63.8707C63.7572 37.8158 63.6878 37.759 63.6626 37.6518L63.3157 36.1004C63.3031 36.0374 63.2526 36.0374 63.24 36.1004L62.8932 37.6518C62.8679 37.759 62.7986 37.8158 62.685 37.8158H61.7958C61.6823 37.8158 61.6066 37.759 61.5877 37.6518L60.812 33.6093Z" fill="#706993"/>
<path d="M49.341 38.4728C49.4545 38.4728 49.5176 38.5358 49.5428 38.643L49.9906 40.4782C50.0032 40.5413 50.0536 40.5413 50.0662 40.4782L50.514 38.643C50.5392 38.5358 50.6023 38.4728 50.7158 38.4728H52.0213C52.1474 38.4728 52.2104 38.5358 52.2104 38.662V42.6981C52.2104 42.818 52.1474 42.8873 52.0213 42.8873H51.3149C51.1951 42.8873 51.1257 42.818 51.1257 42.6981V40.2134C51.1257 40.1692 51.069 40.1629 51.0564 40.2071L50.4446 42.7234C50.4194 42.8306 50.35 42.8873 50.2365 42.8873H49.8203C49.7068 42.8873 49.6374 42.8306 49.6122 42.7234L49.0004 40.2071C48.9878 40.1629 48.9311 40.1692 48.9311 40.2134V42.6981C48.9311 42.818 48.868 42.8873 48.7419 42.8873H48.0355C47.9094 42.8873 47.8463 42.818 47.8463 42.6981V38.662C47.8463 38.5358 47.9094 38.4728 48.0355 38.4728H49.341ZM56.215 38.4728C56.3412 38.4728 56.4042 38.5358 56.4042 38.662V39.3683C56.4042 39.4881 56.3412 39.5575 56.215 39.5575H54.6889C54.569 39.5575 54.4997 39.6205 54.4997 39.7467V39.9485C54.4997 40.0683 54.569 40.1377 54.6889 40.1377H55.6664C55.7925 40.1377 55.8556 40.2007 55.8556 40.3269V41.0332C55.8556 41.153 55.7925 41.2224 55.6664 41.2224H54.6889C54.569 41.2224 54.4997 41.2855 54.4997 41.4116V41.6134C54.4997 41.7332 54.569 41.8026 54.6889 41.8026H56.215C56.3412 41.8026 56.4042 41.8657 56.4042 41.9918V42.6981C56.4042 42.8243 56.3412 42.8873 56.215 42.8873H53.5663C53.4465 42.8873 53.3771 42.818 53.3771 42.6981V38.662C53.3771 38.5358 53.4465 38.4728 53.5663 38.4728H56.215Z" fill="#706993"/>
<path d="M48.8554 29.6037C48.8554 29.4776 48.7923 29.4145 48.6662 29.4145H47.7833C47.6634 29.4145 47.5941 29.3452 47.5941 29.2253V28.519C47.5941 28.3929 47.6634 28.3298 47.7833 28.3298H51.0122C51.1383 28.3298 51.2014 28.3929 51.2014 28.519V29.2253C51.2014 29.3452 51.1383 29.4145 51.0122 29.4145H50.1293C50.0095 29.4145 49.9401 29.4776 49.9401 29.6037V32.5552C49.9401 32.675 49.877 32.7444 49.7509 32.7444H49.0446C48.9247 32.7444 48.8554 32.675 48.8554 32.5552V29.6037ZM55.1558 29.7488C55.1558 29.3326 55.0675 28.2163 53.5729 28.2163C52.0782 28.2163 51.9899 29.3326 51.9899 29.7488V31.3254C51.9899 31.7416 52.0782 32.8579 53.5729 32.8579C55.0675 32.8579 55.1558 31.7416 55.1558 31.3254V29.7488ZM54.0711 30.9912C54.0711 31.4768 54.0395 31.7732 53.5729 31.7732C53.1062 31.7732 53.0746 31.4768 53.0746 30.9912V30.083C53.0746 29.5974 53.1062 29.301 53.5729 29.301C54.0395 29.301 54.0711 29.5974 54.0711 30.083V30.9912Z" fill="#706993"/>
<path d="M47.7689 26.3114C47.7689 26.7276 47.8572 27.8439 49.3519 27.8439C50.8465 27.8439 50.9348 26.7276 50.9348 26.3114V25.46C50.9348 25.3339 50.8717 25.2708 50.7456 25.2708H49.4843C49.3645 25.2708 49.2951 25.3339 49.2951 25.46V25.9645C49.2951 26.0843 49.3645 26.1537 49.4843 26.1537H49.8501C49.8501 26.4627 49.8185 26.7591 49.3519 26.7591C48.8852 26.7591 48.8536 26.4627 48.8536 25.9771V25.069C48.8536 24.5834 48.8852 24.287 49.3519 24.287C49.7113 24.287 49.8185 24.4636 49.8438 24.7663C49.8564 24.8987 49.9258 24.9555 50.0519 24.9302L50.7645 24.7726C50.878 24.7474 50.9348 24.678 50.9285 24.5645C50.897 24.0726 50.6762 23.2023 49.3519 23.2023C47.8572 23.2023 47.7689 24.3185 47.7689 24.7347V26.3114ZM54.8643 23.3158C54.9904 23.3158 55.0535 23.3788 55.0535 23.505V24.2113C55.0535 24.3311 54.9904 24.4005 54.8643 24.4005H53.3381C53.2183 24.4005 53.1489 24.4636 53.1489 24.5897V24.7915C53.1489 24.9113 53.2183 24.9807 53.3381 24.9807H54.3156C54.4417 24.9807 54.5048 25.0438 54.5048 25.1699V25.8762C54.5048 25.9961 54.4417 26.0654 54.3156 26.0654H53.3381C53.2183 26.0654 53.1489 26.1285 53.1489 26.2546V26.4564C53.1489 26.5763 53.2183 26.6456 53.3381 26.6456H54.8643C54.9904 26.6456 55.0535 26.7087 55.0535 26.8348V27.5412C55.0535 27.6673 54.9904 27.7303 54.8643 27.7303H52.2155C52.0957 27.7303 52.0263 27.661 52.0263 27.5412V23.505C52.0263 23.3788 52.0957 23.3158 52.2155 23.3158H54.8643ZM57.1435 24.5897C57.1435 24.4636 57.0804 24.4005 56.9543 24.4005H56.0714C55.9515 24.4005 55.8822 24.3311 55.8822 24.2113V23.505C55.8822 23.3788 55.9515 23.3158 56.0714 23.3158H59.3003C59.4264 23.3158 59.4895 23.3788 59.4895 23.505V24.2113C59.4895 24.3311 59.4264 24.4005 59.3003 24.4005H58.4174C58.2976 24.4005 58.2282 24.4636 58.2282 24.5897V27.5412C58.2282 27.661 58.1651 27.7303 58.039 27.7303H57.3327C57.2128 27.7303 57.1435 27.661 57.1435 27.5412V24.5897Z" fill="#706993"/>
<path d="M47.4289 47.1691H47.6812L47.9398 45.6975H47.6875L47.4289 47.1691ZM48.7153 46.1474C48.5219 46.1474 48.3978 46.3177 48.3978 46.3177L48.4231 46.1726H48.1876L48.0131 47.1691H48.2654L48.3831 46.5006C48.3831 46.5006 48.4798 46.3829 48.6102 46.3829C48.7195 46.3829 48.7867 46.4438 48.7615 46.5868L48.6606 47.1691H48.9129L49.0222 46.5447C49.0642 46.3051 48.915 46.1474 48.7153 46.1474ZM49.8542 47.1691H50.1065L50.3861 45.5798H50.1338L49.8542 47.1691ZM50.9801 46.1474C50.6963 46.1474 50.4188 46.3934 50.4188 46.7213C50.4188 46.9694 50.5786 47.1943 50.9128 47.1943C51.1546 47.1943 51.3164 47.0555 51.3164 47.0555L51.1987 46.8621C51.1987 46.8621 51.0873 46.9631 50.9128 46.9631C50.7552 46.9631 50.6669 46.8495 50.6648 46.7612H51.4131C51.4384 46.633 51.4405 46.5994 51.4405 46.5678C51.4405 46.3156 51.2597 46.1474 50.9801 46.1474ZM50.6921 46.5784C50.7194 46.4901 50.8203 46.3765 50.9801 46.3765C51.1336 46.3765 51.1966 46.4753 51.1966 46.5594C51.1966 46.5657 51.1945 46.572 51.1945 46.5784H50.6921ZM51.5145 47.0135C51.5145 47.0135 51.6869 47.1943 51.9622 47.1943C52.1935 47.1943 52.4247 47.0808 52.4247 46.8643C52.4247 46.6772 52.2692 46.6099 52.1178 46.5763C51.9685 46.5426 51.9097 46.5216 51.9097 46.4711C51.9097 46.3934 52.0106 46.3681 52.0884 46.3681C52.2229 46.3681 52.3553 46.4627 52.3553 46.4627L52.4857 46.2714C52.4857 46.2714 52.3385 46.1474 52.0884 46.1474C51.8319 46.1474 51.6616 46.2967 51.6616 46.4753C51.6616 46.6456 51.8046 46.7318 51.9791 46.7697C52.1115 46.7991 52.1683 46.8117 52.1683 46.8706C52.1683 46.9462 52.0737 46.9736 51.9622 46.9736C51.7836 46.9736 51.6616 46.8327 51.6616 46.8327L51.5145 47.0135ZM52.5517 47.0135C52.5517 47.0135 52.7241 47.1943 52.9995 47.1943C53.2307 47.1943 53.4619 47.0808 53.4619 46.8643C53.4619 46.6772 53.3064 46.6099 53.155 46.5763C53.0058 46.5426 52.9469 46.5216 52.9469 46.4711C52.9469 46.3934 53.0478 46.3681 53.1256 46.3681C53.2601 46.3681 53.3926 46.4627 53.3926 46.4627L53.5229 46.2714C53.5229 46.2714 53.3757 46.1474 53.1256 46.1474C52.8691 46.1474 52.6988 46.2967 52.6988 46.4753C52.6988 46.6456 52.8418 46.7318 53.0163 46.7697C53.1487 46.7991 53.2055 46.8117 53.2055 46.8706C53.2055 46.9462 53.1109 46.9736 52.9995 46.9736C52.8208 46.9736 52.6988 46.8327 52.6988 46.8327L52.5517 47.0135ZM54.2972 46.3997H54.5137L54.4381 46.8306C54.4002 47.0429 54.5432 47.1943 54.7345 47.1943C54.8795 47.1943 54.9804 47.1333 54.9804 47.1333L54.9089 46.9231C54.9089 46.9231 54.8543 46.9588 54.7996 46.9588C54.7324 46.9588 54.6714 46.9336 54.6924 46.8117L54.766 46.3997H55.0666L55.1066 46.1726H54.8059L54.8585 45.8762H54.6062L54.5537 46.1726H54.3372L54.2972 46.3997ZM55.8907 46.1474C55.7414 46.1474 55.6363 46.2462 55.5943 46.2925L55.7204 45.5798H55.4682L55.1886 47.1691H55.4408L55.5586 46.5006C55.5586 46.5006 55.6553 46.3829 55.7856 46.3829C55.8949 46.3829 55.9622 46.4438 55.9369 46.5868L55.836 47.1691H56.0883L56.1976 46.5447C56.2397 46.3051 56.0904 46.1474 55.8907 46.1474ZM56.7831 46.9841C56.7116 46.9841 56.6234 46.961 56.6234 46.8727C56.6234 46.7591 56.7495 46.715 56.8357 46.715C56.9723 46.715 57.0543 46.7654 57.0543 46.7654L57.0354 46.8685C57.0354 46.8685 56.9345 46.9841 56.7831 46.9841ZM56.9303 46.1474C56.7222 46.1474 56.5246 46.2231 56.5246 46.2231L56.5897 46.4375C56.5897 46.4375 56.7495 46.3723 56.8945 46.3723C57.0038 46.3723 57.1153 46.4144 57.0921 46.5447L57.0795 46.612C57.0795 46.612 56.9702 46.53 56.7957 46.53C56.5792 46.53 56.3627 46.6561 56.3627 46.8811C56.3627 47.0534 56.4846 47.1943 56.6906 47.1943C56.8903 47.1943 57.0228 47.0429 57.0228 47.0429L57.0017 47.1691H57.2351L57.3465 46.53C57.3864 46.303 57.2162 46.1474 56.9303 46.1474ZM58.2108 46.1474C58.0174 46.1474 57.8933 46.3177 57.8933 46.3177L57.9186 46.1726H57.6831L57.5086 47.1691H57.7609L57.8786 46.5006C57.8786 46.5006 57.9753 46.3829 58.1057 46.3829C58.215 46.3829 58.2822 46.4438 58.257 46.5868L58.1561 47.1691H58.4084L58.5177 46.5447C58.5597 46.3051 58.4105 46.1474 58.2108 46.1474ZM60.2663 45.7753L60.0729 45.6282C60.0729 45.6282 59.5347 46.3198 59.5053 46.3618C59.4212 46.4817 59.3497 46.6162 59.3497 46.7486C59.3497 46.9652 59.4864 47.1943 59.8269 47.1943C60.1212 47.1943 60.3966 46.9483 60.3966 46.6414C60.3966 46.4123 60.2368 46.1979 59.9804 46.1979C59.9573 46.1979 59.9257 46.2042 59.9257 46.2042L60.2663 45.7753ZM59.9131 46.4333C60.0413 46.4333 60.138 46.5132 60.138 46.6414C60.138 46.8201 59.9951 46.9588 59.8332 46.9588C59.705 46.9588 59.6083 46.879 59.6083 46.7486C59.6083 46.5763 59.747 46.4333 59.9131 46.4333ZM61.2616 45.6723C60.839 45.6723 60.5952 46.1916 60.5952 46.6183C60.5952 46.9462 60.7276 47.1943 61.0766 47.1943C61.5012 47.1943 61.7409 46.6709 61.7409 46.2441C61.7409 45.9183 61.6084 45.6723 61.2616 45.6723ZM61.0766 46.9588C60.9189 46.9588 60.8495 46.8159 60.8495 46.6183C60.8495 46.3156 61.0009 45.9078 61.2616 45.9078C61.4171 45.9078 61.4865 46.0486 61.4865 46.2441C61.4865 46.5468 61.3351 46.9588 61.0766 46.9588ZM62.427 47.0135C62.427 47.0135 62.5994 47.1943 62.8747 47.1943C63.106 47.1943 63.3372 47.0808 63.3372 46.8643C63.3372 46.6772 63.1817 46.6099 63.0303 46.5763C62.8811 46.5426 62.8222 46.5216 62.8222 46.4711C62.8222 46.3934 62.9231 46.3681 63.0009 46.3681C63.1354 46.3681 63.2679 46.4627 63.2679 46.4627L63.3982 46.2714C63.3982 46.2714 63.251 46.1474 63.0009 46.1474C62.7444 46.1474 62.5741 46.2967 62.5741 46.4753C62.5741 46.6456 62.7171 46.7318 62.8916 46.7697C63.024 46.7991 63.0808 46.8117 63.0808 46.8706C63.0808 46.9462 62.9862 46.9736 62.8747 46.9736C62.6961 46.9736 62.5741 46.8327 62.5741 46.8327L62.427 47.0135ZM64.0717 46.1474C63.7879 46.1474 63.5104 46.3934 63.5104 46.7213C63.5104 46.9694 63.6702 47.1943 64.0045 47.1943C64.2462 47.1943 64.4081 47.0555 64.4081 47.0555L64.2903 46.8621C64.2903 46.8621 64.1789 46.9631 64.0045 46.9631C63.8468 46.9631 63.7585 46.8495 63.7564 46.7612H64.5048C64.53 46.633 64.5321 46.5994 64.5321 46.5678C64.5321 46.3156 64.3513 46.1474 64.0717 46.1474ZM63.7837 46.5784C63.8111 46.4901 63.912 46.3765 64.0717 46.3765C64.2252 46.3765 64.2882 46.4753 64.2882 46.5594C64.2882 46.5657 64.2861 46.572 64.2861 46.5784H63.7837ZM65.1464 46.9588C65.0076 46.9588 64.913 46.8579 64.913 46.7276C64.913 46.5489 65.0623 46.3829 65.2473 46.3829C65.4049 46.3829 65.4827 46.4859 65.4827 46.4859L65.6635 46.3324C65.6635 46.3324 65.5521 46.1474 65.2473 46.1474C64.9446 46.1474 64.6523 46.3955 64.6523 46.7276C64.6523 46.9757 64.8247 47.1943 65.1464 47.1943C65.3902 47.1943 65.5521 47.0387 65.5521 47.0387L65.4154 46.8474C65.4154 46.8474 65.3166 46.9588 65.1464 46.9588ZM66.3027 46.1474C66.0168 46.1474 65.7183 46.3955 65.7183 46.7276C65.7183 46.9757 65.8865 47.1943 66.2144 47.1943C66.5003 47.1943 66.7988 46.9441 66.7988 46.6141C66.7988 46.366 66.6306 46.1474 66.3027 46.1474ZM66.2144 46.9588C66.061 46.9588 65.979 46.8558 65.979 46.7276C65.979 46.5489 66.1114 46.3829 66.3027 46.3829C66.4562 46.3829 66.5381 46.4859 66.5381 46.6141C66.5381 46.7928 66.4057 46.9588 66.2144 46.9588ZM67.6114 46.1474C67.418 46.1474 67.2939 46.3177 67.2939 46.3177L67.3192 46.1726H67.0837L66.9092 47.1691H67.1615L67.2792 46.5006C67.2792 46.5006 67.3759 46.3829 67.5062 46.3829C67.6156 46.3829 67.6828 46.4438 67.6576 46.5868L67.5567 47.1691H67.809L67.9183 46.5447C67.9603 46.3051 67.8111 46.1474 67.6114 46.1474ZM69.3138 45.5798H69.0615L68.9396 46.2714C68.9396 46.2714 68.8471 46.1474 68.6579 46.1474C68.3825 46.1474 68.0924 46.3829 68.0924 46.7318C68.0924 47.0156 68.2732 47.1943 68.494 47.1943C68.7 47.1943 68.8219 47.0387 68.8219 47.0387L68.8009 47.1691H69.0342L69.3138 45.5798ZM68.845 46.8096C68.845 46.8096 68.7504 46.9588 68.5801 46.9588C68.4309 46.9588 68.3531 46.8643 68.3531 46.7318C68.3531 46.5447 68.4919 46.3829 68.6811 46.3829C68.8471 46.3829 68.8976 46.5111 68.8976 46.5111L68.845 46.8096ZM69.301 47.0135C69.301 47.0135 69.4734 47.1943 69.7488 47.1943C69.98 47.1943 70.2113 47.0808 70.2113 46.8643C70.2113 46.6772 70.0557 46.6099 69.9043 46.5763C69.7551 46.5426 69.6962 46.5216 69.6962 46.4711C69.6962 46.3934 69.7971 46.3681 69.8749 46.3681C70.0094 46.3681 70.1419 46.4627 70.1419 46.4627L70.2722 46.2714C70.2722 46.2714 70.1251 46.1474 69.8749 46.1474C69.6184 46.1474 69.4482 46.2967 69.4482 46.4753C69.4482 46.6456 69.5911 46.7318 69.7656 46.7697C69.898 46.7991 69.9548 46.8117 69.9548 46.8706C69.9548 46.9462 69.8602 46.9736 69.7488 46.9736C69.5701 46.9736 69.4482 46.8327 69.4482 46.8327L69.301 47.0135ZM70.9584 45.6975H70.6977L70.5232 46.7486H70.7629L70.9584 45.6975ZM70.437 47.0282C70.437 47.1207 70.5106 47.1943 70.6031 47.1943C70.6956 47.1943 70.7692 47.1207 70.7692 47.0282C70.7692 46.9357 70.6956 46.8621 70.6031 46.8621C70.5106 46.8621 70.437 46.9357 70.437 47.0282Z" fill="#331E38"/>
<path d="M88.068 48.5122C88.068 52.6794 89.5372 51.073 85.6383 51.073C81.7393 51.073 82.7961 52.6794 82.7961 48.5122C82.7961 44.345 81.7393 40.9668 85.6383 40.9668C89.5372 40.9668 88.068 44.345 88.068 48.5122Z" fill="#E4BDA7"/>
<path d="M100.364 47.1185C99.4036 46.0364 97.748 45.9376 96.6659 46.8978L88.9202 53.7709C88.2528 54.3631 87.8708 55.2127 87.8708 56.105V56.105C87.8708 58.9413 91.3484 60.3067 93.2782 58.2282L100.324 50.6394C101.242 49.651 101.259 48.1273 100.364 47.1185V47.1185Z" fill="#706993"/>
<path d="M97.1888 46.5883C95.2884 49.946 99.4527 51.8199 100.832 48.7748" stroke="#EDE7D9" stroke-width="0.520532"/>
<path d="M96.7399 48.5644C97.4327 51.0789 101.119 50.6583 101.228 48.0524L101.84 33.3776C101.897 32.0104 100.027 31.5662 99.4628 32.8131V32.8131C99.4215 32.9044 99.3914 33.0004 99.3731 33.099L96.6961 47.5405C96.633 47.8807 96.648 48.2308 96.7399 48.5644V48.5644Z" fill="#E4BDA7"/>
<path d="M77.816 57.7484C77.5947 53.9525 80.6133 50.7528 84.4156 50.7528H86.3613C90.0123 50.7528 92.9721 53.7125 92.9721 57.3636V77.5602H77.4081L78.3826 69.1798C78.4269 68.7987 78.438 68.4145 78.4156 68.0314L77.816 57.7484Z" fill="#706993"/>
<path d="M91.3063 40.7253C89.8488 45.9119 88.7474 48.7228 85.3983 48.7228C82.0491 48.7228 81.3381 46.068 79.1779 40.7253C79.1779 36.4602 81.893 33.0027 85.2421 33.0027C88.5913 33.0027 91.3063 36.4602 91.3063 40.7253Z" fill="#E4BDA7"/>
<path d="M88.0156 33.9537C91.5662 35.9387 90.106 43.4419 91.9858 40.0794C90.031 39.5354 93.1022 31.263 89.4845 31.263C85.9338 29.278 88.4432 29.0651 83.8888 27.7713C87.1448 37.2547 84.4649 31.9688 88.0156 33.9537Z" fill="url(#paint0_linear_141_3068)"/>
<path d="M82.6066 33.978C79.0559 35.963 80.0368 44.1421 78.6364 40.1036C78.6364 34.7986 77.9547 31.2872 81.1377 31.2872C84.6884 29.3022 82.179 29.0894 86.7334 27.7956C92.0091 36.3342 86.1573 31.993 82.6066 33.978Z" fill="url(#paint1_linear_141_3068)"/>
<path d="M80.0836 40.1252C80.0836 40.8678 80.2885 42.5283 79.6503 42.5283C79.0121 42.5283 77.7725 40.8678 77.7725 40.1252C77.7725 39.3825 78.2899 38.7805 78.9281 38.7805C79.5662 38.7805 80.0836 39.3825 80.0836 40.1252Z" fill="#E4BDA7"/>
<path d="M90.713 39.7609C90.713 40.5035 90.5082 42.1641 91.1464 42.1641C91.7845 42.1641 93.0241 40.5035 93.0241 39.7609C93.0241 39.0183 92.5068 38.4163 91.8686 38.4163C91.2304 38.4163 90.713 39.0183 90.713 39.7609Z" fill="#E4BDA7"/>
<path d="M83.042 47.0419C82.6321 46.5833 82.2894 46.0079 81.9375 45.3373C82.2437 45.6963 82.5713 46.0576 82.9077 46.3833C83.2708 46.735 83.6624 47.0633 84.0673 47.3068C84.4674 47.5475 84.9271 47.7337 85.4142 47.7337C85.8937 47.7337 86.3513 47.5582 86.7542 47.3283C87.1617 47.0957 87.5584 46.7816 87.9281 46.4438C88.247 46.1524 88.5589 45.8312 88.853 45.5092C88.4853 46.1898 88.1488 46.7315 87.7596 47.1489C87.204 47.7448 86.5345 48.0892 85.4142 48.0892C84.3237 48.0892 83.6212 47.6899 83.042 47.0419Z" stroke="url(#paint2_linear_141_3068)" stroke-width="1.30133"/>
<path d="M88.053 42.9438C88.053 43.3807 87.7806 43.7936 87.3042 44.1035C86.829 44.4126 86.1647 44.608 85.4243 44.608C84.684 44.608 84.0197 44.4126 83.5445 44.1035C83.0681 43.7936 82.7957 43.3807 82.7957 42.9438C82.7957 42.831 82.8137 42.7652 82.8348 42.7277C82.8529 42.6958 82.8768 42.6778 82.9155 42.6676C82.96 42.6558 83.0246 42.6548 83.1163 42.6693C83.2067 42.6836 83.313 42.7112 83.4362 42.7481C83.5195 42.7731 83.6097 42.8021 83.7058 42.833C84.1695 42.9823 84.7728 43.1765 85.4243 43.1765C86.0759 43.1765 86.6792 42.9823 87.1429 42.833C87.239 42.8021 87.3292 42.7731 87.4125 42.7481C87.5357 42.7112 87.642 42.6836 87.7323 42.6693C87.824 42.6548 87.8887 42.6558 87.9332 42.6676C87.9719 42.6778 87.9958 42.6958 88.0139 42.7277C88.035 42.7652 88.053 42.831 88.053 42.9438Z" fill="white" stroke="#D99584" stroke-width="0.260266"/>
<path d="M88.3393 42.8667C88.3393 42.9817 87.7087 43.0489 85.5037 43.0489C83.2987 43.0489 82.5093 43.0338 82.5093 42.9188C82.5093 42.8038 83.2987 41.4873 85.5037 41.4873C87.7087 41.4873 88.3393 42.7517 88.3393 42.8667Z" fill="url(#paint3_linear_141_3068)"/>
<path d="M86.6307 47.9566C86.6307 48.1445 85.98 47.5628 85.5167 48.4364C85.017 47.5107 84.3403 48.2295 84.3403 48.0417C84.3403 47.8538 84.6504 45.7036 85.5167 45.7036C86.3829 45.7036 86.6307 47.7688 86.6307 47.9566Z" fill="url(#paint4_linear_141_3068)"/>
<path d="M85.0008 41.033C85.2401 40.9932 84.7753 41.4163 84.4578 41.4163C84.0426 41.4163 83.787 41.2886 83.8828 41.065C83.8828 40.8709 84.1403 40.7136 84.4578 40.7136C84.7753 40.7136 85.1925 41.0011 85.0008 41.033Z" fill="#F8D1BC"/>
<path d="M85.8014 41.033C85.5622 40.9932 86.0269 41.4163 86.3445 41.4163C86.7597 41.4163 87.0152 41.2886 86.9194 41.065C86.9194 40.8709 86.662 40.7136 86.3445 40.7136C86.0269 40.7136 85.6098 41.0011 85.8014 41.033Z" fill="#F8D1BC"/>
<path d="M80.9869 37.9869H84.9234V39.182C84.9234 40.2528 84.0554 41.1208 82.9846 41.1208H82.9258C81.855 41.1208 80.9869 40.2528 80.9869 39.182V37.9869Z" fill="url(#paint5_linear_141_3068)" stroke="white" stroke-width="0.286635"/>
<path d="M85.9171 37.9869H89.8535V39.182C89.8535 40.2528 88.9855 41.1208 87.9147 41.1208H87.8559C86.7851 41.1208 85.9171 40.2528 85.9171 39.182V37.9869Z" fill="url(#paint6_linear_141_3068)" stroke="white" stroke-width="0.286635"/>
<path d="M86.049 39.3011C86.049 39.2464 86.0328 39.1922 86.0014 39.1417C85.97 39.0912 85.924 39.0453 85.866 39.0066C85.808 38.9679 85.7391 38.9373 85.6634 38.9163C85.5876 38.8954 85.5063 38.8846 85.4243 38.8846C85.3423 38.8846 85.2611 38.8954 85.1853 38.9163C85.1095 38.9373 85.0406 38.9679 84.9826 39.0066C84.9246 39.0453 84.8786 39.0912 84.8472 39.1417C84.8158 39.1922 84.7997 39.2464 84.7997 39.3011L84.9826 39.7435C84.9826 39.7251 85.2189 39.2643 85.2295 39.2473C85.2401 39.2302 85.2556 39.2147 85.2752 39.2017C85.2948 39.1886 85.318 39.1783 85.3436 39.1712C85.3692 39.1641 85.3966 39.1605 85.4243 39.1605C85.452 39.1605 85.4794 39.1641 85.505 39.1712C85.5306 39.1783 85.5538 39.1886 85.5734 39.2017C85.593 39.2147 85.6085 39.2302 85.6191 39.2473C85.6297 39.2643 85.866 39.7251 85.866 39.7435L86.049 39.3011Z" fill="white"/>
<rect x="85.0599" y="37.8436" width="0.728745" height="1.19722" fill="white"/>
<path d="M88.3393 51.3774C88.3393 52.8135 87.0692 54.1883 85.5024 54.1883C83.9357 54.1883 82.6655 52.6053 82.6655 51.1692C82.6655 49.733 83.7266 50.2877 85.2934 50.2877C86.8602 50.2877 88.3393 49.9413 88.3393 51.3774Z" fill="#E4BDA7"/>
<path d="M96.433 29.1033C97.9368 28.0078 99.2232 30.9373 100.066 30.3233C101.265 31.9688 100.114 33.659 99.5136 35.2864C98.0098 36.3819 100.126 33.4922 98.9276 31.8467C97.7289 30.2012 94.9292 30.1989 96.433 29.1033Z" fill="#E4BDA7"/>
<path d="M97.9262 25.0248C99.1713 25.481 99.5043 29.6358 100.546 29.6881C100.444 31.7214 102.504 32.9995 101.014 33.8876C99.156 33.7943 99.0692 32.1002 99.1713 30.0669C99.2734 28.0336 96.068 24.9315 97.9262 25.0248Z" fill="#E4BDA7"/>
<path d="M101.437 23.9102C101.908 25.1166 100.906 28.6439 101.653 29.0594C100.841 30.5166 101.516 32.0986 100.1 32.2117C98.7678 31.4704 99.3174 30.1941 100.129 28.7369C100.94 27.2798 100.105 23.1689 101.437 23.9102Z" fill="#E4BDA7"/>
<path d="M103.879 25.4854C104.631 26.4773 101.613 28.3179 102.602 30.2699C101.517 31.0932 101.248 31.6353 100.151 31.2545C99.3988 30.2626 100.229 29.4886 101.314 28.6653C102.4 27.842 103.126 24.4935 103.879 25.4854Z" fill="#E4BDA7"/>
<path d="M104.782 28.9357C104.522 29.552 102.023 30.1329 102.257 30.8357C101.366 30.9737 101.533 31.2616 101.014 30.6945C100.888 29.8796 101.616 29.69 102.507 29.552C103.399 29.414 104.656 28.1209 104.782 28.9357Z" fill="#E4BDA7"/>
<path d="M102.839 30.0994C102.689 30.5561 101.814 33.1877 101.83 33.5492C101.269 33.5745 100.114 29.6652 99.8262 29.1767C99.7972 28.5318 99.971 29.3804 100.533 29.3551C101.094 29.3298 102.81 29.4545 102.839 30.0994Z" fill="#E4BDA7"/>
<path d="M78.5012 38.3121H80.8436V38.8847C79.9247 38.5626 79.4111 38.5819 78.5012 38.8847V38.3121Z" fill="white"/>
<path d="M91.3063 38.0519H90.005V38.6245C90.5155 38.3024 90.8009 38.3216 91.3063 38.6245V38.0519Z" fill="white"/>
<path d="M79.014 40.186C78.2578 40.6345 79.4873 40.9174 79.014 41.4353" stroke="black" stroke-width="0.0520532"/>
<path d="M91.6264 39.8217C92.3826 40.2701 91.1531 40.5531 91.6264 41.0709" stroke="black" stroke-width="0.0520532"/>
<ellipse cx="85.448" cy="41.097" rx="1.18184" ry="0.702718" fill="#EEB8A7"/>
<path d="M88.1402 43.2051C88.1402 43.7513 86.9859 45.2872 85.4335 45.2872C83.8811 45.2872 82.7007 43.5691 82.7007 43.0229C82.7007 42.4766 83.8811 44.4076 85.4335 44.4076C86.9859 44.4076 88.1402 42.6589 88.1402 43.2051Z" fill="#D99584"/>
<path d="M88.1402 43.2051C88.1402 43.7513 86.9859 45.2872 85.4335 45.2872C83.8811 45.2872 82.7007 43.5691 82.7007 43.0229C82.7007 42.4766 83.8811 44.4076 85.4335 44.4076C86.9859 44.4076 88.1402 42.6589 88.1402 43.2051Z" fill="#D99584"/>
<path d="M88.1402 43.2051C88.1402 43.7513 86.9859 45.2872 85.4335 45.2872C83.8811 45.2872 82.7007 43.5691 82.7007 43.0229C82.7007 42.4766 83.8811 44.4076 85.4335 44.4076C86.9859 44.4076 88.1402 42.6589 88.1402 43.2051Z" fill="#D99584"/>
<path d="M90.7752 41.8003C90.6126 43.458 89.3896 48.3064 86.7089 48.0721C88.843 42.7106 89.7635 43.4095 89.9262 41.7518C90.0888 40.0941 90.8299 38.6104 91.2376 38.6504C90.716 41.8929 90.9378 40.1426 90.7752 41.8003Z" fill="#79643D"/>
<path d="M80.0658 41.7081C80.2285 43.3658 81.4515 48.2141 84.1322 47.9799C81.9981 42.6184 81.0775 43.3173 80.9149 41.6596C80.7523 40.0019 79.9852 38.6885 79.5775 38.7285C80.099 41.9711 79.9032 40.0504 80.0658 41.7081Z" fill="#79643D"/>
<path d="M84.6248 36.9267C84.693 37.2942 83.7734 36.8809 82.8069 37.0604C81.8404 37.2399 81.5622 37.4954 81.1438 37.8535C81.0756 37.4861 81.8038 37.0427 82.7703 36.8632C83.7368 36.6838 84.5565 36.5593 84.6248 36.9267Z" fill="#A78E64"/>
<path d="M86.0889 36.8081C86.0146 37.1733 87.0103 36.868 87.998 37.0689C88.9857 37.2698 89.2675 37.5312 89.6918 37.898C89.7661 37.5328 89.0256 37.0739 88.0379 36.873C87.0501 36.6721 86.1632 36.443 86.0889 36.8081Z" fill="#A78E64"/>
<path d="M109.474 56.3916L110.466 58.0337L92.106 69.9226L90.7064 67.6057L109.474 56.3916Z" fill="url(#paint7_linear_141_3068)"/>
<line x1="110.696" y1="55.8044" x2="81.0563" y2="73.5109" stroke="#C6C6C6" stroke-width="0.0520532"/>
<line x1="111.857" y1="55.4965" x2="81.3362" y2="73.9499" stroke="#C6C6C6" stroke-width="0.0520532"/>
<line x1="113.211" y1="55.0047" x2="81.6159" y2="74.3887" stroke="#C6C6C6" stroke-width="0.0520532"/>
<line x1="114.169" y1="54.7646" x2="81.9516" y2="74.9154" stroke="#C6C6C6" stroke-width="0.0520532"/>
<line x1="115.187" y1="54.4248" x2="82.2595" y2="75.3983" stroke="#C6C6C6" stroke-width="0.0520532"/>
<line x1="116.321" y1="54.0729" x2="82.5113" y2="75.7934" stroke="#C6C6C6" stroke-width="0.0520532"/>
<path d="M82.4312 51.0492C83.6024 54.3806 86.9599 55.4477 88.5735 51.1273" stroke="#EDE7D9" stroke-width="0.520532"/>
<path d="M76.5211 68.9169C75.0938 68.8746 74.1095 67.4701 74.5567 66.114L78.1158 55.3222C78.1521 55.212 78.227 55.1186 78.3267 55.0591V55.0591C78.6536 54.8641 79.0669 55.1071 79.0557 55.4875L78.7186 66.8461C78.6836 68.0248 77.6997 68.9519 76.5211 68.9169V68.9169Z" fill="#706993"/>
<g opacity="0.7" clip-path="url(#clip1_141_3068)">
<path d="M77.5733 31.8539C76.2729 31.8539 75.0017 32.2395 73.9205 32.9619C72.8393 33.6844 71.9965 34.7113 71.4989 35.9127C71.0013 37.1141 70.8711 38.4361 71.1248 39.7115C71.3784 40.9869 72.0046 42.1584 72.9242 43.0779C73.8437 43.9974 75.0152 44.6236 76.2906 44.8773C77.566 45.131 78.888 45.0008 80.0894 44.5032C81.2908 44.0055 82.3176 43.1628 83.0401 42.0816C83.7626 41.0003 84.1482 39.7291 84.1482 38.4288C84.1461 36.6856 83.4527 35.0145 82.2202 33.7819C80.9876 32.5493 79.3164 31.8559 77.5733 31.8539V31.8539ZM77.5733 43.8082C76.5093 43.8082 75.4693 43.4927 74.5846 42.9016C73.7 42.3105 73.0105 41.4703 72.6033 40.4874C72.1962 39.5044 72.0896 38.4228 72.2972 37.3793C72.5048 36.3358 73.0171 35.3772 73.7695 34.6249C74.5218 33.8726 75.4803 33.3602 76.5238 33.1527C77.5673 32.9451 78.649 33.0516 79.6319 33.4588C80.6149 33.866 81.455 34.5555 82.0461 35.4401C82.6372 36.3247 82.9527 37.3648 82.9527 38.4288C82.951 39.8549 82.3837 41.2222 81.3752 42.2307C80.3668 43.2391 78.9995 43.8065 77.5733 43.8082V43.8082ZM76.3779 36.0379L79.9642 38.4288L76.3779 40.8196V36.0379Z" fill="white"/>
</g>
</g>
<defs>
<linearGradient id="paint0_linear_141_3068" x1="82.058" y1="31.0461" x2="93.4694" y2="37.4255" gradientUnits="userSpaceOnUse">
<stop stop-color="#64543B"/>
<stop offset="1" stop-color="#62523B"/>
</linearGradient>
<linearGradient id="paint1_linear_141_3068" x1="88.6358" y1="31.1111" x2="77.0903" y2="37.5654" gradientUnits="userSpaceOnUse">
<stop stop-color="#66553B"/>
<stop offset="1" stop-color="#4F4638"/>
</linearGradient>
<linearGradient id="paint2_linear_141_3068" x1="85.4026" y1="39.0402" x2="85.4026" y2="48.7399" gradientUnits="userSpaceOnUse">
<stop stop-color="#63533B"/>
<stop offset="1" stop-color="#836B3D"/>
</linearGradient>
<linearGradient id="paint3_linear_141_3068" x1="85.4243" y1="41.4873" x2="85.4243" y2="43.0489" gradientUnits="userSpaceOnUse">
<stop stop-color="#806A32"/>
<stop offset="1" stop-color="#A89D7D"/>
</linearGradient>
<linearGradient id="paint4_linear_141_3068" x1="85.4855" y1="45.7036" x2="85.4855" y2="48.2542" gradientUnits="userSpaceOnUse">
<stop stop-color="#BEA669"/>
<stop offset="0.0001" stop-color="#B3A16D"/>
<stop offset="0.578125" stop-color="#80693D"/>
<stop offset="0.677083" stop-color="#80693D"/>
</linearGradient>
<linearGradient id="paint5_linear_141_3068" x1="82.9552" y1="37.8436" x2="82.9552" y2="41.2641" gradientUnits="userSpaceOnUse">
<stop/>
<stop offset="1" stop-color="#777777"/>
</linearGradient>
<linearGradient id="paint6_linear_141_3068" x1="87.8853" y1="37.8436" x2="87.8853" y2="41.2641" gradientUnits="userSpaceOnUse">
<stop/>
<stop offset="1" stop-color="#777777"/>
</linearGradient>
<linearGradient id="paint7_linear_141_3068" x1="110.119" y1="57.4601" x2="91.4062" y2="68.7641" gradientUnits="userSpaceOnUse">
<stop stop-color="#8E5A3C"/>
<stop offset="1" stop-color="#6A4E36"/>
</linearGradient>
<clipPath id="clip0_141_3068">
<rect width="63.0652" height="35.518" fill="white" transform="translate(46 21)"/>
</clipPath>
<clipPath id="clip1_141_3068">
<rect width="14.3452" height="14.3452" fill="white" transform="translate(70.4007 31.2562)"/>
</clipPath>
</defs>
</svg>
