<svg width="200" height="70" viewBox="0 0 200 70" fill="none" xmlns="http://www.w3.org/2000/svg">
<g clip-path="url(#clip0_118_3013)">
<path d="M116.244 44.8H111.744L106.272 59.92L100.656 44.8H97.092L91.368 59.92L86.04 44.8H81.144L91.08 70.864L98.748 51.964L106.308 70.864L116.244 44.8ZM129.808 44.368C122.464 44.368 117.064 49.948 117.064 57.4C117.064 64.852 122.464 70.432 129.808 70.432C137.152 70.432 142.552 64.852 142.552 57.4C142.552 49.948 137.152 44.368 129.808 44.368ZM129.808 66.328C124.732 66.328 121.456 62.26 121.456 57.4C121.456 52.54 124.732 48.472 129.808 48.472C134.884 48.472 138.16 52.54 138.16 57.4C138.16 62.26 134.884 66.328 129.808 66.328ZM146.453 70H150.773V60.496H152.753L158.729 70H163.769L157.469 60.208C161.069 59.308 163.085 56.428 163.085 52.648C163.085 48.04 159.737 44.8 154.733 44.8H146.453V70ZM154.193 56.392H150.773V48.904H154.193C156.965 48.904 158.693 50.164 158.693 52.648C158.693 55.132 156.965 56.392 154.193 56.392ZM171.761 44.8H167.441V70H171.761V58.624L181.661 70H187.385L176.297 57.184L186.161 44.8H180.761L171.761 56.104V44.8Z" fill="#A0C1B9"/>
<path d="M11.0765 1.07124C11.0352 0.492375 11.4936 0 12.074 0H79.9132C80.4982 0 80.9583 0.500026 80.9097 1.08305L77.5764 41.083C77.5332 41.6013 77.1 42 76.5799 42H14.9311C14.4065 42 13.971 41.5946 13.9337 41.0712L11.0765 1.07124Z" fill="#323232"/>
<path d="M15 2H77L73.9 39.2H17.6571L15 2Z" fill="#F4E8C1"/>
<path d="M11.1186 68.8935C11.0552 69.4845 11.5184 70 12.1129 70H79.8672C80.4687 70 80.9341 69.4728 80.8595 68.876L77.6095 42.876C77.5469 42.3755 77.1215 42 76.6172 42H14.8986C14.3875 42 13.9587 42.3853 13.9043 42.8935L11.1186 68.8935Z" fill="#999999"/>
<path d="M17.0145 46.799C17.0067 46.9076 17.0927 47 17.2015 47H21.8584C21.9682 47 22.0545 46.9061 22.0453 46.7967L21.8238 44.1718C21.8156 44.0747 21.7344 44 21.637 44H17.3914C17.2931 44 17.2115 44.076 17.2044 44.174L17.0145 46.799Z" fill="#363636"/>
<path d="M24.0808 46.754C24.041 46.8752 24.1313 47 24.259 47H46.7273C46.8588 47 46.9495 46.8682 46.9024 46.7454L45.8961 44.1204C45.8684 44.0479 45.7987 44 45.7211 44H25.1215C25.0405 44 24.9686 44.052 24.9433 44.129L24.0808 46.754Z" fill="#363636"/>
<path d="M51.0808 46.754C51.041 46.8752 51.1313 47 51.259 47H73.7273C73.8588 47 73.9495 46.8682 73.9024 46.7454L72.8961 44.1204C72.8684 44.0479 72.7987 44 72.7211 44H52.1215C52.0405 44 51.9686 44.052 51.9433 44.129L51.0808 46.754Z" fill="#363636"/>
<path d="M35.1333 61.7296C35.0719 61.8542 35.1625 62 35.3014 62H57.6759C57.8201 62 57.9103 61.844 57.8384 61.719L56.9041 60.094C56.8706 60.0359 56.8086 60 56.7415 60H36.1023C36.0309 60 35.9657 60.0406 35.9342 60.1046L35.1333 61.7296Z" fill="#363636"/>
<path d="M24.0174 50.7965C24.0081 50.906 24.0944 51 24.2043 51H29.7928C29.9037 51 29.9904 50.9042 29.9794 50.7938L29.7169 48.1688C29.7073 48.073 29.6266 48 29.5303 48H24.4293C24.3319 48 24.2508 48.0745 24.2424 48.1715L24.0174 50.7965Z" fill="#363636"/>
<path d="M17.0174 50.7965C17.0081 50.906 17.0944 51 17.2043 51H22.7928C22.9037 51 22.9904 50.9042 22.9794 50.7938L22.7169 48.1688C22.7073 48.073 22.6266 48 22.5303 48H17.4293C17.3319 48 17.2508 48.0745 17.2424 48.1715L17.0174 50.7965Z" fill="#363636"/>
<path d="M31.0174 50.7965C31.0081 50.906 31.0944 51 31.2043 51H36.7928C36.9037 51 36.9904 50.9042 36.9794 50.7938L36.7169 48.1688C36.7073 48.073 36.6266 48 36.5303 48H31.4293C31.3319 48 31.2508 48.0745 31.2424 48.1715L31.0174 50.7965Z" fill="#363636"/>
<path d="M38.0174 50.7965C38.0081 50.906 38.0944 51 38.2043 51H43.7928C43.9037 51 43.9904 50.9042 43.9794 50.7938L43.7169 48.1688C43.7073 48.073 43.6266 48 43.5303 48H38.4293C38.3319 48 38.2508 48.0745 38.2424 48.1715L38.0174 50.7965Z" fill="#363636"/>
<path d="M45.0174 50.7965C45.0081 50.906 45.0944 51 45.2043 51H50.7928C50.9037 51 50.9904 50.9042 50.9794 50.7938L50.7169 48.1688C50.7073 48.073 50.6266 48 50.5303 48H45.4293C45.3319 48 45.2508 48.0745 45.2424 48.1715L45.0174 50.7965Z" fill="#363636"/>
<path d="M52.0174 50.7965C52.0081 50.906 52.0944 51 52.2043 51H57.7928C57.9037 51 57.9904 50.9042 57.9794 50.7938L57.7169 48.1688C57.7073 48.073 57.6266 48 57.5303 48H52.4293C52.3319 48 52.2508 48.0745 52.2424 48.1715L52.0174 50.7965Z" fill="#363636"/>
<path d="M59.0174 50.7965C59.0081 50.906 59.0944 51 59.2043 51H64.7928C64.9037 51 64.9904 50.9042 64.9794 50.7938L64.7169 48.1688C64.7073 48.073 64.6266 48 64.5303 48H59.4293C59.3319 48 59.2508 48.0745 59.2424 48.1715L59.0174 50.7965Z" fill="#363636"/>
<path d="M66.0174 50.7965C66.0081 50.906 66.0944 51 66.2043 51H71.7928C71.9037 51 71.9904 50.9042 71.9794 50.7938L71.7169 48.1688C71.7073 48.073 71.6266 48 71.5303 48H66.4293C66.3319 48 66.2508 48.0745 66.2424 48.1715L66.0174 50.7965Z" fill="#363636"/>
<path d="M24.0174 54.7965C24.0081 54.906 24.0944 55 24.2043 55H29.7928C29.9037 55 29.9904 54.9042 29.9794 54.7938L29.7169 52.1688C29.7073 52.073 29.6266 52 29.5303 52H24.4293C24.3319 52 24.2508 52.0745 24.2424 52.1715L24.0174 54.7965Z" fill="#363636"/>
<path d="M17.0174 54.7965C17.0081 54.906 17.0944 55 17.2043 55H22.7928C22.9037 55 22.9904 54.9042 22.9794 54.7938L22.7169 52.1688C22.7073 52.073 22.6266 52 22.5303 52H17.4293C17.3319 52 17.2508 52.0745 17.2424 52.1715L17.0174 54.7965Z" fill="#363636"/>
<path d="M31.0174 54.7965C31.0081 54.906 31.0944 55 31.2043 55H36.7928C36.9037 55 36.9904 54.9042 36.9794 54.7938L36.7169 52.1688C36.7073 52.073 36.6266 52 36.5303 52H31.4293C31.3319 52 31.2508 52.0745 31.2424 52.1715L31.0174 54.7965Z" fill="#363636"/>
<path d="M38.0174 54.7965C38.0081 54.906 38.0944 55 38.2043 55H43.7928C43.9037 55 43.9904 54.9042 43.9794 54.7938L43.7169 52.1688C43.7073 52.073 43.6266 52 43.5303 52H38.4293C38.3319 52 38.2508 52.0745 38.2424 52.1715L38.0174 54.7965Z" fill="#363636"/>
<path d="M45.0174 54.7965C45.0081 54.906 45.0944 55 45.2043 55H50.7928C50.9037 55 50.9904 54.9042 50.9794 54.7938L50.7169 52.1688C50.7073 52.073 50.6266 52 50.5303 52H45.4293C45.3319 52 45.2508 52.0745 45.2424 52.1715L45.0174 54.7965Z" fill="#363636"/>
<path d="M52.0174 54.7965C52.0081 54.906 52.0944 55 52.2043 55H57.7928C57.9037 55 57.9904 54.9042 57.9794 54.7938L57.7169 52.1688C57.7073 52.073 57.6266 52 57.5303 52H52.4293C52.3319 52 52.2508 52.0745 52.2424 52.1715L52.0174 54.7965Z" fill="#363636"/>
<path d="M59.0174 54.7965C59.0081 54.906 59.0944 55 59.2043 55H64.7928C64.9037 55 64.9904 54.9042 64.9794 54.7938L64.7169 52.1688C64.7073 52.073 64.6266 52 64.5303 52H59.4293C59.3319 52 59.2508 52.0745 59.2424 52.1715L59.0174 54.7965Z" fill="#363636"/>
<path d="M66.0174 54.7965C66.0081 54.906 66.0944 55 66.2043 55H71.7928C71.9037 55 71.9904 54.9042 71.9794 54.7938L71.7169 52.1688C71.7073 52.073 71.6266 52 71.5303 52H66.4293C66.3319 52 66.2508 52.0745 66.2424 52.1715L66.0174 54.7965Z" fill="#363636"/>
<path d="M24.0174 58.7965C24.0081 58.906 24.0944 59 24.2043 59H29.7928C29.9037 59 29.9904 58.9042 29.9794 58.7938L29.7169 56.1688C29.7073 56.073 29.6266 56 29.5303 56H24.4293C24.3319 56 24.2508 56.0745 24.2424 56.1715L24.0174 58.7965Z" fill="#363636"/>
<path d="M17.0174 58.7965C17.0081 58.906 17.0944 59 17.2043 59H22.7928C22.9037 59 22.9904 58.9042 22.9794 58.7938L22.7169 56.1688C22.7073 56.073 22.6266 56 22.5303 56H17.4293C17.3319 56 17.2508 56.0745 17.2424 56.1715L17.0174 58.7965Z" fill="#363636"/>
<path d="M31.0174 58.7965C31.0081 58.906 31.0944 59 31.2043 59H36.7928C36.9037 59 36.9904 58.9042 36.9794 58.7938L36.7169 56.1688C36.7073 56.073 36.6266 56 36.5303 56H31.4293C31.3319 56 31.2508 56.0745 31.2424 56.1715L31.0174 58.7965Z" fill="#363636"/>
<path d="M38.0174 58.7965C38.0081 58.906 38.0944 59 38.2043 59H43.7928C43.9037 59 43.9904 58.9042 43.9794 58.7938L43.7169 56.1688C43.7073 56.073 43.6266 56 43.5303 56H38.4293C38.3319 56 38.2508 56.0745 38.2424 56.1715L38.0174 58.7965Z" fill="#363636"/>
<path d="M45.0174 58.7965C45.0081 58.906 45.0944 59 45.2043 59H50.7928C50.9037 59 50.9904 58.9042 50.9794 58.7938L50.7169 56.1688C50.7073 56.073 50.6266 56 50.5303 56H45.4293C45.3319 56 45.2508 56.0745 45.2424 56.1715L45.0174 58.7965Z" fill="#363636"/>
<path d="M52.0174 58.7965C52.0081 58.906 52.0944 59 52.2043 59H57.7928C57.9037 59 57.9904 58.9042 57.9794 58.7938L57.7169 56.1688C57.7073 56.073 57.6266 56 57.5303 56H52.4293C52.3319 56 52.2508 56.0745 52.2424 56.1715L52.0174 58.7965Z" fill="#363636"/>
<path d="M59.0174 58.7965C59.0081 58.906 59.0944 59 59.2043 59H64.7928C64.9037 59 64.9904 58.9042 64.9794 58.7938L64.7169 56.1688C64.7073 56.073 64.6266 56 64.5303 56H59.4293C59.3319 56 59.2508 56.0745 59.2424 56.1715L59.0174 58.7965Z" fill="#363636"/>
<path d="M66.0174 58.7965C66.0081 58.906 66.0944 59 66.2043 59H71.7928C71.9037 59 71.9904 58.9042 71.9794 58.7938L71.7169 56.1688C71.7073 56.073 71.6266 56 71.5303 56H66.4293C66.3319 56 66.2508 56.0745 66.2424 56.1715L66.0174 58.7965Z" fill="#363636"/>
<g clip-path="url(#clip1_118_3013)">
<path d="M20.0158 18.4761C19.9906 18.4445 19.9969 18.4193 20.0158 18.3878L21.2897 16.6346C21.378 16.5021 21.3275 16.4012 21.1699 16.4012H20.2365C20.1356 16.4012 20.0662 16.4391 20.0095 16.5211L19.0193 17.8833C18.9878 17.9337 18.9437 17.9211 18.9437 17.858V16.5904C18.9437 16.4643 18.8806 16.4012 18.7545 16.4012H18.0355C17.9157 16.4012 17.8463 16.4643 17.8463 16.5904V20.6266C17.8463 20.7464 17.9157 20.8158 18.0355 20.8158H18.7545C18.8806 20.8158 18.9437 20.7464 18.9437 20.6266V19.9266C18.9437 19.895 18.95 19.8698 18.9689 19.8446L19.2275 19.4914C19.2527 19.4536 19.2905 19.4536 19.3158 19.4914L20.0978 20.6897C20.1545 20.778 20.2239 20.8158 20.3248 20.8158H21.2708C21.4221 20.8158 21.4789 20.7149 21.3906 20.5888L20.0158 18.4761ZM23.4279 16.4012C23.5351 16.4012 23.6045 16.4454 23.6486 16.5463L24.5063 18.6464C24.5315 18.7031 24.582 18.6905 24.582 18.6274V16.5904C24.582 16.4643 24.6514 16.4012 24.7712 16.4012H25.4775C25.6037 16.4012 25.6667 16.4643 25.6667 16.5904V20.6266C25.6667 20.7464 25.6037 20.8158 25.4775 20.8158H24.5505C24.4433 20.8158 24.3739 20.7717 24.3297 20.6707L23.472 18.5707C23.4468 18.5139 23.3964 18.5265 23.3964 18.5896V20.6266C23.3964 20.7464 23.3333 20.8158 23.2072 20.8158H22.5008C22.381 20.8158 22.3116 20.7464 22.3116 20.6266V16.5904C22.3116 16.4643 22.381 16.4012 22.5008 16.4012H23.4279ZM29.9352 17.8202C29.9352 17.404 29.8469 16.2877 28.3523 16.2877C26.8576 16.2877 26.7693 17.404 26.7693 17.8202V19.3968C26.7693 19.8131 26.8576 20.9293 28.3523 20.9293C29.8469 20.9293 29.9352 19.8131 29.9352 19.3968V17.8202ZM28.8505 19.0626C28.8505 19.5482 28.8189 19.8446 28.3523 19.8446C27.8856 19.8446 27.854 19.5482 27.854 19.0626V18.1544C27.854 17.6688 27.8856 17.3724 28.3523 17.3724C28.8189 17.3724 28.8505 17.6688 28.8505 18.1544V19.0626ZM30.812 16.6093C30.7868 16.4769 30.8498 16.4012 30.9823 16.4012H31.7328C31.8463 16.4012 31.9283 16.458 31.9409 16.5652L32.3003 19.195C32.313 19.2581 32.3634 19.2581 32.376 19.195L32.7986 16.5652C32.8175 16.458 32.8932 16.4012 33.0067 16.4012H33.549C33.6626 16.4012 33.7382 16.458 33.7572 16.5652L34.1797 19.195C34.1923 19.2581 34.2428 19.2581 34.2554 19.195L34.6148 16.5652C34.6275 16.458 34.7094 16.4012 34.823 16.4012H35.5734C35.7059 16.4012 35.7689 16.4769 35.7437 16.6093L34.968 20.6518C34.9491 20.759 34.8734 20.8158 34.7599 20.8158H33.8707C33.7572 20.8158 33.6878 20.759 33.6626 20.6518L33.3157 19.1004C33.3031 19.0374 33.2526 19.0374 33.24 19.1004L32.8932 20.6518C32.8679 20.759 32.7986 20.8158 32.685 20.8158H31.7958C31.6823 20.8158 31.6066 20.759 31.5877 20.6518L30.812 16.6093Z" fill="#706993"/>
<path d="M19.341 21.4728C19.4545 21.4728 19.5176 21.5358 19.5428 21.643L19.9906 23.4782C20.0032 23.5413 20.0536 23.5413 20.0662 23.4782L20.514 21.643C20.5392 21.5358 20.6023 21.4728 20.7158 21.4728H22.0213C22.1474 21.4728 22.2104 21.5358 22.2104 21.662V25.6981C22.2104 25.818 22.1474 25.8873 22.0213 25.8873H21.3149C21.1951 25.8873 21.1257 25.818 21.1257 25.6981V23.2134C21.1257 23.1692 21.069 23.1629 21.0564 23.2071L20.4446 25.7234C20.4194 25.8306 20.35 25.8873 20.2365 25.8873H19.8203C19.7068 25.8873 19.6374 25.8306 19.6122 25.7234L19.0004 23.2071C18.9878 23.1629 18.9311 23.1692 18.9311 23.2134V25.6981C18.9311 25.818 18.868 25.8873 18.7419 25.8873H18.0355C17.9094 25.8873 17.8463 25.818 17.8463 25.6981V21.662C17.8463 21.5358 17.9094 21.4728 18.0355 21.4728H19.341ZM26.215 21.4728C26.3412 21.4728 26.4042 21.5358 26.4042 21.662V22.3683C26.4042 22.4881 26.3412 22.5575 26.215 22.5575H24.6889C24.569 22.5575 24.4997 22.6205 24.4997 22.7467V22.9485C24.4997 23.0683 24.569 23.1377 24.6889 23.1377H25.6664C25.7925 23.1377 25.8556 23.2007 25.8556 23.3269V24.0332C25.8556 24.153 25.7925 24.2224 25.6664 24.2224H24.6889C24.569 24.2224 24.4997 24.2855 24.4997 24.4116V24.6134C24.4997 24.7332 24.569 24.8026 24.6889 24.8026H26.215C26.3412 24.8026 26.4042 24.8657 26.4042 24.9918V25.6981C26.4042 25.8243 26.3412 25.8873 26.215 25.8873H23.5663C23.4465 25.8873 23.3771 25.818 23.3771 25.6981V21.662C23.3771 21.5358 23.4465 21.4728 23.5663 21.4728H26.215Z" fill="#706993"/>
<path d="M18.8554 12.6037C18.8554 12.4776 18.7923 12.4145 18.6662 12.4145H17.7833C17.6634 12.4145 17.5941 12.3452 17.5941 12.2253V11.519C17.5941 11.3929 17.6634 11.3298 17.7833 11.3298H21.0122C21.1383 11.3298 21.2014 11.3929 21.2014 11.519V12.2253C21.2014 12.3452 21.1383 12.4145 21.0122 12.4145H20.1293C20.0095 12.4145 19.9401 12.4776 19.9401 12.6037V15.5552C19.9401 15.675 19.877 15.7444 19.7509 15.7444H19.0446C18.9247 15.7444 18.8554 15.675 18.8554 15.5552V12.6037ZM25.1558 12.7488C25.1558 12.3326 25.0675 11.2163 23.5729 11.2163C22.0782 11.2163 21.9899 12.3326 21.9899 12.7488V14.3254C21.9899 14.7416 22.0782 15.8579 23.5729 15.8579C25.0675 15.8579 25.1558 14.7416 25.1558 14.3254V12.7488ZM24.0711 13.9912C24.0711 14.4768 24.0395 14.7732 23.5729 14.7732C23.1062 14.7732 23.0746 14.4768 23.0746 13.9912V13.083C23.0746 12.5974 23.1062 12.301 23.5729 12.301C24.0395 12.301 24.0711 12.5974 24.0711 13.083V13.9912Z" fill="#706993"/>
<path d="M17.7689 9.31138C17.7689 9.72761 17.8572 10.8439 19.3519 10.8439C20.8465 10.8439 20.9348 9.72761 20.9348 9.31138V8.46C20.9348 8.33387 20.8717 8.2708 20.7456 8.2708H19.4843C19.3645 8.2708 19.2951 8.33387 19.2951 8.46V8.96452C19.2951 9.08434 19.3645 9.15372 19.4843 9.15372H19.8501C19.8501 9.46274 19.8185 9.75914 19.3519 9.75914C18.8852 9.75914 18.8536 9.46274 18.8536 8.97713V8.06899C18.8536 7.58339 18.8852 7.28698 19.3519 7.28698C19.7113 7.28698 19.8185 7.46357 19.8438 7.76628C19.8564 7.89872 19.9258 7.95548 20.0519 7.93025L20.7645 7.77259C20.878 7.74736 20.9348 7.67799 20.9285 7.56447C20.897 7.07256 20.6762 6.20226 19.3519 6.20226C17.8572 6.20226 17.7689 7.31852 17.7689 7.73475V9.31138ZM24.8643 6.31578C24.9904 6.31578 25.0535 6.37884 25.0535 6.50497V7.21131C25.0535 7.33113 24.9904 7.4005 24.8643 7.4005H23.3381C23.2183 7.4005 23.1489 7.46357 23.1489 7.5897V7.79151C23.1489 7.91133 23.2183 7.9807 23.3381 7.9807H24.3156C24.4417 7.9807 24.5048 8.04377 24.5048 8.1699V8.87623C24.5048 8.99605 24.4417 9.06542 24.3156 9.06542H23.3381C23.2183 9.06542 23.1489 9.12849 23.1489 9.25462V9.45643C23.1489 9.57625 23.2183 9.64562 23.3381 9.64562H24.8643C24.9904 9.64562 25.0535 9.70869 25.0535 9.83482V10.5412C25.0535 10.6673 24.9904 10.7303 24.8643 10.7303H22.2155C22.0957 10.7303 22.0263 10.661 22.0263 10.5412V6.50497C22.0263 6.37884 22.0957 6.31578 22.2155 6.31578H24.8643ZM27.1435 7.5897C27.1435 7.46357 27.0804 7.4005 26.9543 7.4005H26.0714C25.9515 7.4005 25.8822 7.33113 25.8822 7.21131V6.50497C25.8822 6.37884 25.9515 6.31578 26.0714 6.31578H29.3003C29.4264 6.31578 29.4895 6.37884 29.4895 6.50497V7.21131C29.4895 7.33113 29.4264 7.4005 29.3003 7.4005H28.4174C28.2976 7.4005 28.2282 7.46357 28.2282 7.5897V10.5412C28.2282 10.661 28.1651 10.7303 28.039 10.7303H27.3327C27.2128 10.7303 27.1435 10.661 27.1435 10.5412V7.5897Z" fill="#706993"/>
<path d="M17.4289 30.1691H17.6812L17.9398 28.6975H17.6875L17.4289 30.1691ZM18.7153 29.1474C18.5219 29.1474 18.3978 29.3177 18.3978 29.3177L18.4231 29.1726H18.1876L18.0131 30.1691H18.2654L18.3831 29.5006C18.3831 29.5006 18.4798 29.3829 18.6102 29.3829C18.7195 29.3829 18.7867 29.4438 18.7615 29.5868L18.6606 30.1691H18.9129L19.0222 29.5447C19.0642 29.3051 18.915 29.1474 18.7153 29.1474ZM19.8542 30.1691H20.1065L20.3861 28.5798H20.1338L19.8542 30.1691ZM20.9801 29.1474C20.6963 29.1474 20.4188 29.3934 20.4188 29.7213C20.4188 29.9694 20.5786 30.1943 20.9128 30.1943C21.1546 30.1943 21.3164 30.0555 21.3164 30.0555L21.1987 29.8621C21.1987 29.8621 21.0873 29.9631 20.9128 29.9631C20.7552 29.9631 20.6669 29.8495 20.6648 29.7612H21.4131C21.4384 29.633 21.4405 29.5994 21.4405 29.5678C21.4405 29.3156 21.2597 29.1474 20.9801 29.1474ZM20.6921 29.5784C20.7194 29.4901 20.8203 29.3765 20.9801 29.3765C21.1336 29.3765 21.1966 29.4753 21.1966 29.5594C21.1966 29.5657 21.1945 29.572 21.1945 29.5784H20.6921ZM21.5145 30.0135C21.5145 30.0135 21.6869 30.1943 21.9622 30.1943C22.1935 30.1943 22.4247 30.0808 22.4247 29.8643C22.4247 29.6772 22.2692 29.6099 22.1178 29.5763C21.9685 29.5426 21.9097 29.5216 21.9097 29.4711C21.9097 29.3934 22.0106 29.3681 22.0884 29.3681C22.2229 29.3681 22.3553 29.4627 22.3553 29.4627L22.4857 29.2714C22.4857 29.2714 22.3385 29.1474 22.0884 29.1474C21.8319 29.1474 21.6616 29.2967 21.6616 29.4753C21.6616 29.6456 21.8046 29.7318 21.9791 29.7697C22.1115 29.7991 22.1683 29.8117 22.1683 29.8706C22.1683 29.9462 22.0737 29.9736 21.9622 29.9736C21.7836 29.9736 21.6616 29.8327 21.6616 29.8327L21.5145 30.0135ZM22.5517 30.0135C22.5517 30.0135 22.7241 30.1943 22.9995 30.1943C23.2307 30.1943 23.4619 30.0808 23.4619 29.8643C23.4619 29.6772 23.3064 29.6099 23.155 29.5763C23.0058 29.5426 22.9469 29.5216 22.9469 29.4711C22.9469 29.3934 23.0478 29.3681 23.1256 29.3681C23.2601 29.3681 23.3926 29.4627 23.3926 29.4627L23.5229 29.2714C23.5229 29.2714 23.3757 29.1474 23.1256 29.1474C22.8691 29.1474 22.6988 29.2967 22.6988 29.4753C22.6988 29.6456 22.8418 29.7318 23.0163 29.7697C23.1487 29.7991 23.2055 29.8117 23.2055 29.8706C23.2055 29.9462 23.1109 29.9736 22.9995 29.9736C22.8208 29.9736 22.6988 29.8327 22.6988 29.8327L22.5517 30.0135ZM24.2972 29.3997H24.5137L24.4381 29.8306C24.4002 30.0429 24.5432 30.1943 24.7345 30.1943C24.8795 30.1943 24.9804 30.1333 24.9804 30.1333L24.9089 29.9231C24.9089 29.9231 24.8543 29.9588 24.7996 29.9588C24.7324 29.9588 24.6714 29.9336 24.6924 29.8117L24.766 29.3997H25.0666L25.1066 29.1726H24.8059L24.8585 28.8762H24.6062L24.5537 29.1726H24.3372L24.2972 29.3997ZM25.8907 29.1474C25.7414 29.1474 25.6363 29.2462 25.5943 29.2925L25.7204 28.5798H25.4682L25.1886 30.1691H25.4408L25.5586 29.5006C25.5586 29.5006 25.6553 29.3829 25.7856 29.3829C25.8949 29.3829 25.9622 29.4438 25.9369 29.5868L25.836 30.1691H26.0883L26.1976 29.5447C26.2397 29.3051 26.0904 29.1474 25.8907 29.1474ZM26.7831 29.9841C26.7116 29.9841 26.6234 29.961 26.6234 29.8727C26.6234 29.7591 26.7495 29.715 26.8357 29.715C26.9723 29.715 27.0543 29.7654 27.0543 29.7654L27.0354 29.8685C27.0354 29.8685 26.9345 29.9841 26.7831 29.9841ZM26.9303 29.1474C26.7222 29.1474 26.5246 29.2231 26.5246 29.2231L26.5897 29.4375C26.5897 29.4375 26.7495 29.3723 26.8945 29.3723C27.0038 29.3723 27.1153 29.4144 27.0921 29.5447L27.0795 29.612C27.0795 29.612 26.9702 29.53 26.7957 29.53C26.5792 29.53 26.3627 29.6561 26.3627 29.8811C26.3627 30.0534 26.4846 30.1943 26.6906 30.1943C26.8903 30.1943 27.0228 30.0429 27.0228 30.0429L27.0017 30.1691H27.2351L27.3465 29.53C27.3864 29.303 27.2162 29.1474 26.9303 29.1474ZM28.2108 29.1474C28.0174 29.1474 27.8933 29.3177 27.8933 29.3177L27.9186 29.1726H27.6831L27.5086 30.1691H27.7609L27.8786 29.5006C27.8786 29.5006 27.9753 29.3829 28.1057 29.3829C28.215 29.3829 28.2822 29.4438 28.257 29.5868L28.1561 30.1691H28.4084L28.5177 29.5447C28.5597 29.3051 28.4105 29.1474 28.2108 29.1474ZM30.2663 28.7753L30.0729 28.6282C30.0729 28.6282 29.5347 29.3198 29.5053 29.3618C29.4212 29.4817 29.3497 29.6162 29.3497 29.7486C29.3497 29.9652 29.4864 30.1943 29.8269 30.1943C30.1212 30.1943 30.3966 29.9483 30.3966 29.6414C30.3966 29.4123 30.2368 29.1979 29.9804 29.1979C29.9573 29.1979 29.9257 29.2042 29.9257 29.2042L30.2663 28.7753ZM29.9131 29.4333C30.0413 29.4333 30.138 29.5132 30.138 29.6414C30.138 29.8201 29.9951 29.9588 29.8332 29.9588C29.705 29.9588 29.6083 29.879 29.6083 29.7486C29.6083 29.5763 29.747 29.4333 29.9131 29.4333ZM31.2616 28.6723C30.839 28.6723 30.5952 29.1916 30.5952 29.6183C30.5952 29.9462 30.7276 30.1943 31.0766 30.1943C31.5012 30.1943 31.7409 29.6709 31.7409 29.2441C31.7409 28.9183 31.6084 28.6723 31.2616 28.6723ZM31.0766 29.9588C30.9189 29.9588 30.8495 29.8159 30.8495 29.6183C30.8495 29.3156 31.0009 28.9078 31.2616 28.9078C31.4171 28.9078 31.4865 29.0486 31.4865 29.2441C31.4865 29.5468 31.3351 29.9588 31.0766 29.9588ZM32.427 30.0135C32.427 30.0135 32.5994 30.1943 32.8747 30.1943C33.106 30.1943 33.3372 30.0808 33.3372 29.8643C33.3372 29.6772 33.1817 29.6099 33.0303 29.5763C32.8811 29.5426 32.8222 29.5216 32.8222 29.4711C32.8222 29.3934 32.9231 29.3681 33.0009 29.3681C33.1354 29.3681 33.2679 29.4627 33.2679 29.4627L33.3982 29.2714C33.3982 29.2714 33.251 29.1474 33.0009 29.1474C32.7444 29.1474 32.5741 29.2967 32.5741 29.4753C32.5741 29.6456 32.7171 29.7318 32.8916 29.7697C33.024 29.7991 33.0808 29.8117 33.0808 29.8706C33.0808 29.9462 32.9862 29.9736 32.8747 29.9736C32.6961 29.9736 32.5741 29.8327 32.5741 29.8327L32.427 30.0135ZM34.0717 29.1474C33.7879 29.1474 33.5104 29.3934 33.5104 29.7213C33.5104 29.9694 33.6702 30.1943 34.0045 30.1943C34.2462 30.1943 34.4081 30.0555 34.4081 30.0555L34.2903 29.8621C34.2903 29.8621 34.1789 29.9631 34.0045 29.9631C33.8468 29.9631 33.7585 29.8495 33.7564 29.7612H34.5048C34.53 29.633 34.5321 29.5994 34.5321 29.5678C34.5321 29.3156 34.3513 29.1474 34.0717 29.1474ZM33.7837 29.5784C33.8111 29.4901 33.912 29.3765 34.0717 29.3765C34.2252 29.3765 34.2882 29.4753 34.2882 29.5594C34.2882 29.5657 34.2861 29.572 34.2861 29.5784H33.7837ZM35.1464 29.9588C35.0076 29.9588 34.913 29.8579 34.913 29.7276C34.913 29.5489 35.0623 29.3829 35.2473 29.3829C35.4049 29.3829 35.4827 29.4859 35.4827 29.4859L35.6635 29.3324C35.6635 29.3324 35.5521 29.1474 35.2473 29.1474C34.9446 29.1474 34.6523 29.3955 34.6523 29.7276C34.6523 29.9757 34.8247 30.1943 35.1464 30.1943C35.3902 30.1943 35.5521 30.0387 35.5521 30.0387L35.4154 29.8474C35.4154 29.8474 35.3166 29.9588 35.1464 29.9588ZM36.3027 29.1474C36.0168 29.1474 35.7183 29.3955 35.7183 29.7276C35.7183 29.9757 35.8865 30.1943 36.2144 30.1943C36.5003 30.1943 36.7988 29.9441 36.7988 29.6141C36.7988 29.366 36.6306 29.1474 36.3027 29.1474ZM36.2144 29.9588C36.061 29.9588 35.979 29.8558 35.979 29.7276C35.979 29.5489 36.1114 29.3829 36.3027 29.3829C36.4562 29.3829 36.5381 29.4859 36.5381 29.6141C36.5381 29.7928 36.4057 29.9588 36.2144 29.9588ZM37.6114 29.1474C37.418 29.1474 37.2939 29.3177 37.2939 29.3177L37.3192 29.1726H37.0837L36.9092 30.1691H37.1615L37.2792 29.5006C37.2792 29.5006 37.3759 29.3829 37.5062 29.3829C37.6156 29.3829 37.6828 29.4438 37.6576 29.5868L37.5567 30.1691H37.809L37.9183 29.5447C37.9603 29.3051 37.8111 29.1474 37.6114 29.1474ZM39.3138 28.5798H39.0615L38.9396 29.2714C38.9396 29.2714 38.8471 29.1474 38.6579 29.1474C38.3825 29.1474 38.0924 29.3829 38.0924 29.7318C38.0924 30.0156 38.2732 30.1943 38.494 30.1943C38.7 30.1943 38.8219 30.0387 38.8219 30.0387L38.8009 30.1691H39.0342L39.3138 28.5798ZM38.845 29.8096C38.845 29.8096 38.7504 29.9588 38.5801 29.9588C38.4309 29.9588 38.3531 29.8643 38.3531 29.7318C38.3531 29.5447 38.4919 29.3829 38.6811 29.3829C38.8471 29.3829 38.8976 29.5111 38.8976 29.5111L38.845 29.8096ZM39.301 30.0135C39.301 30.0135 39.4734 30.1943 39.7488 30.1943C39.98 30.1943 40.2113 30.0808 40.2113 29.8643C40.2113 29.6772 40.0557 29.6099 39.9043 29.5763C39.7551 29.5426 39.6962 29.5216 39.6962 29.4711C39.6962 29.3934 39.7971 29.3681 39.8749 29.3681C40.0094 29.3681 40.1419 29.4627 40.1419 29.4627L40.2722 29.2714C40.2722 29.2714 40.1251 29.1474 39.8749 29.1474C39.6184 29.1474 39.4482 29.2967 39.4482 29.4753C39.4482 29.6456 39.5911 29.7318 39.7656 29.7697C39.898 29.7991 39.9548 29.8117 39.9548 29.8706C39.9548 29.9462 39.8602 29.9736 39.7488 29.9736C39.5701 29.9736 39.4482 29.8327 39.4482 29.8327L39.301 30.0135ZM40.9584 28.6975H40.6977L40.5232 29.7486H40.7629L40.9584 28.6975ZM40.437 30.0282C40.437 30.1207 40.5106 30.1943 40.6031 30.1943C40.6956 30.1943 40.7692 30.1207 40.7692 30.0282C40.7692 29.9357 40.6956 29.8621 40.6031 29.8621C40.5106 29.8621 40.437 29.9357 40.437 30.0282Z" fill="#331E38"/>
<path d="M58.068 31.5122C58.068 35.6794 59.5372 34.073 55.6383 34.073C51.7393 34.073 52.7961 35.6794 52.7961 31.5122C52.7961 27.345 51.7393 23.9668 55.6383 23.9668C59.5372 23.9668 58.068 27.345 58.068 31.5122Z" fill="#E4BDA7"/>
<path d="M70.3638 30.1185C69.4036 29.0364 67.748 28.9376 66.6659 29.8978L58.9202 36.7709C58.2528 37.3631 57.8708 38.2127 57.8708 39.105V39.105C57.8708 41.9413 61.3484 43.3067 63.2782 41.2282L70.3241 33.6394C71.2418 32.651 71.2589 31.1273 70.3638 30.1185V30.1185Z" fill="#706993"/>
<path d="M67.1888 29.5883C65.2884 32.946 69.4527 34.8199 70.8321 31.7748" stroke="#EDE7D9" stroke-width="0.520532"/>
<path d="M66.7399 31.5644C67.4327 34.0789 71.1194 33.6583 71.228 31.0524L71.8399 16.3776C71.897 15.0104 70.0266 14.5662 69.4628 15.8131V15.8131C69.4215 15.9044 69.3914 16.0004 69.3731 16.099L66.6961 30.5405C66.633 30.8807 66.648 31.2308 66.7399 31.5644V31.5644Z" fill="#E4BDA7"/>
<path d="M47.816 40.7484C47.5947 36.9525 50.6133 33.7528 54.4156 33.7528H56.3613C60.0123 33.7528 62.9721 36.7125 62.9721 40.3636V60.5602H47.4081L48.3826 52.1798C48.4269 51.7987 48.438 51.4145 48.4156 51.0314L47.816 40.7484Z" fill="#706993"/>
<path d="M61.3063 23.7253C59.8488 28.9119 58.7474 31.7228 55.3983 31.7228C52.0491 31.7228 51.3381 29.068 49.1779 23.7253C49.1779 19.4602 51.893 16.0027 55.2421 16.0027C58.5913 16.0027 61.3063 19.4602 61.3063 23.7253Z" fill="#E4BDA7"/>
<path d="M58.0156 16.9537C61.5662 18.9387 60.106 26.4419 61.9858 23.0794C60.031 22.5354 63.1022 14.263 59.4845 14.263C55.9338 12.278 58.4432 12.0651 53.8888 10.7713C57.1448 20.2547 54.4649 14.9688 58.0156 16.9537Z" fill="url(#paint0_linear_118_3013)"/>
<path d="M52.6066 16.978C49.0559 18.963 50.0368 27.1421 48.6364 23.1036C48.6364 17.7986 47.9547 14.2872 51.1377 14.2872C54.6884 12.3022 52.179 12.0894 56.7334 10.7956C62.0091 19.3342 56.1573 14.993 52.6066 16.978Z" fill="url(#paint1_linear_118_3013)"/>
<path d="M50.0836 23.1252C50.0836 23.8678 50.2885 25.5283 49.6503 25.5283C49.0121 25.5283 47.7725 23.8678 47.7725 23.1252C47.7725 22.3825 48.2899 21.7805 48.9281 21.7805C49.5662 21.7805 50.0836 22.3825 50.0836 23.1252Z" fill="#E4BDA7"/>
<path d="M60.713 22.7609C60.713 23.5035 60.5082 25.1641 61.1464 25.1641C61.7845 25.1641 63.0241 23.5035 63.0241 22.7609C63.0241 22.0183 62.5068 21.4163 61.8686 21.4163C61.2304 21.4163 60.713 22.0183 60.713 22.7609Z" fill="#E4BDA7"/>
<path d="M53.042 30.0419C52.6321 29.5833 52.2894 29.0079 51.9375 28.3373C52.2437 28.6963 52.5713 29.0576 52.9077 29.3833C53.2708 29.735 53.6624 30.0633 54.0673 30.3068C54.4674 30.5475 54.9271 30.7337 55.4142 30.7337C55.8937 30.7337 56.3513 30.5582 56.7542 30.3283C57.1617 30.0957 57.5584 29.7816 57.9281 29.4438C58.247 29.1524 58.5589 28.8312 58.853 28.5092C58.4853 29.1898 58.1488 29.7315 57.7596 30.1489C57.204 30.7448 56.5345 31.0892 55.4142 31.0892C54.3237 31.0892 53.6212 30.6899 53.042 30.0419Z" stroke="url(#paint2_linear_118_3013)" stroke-width="1.30133"/>
<path d="M58.053 25.9438C58.053 26.3807 57.7806 26.7936 57.3042 27.1035C56.829 27.4126 56.1647 27.608 55.4243 27.608C54.684 27.608 54.0197 27.4126 53.5445 27.1035C53.0681 26.7936 52.7957 26.3807 52.7957 25.9438C52.7957 25.831 52.8137 25.7652 52.8348 25.7277C52.8529 25.6958 52.8768 25.6778 52.9155 25.6676C52.96 25.6558 53.0246 25.6548 53.1163 25.6693C53.2067 25.6836 53.313 25.7112 53.4362 25.7481C53.5195 25.7731 53.6097 25.8021 53.7058 25.833C54.1695 25.9823 54.7728 26.1765 55.4243 26.1765C56.0759 26.1765 56.6792 25.9823 57.1429 25.833C57.239 25.8021 57.3292 25.7731 57.4125 25.7481C57.5357 25.7112 57.642 25.6836 57.7323 25.6693C57.824 25.6548 57.8887 25.6558 57.9332 25.6676C57.9719 25.6778 57.9958 25.6958 58.0139 25.7277C58.035 25.7652 58.053 25.831 58.053 25.9438Z" fill="white" stroke="#D99584" stroke-width="0.260266"/>
<path d="M58.3393 25.8667C58.3393 25.9817 57.7087 26.0489 55.5037 26.0489C53.2987 26.0489 52.5093 26.0338 52.5093 25.9188C52.5093 25.8038 53.2987 24.4873 55.5037 24.4873C57.7087 24.4873 58.3393 25.7517 58.3393 25.8667Z" fill="url(#paint3_linear_118_3013)"/>
<path d="M56.6307 30.9566C56.6307 31.1445 55.98 30.5628 55.5167 31.4364C55.017 30.5107 54.3403 31.2295 54.3403 31.0417C54.3403 30.8538 54.6504 28.7036 55.5167 28.7036C56.3829 28.7036 56.6307 30.7688 56.6307 30.9566Z" fill="url(#paint4_linear_118_3013)"/>
<path d="M55.0008 24.033C55.2401 23.9932 54.7753 24.4163 54.4578 24.4163C54.0426 24.4163 53.787 24.2886 53.8828 24.065C53.8828 23.8709 54.1403 23.7136 54.4578 23.7136C54.7753 23.7136 55.1925 24.0011 55.0008 24.033Z" fill="#F8D1BC"/>
<path d="M55.8014 24.033C55.5622 23.9932 56.0269 24.4163 56.3445 24.4163C56.7597 24.4163 57.0152 24.2886 56.9194 24.065C56.9194 23.8709 56.662 23.7136 56.3445 23.7136C56.0269 23.7136 55.6098 24.0011 55.8014 24.033Z" fill="#F8D1BC"/>
<path d="M50.9869 20.9869H54.9234V22.182C54.9234 23.2528 54.0554 24.1208 52.9846 24.1208H52.9258C51.855 24.1208 50.9869 23.2528 50.9869 22.182V20.9869Z" fill="url(#paint5_linear_118_3013)" stroke="white" stroke-width="0.286635"/>
<path d="M55.9171 20.9869H59.8535V22.182C59.8535 23.2528 58.9855 24.1208 57.9147 24.1208H57.8559C56.7851 24.1208 55.9171 23.2528 55.9171 22.182V20.9869Z" fill="url(#paint6_linear_118_3013)" stroke="white" stroke-width="0.286635"/>
<path d="M56.049 22.3011C56.049 22.2464 56.0328 22.1922 56.0014 22.1417C55.97 22.0912 55.924 22.0453 55.866 22.0066C55.808 21.9679 55.7391 21.9373 55.6634 21.9163C55.5876 21.8954 55.5063 21.8846 55.4243 21.8846C55.3423 21.8846 55.2611 21.8954 55.1853 21.9163C55.1095 21.9373 55.0406 21.9679 54.9826 22.0066C54.9246 22.0453 54.8786 22.0912 54.8472 22.1417C54.8158 22.1922 54.7997 22.2464 54.7997 22.3011L54.9826 22.7435C54.9826 22.7251 55.2189 22.2643 55.2295 22.2473C55.2401 22.2302 55.2556 22.2147 55.2752 22.2017C55.2948 22.1886 55.318 22.1783 55.3436 22.1712C55.3692 22.1641 55.3966 22.1605 55.4243 22.1605C55.452 22.1605 55.4794 22.1641 55.505 22.1712C55.5306 22.1783 55.5538 22.1886 55.5734 22.2017C55.593 22.2147 55.6085 22.2302 55.6191 22.2473C55.6297 22.2643 55.866 22.7251 55.866 22.7435L56.049 22.3011Z" fill="white"/>
<rect x="55.0599" y="20.8436" width="0.728745" height="1.19722" fill="white"/>
<path d="M58.3393 34.3774C58.3393 35.8135 57.0692 37.1883 55.5024 37.1883C53.9357 37.1883 52.6655 35.6053 52.6655 34.1692C52.6655 32.733 53.7266 33.2877 55.2934 33.2877C56.8602 33.2877 58.3393 32.9413 58.3393 34.3774Z" fill="#E4BDA7"/>
<path d="M66.433 12.1033C67.9368 11.0078 69.2232 13.9373 70.066 13.3233C71.2648 14.9688 70.1143 16.659 69.5136 18.2864C68.0098 19.3819 70.1264 16.4922 68.9276 14.8467C67.7289 13.2012 64.9292 13.1989 66.433 12.1033Z" fill="#E4BDA7"/>
<path d="M67.9262 8.02482C69.1713 8.48101 69.5043 12.6358 70.5457 12.6881C70.4436 14.7214 72.5044 15.9995 71.0142 16.8876C69.156 16.7943 69.0692 15.1002 69.1713 13.0669C69.2734 11.0336 66.068 7.93153 67.9262 8.02482Z" fill="#E4BDA7"/>
<path d="M71.437 6.91025C71.9083 8.1166 70.9062 11.6439 71.6526 12.0594C70.8415 13.5166 71.516 15.0986 70.0995 15.2117C68.7678 14.4704 69.3174 13.1941 70.1285 11.7369C70.9397 10.2798 70.1053 6.16895 71.437 6.91025Z" fill="#E4BDA7"/>
<path d="M73.8787 8.48537C74.6311 9.47726 71.6129 11.3179 72.6019 13.2699C71.5166 14.0932 71.2477 14.6353 70.1512 14.2545C69.3988 13.2626 70.2291 12.4886 71.3144 11.6653C72.3998 10.842 73.1262 7.49347 73.8787 8.48537Z" fill="#E4BDA7"/>
<path d="M74.7818 11.9357C74.5215 12.552 72.023 13.1329 72.2572 13.8357C71.3656 13.9737 71.5332 14.2616 71.0142 13.6945C70.8881 12.8796 71.6155 12.69 72.5072 12.552C73.3988 12.414 74.6557 11.1209 74.7818 11.9357Z" fill="#E4BDA7"/>
<path d="M72.8391 13.0994C72.6891 13.5561 71.814 16.1877 71.8303 16.5492C71.2686 16.5745 70.1141 12.6652 69.8262 12.1767C69.7972 11.5318 69.971 12.3804 70.5327 12.3551C71.0944 12.3298 72.81 12.4545 72.8391 13.0994Z" fill="#E4BDA7"/>
<path d="M48.5012 21.3121H50.8436V21.8847C49.9247 21.5626 49.4111 21.5819 48.5012 21.8847V21.3121Z" fill="white"/>
<path d="M61.3063 21.0519H60.005V21.6245C60.5155 21.3024 60.8009 21.3216 61.3063 21.6245V21.0519Z" fill="white"/>
<path d="M49.014 23.186C48.2578 23.6345 49.4874 23.9174 49.014 24.4353" stroke="black" stroke-width="0.0520532"/>
<path d="M61.6264 22.8217C62.3826 23.2701 61.1531 23.5531 61.6264 24.0709" stroke="black" stroke-width="0.0520532"/>
<ellipse cx="55.448" cy="24.0969" rx="1.18184" ry="0.702718" fill="#EEB8A7"/>
<path d="M58.1402 26.2051C58.1402 26.7513 56.9859 28.2872 55.4335 28.2872C53.8811 28.2872 52.7007 26.5691 52.7007 26.0229C52.7007 25.4766 53.8811 27.4076 55.4335 27.4076C56.9859 27.4076 58.1402 25.6589 58.1402 26.2051Z" fill="#D99584"/>
<path d="M58.1402 26.2051C58.1402 26.7513 56.9859 28.2872 55.4335 28.2872C53.8811 28.2872 52.7007 26.5691 52.7007 26.0229C52.7007 25.4766 53.8811 27.4076 55.4335 27.4076C56.9859 27.4076 58.1402 25.6589 58.1402 26.2051Z" fill="#D99584"/>
<path d="M58.1402 26.2051C58.1402 26.7513 56.9859 28.2872 55.4335 28.2872C53.8811 28.2872 52.7007 26.5691 52.7007 26.0229C52.7007 25.4766 53.8811 27.4076 55.4335 27.4076C56.9859 27.4076 58.1402 25.6589 58.1402 26.2051Z" fill="#D99584"/>
<path d="M60.7752 24.8003C60.6126 26.458 59.3896 31.3064 56.7089 31.0721C58.843 25.7106 59.7635 26.4095 59.9262 24.7518C60.0888 23.0941 60.8299 21.6104 61.2376 21.6504C60.716 24.8929 60.9378 23.1426 60.7752 24.8003Z" fill="#79643D"/>
<path d="M50.0658 24.7081C50.2285 26.3658 51.4515 31.2141 54.1322 30.9799C51.9981 25.6184 51.0775 26.3173 50.9149 24.6596C50.7523 23.0019 49.9852 21.6885 49.5775 21.7285C50.099 24.9711 49.9032 23.0504 50.0658 24.7081Z" fill="#79643D"/>
<path d="M54.6248 19.9267C54.693 20.2942 53.7734 19.8809 52.8069 20.0604C51.8404 20.2399 51.5622 20.4954 51.1438 20.8535C51.0756 20.4861 51.8038 20.0427 52.7703 19.8632C53.7368 19.6838 54.5565 19.5593 54.6248 19.9267Z" fill="#A78E64"/>
<path d="M56.0889 19.8081C56.0146 20.1733 57.0103 19.868 57.998 20.0689C58.9857 20.2698 59.2675 20.5312 59.6918 20.898C59.7661 20.5328 59.0256 20.0739 58.0379 19.873C57.0501 19.6721 56.1632 19.443 56.0889 19.8081Z" fill="#A78E64"/>
<path d="M79.4738 39.3916L80.4658 41.0337L62.106 52.9226L60.7064 50.6057L79.4738 39.3916Z" fill="url(#paint7_linear_118_3013)"/>
<line x1="80.6957" y1="38.8044" x2="51.0563" y2="56.5109" stroke="#C6C6C6" stroke-width="0.0520532"/>
<line x1="81.8575" y1="38.4965" x2="51.3362" y2="56.9499" stroke="#C6C6C6" stroke-width="0.0520532"/>
<line x1="83.2108" y1="38.0047" x2="51.6159" y2="57.3887" stroke="#C6C6C6" stroke-width="0.0520532"/>
<line x1="84.169" y1="37.7646" x2="51.9516" y2="57.9154" stroke="#C6C6C6" stroke-width="0.0520532"/>
<line x1="85.1871" y1="37.4248" x2="52.2595" y2="58.3983" stroke="#C6C6C6" stroke-width="0.0520532"/>
<line x1="86.3208" y1="37.0729" x2="52.5113" y2="58.7934" stroke="#C6C6C6" stroke-width="0.0520532"/>
<path d="M52.4312 34.0492C53.6024 37.3806 56.9599 38.4477 58.5735 34.1273" stroke="#EDE7D9" stroke-width="0.520532"/>
<path d="M46.5211 51.9169C45.0938 51.8746 44.1095 50.4701 44.5567 49.114L48.1158 38.3222C48.1521 38.212 48.227 38.1186 48.3267 38.0591V38.0591C48.6536 37.8641 49.0669 38.1071 49.0557 38.4875L48.7186 49.8461C48.6836 51.0248 47.6997 51.9519 46.5211 51.9169V51.9169Z" fill="#706993"/>
<g opacity="0.7" clip-path="url(#clip2_118_3013)">
<path d="M47.5733 14.8539C46.2729 14.8539 45.0017 15.2395 43.9205 15.9619C42.8393 16.6844 41.9965 17.7113 41.4989 18.9127C41.0013 20.1141 40.8711 21.4361 41.1248 22.7115C41.3784 23.9869 42.0046 25.1584 42.9242 26.0779C43.8437 26.9974 45.0152 27.6236 46.2906 27.8773C47.566 28.131 48.888 28.0008 50.0894 27.5032C51.2908 27.0055 52.3176 26.1628 53.0401 25.0816C53.7626 24.0003 54.1482 22.7291 54.1482 21.4288C54.1461 19.6856 53.4527 18.0145 52.2202 16.7819C50.9876 15.5493 49.3164 14.8559 47.5733 14.8539V14.8539ZM47.5733 26.8082C46.5093 26.8082 45.4693 26.4927 44.5846 25.9016C43.7 25.3105 43.0105 24.4703 42.6033 23.4874C42.1962 22.5044 42.0896 21.4228 42.2972 20.3793C42.5048 19.3358 43.0171 18.3772 43.7695 17.6249C44.5218 16.8726 45.4803 16.3602 46.5238 16.1527C47.5673 15.9451 48.649 16.0516 49.6319 16.4588C50.6149 16.866 51.455 17.5555 52.0461 18.4401C52.6372 19.3247 52.9527 20.3648 52.9527 21.4288C52.951 22.8549 52.3837 24.2222 51.3752 25.2307C50.3668 26.2391 48.9995 26.8065 47.5733 26.8082V26.8082ZM46.3779 19.0379L49.9642 21.4288L46.3779 23.8196V19.0379Z" fill="white"/>
</g>
</g>
</g>
<defs>
<linearGradient id="paint0_linear_118_3013" x1="52.058" y1="14.0461" x2="63.4694" y2="20.4255" gradientUnits="userSpaceOnUse">
<stop stop-color="#64543B"/>
<stop offset="1" stop-color="#62523B"/>
</linearGradient>
<linearGradient id="paint1_linear_118_3013" x1="58.6358" y1="14.1111" x2="47.0903" y2="20.5654" gradientUnits="userSpaceOnUse">
<stop stop-color="#66553B"/>
<stop offset="1" stop-color="#4F4638"/>
</linearGradient>
<linearGradient id="paint2_linear_118_3013" x1="55.4026" y1="22.0402" x2="55.4026" y2="31.7399" gradientUnits="userSpaceOnUse">
<stop stop-color="#63533B"/>
<stop offset="1" stop-color="#836B3D"/>
</linearGradient>
<linearGradient id="paint3_linear_118_3013" x1="55.4243" y1="24.4873" x2="55.4243" y2="26.0489" gradientUnits="userSpaceOnUse">
<stop stop-color="#806A32"/>
<stop offset="1" stop-color="#A89D7D"/>
</linearGradient>
<linearGradient id="paint4_linear_118_3013" x1="55.4855" y1="28.7036" x2="55.4855" y2="31.2542" gradientUnits="userSpaceOnUse">
<stop stop-color="#BEA669"/>
<stop offset="0.0001" stop-color="#B3A16D"/>
<stop offset="0.578125" stop-color="#80693D"/>
<stop offset="0.677083" stop-color="#80693D"/>
</linearGradient>
<linearGradient id="paint5_linear_118_3013" x1="52.9552" y1="20.8436" x2="52.9552" y2="24.2641" gradientUnits="userSpaceOnUse">
<stop/>
<stop offset="1" stop-color="#777777"/>
</linearGradient>
<linearGradient id="paint6_linear_118_3013" x1="57.8853" y1="20.8436" x2="57.8853" y2="24.2641" gradientUnits="userSpaceOnUse">
<stop/>
<stop offset="1" stop-color="#777777"/>
</linearGradient>
<linearGradient id="paint7_linear_118_3013" x1="80.1193" y1="40.4601" x2="61.4062" y2="51.7641" gradientUnits="userSpaceOnUse">
<stop stop-color="#8E5A3C"/>
<stop offset="1" stop-color="#6A4E36"/>
</linearGradient>
<clipPath id="clip0_118_3013">
<rect width="200" height="70" fill="white"/>
</clipPath>
<clipPath id="clip1_118_3013">
<rect width="63.0652" height="35.518" fill="white" transform="translate(16 4)"/>
</clipPath>
<clipPath id="clip2_118_3013">
<rect width="14.3452" height="14.3452" fill="white" transform="translate(40.4007 14.2562)"/>
</clipPath>
</defs>
</svg>
