<svg width="107" height="115" viewBox="0 0 107 115" fill="none" xmlns="http://www.w3.org/2000/svg">
<path d="M35.244 81.8H30.744L25.272 96.92L19.656 81.8H16.092L10.368 96.92L5.04 81.8H0.144L10.08 107.864L17.748 88.964L25.308 107.864L35.244 81.8ZM48.8078 81.368C41.4638 81.368 36.0638 86.948 36.0638 94.4C36.0638 101.852 41.4638 107.432 48.8078 107.432C56.1518 107.432 61.5518 101.852 61.5518 94.4C61.5518 86.948 56.1518 81.368 48.8078 81.368ZM48.8078 103.328C43.7318 103.328 40.4558 99.26 40.4558 94.4C40.4558 89.54 43.7318 85.472 48.8078 85.472C53.8838 85.472 57.1598 89.54 57.1598 94.4C57.1598 99.26 53.8838 103.328 48.8078 103.328ZM65.4531 107H69.7731V97.496H71.7531L77.7291 107H82.7691L76.4691 97.208C80.0691 96.308 82.0851 93.428 82.0851 89.648C82.0851 85.04 78.7371 81.8 73.7331 81.8H65.4531V107ZM73.1931 93.392H69.7731V85.904H73.1931C75.9651 85.904 77.6931 87.164 77.6931 89.648C77.6931 92.132 75.9651 93.392 73.1931 93.392ZM90.7613 81.8H86.4413V107H90.7613V95.624L100.661 107H106.385L95.2973 94.184L105.161 81.8H99.7613L90.7613 93.104V81.8Z" fill="#F4E8C1"/>
<path d="M19.0765 1.07124C19.0352 0.492375 19.4936 0 20.074 0H87.9132C88.4982 0 88.9583 0.500026 88.9097 1.08305L85.5764 41.083C85.5332 41.6013 85.1 42 84.5799 42H22.9311C22.4065 42 21.971 41.5946 21.9337 41.0712L19.0765 1.07124Z" fill="#323232"/>
<path d="M23 2H85L81.9 39.2H25.6571L23 2Z" fill="#F4E8C1"/>
<path d="M19.1186 68.8935C19.0552 69.4845 19.5184 70 20.1129 70H87.8672C88.4687 70 88.9341 69.4728 88.8595 68.876L85.6095 42.876C85.5469 42.3755 85.1215 42 84.6172 42H22.8986C22.3875 42 21.9587 42.3853 21.9043 42.8935L19.1186 68.8935Z" fill="#999999"/>
<path d="M25.0145 46.799C25.0067 46.9076 25.0927 47 25.2015 47H29.8584C29.9682 47 30.0545 46.9061 30.0453 46.7967L29.8238 44.1718C29.8156 44.0747 29.7344 44 29.637 44H25.3914C25.2931 44 25.2115 44.076 25.2044 44.174L25.0145 46.799Z" fill="#363636"/>
<path d="M32.0808 46.754C32.041 46.8752 32.1313 47 32.259 47H54.7273C54.8588 47 54.9495 46.8682 54.9024 46.7454L53.8961 44.1204C53.8684 44.0479 53.7987 44 53.7211 44H33.1215C33.0405 44 32.9686 44.052 32.9433 44.129L32.0808 46.754Z" fill="#363636"/>
<path d="M59.0808 46.754C59.041 46.8752 59.1313 47 59.259 47H81.7273C81.8588 47 81.9495 46.8682 81.9024 46.7454L80.8961 44.1204C80.8684 44.0479 80.7987 44 80.7211 44H60.1215C60.0405 44 59.9686 44.052 59.9433 44.129L59.0808 46.754Z" fill="#363636"/>
<path d="M43.1333 61.7296C43.0719 61.8542 43.1625 62 43.3014 62H65.6759C65.8201 62 65.9103 61.844 65.8384 61.719L64.9041 60.094C64.8706 60.0359 64.8086 60 64.7415 60H44.1023C44.0309 60 43.9657 60.0406 43.9342 60.1046L43.1333 61.7296Z" fill="#363636"/>
<path d="M32.0174 50.7965C32.0081 50.906 32.0944 51 32.2043 51H37.7928C37.9037 51 37.9904 50.9042 37.9794 50.7938L37.7169 48.1688C37.7073 48.073 37.6266 48 37.5303 48H32.4293C32.3319 48 32.2508 48.0745 32.2424 48.1715L32.0174 50.7965Z" fill="#363636"/>
<path d="M25.0174 50.7965C25.0081 50.906 25.0944 51 25.2043 51H30.7928C30.9037 51 30.9904 50.9042 30.9794 50.7938L30.7169 48.1688C30.7073 48.073 30.6266 48 30.5303 48H25.4293C25.3319 48 25.2508 48.0745 25.2424 48.1715L25.0174 50.7965Z" fill="#363636"/>
<path d="M39.0174 50.7965C39.0081 50.906 39.0944 51 39.2043 51H44.7928C44.9037 51 44.9904 50.9042 44.9794 50.7938L44.7169 48.1688C44.7073 48.073 44.6266 48 44.5303 48H39.4293C39.3319 48 39.2508 48.0745 39.2424 48.1715L39.0174 50.7965Z" fill="#363636"/>
<path d="M46.0174 50.7965C46.0081 50.906 46.0944 51 46.2043 51H51.7928C51.9037 51 51.9904 50.9042 51.9794 50.7938L51.7169 48.1688C51.7073 48.073 51.6266 48 51.5303 48H46.4293C46.3319 48 46.2508 48.0745 46.2424 48.1715L46.0174 50.7965Z" fill="#363636"/>
<path d="M53.0174 50.7965C53.0081 50.906 53.0944 51 53.2043 51H58.7928C58.9037 51 58.9904 50.9042 58.9794 50.7938L58.7169 48.1688C58.7073 48.073 58.6266 48 58.5303 48H53.4293C53.3319 48 53.2508 48.0745 53.2424 48.1715L53.0174 50.7965Z" fill="#363636"/>
<path d="M60.0174 50.7965C60.0081 50.906 60.0944 51 60.2043 51H65.7928C65.9037 51 65.9904 50.9042 65.9794 50.7938L65.7169 48.1688C65.7073 48.073 65.6266 48 65.5303 48H60.4293C60.3319 48 60.2508 48.0745 60.2424 48.1715L60.0174 50.7965Z" fill="#363636"/>
<path d="M67.0174 50.7965C67.0081 50.906 67.0944 51 67.2043 51H72.7928C72.9037 51 72.9904 50.9042 72.9794 50.7938L72.7169 48.1688C72.7073 48.073 72.6266 48 72.5303 48H67.4293C67.3319 48 67.2508 48.0745 67.2424 48.1715L67.0174 50.7965Z" fill="#363636"/>
<path d="M74.0174 50.7965C74.0081 50.906 74.0944 51 74.2043 51H79.7928C79.9037 51 79.9904 50.9042 79.9794 50.7938L79.7169 48.1688C79.7073 48.073 79.6266 48 79.5303 48H74.4293C74.3319 48 74.2508 48.0745 74.2424 48.1715L74.0174 50.7965Z" fill="#363636"/>
<path d="M32.0174 54.7965C32.0081 54.906 32.0944 55 32.2043 55H37.7928C37.9037 55 37.9904 54.9042 37.9794 54.7938L37.7169 52.1688C37.7073 52.073 37.6266 52 37.5303 52H32.4293C32.3319 52 32.2508 52.0745 32.2424 52.1715L32.0174 54.7965Z" fill="#363636"/>
<path d="M25.0174 54.7965C25.0081 54.906 25.0944 55 25.2043 55H30.7928C30.9037 55 30.9904 54.9042 30.9794 54.7938L30.7169 52.1688C30.7073 52.073 30.6266 52 30.5303 52H25.4293C25.3319 52 25.2508 52.0745 25.2424 52.1715L25.0174 54.7965Z" fill="#363636"/>
<path d="M39.0174 54.7965C39.0081 54.906 39.0944 55 39.2043 55H44.7928C44.9037 55 44.9904 54.9042 44.9794 54.7938L44.7169 52.1688C44.7073 52.073 44.6266 52 44.5303 52H39.4293C39.3319 52 39.2508 52.0745 39.2424 52.1715L39.0174 54.7965Z" fill="#363636"/>
<path d="M46.0174 54.7965C46.0081 54.906 46.0944 55 46.2043 55H51.7928C51.9037 55 51.9904 54.9042 51.9794 54.7938L51.7169 52.1688C51.7073 52.073 51.6266 52 51.5303 52H46.4293C46.3319 52 46.2508 52.0745 46.2424 52.1715L46.0174 54.7965Z" fill="#363636"/>
<path d="M53.0174 54.7965C53.0081 54.906 53.0944 55 53.2043 55H58.7928C58.9037 55 58.9904 54.9042 58.9794 54.7938L58.7169 52.1688C58.7073 52.073 58.6266 52 58.5303 52H53.4293C53.3319 52 53.2508 52.0745 53.2424 52.1715L53.0174 54.7965Z" fill="#363636"/>
<path d="M60.0174 54.7965C60.0081 54.906 60.0944 55 60.2043 55H65.7928C65.9037 55 65.9904 54.9042 65.9794 54.7938L65.7169 52.1688C65.7073 52.073 65.6266 52 65.5303 52H60.4293C60.3319 52 60.2508 52.0745 60.2424 52.1715L60.0174 54.7965Z" fill="#363636"/>
<path d="M67.0174 54.7965C67.0081 54.906 67.0944 55 67.2043 55H72.7928C72.9037 55 72.9904 54.9042 72.9794 54.7938L72.7169 52.1688C72.7073 52.073 72.6266 52 72.5303 52H67.4293C67.3319 52 67.2508 52.0745 67.2424 52.1715L67.0174 54.7965Z" fill="#363636"/>
<path d="M74.0174 54.7965C74.0081 54.906 74.0944 55 74.2043 55H79.7928C79.9037 55 79.9904 54.9042 79.9794 54.7938L79.7169 52.1688C79.7073 52.073 79.6266 52 79.5303 52H74.4293C74.3319 52 74.2508 52.0745 74.2424 52.1715L74.0174 54.7965Z" fill="#363636"/>
<path d="M32.0174 58.7965C32.0081 58.906 32.0944 59 32.2043 59H37.7928C37.9037 59 37.9904 58.9042 37.9794 58.7938L37.7169 56.1688C37.7073 56.073 37.6266 56 37.5303 56H32.4293C32.3319 56 32.2508 56.0745 32.2424 56.1715L32.0174 58.7965Z" fill="#363636"/>
<path d="M25.0174 58.7965C25.0081 58.906 25.0944 59 25.2043 59H30.7928C30.9037 59 30.9904 58.9042 30.9794 58.7938L30.7169 56.1688C30.7073 56.073 30.6266 56 30.5303 56H25.4293C25.3319 56 25.2508 56.0745 25.2424 56.1715L25.0174 58.7965Z" fill="#363636"/>
<path d="M39.0174 58.7965C39.0081 58.906 39.0944 59 39.2043 59H44.7928C44.9037 59 44.9904 58.9042 44.9794 58.7938L44.7169 56.1688C44.7073 56.073 44.6266 56 44.5303 56H39.4293C39.3319 56 39.2508 56.0745 39.2424 56.1715L39.0174 58.7965Z" fill="#363636"/>
<path d="M46.0174 58.7965C46.0081 58.906 46.0944 59 46.2043 59H51.7928C51.9037 59 51.9904 58.9042 51.9794 58.7938L51.7169 56.1688C51.7073 56.073 51.6266 56 51.5303 56H46.4293C46.3319 56 46.2508 56.0745 46.2424 56.1715L46.0174 58.7965Z" fill="#363636"/>
<path d="M53.0174 58.7965C53.0081 58.906 53.0944 59 53.2043 59H58.7928C58.9037 59 58.9904 58.9042 58.9794 58.7938L58.7169 56.1688C58.7073 56.073 58.6266 56 58.5303 56H53.4293C53.3319 56 53.2508 56.0745 53.2424 56.1715L53.0174 58.7965Z" fill="#363636"/>
<path d="M60.0174 58.7965C60.0081 58.906 60.0944 59 60.2043 59H65.7928C65.9037 59 65.9904 58.9042 65.9794 58.7938L65.7169 56.1688C65.7073 56.073 65.6266 56 65.5303 56H60.4293C60.3319 56 60.2508 56.0745 60.2424 56.1715L60.0174 58.7965Z" fill="#363636"/>
<path d="M67.0174 58.7965C67.0081 58.906 67.0944 59 67.2043 59H72.7928C72.9037 59 72.9904 58.9042 72.9794 58.7938L72.7169 56.1688C72.7073 56.073 72.6266 56 72.5303 56H67.4293C67.3319 56 67.2508 56.0745 67.2424 56.1715L67.0174 58.7965Z" fill="#363636"/>
<path d="M74.0174 58.7965C74.0081 58.906 74.0944 59 74.2043 59H79.7928C79.9037 59 79.9904 58.9042 79.9794 58.7938L79.7169 56.1688C79.7073 56.073 79.6266 56 79.5303 56H74.4293C74.3319 56 74.2508 56.0745 74.2424 56.1715L74.0174 58.7965Z" fill="#363636"/>
<g clip-path="url(#clip0_141_3576)">
<path d="M28.0158 18.476C27.9906 18.4445 27.9969 18.4193 28.0158 18.3877L29.2897 16.6345C29.378 16.5021 29.3275 16.4012 29.1699 16.4012H28.2365C28.1356 16.4012 28.0662 16.439 28.0095 16.521L27.0193 17.8832C26.9878 17.9337 26.9437 17.921 26.9437 17.858V16.5904C26.9437 16.4642 26.8806 16.4012 26.7545 16.4012H26.0355C25.9157 16.4012 25.8463 16.4642 25.8463 16.5904V20.6265C25.8463 20.7464 25.9157 20.8157 26.0355 20.8157H26.7545C26.8806 20.8157 26.9437 20.7464 26.9437 20.6265V19.9265C26.9437 19.895 26.95 19.8698 26.9689 19.8445L27.2275 19.4914C27.2527 19.4535 27.2905 19.4535 27.3158 19.4914L28.0978 20.6896C28.1545 20.7779 28.2239 20.8157 28.3248 20.8157H29.2708C29.4221 20.8157 29.4789 20.7148 29.3906 20.5887L28.0158 18.476ZM31.4279 16.4012C31.5351 16.4012 31.6045 16.4453 31.6486 16.5462L32.5063 18.6463C32.5315 18.703 32.582 18.6904 32.582 18.6274V16.5904C32.582 16.4642 32.6514 16.4012 32.7712 16.4012H33.4775C33.6037 16.4012 33.6667 16.4642 33.6667 16.5904V20.6265C33.6667 20.7464 33.6037 20.8157 33.4775 20.8157H32.5505C32.4433 20.8157 32.3739 20.7716 32.3297 20.6707L31.472 18.5706C31.4468 18.5139 31.3964 18.5265 31.3964 18.5895V20.6265C31.3964 20.7464 31.3333 20.8157 31.2072 20.8157H30.5008C30.381 20.8157 30.3116 20.7464 30.3116 20.6265V16.5904C30.3116 16.4642 30.381 16.4012 30.5008 16.4012H31.4279ZM37.9352 17.8201C37.9352 17.4039 37.8469 16.2876 36.3523 16.2876C34.8576 16.2876 34.7693 17.4039 34.7693 17.8201V19.3968C34.7693 19.813 34.8576 20.9293 36.3523 20.9293C37.8469 20.9293 37.9352 19.813 37.9352 19.3968V17.8201ZM36.8505 19.0625C36.8505 19.5481 36.8189 19.8445 36.3523 19.8445C35.8856 19.8445 35.854 19.5481 35.854 19.0625V18.1544C35.854 17.6688 35.8856 17.3724 36.3523 17.3724C36.8189 17.3724 36.8505 17.6688 36.8505 18.1544V19.0625ZM38.812 16.6093C38.7868 16.4768 38.8498 16.4012 38.9823 16.4012H39.7328C39.8463 16.4012 39.9283 16.4579 39.9409 16.5651L40.3003 19.195C40.313 19.258 40.3634 19.258 40.376 19.195L40.7986 16.5651C40.8175 16.4579 40.8932 16.4012 41.0067 16.4012H41.549C41.6626 16.4012 41.7382 16.4579 41.7572 16.5651L42.1797 19.195C42.1923 19.258 42.2428 19.258 42.2554 19.195L42.6148 16.5651C42.6275 16.4579 42.7094 16.4012 42.823 16.4012H43.5734C43.7059 16.4012 43.7689 16.4768 43.7437 16.6093L42.968 20.6518C42.9491 20.759 42.8734 20.8157 42.7599 20.8157H41.8707C41.7572 20.8157 41.6878 20.759 41.6626 20.6518L41.3157 19.1004C41.3031 19.0373 41.2526 19.0373 41.24 19.1004L40.8932 20.6518C40.8679 20.759 40.7986 20.8157 40.685 20.8157H39.7958C39.6823 20.8157 39.6066 20.759 39.5877 20.6518L38.812 16.6093Z" fill="#706993"/>
<path d="M27.341 21.4727C27.4545 21.4727 27.5176 21.5358 27.5428 21.643L27.9906 23.4782C28.0032 23.5412 28.0536 23.5412 28.0662 23.4782L28.514 21.643C28.5392 21.5358 28.6023 21.4727 28.7158 21.4727H30.0213C30.1474 21.4727 30.2104 21.5358 30.2104 21.6619V25.6981C30.2104 25.8179 30.1474 25.8873 30.0213 25.8873H29.3149C29.1951 25.8873 29.1257 25.8179 29.1257 25.6981V23.2133C29.1257 23.1692 29.069 23.1628 29.0564 23.207L28.4446 25.7233C28.4194 25.8305 28.35 25.8873 28.2365 25.8873H27.8203C27.7068 25.8873 27.6374 25.8305 27.6122 25.7233L27.0004 23.207C26.9878 23.1628 26.9311 23.1692 26.9311 23.2133V25.6981C26.9311 25.8179 26.868 25.8873 26.7419 25.8873H26.0355C25.9094 25.8873 25.8463 25.8179 25.8463 25.6981V21.6619C25.8463 21.5358 25.9094 21.4727 26.0355 21.4727H27.341ZM34.215 21.4727C34.3412 21.4727 34.4042 21.5358 34.4042 21.6619V22.3682C34.4042 22.4881 34.3412 22.5574 34.215 22.5574H32.6889C32.569 22.5574 32.4997 22.6205 32.4997 22.7466V22.9484C32.4997 23.0683 32.569 23.1376 32.6889 23.1376H33.6664C33.7925 23.1376 33.8556 23.2007 33.8556 23.3268V24.0331C33.8556 24.153 33.7925 24.2223 33.6664 24.2223H32.6889C32.569 24.2223 32.4997 24.2854 32.4997 24.4115V24.6134C32.4997 24.7332 32.569 24.8025 32.6889 24.8025H34.215C34.3412 24.8025 34.4042 24.8656 34.4042 24.9917V25.6981C34.4042 25.8242 34.3412 25.8873 34.215 25.8873H31.5663C31.4465 25.8873 31.3771 25.8179 31.3771 25.6981V21.6619C31.3771 21.5358 31.4465 21.4727 31.5663 21.4727H34.215Z" fill="#706993"/>
<path d="M26.8554 12.6037C26.8554 12.4775 26.7923 12.4145 26.6662 12.4145H25.7833C25.6634 12.4145 25.5941 12.3451 25.5941 12.2253V11.519C25.5941 11.3928 25.6634 11.3298 25.7833 11.3298H29.0122C29.1383 11.3298 29.2014 11.3928 29.2014 11.519V12.2253C29.2014 12.3451 29.1383 12.4145 29.0122 12.4145H28.1293C28.0095 12.4145 27.9401 12.4775 27.9401 12.6037V15.5551C27.9401 15.675 27.877 15.7443 27.7509 15.7443H27.0446C26.9247 15.7443 26.8554 15.675 26.8554 15.5551V12.6037ZM33.1558 12.7487C33.1558 12.3325 33.0675 11.2162 31.5729 11.2162C30.0782 11.2162 29.9899 12.3325 29.9899 12.7487V14.3254C29.9899 14.7416 30.0782 15.8578 31.5729 15.8578C33.0675 15.8578 33.1558 14.7416 33.1558 14.3254V12.7487ZM32.0711 13.9911C32.0711 14.4767 32.0395 14.7731 31.5729 14.7731C31.1062 14.7731 31.0746 14.4767 31.0746 13.9911V13.083C31.0746 12.5974 31.1062 12.301 31.5729 12.301C32.0395 12.301 32.0711 12.5974 32.0711 13.083V13.9911Z" fill="#706993"/>
<path d="M25.7689 9.31138C25.7689 9.72761 25.8572 10.8439 27.3519 10.8439C28.8465 10.8439 28.9348 9.72761 28.9348 9.31138V8.46C28.9348 8.33387 28.8717 8.2708 28.7456 8.2708H27.4843C27.3645 8.2708 27.2951 8.33387 27.2951 8.46V8.96452C27.2951 9.08434 27.3645 9.15372 27.4843 9.15372H27.8501C27.8501 9.46274 27.8185 9.75914 27.3519 9.75914C26.8852 9.75914 26.8536 9.46274 26.8536 8.97713V8.06899C26.8536 7.58339 26.8852 7.28698 27.3519 7.28698C27.7113 7.28698 27.8185 7.46357 27.8438 7.76628C27.8564 7.89872 27.9258 7.95548 28.0519 7.93025L28.7645 7.77259C28.878 7.74736 28.9348 7.67799 28.9285 7.56447C28.897 7.07256 28.6762 6.20226 27.3519 6.20226C25.8572 6.20226 25.7689 7.31852 25.7689 7.73475V9.31138ZM32.8643 6.31578C32.9904 6.31578 33.0535 6.37884 33.0535 6.50497V7.21131C33.0535 7.33113 32.9904 7.4005 32.8643 7.4005H31.3381C31.2183 7.4005 31.1489 7.46357 31.1489 7.5897V7.79151C31.1489 7.91133 31.2183 7.9807 31.3381 7.9807H32.3156C32.4417 7.9807 32.5048 8.04377 32.5048 8.1699V8.87623C32.5048 8.99605 32.4417 9.06542 32.3156 9.06542H31.3381C31.2183 9.06542 31.1489 9.12849 31.1489 9.25462V9.45643C31.1489 9.57625 31.2183 9.64562 31.3381 9.64562H32.8643C32.9904 9.64562 33.0535 9.70869 33.0535 9.83482V10.5412C33.0535 10.6673 32.9904 10.7303 32.8643 10.7303H30.2155C30.0957 10.7303 30.0263 10.661 30.0263 10.5412V6.50497C30.0263 6.37884 30.0957 6.31578 30.2155 6.31578H32.8643ZM35.1435 7.5897C35.1435 7.46357 35.0804 7.4005 34.9543 7.4005H34.0714C33.9515 7.4005 33.8822 7.33113 33.8822 7.21131V6.50497C33.8822 6.37884 33.9515 6.31578 34.0714 6.31578H37.3003C37.4264 6.31578 37.4895 6.37884 37.4895 6.50497V7.21131C37.4895 7.33113 37.4264 7.4005 37.3003 7.4005H36.4174C36.2976 7.4005 36.2282 7.46357 36.2282 7.5897V10.5412C36.2282 10.661 36.1651 10.7303 36.039 10.7303H35.3327C35.2128 10.7303 35.1435 10.661 35.1435 10.5412V7.5897Z" fill="#706993"/>
<path d="M25.4289 30.1691H25.6812L25.9398 28.6976H25.6875L25.4289 30.1691ZM26.7153 29.1475C26.5219 29.1475 26.3978 29.3177 26.3978 29.3177L26.4231 29.1727H26.1876L26.0131 30.1691H26.2654L26.3831 29.5006C26.3831 29.5006 26.4798 29.3829 26.6102 29.3829C26.7195 29.3829 26.7867 29.4439 26.7615 29.5868L26.6606 30.1691H26.9129L27.0222 29.5448C27.0642 29.3051 26.915 29.1475 26.7153 29.1475ZM27.8542 30.1691H28.1065L28.3861 28.5799H28.1338L27.8542 30.1691ZM28.9801 29.1475C28.6963 29.1475 28.4188 29.3934 28.4188 29.7214C28.4188 29.9694 28.5786 30.1944 28.9128 30.1944C29.1546 30.1944 29.3164 30.0556 29.3164 30.0556L29.1987 29.8622C29.1987 29.8622 29.0873 29.9631 28.9128 29.9631C28.7552 29.9631 28.6669 29.8496 28.6648 29.7613H29.4131C29.4384 29.6331 29.4405 29.5994 29.4405 29.5679C29.4405 29.3156 29.2597 29.1475 28.9801 29.1475ZM28.6921 29.5784C28.7194 29.4901 28.8203 29.3766 28.9801 29.3766C29.1336 29.3766 29.1966 29.4754 29.1966 29.5595C29.1966 29.5658 29.1945 29.5721 29.1945 29.5784H28.6921ZM29.5145 30.0136C29.5145 30.0136 29.6869 30.1944 29.9622 30.1944C30.1935 30.1944 30.4247 30.0808 30.4247 29.8643C30.4247 29.6772 30.2692 29.6099 30.1178 29.5763C29.9685 29.5427 29.9097 29.5217 29.9097 29.4712C29.9097 29.3934 30.0106 29.3682 30.0884 29.3682C30.2229 29.3682 30.3553 29.4628 30.3553 29.4628L30.4857 29.2715C30.4857 29.2715 30.3385 29.1475 30.0884 29.1475C29.8319 29.1475 29.6616 29.2967 29.6616 29.4754C29.6616 29.6457 29.8046 29.7319 29.9791 29.7697C30.1115 29.7991 30.1683 29.8118 30.1683 29.8706C30.1683 29.9463 30.0737 29.9736 29.9622 29.9736C29.7836 29.9736 29.6616 29.8328 29.6616 29.8328L29.5145 30.0136ZM30.5517 30.0136C30.5517 30.0136 30.7241 30.1944 30.9995 30.1944C31.2307 30.1944 31.4619 30.0808 31.4619 29.8643C31.4619 29.6772 31.3064 29.6099 31.155 29.5763C31.0058 29.5427 30.9469 29.5217 30.9469 29.4712C30.9469 29.3934 31.0478 29.3682 31.1256 29.3682C31.2601 29.3682 31.3926 29.4628 31.3926 29.4628L31.5229 29.2715C31.5229 29.2715 31.3757 29.1475 31.1256 29.1475C30.8691 29.1475 30.6988 29.2967 30.6988 29.4754C30.6988 29.6457 30.8418 29.7319 31.0163 29.7697C31.1487 29.7991 31.2055 29.8118 31.2055 29.8706C31.2055 29.9463 31.1109 29.9736 30.9995 29.9736C30.8208 29.9736 30.6988 29.8328 30.6988 29.8328L30.5517 30.0136ZM32.2972 29.3997H32.5137L32.4381 29.8307C32.4002 30.043 32.5432 30.1944 32.7345 30.1944C32.8795 30.1944 32.9804 30.1334 32.9804 30.1334L32.9089 29.9232C32.9089 29.9232 32.8543 29.9589 32.7996 29.9589C32.7324 29.9589 32.6714 29.9337 32.6924 29.8118L32.766 29.3997H33.0666L33.1066 29.1727H32.8059L32.8585 28.8763H32.6062L32.5537 29.1727H32.3372L32.2972 29.3997ZM33.8907 29.1475C33.7414 29.1475 33.6363 29.2463 33.5943 29.2925L33.7204 28.5799H33.4682L33.1886 30.1691H33.4408L33.5586 29.5006C33.5586 29.5006 33.6553 29.3829 33.7856 29.3829C33.8949 29.3829 33.9622 29.4439 33.9369 29.5868L33.836 30.1691H34.0883L34.1976 29.5448C34.2397 29.3051 34.0904 29.1475 33.8907 29.1475ZM34.7831 29.9841C34.7116 29.9841 34.6234 29.961 34.6234 29.8727C34.6234 29.7592 34.7495 29.7151 34.8357 29.7151C34.9723 29.7151 35.0543 29.7655 35.0543 29.7655L35.0354 29.8685C35.0354 29.8685 34.9345 29.9841 34.7831 29.9841ZM34.9303 29.1475C34.7222 29.1475 34.5246 29.2231 34.5246 29.2231L34.5897 29.4376C34.5897 29.4376 34.7495 29.3724 34.8945 29.3724C35.0038 29.3724 35.1153 29.4144 35.0921 29.5448L35.0795 29.6121C35.0795 29.6121 34.9702 29.5301 34.7957 29.5301C34.5792 29.5301 34.3627 29.6562 34.3627 29.8811C34.3627 30.0535 34.4846 30.1944 34.6906 30.1944C34.8903 30.1944 35.0228 30.043 35.0228 30.043L35.0017 30.1691H35.2351L35.3465 29.5301C35.3864 29.303 35.2162 29.1475 34.9303 29.1475ZM36.2108 29.1475C36.0174 29.1475 35.8933 29.3177 35.8933 29.3177L35.9186 29.1727H35.6831L35.5086 30.1691H35.7609L35.8786 29.5006C35.8786 29.5006 35.9753 29.3829 36.1057 29.3829C36.215 29.3829 36.2822 29.4439 36.257 29.5868L36.1561 30.1691H36.4084L36.5177 29.5448C36.5597 29.3051 36.4105 29.1475 36.2108 29.1475ZM38.2663 28.7754L38.0729 28.6282C38.0729 28.6282 37.5347 29.3198 37.5053 29.3619C37.4212 29.4817 37.3497 29.6163 37.3497 29.7487C37.3497 29.9652 37.4864 30.1944 37.8269 30.1944C38.1212 30.1944 38.3966 29.9484 38.3966 29.6415C38.3966 29.4123 38.2368 29.1979 37.9804 29.1979C37.9573 29.1979 37.9257 29.2042 37.9257 29.2042L38.2663 28.7754ZM37.9131 29.4334C38.0413 29.4334 38.138 29.5132 38.138 29.6415C38.138 29.8202 37.9951 29.9589 37.8332 29.9589C37.705 29.9589 37.6083 29.879 37.6083 29.7487C37.6083 29.5763 37.747 29.4334 37.9131 29.4334ZM39.2616 28.6724C38.839 28.6724 38.5952 29.1916 38.5952 29.6184C38.5952 29.9463 38.7276 30.1944 39.0766 30.1944C39.5012 30.1944 39.7409 29.6709 39.7409 29.2442C39.7409 28.9183 39.6084 28.6724 39.2616 28.6724ZM39.0766 29.9589C38.9189 29.9589 38.8495 29.816 38.8495 29.6184C38.8495 29.3156 39.0009 28.9078 39.2616 28.9078C39.4171 28.9078 39.4865 29.0487 39.4865 29.2442C39.4865 29.5469 39.3351 29.9589 39.0766 29.9589ZM40.427 30.0136C40.427 30.0136 40.5994 30.1944 40.8747 30.1944C41.106 30.1944 41.3372 30.0808 41.3372 29.8643C41.3372 29.6772 41.1817 29.6099 41.0303 29.5763C40.8811 29.5427 40.8222 29.5217 40.8222 29.4712C40.8222 29.3934 40.9231 29.3682 41.0009 29.3682C41.1354 29.3682 41.2679 29.4628 41.2679 29.4628L41.3982 29.2715C41.3982 29.2715 41.251 29.1475 41.0009 29.1475C40.7444 29.1475 40.5741 29.2967 40.5741 29.4754C40.5741 29.6457 40.7171 29.7319 40.8916 29.7697C41.024 29.7991 41.0808 29.8118 41.0808 29.8706C41.0808 29.9463 40.9862 29.9736 40.8747 29.9736C40.6961 29.9736 40.5741 29.8328 40.5741 29.8328L40.427 30.0136ZM42.0717 29.1475C41.7879 29.1475 41.5104 29.3934 41.5104 29.7214C41.5104 29.9694 41.6702 30.1944 42.0045 30.1944C42.2462 30.1944 42.4081 30.0556 42.4081 30.0556L42.2903 29.8622C42.2903 29.8622 42.1789 29.9631 42.0045 29.9631C41.8468 29.9631 41.7585 29.8496 41.7564 29.7613H42.5048C42.53 29.6331 42.5321 29.5994 42.5321 29.5679C42.5321 29.3156 42.3513 29.1475 42.0717 29.1475ZM41.7837 29.5784C41.8111 29.4901 41.912 29.3766 42.0717 29.3766C42.2252 29.3766 42.2882 29.4754 42.2882 29.5595C42.2882 29.5658 42.2861 29.5721 42.2861 29.5784H41.7837ZM43.1464 29.9589C43.0076 29.9589 42.913 29.858 42.913 29.7277C42.913 29.549 43.0623 29.3829 43.2473 29.3829C43.4049 29.3829 43.4827 29.4859 43.4827 29.4859L43.6635 29.3325C43.6635 29.3325 43.5521 29.1475 43.2473 29.1475C42.9446 29.1475 42.6523 29.3955 42.6523 29.7277C42.6523 29.9757 42.8247 30.1944 43.1464 30.1944C43.3902 30.1944 43.5521 30.0388 43.5521 30.0388L43.4154 29.8475C43.4154 29.8475 43.3166 29.9589 43.1464 29.9589ZM44.3027 29.1475C44.0168 29.1475 43.7183 29.3955 43.7183 29.7277C43.7183 29.9757 43.8865 30.1944 44.2144 30.1944C44.5003 30.1944 44.7988 29.9442 44.7988 29.6142C44.7988 29.3661 44.6306 29.1475 44.3027 29.1475ZM44.2144 29.9589C44.061 29.9589 43.979 29.8559 43.979 29.7277C43.979 29.549 44.1114 29.3829 44.3027 29.3829C44.4562 29.3829 44.5381 29.4859 44.5381 29.6142C44.5381 29.7928 44.4057 29.9589 44.2144 29.9589ZM45.6114 29.1475C45.418 29.1475 45.2939 29.3177 45.2939 29.3177L45.3192 29.1727H45.0837L44.9092 30.1691H45.1615L45.2792 29.5006C45.2792 29.5006 45.3759 29.3829 45.5062 29.3829C45.6156 29.3829 45.6828 29.4439 45.6576 29.5868L45.5567 30.1691H45.809L45.9183 29.5448C45.9603 29.3051 45.8111 29.1475 45.6114 29.1475ZM47.3138 28.5799H47.0615L46.9396 29.2715C46.9396 29.2715 46.8471 29.1475 46.6579 29.1475C46.3825 29.1475 46.0924 29.3829 46.0924 29.7319C46.0924 30.0157 46.2732 30.1944 46.494 30.1944C46.7 30.1944 46.8219 30.0388 46.8219 30.0388L46.8009 30.1691H47.0342L47.3138 28.5799ZM46.845 29.8097C46.845 29.8097 46.7504 29.9589 46.5801 29.9589C46.4309 29.9589 46.3531 29.8643 46.3531 29.7319C46.3531 29.5448 46.4919 29.3829 46.6811 29.3829C46.8471 29.3829 46.8976 29.5111 46.8976 29.5111L46.845 29.8097ZM47.301 30.0136C47.301 30.0136 47.4734 30.1944 47.7488 30.1944C47.98 30.1944 48.2113 30.0808 48.2113 29.8643C48.2113 29.6772 48.0557 29.6099 47.9043 29.5763C47.7551 29.5427 47.6962 29.5217 47.6962 29.4712C47.6962 29.3934 47.7971 29.3682 47.8749 29.3682C48.0094 29.3682 48.1419 29.4628 48.1419 29.4628L48.2722 29.2715C48.2722 29.2715 48.1251 29.1475 47.8749 29.1475C47.6184 29.1475 47.4482 29.2967 47.4482 29.4754C47.4482 29.6457 47.5911 29.7319 47.7656 29.7697C47.898 29.7991 47.9548 29.8118 47.9548 29.8706C47.9548 29.9463 47.8602 29.9736 47.7488 29.9736C47.5701 29.9736 47.4482 29.8328 47.4482 29.8328L47.301 30.0136ZM48.9584 28.6976H48.6977L48.5232 29.7487H48.7629L48.9584 28.6976ZM48.437 30.0283C48.437 30.1208 48.5106 30.1944 48.6031 30.1944C48.6956 30.1944 48.7692 30.1208 48.7692 30.0283C48.7692 29.9358 48.6956 29.8622 48.6031 29.8622C48.5106 29.8622 48.437 29.9358 48.437 30.0283Z" fill="#331E38"/>
<path d="M66.068 31.512C66.068 35.6792 67.5372 34.0729 63.6383 34.0729C59.7393 34.0729 60.7961 35.6792 60.7961 31.512C60.7961 27.3449 59.7393 23.9667 63.6383 23.9667C67.5372 23.9667 66.068 27.3449 66.068 31.512Z" fill="#E4BDA7"/>
<path d="M78.3638 30.1184C77.4036 29.0363 75.748 28.9375 74.6659 29.8977L66.9202 36.7708C66.2528 37.363 65.8708 38.2126 65.8708 39.1049V39.1049C65.8708 41.9412 69.3484 43.3067 71.2782 41.2282L78.3241 33.6393C79.2418 32.6509 79.2589 31.1272 78.3638 30.1184V30.1184Z" fill="#706993"/>
<path d="M75.1888 29.5882C73.2884 32.9458 77.4527 34.8198 78.8321 31.7746" stroke="#EDE7D9" stroke-width="0.520532"/>
<path d="M74.7399 31.5643C75.4327 34.0787 79.1194 33.6582 79.228 31.0523L79.8399 16.3775C79.897 15.0103 78.0266 14.5661 77.4628 15.8129V15.8129C77.4215 15.9043 77.3914 16.0003 77.3731 16.0988L74.6961 30.5403C74.633 30.8806 74.648 31.2307 74.7399 31.5643V31.5643Z" fill="#E4BDA7"/>
<path d="M55.816 40.7483C55.5947 36.9524 58.6133 33.7527 62.4156 33.7527H64.3613C68.0123 33.7527 70.9721 36.7124 70.9721 40.3634V60.5601H55.4081L56.3826 52.1797C56.4269 51.7986 56.438 51.4143 56.4156 51.0313L55.816 40.7483Z" fill="#706993"/>
<path d="M69.3063 23.7252C67.8488 28.9118 66.7474 31.7226 63.3983 31.7226C60.0491 31.7226 59.3381 29.0679 57.1779 23.7252C57.1779 19.4601 59.893 16.0026 63.2421 16.0026C66.5913 16.0026 69.3063 19.4601 69.3063 23.7252Z" fill="#E4BDA7"/>
<path d="M66.0156 16.9536C69.5662 18.9386 68.106 26.4417 69.9858 23.0792C68.031 22.5352 71.1022 14.2628 67.4845 14.2628C63.9338 12.2779 66.4432 12.065 61.8888 10.7712C65.1448 20.2546 62.4649 14.9686 66.0156 16.9536Z" fill="url(#paint0_linear_141_3576)"/>
<path d="M60.6066 16.9778C57.0559 18.9628 58.0368 27.1419 56.6364 23.1034C56.6364 17.7984 55.9547 14.287 59.1377 14.287C62.6884 12.3021 60.179 12.0892 64.7334 10.7954C70.0091 19.334 64.1573 14.9928 60.6066 16.9778Z" fill="url(#paint1_linear_141_3576)"/>
<path d="M58.0836 23.1251C58.0836 23.8677 58.2885 25.5283 57.6503 25.5283C57.0121 25.5283 55.7725 23.8677 55.7725 23.1251C55.7725 22.3825 56.2899 21.7805 56.9281 21.7805C57.5662 21.7805 58.0836 22.3825 58.0836 23.1251Z" fill="#E4BDA7"/>
<path d="M68.713 22.7607C68.713 23.5033 68.5082 25.1639 69.1464 25.1639C69.7845 25.1639 71.0241 23.5033 71.0241 22.7607C71.0241 22.0181 70.5068 21.4161 69.8686 21.4161C69.2304 21.4161 68.713 22.0181 68.713 22.7607Z" fill="#E4BDA7"/>
<path d="M61.042 30.0418C60.6321 29.5832 60.2894 29.0079 59.9375 28.3372C60.2437 28.6963 60.5713 29.0576 60.9077 29.3833C61.2708 29.7349 61.6624 30.0632 62.0673 30.3067C62.4674 30.5474 62.9271 30.7336 63.4142 30.7336C63.8937 30.7336 64.3513 30.5581 64.7542 30.3282C65.1617 30.0957 65.5584 29.7815 65.9281 29.4438C66.247 29.1524 66.5589 28.8311 66.853 28.5091C66.4853 29.1897 66.1488 29.7314 65.7596 30.1488C65.204 30.7447 64.5345 31.0891 63.4142 31.0891C62.3237 31.0891 61.6212 30.6898 61.042 30.0418Z" stroke="url(#paint2_linear_141_3576)" stroke-width="1.30133"/>
<path d="M66.053 25.9436C66.053 26.3805 65.7806 26.7934 65.3042 27.1033C64.829 27.4124 64.1647 27.6078 63.4243 27.6078C62.684 27.6078 62.0197 27.4124 61.5445 27.1033C61.0681 26.7934 60.7957 26.3805 60.7957 25.9436C60.7957 25.8308 60.8137 25.765 60.8348 25.7276C60.8529 25.6956 60.8768 25.6776 60.9155 25.6674C60.96 25.6556 61.0246 25.6546 61.1163 25.6691C61.2067 25.6834 61.313 25.711 61.4362 25.7479C61.5195 25.7729 61.6097 25.8019 61.7058 25.8328C62.1695 25.9821 62.7728 26.1764 63.4243 26.1764C64.0759 26.1764 64.6792 25.9821 65.1429 25.8328C65.239 25.8019 65.3292 25.7729 65.4125 25.7479C65.5357 25.711 65.642 25.6834 65.7323 25.6691C65.824 25.6546 65.8887 25.6556 65.9332 25.6674C65.9719 25.6776 65.9958 25.6956 66.0139 25.7276C66.035 25.765 66.053 25.8308 66.053 25.9436Z" fill="white" stroke="#D99584" stroke-width="0.260266"/>
<path d="M66.3393 25.8667C66.3393 25.9816 65.7087 26.0488 63.5037 26.0488C61.2987 26.0488 60.5093 26.0337 60.5093 25.9187C60.5093 25.8037 61.2987 24.4872 63.5037 24.4872C65.7087 24.4872 66.3393 25.7517 66.3393 25.8667Z" fill="url(#paint3_linear_141_3576)"/>
<path d="M64.6307 30.9566C64.6307 31.1444 63.98 30.5627 63.5167 31.4363C63.017 30.5107 62.3403 31.2294 62.3403 31.0416C62.3403 30.8538 62.6504 28.7036 63.5167 28.7036C64.3829 28.7036 64.6307 30.7688 64.6307 30.9566Z" fill="url(#paint4_linear_141_3576)"/>
<path d="M63.0008 24.0329C63.2401 23.993 62.7753 24.4162 62.4578 24.4162C62.0426 24.4162 61.787 24.2885 61.8828 24.0649C61.8828 23.8708 62.1403 23.7135 62.4578 23.7135C62.7753 23.7135 63.1925 24.001 63.0008 24.0329Z" fill="#F8D1BC"/>
<path d="M63.8014 24.0329C63.5622 23.993 64.0269 24.4162 64.3445 24.4162C64.7597 24.4162 65.0152 24.2885 64.9194 24.0649C64.9194 23.8708 64.662 23.7135 64.3445 23.7135C64.0269 23.7135 63.6098 24.001 63.8014 24.0329Z" fill="#F8D1BC"/>
<path d="M58.9869 20.9868H62.9234V22.1819C62.9234 23.2527 62.0554 24.1207 60.9846 24.1207H60.9258C59.855 24.1207 58.9869 23.2527 58.9869 22.1819V20.9868Z" fill="url(#paint5_linear_141_3576)" stroke="white" stroke-width="0.286635"/>
<path d="M63.9171 20.9868H67.8535V22.1819C67.8535 23.2527 66.9855 24.1207 65.9147 24.1207H65.8559C64.7851 24.1207 63.9171 23.2527 63.9171 22.1819V20.9868Z" fill="url(#paint6_linear_141_3576)" stroke="white" stroke-width="0.286635"/>
<path d="M64.049 22.301C64.049 22.2463 64.0328 22.1922 64.0014 22.1416C63.97 22.0911 63.924 22.0452 63.866 22.0066C63.808 21.9679 63.7391 21.9372 63.6634 21.9163C63.5876 21.8954 63.5063 21.8846 63.4243 21.8846C63.3423 21.8846 63.2611 21.8954 63.1853 21.9163C63.1095 21.9372 63.0406 21.9679 62.9826 22.0066C62.9246 22.0452 62.8786 22.0911 62.8472 22.1416C62.8158 22.1922 62.7997 22.2463 62.7997 22.301L62.9826 22.7435C62.9826 22.725 63.2189 22.2643 63.2295 22.2472C63.2401 22.2302 63.2556 22.2147 63.2752 22.2016C63.2948 22.1886 63.318 22.1782 63.3436 22.1711C63.3692 22.1641 63.3966 22.1604 63.4243 22.1604C63.452 22.1604 63.4794 22.1641 63.505 22.1711C63.5306 22.1782 63.5538 22.1886 63.5734 22.2016C63.593 22.2147 63.6085 22.2302 63.6191 22.2472C63.6297 22.2643 63.866 22.725 63.866 22.7435L64.049 22.301Z" fill="white"/>
<rect x="63.0599" y="20.8435" width="0.728745" height="1.19722" fill="white"/>
<path d="M66.3393 34.3773C66.3393 35.8135 65.0692 37.1882 63.5024 37.1882C61.9357 37.1882 60.6655 35.6052 60.6655 34.1691C60.6655 32.733 61.7266 33.2877 63.2934 33.2877C64.8602 33.2877 66.3393 32.9412 66.3393 34.3773Z" fill="#E4BDA7"/>
<path d="M74.433 12.1033C75.9368 11.0078 77.2232 13.9373 78.066 13.3233C79.2648 14.9688 78.1143 16.659 77.5136 18.2863C76.0098 19.3818 78.1264 16.4921 76.9276 14.8466C75.7289 13.2011 72.9292 13.1988 74.433 12.1033Z" fill="#E4BDA7"/>
<path d="M75.9262 8.02469C77.1713 8.48089 77.5043 12.6357 78.5457 12.688C78.4436 14.7213 80.5044 15.9994 79.0142 16.8874C77.156 16.7942 77.0692 15.1 77.1713 13.0668C77.2734 11.0335 74.068 7.93141 75.9262 8.02469Z" fill="#E4BDA7"/>
<path d="M79.437 6.91013C79.9083 8.11648 78.9062 11.6438 79.6526 12.0593C78.8415 13.5164 79.516 15.0985 78.0995 15.2116C76.7678 14.4703 77.3174 13.194 78.1285 11.7368C78.9397 10.2796 78.1053 6.16883 79.437 6.91013Z" fill="#E4BDA7"/>
<path d="M81.8787 8.48524C82.6311 9.47714 79.6129 11.3177 80.6019 13.2697C79.5166 14.0931 79.2477 14.6352 78.1512 14.2544C77.3988 13.2625 78.2291 12.4885 79.3144 11.6652C80.3998 10.8419 81.1262 7.49335 81.8787 8.48524Z" fill="#E4BDA7"/>
<path d="M82.7818 11.9356C82.5215 12.5519 80.023 13.1328 80.2572 13.8355C79.3656 13.9735 79.5332 14.2615 79.0142 13.6943C78.8881 12.8795 79.6155 12.6899 80.5072 12.5519C81.3988 12.4139 82.6557 11.1207 82.7818 11.9356Z" fill="#E4BDA7"/>
<path d="M80.8391 13.0994C80.6891 13.5561 79.814 16.1877 79.8303 16.5491C79.2686 16.5744 78.1141 12.6651 77.8262 12.1766C77.7972 11.5317 77.971 12.3803 78.5327 12.355C79.0944 12.3297 80.81 12.4545 80.8391 13.0994Z" fill="#E4BDA7"/>
<path d="M56.5012 21.312H58.8436V21.8845C57.9247 21.5625 57.4111 21.5817 56.5012 21.8845V21.312Z" fill="white"/>
<path d="M69.3063 21.0517H68.005V21.6243C68.5155 21.3022 68.8009 21.3214 69.3063 21.6243V21.0517Z" fill="white"/>
<path d="M57.014 23.1859C56.2578 23.6344 57.4874 23.9173 57.014 24.4352" stroke="black" stroke-width="0.0520532"/>
<path d="M69.6264 22.8215C70.3826 23.27 69.1531 23.5529 69.6264 24.0708" stroke="black" stroke-width="0.0520532"/>
<ellipse cx="63.448" cy="24.0968" rx="1.18184" ry="0.702718" fill="#EEB8A7"/>
<path d="M66.1402 26.205C66.1402 26.7513 64.9859 28.2872 63.4335 28.2872C61.8811 28.2872 60.7007 26.569 60.7007 26.0228C60.7007 25.4766 61.8811 27.4076 63.4335 27.4076C64.9859 27.4076 66.1402 25.6588 66.1402 26.205Z" fill="#D99584"/>
<path d="M66.1402 26.205C66.1402 26.7513 64.9859 28.2872 63.4335 28.2872C61.8811 28.2872 60.7007 26.569 60.7007 26.0228C60.7007 25.4766 61.8811 27.4076 63.4335 27.4076C64.9859 27.4076 66.1402 25.6588 66.1402 26.205Z" fill="#D99584"/>
<path d="M66.1402 26.205C66.1402 26.7513 64.9859 28.2872 63.4335 28.2872C61.8811 28.2872 60.7007 26.569 60.7007 26.0228C60.7007 25.4766 61.8811 27.4076 63.4335 27.4076C64.9859 27.4076 66.1402 25.6588 66.1402 26.205Z" fill="#D99584"/>
<path d="M68.7752 24.8002C68.6126 26.4579 67.3896 31.3062 64.7089 31.072C66.843 25.7105 67.7635 26.4094 67.9262 24.7516C68.0888 23.0939 68.8299 21.6102 69.2376 21.6502C68.716 24.8928 68.9378 23.1424 68.7752 24.8002Z" fill="#79643D"/>
<path d="M58.0658 24.708C58.2285 26.3657 59.4515 31.214 62.1322 30.9798C59.9981 25.6183 59.0775 26.3172 58.9149 24.6595C58.7523 23.0017 57.9852 21.6884 57.5775 21.7284C58.099 24.9709 57.9032 23.0502 58.0658 24.708Z" fill="#79643D"/>
<path d="M62.6248 19.9265C62.693 20.294 61.7734 19.8807 60.8069 20.0602C59.8404 20.2397 59.5622 20.4953 59.1438 20.8534C59.0756 20.4859 59.8038 20.0425 60.7703 19.8631C61.7368 19.6836 62.5565 19.5591 62.6248 19.9265Z" fill="#A78E64"/>
<path d="M64.0889 19.8081C64.0146 20.1732 65.0103 19.868 65.998 20.0689C66.9857 20.2698 67.2675 20.5311 67.6918 20.8979C67.7661 20.5328 67.0256 20.0739 66.0379 19.873C65.0501 19.6721 64.1632 19.4429 64.0889 19.8081Z" fill="#A78E64"/>
<path d="M87.4738 39.3916L88.4658 41.0337L70.106 52.9226L68.7064 50.6057L87.4738 39.3916Z" fill="url(#paint7_linear_141_3576)"/>
<line x1="88.6957" y1="38.8044" x2="59.0563" y2="56.5109" stroke="#C6C6C6" stroke-width="0.0520532"/>
<line x1="89.8575" y1="38.4965" x2="59.3362" y2="56.9499" stroke="#C6C6C6" stroke-width="0.0520532"/>
<line x1="91.2108" y1="38.0047" x2="59.6159" y2="57.3887" stroke="#C6C6C6" stroke-width="0.0520532"/>
<line x1="92.169" y1="37.7646" x2="59.9516" y2="57.9154" stroke="#C6C6C6" stroke-width="0.0520532"/>
<line x1="93.1871" y1="37.4248" x2="60.2595" y2="58.3983" stroke="#C6C6C6" stroke-width="0.0520532"/>
<line x1="94.3208" y1="37.0729" x2="60.5113" y2="58.7934" stroke="#C6C6C6" stroke-width="0.0520532"/>
<path d="M60.4312 34.0492C61.6024 37.3806 64.9599 38.4477 66.5735 34.1273" stroke="#EDE7D9" stroke-width="0.520532"/>
<path d="M54.5211 51.9168C53.0938 51.8744 52.1095 50.47 52.5567 49.1139L56.1158 38.3221C56.1521 38.2119 56.227 38.1185 56.3267 38.059V38.059C56.6536 37.864 57.0669 38.1069 57.0557 38.4874L56.7186 49.846C56.6836 51.0246 55.6997 51.9518 54.5211 51.9168V51.9168Z" fill="#706993"/>
<g opacity="0.7" clip-path="url(#clip1_141_3576)">
<path d="M55.5733 14.8539C54.2729 14.8539 53.0017 15.2395 51.9205 15.9619C50.8393 16.6844 49.9965 17.7113 49.4989 18.9127C49.0013 20.1141 48.8711 21.4361 49.1248 22.7115C49.3784 23.9869 50.0046 25.1584 50.9242 26.0779C51.8437 26.9974 53.0152 27.6236 54.2906 27.8773C55.566 28.131 56.888 28.0008 58.0894 27.5032C59.2908 27.0055 60.3176 26.1628 61.0401 25.0816C61.7626 24.0003 62.1482 22.7291 62.1482 21.4288C62.1461 19.6856 61.4527 18.0145 60.2202 16.7819C58.9876 15.5493 57.3164 14.8559 55.5733 14.8539V14.8539ZM55.5733 26.8082C54.5093 26.8082 53.4693 26.4927 52.5846 25.9016C51.7 25.3105 51.0105 24.4703 50.6033 23.4874C50.1962 22.5044 50.0896 21.4228 50.2972 20.3793C50.5048 19.3358 51.0171 18.3772 51.7695 17.6249C52.5218 16.8726 53.4803 16.3602 54.5238 16.1527C55.5673 15.9451 56.649 16.0516 57.6319 16.4588C58.6149 16.866 59.455 17.5555 60.0461 18.4401C60.6372 19.3247 60.9527 20.3648 60.9527 21.4288C60.951 22.8549 60.3837 24.2222 59.3752 25.2307C58.3668 26.2391 56.9995 26.8065 55.5733 26.8082V26.8082ZM54.3779 19.0379L57.9642 21.4288L54.3779 23.8196V19.0379Z" fill="white"/>
</g>
</g>
<defs>
<linearGradient id="paint0_linear_141_3576" x1="60.058" y1="14.046" x2="71.4694" y2="20.4254" gradientUnits="userSpaceOnUse">
<stop stop-color="#64543B"/>
<stop offset="1" stop-color="#62523B"/>
</linearGradient>
<linearGradient id="paint1_linear_141_3576" x1="66.6358" y1="14.1109" x2="55.0903" y2="20.5653" gradientUnits="userSpaceOnUse">
<stop stop-color="#66553B"/>
<stop offset="1" stop-color="#4F4638"/>
</linearGradient>
<linearGradient id="paint2_linear_141_3576" x1="63.4026" y1="22.0401" x2="63.4026" y2="31.7398" gradientUnits="userSpaceOnUse">
<stop stop-color="#63533B"/>
<stop offset="1" stop-color="#836B3D"/>
</linearGradient>
<linearGradient id="paint3_linear_141_3576" x1="63.4243" y1="24.4872" x2="63.4243" y2="26.0488" gradientUnits="userSpaceOnUse">
<stop stop-color="#806A32"/>
<stop offset="1" stop-color="#A89D7D"/>
</linearGradient>
<linearGradient id="paint4_linear_141_3576" x1="63.4855" y1="28.7036" x2="63.4855" y2="31.2542" gradientUnits="userSpaceOnUse">
<stop stop-color="#BEA669"/>
<stop offset="0.0001" stop-color="#B3A16D"/>
<stop offset="0.578125" stop-color="#80693D"/>
<stop offset="0.677083" stop-color="#80693D"/>
</linearGradient>
<linearGradient id="paint5_linear_141_3576" x1="60.9552" y1="20.8435" x2="60.9552" y2="24.264" gradientUnits="userSpaceOnUse">
<stop/>
<stop offset="1" stop-color="#777777"/>
</linearGradient>
<linearGradient id="paint6_linear_141_3576" x1="65.8853" y1="20.8435" x2="65.8853" y2="24.264" gradientUnits="userSpaceOnUse">
<stop/>
<stop offset="1" stop-color="#777777"/>
</linearGradient>
<linearGradient id="paint7_linear_141_3576" x1="88.1193" y1="40.4601" x2="69.4062" y2="51.7641" gradientUnits="userSpaceOnUse">
<stop stop-color="#8E5A3C"/>
<stop offset="1" stop-color="#6A4E36"/>
</linearGradient>
<clipPath id="clip0_141_3576">
<rect width="63.0652" height="35.518" fill="white" transform="translate(24 4)"/>
</clipPath>
<clipPath id="clip1_141_3576">
<rect width="14.3452" height="14.3452" fill="white" transform="translate(48.4007 14.2562)"/>
</clipPath>
</defs>
</svg>
