<svg width="3382" height="2628" viewBox="0 0 3382 2628" fill="none" xmlns="http://www.w3.org/2000/svg">
<g filter="url(#filter0_d_178_1543)">
<rect x="343.953" y="25" width="2988.05" height="2526.13" fill="url(#paint0_linear_178_1543)"/>
<path d="M3117.44 26.0835L3117.44 2552.21L230.438 2552.21C130.785 2552.21 50 2471.43 50 2371.77L50 206.521C50 106.868 130.785 26.0835 230.438 26.0835L3117.44 26.0835Z" fill="url(#paint1_linear_178_1543)"/>
<path d="M3117.44 26.0835L3117.44 2552.21L230.438 2552.21C130.785 2552.21 50 2471.43 50 2371.77L50 206.521C50 106.868 130.785 26.0835 230.438 26.0835L3117.44 26.0835Z" fill="url(#paint2_linear_178_1543)"/>
<path d="M2000.47 1105.57L2321.73 791.665C2356.23 758.093 2371.53 709.061 2344.28 672.579C2340.21 667.134 2334.77 662.927 2329.09 659.196L2322.24 654.696C2316.17 650.706 2309.7 647.156 2302.56 645.841C2257.15 637.482 2200.48 674.134 2166.18 707.515" stroke="white" stroke-width="18.7046" stroke-linecap="square"/>
<path d="M1906.77 960.052L2258 618.296C2292.5 584.724 2307.8 535.692 2280.55 499.21C2276.49 493.765 2271.04 489.558 2265.36 485.827L2258.51 481.327C2252.44 477.337 2245.98 473.787 2238.83 472.472C2193.42 464.113 2136.76 500.765 2102.45 534.146" stroke="white" stroke-width="18.7046" stroke-linecap="square"/>
<line x1="2102.01" y1="534.307" x2="1655.84" y2="962.63" stroke="white" stroke-width="18.9724"/>
<path d="M1660.74 956.227L2011.97 614.472C2046.47 580.899 2061.77 531.868 2034.52 495.386C2030.46 489.941 2025.01 485.734 2019.33 482.003L2012.48 477.503C2006.41 473.513 1999.94 469.963 1992.8 468.648C1947.39 460.288 1890.72 496.94 1856.42 530.321" stroke="white" stroke-width="18.7046" stroke-linecap="square"/>
<path d="M1851.97 534.475L1302.53 1036.74" stroke="white" stroke-width="18.9724"/>
<line x1="2228.18" y1="649.018" x2="1863.64" y2="1000.88" stroke="white" stroke-width="18.9724"/>
<path d="M2049.55 1261.09L2313.08 1008.17C2343.08 978.983 2356.38 936.353 2332.69 904.633C2329.15 899.9 2324.42 896.242 2319.48 892.998L2313.52 889.085C2308.25 885.616 2302.62 882.529 2296.41 881.386C2256.93 874.118 2207.66 905.985 2177.84 935.008" stroke="white" stroke-width="16.2627" stroke-linecap="square"/>
<path d="M2303.23 809.826L1998.79 1109.19" stroke="white" stroke-width="18.9724"/>
<path d="M1145.79 957.592C1268.73 777.062 1341.33 571.154 1404.79 622.953C1468.25 674.751 1420.04 863.089 1297.1 1043.62" stroke="white" stroke-width="18.9686"/>
<path d="M1740.39 1383.33L1658.68 1126.44C1650.07 1099.36 1621.14 1084.4 1594.07 1093.01L1586.22 1095.5C1559.15 1104.12 1544.18 1133.05 1552.79 1160.12" stroke="white" stroke-width="18.9686" stroke-linecap="square"/>
<line x1="1554.94" y1="1166.65" x2="1686.43" y2="1585.61" stroke="white" stroke-width="18.9686"/>
<path d="M1818.06 1247.21L1738.35 989.699C1729.94 962.558 1701.13 947.367 1673.99 955.769L1666.13 958.203C1638.99 966.605 1623.79 995.418 1632.2 1022.56" stroke="white" stroke-width="18.9686" stroke-linecap="square"/>
<line x1="1634.84" y1="1030.6" x2="1743.58" y2="1392.31" stroke="white" stroke-width="18.9686"/>
<path d="M1941.22 1262.89L1861.5 1005.38C1853.1 978.24 1824.29 963.049 1797.15 971.451L1789.28 973.885C1762.14 982.287 1746.95 1011.1 1755.35 1038.24" stroke="white" stroke-width="18.9686" stroke-linecap="square"/>
<line x1="1757.78" y1="1046.11" x2="1847.01" y2="1341.85" stroke="white" stroke-width="18.9686"/>
<path d="M2061.45 1306.24L1990.49 1077.01C1983.01 1052.85 1957.36 1039.33 1933.2 1046.81L1926.2 1048.98C1902.04 1056.45 1888.52 1082.1 1896 1106.26" stroke="white" stroke-width="18.9686" stroke-linecap="square"/>
<line x1="1894.2" y1="1097.16" x2="1945.44" y2="1271.37" stroke="white" stroke-width="18.9686"/>
<path d="M2063.69 1313.7L2083.96 1375.19" stroke="white" stroke-width="18.9686"/>
<path d="M1626.76 1671.29C1554.42 1600.35 1463.14 1556.83 1496.71 1522.59C1530.29 1488.35 1616.15 1518.1 1688.49 1589.04" stroke="white" stroke-width="18.9686"/>
<path d="M1148.42 955.472C1009.38 1144.88 1015.82 1246.39 977.637 1277.69" stroke="white" stroke-width="18.9686"/>
<path d="M1296.74 1042.72C1367.02 1179.87 1255.76 1236.85 1296.74 1295.62" stroke="white" stroke-width="18.9686" stroke-linecap="round"/>
<path d="M2083.9 1375.14C2145.18 1561.96 2004.72 1635.69 2059.38 1682.02" stroke="white" stroke-width="18.9686"/>
<path d="M1627.67 1674.01C1467.92 1788.61 1430.37 1716.66 1435.28 1767.45" stroke="white" stroke-width="18.9686"/>
<path d="M1626.64 1671.02C1643.11 1686.43 1730.75 1750.7 1783.86 1753.88" stroke="white" stroke-width="18.9686"/>
<path d="M870.537 2094.73V2059.51L1010.59 1862.99H870.263V1814.07H1085.15V1849.29L944.951 2045.81H1085.42V2094.73H870.537ZM1130.95 2094.73V1814.07H1190.29V1937.82H1193.99L1294.99 1814.07H1366.12L1261.96 1939.74L1367.35 2094.73H1296.36L1219.48 1979.34L1190.29 2014.97V2094.73H1130.95ZM1397.02 2094.73V1814.07H1456.36V1929.87H1576.82V1814.07H1636.02V2094.73H1576.82V1978.79H1456.36V2094.73H1397.02ZM1942.86 1954.4C1942.86 1985.01 1937.06 2011.05 1925.46 2032.52C1913.94 2053.99 1898.23 2070.38 1878.31 2081.71C1858.49 2092.95 1836.2 2098.57 1811.44 2098.57C1786.49 2098.57 1764.11 2092.91 1744.29 2081.58C1724.46 2070.25 1708.79 2053.85 1697.28 2032.38C1685.77 2010.91 1680.01 1984.92 1680.01 1954.4C1680.01 1923.79 1685.77 1897.76 1697.28 1876.29C1708.79 1854.82 1724.46 1838.46 1744.29 1827.23C1764.11 1815.9 1786.49 1810.23 1811.44 1810.23C1836.2 1810.23 1858.49 1815.9 1878.31 1827.23C1898.23 1838.46 1913.94 1854.82 1925.46 1876.29C1937.06 1897.76 1942.86 1923.79 1942.86 1954.4ZM1882.7 1954.4C1882.7 1934.58 1879.73 1917.86 1873.79 1904.24C1867.94 1890.63 1859.68 1880.31 1848.99 1873.27C1838.3 1866.24 1825.78 1862.72 1811.44 1862.72C1797.09 1862.72 1784.58 1866.24 1773.89 1873.27C1763.2 1880.31 1754.88 1890.63 1748.95 1904.24C1743.1 1917.86 1740.17 1934.58 1740.17 1954.4C1740.17 1974.23 1743.1 1990.95 1748.95 2004.56C1754.88 2018.17 1763.2 2028.5 1773.89 2035.53C1784.58 2042.56 1797.09 2046.08 1811.44 2046.08C1825.78 2046.08 1838.3 2042.56 1848.99 2035.53C1859.68 2028.5 1867.94 2018.17 1873.79 2004.56C1879.73 1990.95 1882.7 1974.23 1882.7 1954.4ZM2244.73 1954.4C2244.73 1985.01 2238.93 2011.05 2227.33 2032.52C2215.81 2053.99 2200.1 2070.38 2180.18 2081.71C2160.36 2092.95 2138.07 2098.57 2113.31 2098.57C2088.37 2098.57 2065.98 2092.91 2046.16 2081.58C2026.33 2070.25 2010.66 2053.85 1999.15 2032.38C1987.64 2010.91 1981.88 1984.92 1981.88 1954.4C1981.88 1923.79 1987.64 1897.76 1999.15 1876.29C2010.66 1854.82 2026.33 1838.46 2046.16 1827.23C2065.98 1815.9 2088.37 1810.23 2113.31 1810.23C2138.07 1810.23 2160.36 1815.9 2180.18 1827.23C2200.1 1838.46 2215.81 1854.82 2227.33 1876.29C2238.93 1897.76 2244.73 1923.79 2244.73 1954.4ZM2184.57 1954.4C2184.57 1934.58 2181.6 1917.86 2175.66 1904.24C2169.81 1890.63 2161.55 1880.31 2150.86 1873.27C2140.17 1866.24 2127.65 1862.72 2113.31 1862.72C2098.96 1862.72 2086.45 1866.24 2075.76 1873.27C2065.07 1880.31 2056.75 1890.63 2050.82 1904.24C2044.97 1917.86 2042.04 1934.58 2042.04 1954.4C2042.04 1974.23 2044.97 1990.95 2050.82 2004.56C2056.75 2018.17 2065.07 2028.5 2075.76 2035.53C2086.45 2042.56 2098.96 2046.08 2113.31 2046.08C2127.65 2046.08 2140.17 2042.56 2150.86 2035.53C2161.55 2028.5 2169.81 2018.17 2175.66 2004.56C2181.6 1990.95 2184.57 1974.23 2184.57 1954.4ZM2288.69 2094.73V1814.07H2348.03V2045.81H2468.35V2094.73H2288.69Z" fill="white"/>
</g>
<defs>
<filter id="filter0_d_178_1543" x="0" y="0" width="3382" height="2627.21" filterUnits="userSpaceOnUse" color-interpolation-filters="sRGB">
<feFlood flood-opacity="0" result="BackgroundImageFix"/>
<feColorMatrix in="SourceAlpha" type="matrix" values="0 0 0 0 0 0 0 0 0 0 0 0 0 0 0 0 0 0 127 0" result="hardAlpha"/>
<feOffset dy="25"/>
<feGaussianBlur stdDeviation="25"/>
<feComposite in2="hardAlpha" operator="out"/>
<feColorMatrix type="matrix" values="0 0 0 0 0 0 0 0 0 0 0 0 0 0 0 0 0 0 0.5 0"/>
<feBlend mode="normal" in2="BackgroundImageFix" result="effect1_dropShadow_178_1543"/>
<feBlend mode="normal" in="SourceGraphic" in2="effect1_dropShadow_178_1543" result="shape"/>
</filter>
<linearGradient id="paint0_linear_178_1543" x1="1837.98" y1="25" x2="1837.98" y2="2551.13" gradientUnits="userSpaceOnUse">
<stop offset="0.234375" stop-color="#FFC228"/>
<stop offset="1" stop-color="white"/>
</linearGradient>
<linearGradient id="paint1_linear_178_1543" x1="3117.44" y1="1289.15" x2="50" y2="1289.15" gradientUnits="userSpaceOnUse">
<stop stop-color="#002891"/>
<stop offset="1" stop-color="#2864FF"/>
</linearGradient>
<linearGradient id="paint2_linear_178_1543" x1="3117.44" y1="1289.15" x2="50" y2="1289.15" gradientUnits="userSpaceOnUse">
<stop stop-color="#002891"/>
<stop offset="1" stop-color="#2864FF"/>
</linearGradient>
</defs>
</svg>
