<svg width="150" height="150" viewBox="0 0 150 150" fill="none" xmlns="http://www.w3.org/2000/svg">
<path d="M55.5368 62.9557C60.2383 79.686 63.791 88.7531 74.5945 88.7531C85.398 88.7531 87.6915 80.1897 94.6597 62.9557C94.6597 49.1976 85.9018 38.0444 75.0983 38.0444C64.2948 38.0444 55.5368 49.1976 55.5368 62.9557Z" fill="#E4BDA7"/>
<path d="M66.1518 41.1122C54.6983 47.5152 59.4085 71.7183 53.3449 60.8718C59.6504 59.1169 49.7438 32.4325 61.4135 32.4325C72.867 26.0294 64.7724 25.3428 79.4637 21.1694C68.9607 51.7601 77.6054 34.7092 66.1518 41.1122Z" fill="url(#paint0_linear_141_3259)"/>
<path d="M83.5999 41.1904C95.0535 47.5934 91.8893 73.977 96.4068 60.95C96.4068 43.8373 98.6057 32.5106 88.3383 32.5106C76.8847 26.1076 84.9793 25.421 70.288 21.2476C53.2701 48.7907 72.1463 34.7874 83.5999 41.1904Z" fill="url(#paint1_linear_141_3259)"/>
<path d="M91.7384 61.0196C91.7384 63.4151 91.0776 68.7716 93.1362 68.7716C95.1949 68.7716 99.1934 63.4151 99.1934 61.0196C99.1934 58.6241 97.5245 56.6821 95.4659 56.6821C93.4073 56.6821 91.7384 58.6241 91.7384 61.0196Z" fill="#E4BDA7"/>
<path d="M57.4508 59.8443C57.4508 62.2398 58.1116 67.5963 56.053 67.5963C53.9944 67.5963 49.9959 62.2398 49.9959 59.8443C49.9959 57.4488 51.6647 55.5068 53.7234 55.5068C55.782 55.5068 57.4508 57.4488 57.4508 59.8443Z" fill="#E4BDA7"/>
<path d="M82.195 83.3311C83.5173 81.8516 84.6228 79.9957 85.7579 77.8324C84.7703 78.9906 83.7136 80.1561 82.6285 81.2067C81.457 82.3409 80.1938 83.3999 78.8879 84.1855C77.5973 84.9619 76.1144 85.5625 74.543 85.5625C72.9963 85.5625 71.5203 84.9963 70.2206 84.2547C68.9061 83.5047 67.6264 82.4913 66.4339 81.4018C65.4051 80.4619 64.3993 79.4257 63.4504 78.3868C64.6367 80.5824 65.7221 82.3296 66.9775 83.6762C68.7696 85.5984 70.9291 86.7093 74.543 86.7093C78.0606 86.7093 80.3269 85.4212 82.195 83.3311Z" stroke="url(#paint2_linear_141_3259)" stroke-width="4.19774"/>
<path d="M66.031 70.1115C66.031 71.5209 66.9098 72.8528 68.4466 73.8524C69.9796 74.8494 72.1223 75.4798 74.5105 75.4798C76.8986 75.4798 79.0413 74.8494 80.5743 73.8524C82.1112 72.8528 82.9899 71.5209 82.9899 70.1115C82.9899 69.7475 82.9318 69.5353 82.8635 69.4146C82.8053 69.3117 82.7283 69.2534 82.6032 69.2205C82.4599 69.1826 82.2513 69.1792 81.9554 69.226C81.6639 69.2722 81.3211 69.3613 80.9236 69.4804C80.6549 69.5608 80.3642 69.6544 80.0541 69.7542C78.5582 70.2358 76.6122 70.8623 74.5105 70.8623C72.4087 70.8623 70.4627 70.2358 68.9668 69.7542C68.6568 69.6544 68.3661 69.5608 68.0973 69.4804C67.6998 69.3613 67.3571 69.2722 67.0655 69.226C66.7697 69.1792 66.561 69.1826 66.4177 69.2205C66.2926 69.2534 66.2156 69.3117 66.1574 69.4146C66.0891 69.5353 66.031 69.7475 66.031 70.1115Z" fill="white" stroke="#D99584" stroke-width="0.839548"/>
<path d="M65.1077 69.8629C65.1077 70.2339 67.1418 70.4506 74.2545 70.4506C81.3673 70.4506 83.9136 70.4018 83.9136 70.0308C83.9136 69.6599 81.3673 65.4133 74.2545 65.4133C67.1418 65.4133 65.1077 69.492 65.1077 69.8629Z" fill="url(#paint3_linear_141_3259)"/>
<path d="M70.6192 86.2821C70.6192 86.888 72.7181 85.0116 74.2126 87.8297C75.8244 84.8437 78.0072 87.1622 78.0072 86.5563C78.0072 85.9505 77.0069 79.0144 74.2126 79.0144C71.4183 79.0144 70.6192 85.6762 70.6192 86.2821Z" fill="url(#paint4_linear_141_3259)"/>
<path d="M75.8768 63.9483C75.105 63.8197 76.6041 65.1847 77.6284 65.1847C78.9679 65.1847 79.7921 64.7726 79.483 64.0514C79.483 63.4254 78.6527 62.918 77.6284 62.918C76.6041 62.918 75.2586 63.8453 75.8768 63.9483Z" fill="#F8D1BC"/>
<path d="M73.294 63.9483C74.0658 63.8197 72.5667 65.1847 71.5424 65.1847C70.2029 65.1847 69.3787 64.7726 69.6877 64.0514C69.6877 63.4254 70.5181 62.918 71.5424 62.918C72.5667 62.918 73.9122 63.8453 73.294 63.9483Z" fill="#F8D1BC"/>
<path d="M88.8243 54.1222H76.1264V57.9772C76.1264 61.4312 78.9264 64.2313 82.3804 64.2313H82.5702C86.0243 64.2313 88.8243 61.4312 88.8243 57.9772V54.1222Z" fill="url(#paint5_linear_141_3259)" stroke="white" stroke-width="0.924608"/>
<path d="M72.9212 54.1222H60.2233V57.9772C60.2233 61.4312 63.0233 64.2313 66.4774 64.2313H66.6672C70.1212 64.2313 72.9212 61.4312 72.9212 57.9772V54.1222Z" fill="url(#paint6_linear_141_3259)" stroke="white" stroke-width="0.924608"/>
<path d="M72.4957 58.3613C72.4957 58.1849 72.5479 58.0103 72.6491 57.8473C72.7504 57.6843 72.8988 57.5362 73.0859 57.4115C73.273 57.2868 73.4951 57.1878 73.7396 57.1203C73.984 57.0528 74.2461 57.0181 74.5107 57.0181C74.7753 57.0181 75.0373 57.0528 75.2817 57.1203C75.5262 57.1878 75.7483 57.2868 75.9354 57.4115C76.1225 57.5362 76.2709 57.6843 76.3722 57.8473C76.4735 58.0103 76.5256 58.1849 76.5256 58.3613L75.9354 59.7886C75.9354 59.729 75.1733 58.2428 75.1391 58.1878C75.1049 58.1328 75.0548 58.0828 74.9916 58.0407C74.9285 57.9986 74.8535 57.9652 74.771 57.9424C74.6884 57.9196 74.6 57.9079 74.5107 57.9079C74.4213 57.9079 74.3329 57.9196 74.2504 57.9424C74.1678 57.9652 74.0928 57.9986 74.0297 58.0407C73.9665 58.0828 73.9164 58.1328 73.8822 58.1878C73.8481 58.2428 73.0859 59.729 73.0859 59.7886L72.4957 58.3613Z" fill="white"/>
<rect width="2.35073" height="3.86192" transform="matrix(-1 0 0 1 75.6857 53.6599)" fill="white"/>
<path d="M96.8425 55.1714H89.2865V57.0184C92.2508 55.9795 93.9075 56.0415 96.8425 57.0184V55.1714Z" fill="white"/>
<path d="M55.5369 54.3315H59.7347V56.1785C58.0878 55.1396 57.1675 55.2017 55.5369 56.1785V54.3315Z" fill="white"/>
<path d="M95.1886 61.2156C97.6279 62.6622 93.6617 63.5749 95.1886 65.2454" stroke="black" stroke-width="0.16791"/>
<path d="M54.5045 60.0403C52.0653 61.4869 56.0315 62.3996 54.5045 64.0701" stroke="black" stroke-width="0.16791"/>
<ellipse rx="3.81231" ry="2.26678" transform="matrix(-1 0 0 1 74.4343 64.1542)" fill="#EEB8A7"/>
<path d="M65.7496 70.9543C65.7496 72.7162 69.4733 77.6707 74.4809 77.6707C79.4885 77.6707 83.2961 72.1284 83.2961 70.3664C83.2961 68.6045 79.4885 74.8334 74.4809 74.8334C69.4733 74.8334 65.7496 69.1924 65.7496 70.9543Z" fill="#D99584"/>
<path d="M57.2501 66.4227C57.7747 71.77 61.7199 87.4093 70.3671 86.6538C63.4829 69.3591 60.5135 71.6135 59.989 66.2662C59.4644 60.9189 57.0739 56.1328 55.7587 56.2618C57.441 66.7214 56.7256 61.0753 57.2501 66.4227Z" fill="#79643D"/>
<path d="M91.7954 66.1255C91.2708 71.4728 87.3256 87.1121 78.6784 86.3566C85.5626 69.0619 88.532 71.3163 89.0566 65.969C89.5811 60.6217 92.0556 56.3852 93.3707 56.5142C91.6884 66.9738 92.32 60.7781 91.7954 66.1255Z" fill="#79643D"/>
<path d="M77.0895 50.7018C76.8694 51.8871 79.8358 50.554 82.9535 51.133C86.0712 51.712 86.9684 52.5364 88.3181 53.6915C88.5382 52.5063 86.1893 51.0761 83.0716 50.4971C79.9539 49.9181 77.3096 49.5165 77.0895 50.7018Z" fill="#A78E64"/>
<path d="M72.367 50.32C72.6066 51.4979 69.3948 50.5133 66.2087 51.1613C63.0226 51.8094 62.1135 52.6524 60.745 53.8356C60.5054 52.6577 62.8941 51.1775 66.0801 50.5294C69.2662 49.8814 72.1274 49.1421 72.367 50.32Z" fill="#A78E64"/>
<path d="M16.216 122H20.572L22.876 116.024H33.532L35.836 122H40.192L30.4 96.8H26.008L16.216 122ZM28.204 102.236L31.984 112.064H24.424L28.204 102.236ZM43.0624 122H52.1344C56.8864 122 60.5584 118.976 60.5584 114.548C60.5584 110.012 56.9944 108.716 56.6344 108.644C56.9944 108.536 59.2624 107.06 59.2624 104C59.2624 98.708 55.3384 96.8 51.2344 96.8H43.0624V122ZM51.9904 117.896H47.3824V111.2H51.9904C54.3664 111.2 56.1664 112.172 56.1664 114.548C56.1664 116.924 54.3664 117.896 51.9904 117.896ZM47.3824 107.096V100.904H51.0904C53.2144 100.904 54.8704 101.804 54.8704 104C54.8704 106.196 53.5024 107.096 51.0904 107.096H47.3824ZM75.6008 96.368C68.2568 96.368 62.8568 101.948 62.8568 109.4C62.8568 116.852 68.2568 122.432 75.6008 122.432C82.9448 122.432 88.3448 116.852 88.3448 109.4C88.3448 101.948 82.9448 96.368 75.6008 96.368ZM75.6008 118.328C70.5248 118.328 67.2488 114.26 67.2488 109.4C67.2488 104.54 70.5248 100.472 75.6008 100.472C80.6768 100.472 83.9528 104.54 83.9528 109.4C83.9528 114.26 80.6768 118.328 75.6008 118.328ZM107.366 112.316C107.366 115.916 105.53 118.328 101.966 118.328C98.366 118.328 96.566 115.916 96.566 112.316C96.566 104 96.566 96.8 96.566 96.8H92.246V112.856C92.246 118.4 96.026 122.432 101.966 122.432C107.906 122.432 111.686 118.4 111.686 112.856V96.8H107.366C107.366 96.8 107.366 104 107.366 112.316ZM121.819 122H126.139V100.904H133.087V96.8H114.871V100.904H121.819V122Z" fill="#F4E8C1"/>
<defs>
<linearGradient id="paint0_linear_141_3259" x1="85.3692" y1="31.733" x2="48.5592" y2="52.3112" gradientUnits="userSpaceOnUse">
<stop stop-color="#64543B"/>
<stop offset="1" stop-color="#62523B"/>
</linearGradient>
<linearGradient id="paint1_linear_141_3259" x1="64.1514" y1="31.9424" x2="101.394" y2="52.7625" gradientUnits="userSpaceOnUse">
<stop stop-color="#66553B"/>
<stop offset="1" stop-color="#4F4638"/>
</linearGradient>
<linearGradient id="paint2_linear_141_3259" x1="74.5806" y1="57.5196" x2="74.5806" y2="88.8082" gradientUnits="userSpaceOnUse">
<stop stop-color="#63533B"/>
<stop offset="1" stop-color="#836B3D"/>
</linearGradient>
<linearGradient id="paint3_linear_141_3259" x1="74.5106" y1="65.4133" x2="74.5106" y2="70.4506" gradientUnits="userSpaceOnUse">
<stop stop-color="#806A32"/>
<stop offset="1" stop-color="#A89D7D"/>
</linearGradient>
<linearGradient id="paint4_linear_141_3259" x1="74.3132" y1="79.0144" x2="74.3132" y2="87.242" gradientUnits="userSpaceOnUse">
<stop stop-color="#BEA669"/>
<stop offset="0.0001" stop-color="#B3A16D"/>
<stop offset="0.578125" stop-color="#80693D"/>
<stop offset="0.677083" stop-color="#80693D"/>
</linearGradient>
<linearGradient id="paint5_linear_141_3259" x1="82.4753" y1="53.6599" x2="82.4753" y2="64.6936" gradientUnits="userSpaceOnUse">
<stop/>
<stop offset="1" stop-color="#777777"/>
</linearGradient>
<linearGradient id="paint6_linear_141_3259" x1="66.5723" y1="53.6599" x2="66.5723" y2="64.6936" gradientUnits="userSpaceOnUse">
<stop/>
<stop offset="1" stop-color="#777777"/>
</linearGradient>
</defs>
</svg>
