<svg width="2858" height="2858" viewBox="0 0 2858 2858" fill="none" xmlns="http://www.w3.org/2000/svg">
<circle cx="1429" cy="1429" r="1429" fill="#323637"/>
<g filter="url(#filter0_i_102_2)">
<ellipse cx="1437.13" cy="567.218" rx="249.19" ry="144.87" fill="#C4C4C4"/>
</g>
<path d="M1685.45 567.218C1685.45 606.785 1657.86 642.768 1612.9 668.907C1567.96 695.034 1505.82 711.221 1437.13 711.221C1368.44 711.221 1306.3 695.034 1261.36 668.907C1216.4 642.768 1188.8 606.785 1188.8 567.218C1188.8 527.651 1216.4 491.668 1261.36 465.528C1306.3 439.402 1368.44 423.214 1437.13 423.214C1505.82 423.214 1567.96 439.402 1612.9 465.528C1657.86 491.668 1685.45 527.651 1685.45 567.218Z" stroke="#120000" stroke-width="1.7329"/>
<g filter="url(#filter1_i_102_2)">
<ellipse cx="1428.64" cy="776.552" rx="833.003" ry="212.106" fill="#77BED2"/>
</g>
<g filter="url(#filter2_i_102_2)">
<ellipse cx="1428.64" cy="931.644" rx="323.878" ry="91.3236" fill="#F2583E"/>
</g>
<g filter="url(#filter3_i_102_2)">
<path d="M1775.39 911.72C1775.39 966.272 1621.62 1010.5 1431.93 1010.5C1242.24 1010.5 1088.47 966.272 1088.47 911.72C1088.47 857.168 1242.24 812.945 1431.93 812.945C1621.62 812.945 1775.39 857.168 1775.39 911.72Z" fill="black" fill-opacity="0.02"/>
</g>
<path d="M2706.65 1434.19C2706.65 2140.29 2135.77 2712.54 1431.76 2712.54C727.74 2712.54 156.866 2140.29 156.866 1434.19C156.866 728.083 727.74 155.83 1431.76 155.83C2135.77 155.83 2706.65 728.083 2706.65 1434.19Z" stroke="#ED563D" stroke-width="69.3158"/>
<path d="M2779.78 1428.81C2779.78 2177.08 2174.81 2783.59 1428.64 2783.59C682.469 2783.59 77.4999 2177.08 77.4999 1428.81C77.4999 680.547 682.469 74.036 1428.64 74.036C2174.81 74.036 2779.78 680.547 2779.78 1428.81Z" stroke="#77BED2" stroke-width="34.6579"/>
<path d="M1428.64 924.195L2298.55 2401.49L2016.09 2566.46L1716.99 2664.2L1430.37 2685.86L1142.19 2653.97L860.594 2566.46L613.83 2401.49L1428.64 924.195Z" fill="#ED563D"/>
<g filter="url(#filter4_i_102_2)">
<path d="M1357.64 1592.59C1334.07 1652.35 1307.49 1689.96 1257.37 1670.2C1207.26 1650.43 1169.45 1564.14 1193.01 1504.38C1216.58 1444.62 1259.45 1428.84 1309.56 1448.61C1359.68 1468.37 1381.2 1532.84 1357.64 1592.59Z" fill="#323637"/>
</g>
<g filter="url(#filter5_i_102_2)">
<path d="M1316.95 1556.68C1313.11 1577.23 1307.76 1591.04 1294.58 1588.57C1281.41 1586.11 1269.03 1561.81 1272.87 1541.26C1276.72 1520.71 1286.87 1512.55 1300.05 1515.01C1313.23 1517.48 1320.8 1536.13 1316.95 1556.68Z" fill="#F2583E"/>
</g>
<g filter="url(#filter6_i_102_2)">
<path d="M1332.36 1558.38C1330.97 1577.92 1332.37 1591.7 1344.03 1592.53C1355.69 1593.37 1364.26 1574.51 1365.65 1554.97C1367.05 1535.43 1367.67 1525.34 1356 1524.51C1344.34 1523.67 1333.76 1538.84 1332.36 1558.38Z" fill="#F2583E"/>
</g>
<path d="M1132.5 1879.48C1082.73 1815.91 1093.91 1724.03 1157.47 1674.26C1194.1 1645.58 1247.04 1652.02 1275.71 1688.65L1478.05 1947.06L1322.08 2069.18C1308.03 2080.19 1287.72 2077.71 1276.72 2063.66L1132.5 1879.48Z" fill="#323637"/>
<path d="M1153.02 1656.85C1236.55 1639.43 1318.39 1693.01 1335.82 1776.54C1345.86 1824.67 1314.98 1871.82 1266.86 1881.86L1162.06 1903.73L1115.47 1680.38C1113.74 1672.07 1119.06 1663.94 1127.37 1662.2L1153.02 1656.85Z" fill="#323637"/>
<path d="M1270.26 1899.53L1361.83 1860.44L1413.89 1842.06L1497.36 1812.92L1545.76 1792.94C1576.29 1780.34 1611.22 1795.24 1623.26 1826L1624.09 1828.14C1625.32 1831.26 1623.24 1834.69 1619.91 1835.06C1618.52 1835.21 1617.13 1834.87 1615.97 1834.08L1607.15 1828.07C1601.7 1824.37 1594.5 1824.51 1589.21 1828.44C1584.75 1831.74 1578.86 1832.41 1573.78 1830.19L1571.59 1829.23C1565.16 1826.42 1557.72 1827.25 1552.07 1831.42L1471.21 1891.17C1467.53 1893.88 1463.53 1896.12 1459.29 1897.83L1295.42 1963.86L1270.26 1899.53Z" fill="#323637"/>
<path d="M1199.18 1747.15L1230.14 1879.17L1243.09 1953.24L1263.48 2071.91L1280.92 2150.02C1289.68 2189.28 1264.58 2228.11 1225.18 2236.22L1223.63 2236.54C1219.12 2237.47 1214.93 2233.94 1215.08 2229.34C1215.14 2227.47 1215.84 2225.68 1217.06 2224.26L1225.07 2215C1231.01 2208.11 1232.35 2198.36 1228.47 2190.13C1225.25 2183.3 1225.59 2175.33 1229.36 2168.79L1231.07 2165.85C1235.45 2158.26 1236.24 2149.12 1233.22 2140.89L1145.05 1901.09C1144.08 1898.46 1143.32 1895.75 1142.77 1892.99L1117.11 1764.05L1199.18 1747.15Z" fill="#323637"/>
<path d="M1275.82 1661.47L1259.19 1691.21C1257.53 1694.2 1255.58 1697.01 1253.38 1699.63L1242.69 1712.35L1220.28 1738.48C1220.08 1738.71 1219.9 1738.95 1219.75 1739.21C1207.43 1759.53 1180.57 1765.34 1160.96 1751.92L1133.89 1733.41C1132.69 1732.59 1132.97 1730.76 1134.35 1730.34C1134.78 1730.2 1135.24 1730.22 1135.65 1730.38L1152.07 1736.8C1154.27 1737.66 1156.62 1735.92 1156.44 1733.56C1156.27 1731.34 1158.36 1729.62 1160.51 1730.22L1165.57 1731.64C1170.16 1732.93 1174.65 1729.27 1174.3 1724.51L1171.61 1687.78C1171.1 1680.72 1172.88 1673.69 1176.7 1667.73L1209.69 1616.24L1275.82 1661.47Z" fill="#323637"/>
<path d="M1981.25 2054.18C1990.31 2077.61 1978.66 2103.95 1955.23 2113.01L1877.07 2143.23C1861.42 2149.29 1843.82 2141.5 1837.76 2125.84L1828.94 2103.02C1828.23 2101.19 1829.12 2099.12 1830.95 2098.39L1883.23 2077.34C1884.3 2076.91 1885.52 2077 1886.51 2077.6L1887.77 2078.35L1889.75 2079.2L1891.79 2080.11C1892.12 2080.26 1892.48 2080.35 1892.83 2080.4L1894.56 2080.61L1897.1 2080.61L1899.37 2080.61L1901.49 2080.61L1903.61 2080.61L1905.59 2080.61L1906.89 2080.61C1907.34 2080.61 1907.79 2080.53 1908.21 2080.37L1911.25 2079.2L1924.27 2073.82L1933.89 2068.73L1965.62 2048.96C1971.31 2045.41 1978.83 2047.93 1981.25 2054.18Z" fill="#323637"/>
<path d="M1897.25 2211.51C1900.18 2239.53 1879.84 2264.63 1851.82 2267.56L1758.34 2277.35C1739.62 2279.32 1722.85 2265.72 1720.88 2247L1717.99 2219.37C1717.78 2217.36 1719.22 2215.55 1721.23 2215.31L1784.56 2207.8C1785.71 2207.66 1786.86 2208.07 1787.66 2208.9L1788.95 2210.25L1790.85 2211.75L1792.85 2213.37C1793.13 2213.6 1793.44 2213.79 1793.78 2213.93L1795.64 2214.69L1798.4 2215.44L1800.85 2216.1L1803.14 2216.72L1805.44 2217.35L1807.59 2217.93L1809.07 2218.33C1809.51 2218.45 1809.96 2218.48 1810.41 2218.44L1814.13 2218.06L1829.8 2216.05L1841.71 2213.36L1881.86 2201.27C1889.06 2199.1 1896.46 2204.02 1897.25 2211.51Z" fill="#323637"/>
<path d="M1505.85 1948.73C1503.58 1950.06 1500.66 1949.31 1499.33 1947.05L1492.79 1936C1489.42 1930.3 1491.31 1922.95 1497.01 1919.58L1668.74 1818.02L1671.94 1823.43C1678.49 1834.51 1674.82 1848.8 1663.75 1855.35L1505.85 1948.73Z" fill="#323637"/>
<path d="M1659.05 1823.18C1658.8 1825.8 1660.71 1828.12 1663.33 1828.37L1668.35 1828.85C1674.94 1829.48 1680.79 1824.65 1681.42 1818.06L1701.41 1608.68L1679.72 1606.61L1659.05 1823.18Z" fill="#323637"/>
<path d="M1373.12 2009.97C1371.3 2006.77 1372.41 2002.7 1375.61 2000.88L1599.85 1872.85C1605.6 1869.56 1612.92 1871.56 1616.21 1877.31L1649.58 1935.77L1472.22 2037.04C1437.38 2056.93 1393.01 2044.81 1373.12 2009.97Z" fill="#323637"/>
<path d="M1387.84 2068.8C1387.03 2067.38 1387.52 2065.58 1388.94 2064.77L1623.13 1931.06C1625.17 1929.9 1627.76 1930.6 1628.92 1932.64C1637.32 1947.36 1634.28 1965.95 1621.61 1977.21L1612.03 1985.74L1584.3 2005.55L1430.11 2081.72C1414.82 2089.27 1396.29 2083.61 1387.84 2068.8Z" fill="#323637"/>
<path d="M1278.64 2064.21L1474.11 1942.08C1496.51 1928.09 1526.02 1934.9 1540.02 1957.3C1556.21 1983.22 1546.66 2017.45 1519.39 2031.25L1471.61 2055.43L1419.53 2092.4C1373.21 2125.3 1308.75 2112.4 1278.64 2064.21Z" fill="#323637"/>
<path d="M1296.41 2082.89L1549.03 1925.05C1571.65 1910.92 1601.44 1917.8 1615.57 1940.42C1631.73 1966.28 1622.53 2000.41 1595.57 2014.65L1524.18 2052.36L1438 2112.07C1391.13 2144.54 1326.63 2131.25 1296.41 2082.89Z" fill="#323637"/>
<path d="M1464.61 2057.31L1290.21 1948.24C1259.75 1929.2 1250.5 1889.07 1269.55 1858.61L1282.58 1837.77C1298.82 1811.81 1334.43 1806.53 1357.5 1826.67L1414.32 1858.87C1484.51 1898.64 1507.39 1988.91 1464.61 2057.31Z" fill="#323637"/>
<path d="M1672.54 1932.7C1678.64 1930.14 1685.66 1933.01 1688.23 1939.11L1802.76 2211.54L1722.78 2245.17L1609.62 1989.05L1606.14 1973.23C1604.67 1966.54 1608.18 1959.76 1614.5 1957.1L1672.54 1932.7Z" fill="#323637"/>
<path d="M1654.01 1933.06C1656.53 1933.15 1658.51 1935.27 1658.42 1937.79L1657.28 1970.15L1623.11 1968.95L1623.36 1961.62C1623.94 1945.27 1637.66 1932.49 1654.01 1933.06Z" fill="#323637"/>
<path d="M1602.6 1885.39C1634.1 1856.27 1683.23 1858.19 1712.35 1889.68L1892.48 2084.5L1828.77 2143.4L1595.92 1891.57L1602.6 1885.39Z" fill="#323637"/>
<path d="M1437.27 2339.3L1509.9 2498.12H1364.63L1437.27 2339.3Z" fill="#323637"/>
<path d="M1437.44 2405.49L1524.93 2596.54H1349.95L1437.44 2405.49Z" fill="#323637"/>
<path d="M1437.09 2452.28L1554.06 2707.71L1437.09 2651.79L1320.12 2707.71L1437.09 2452.28Z" fill="#323637"/>
<rect x="1418.9" y="2581.21" width="36.7374" height="166.705" fill="#323637"/>
<path d="M1258.92 2392.99L1300.91 2534.56L1179.15 2517.25L1258.92 2392.99Z" fill="#323637"/>
<path d="M1251.54 2448.51L1302.15 2618.57L1155.54 2597.73L1251.54 2448.51Z" fill="#323637"/>
<path d="M1245.55 2487.05L1313.03 2715.82L1221.7 2654.86L1117 2687.95L1245.55 2487.05Z" fill="#323637"/>
<rect x="1215.22" y="2593.84" width="31" height="141" transform="rotate(8.09011 1215.22 2593.84)" fill="#323637"/>
<path d="M1605.65 2392.99L1563.66 2534.56L1685.41 2517.25L1605.65 2392.99Z" fill="#323637"/>
<path d="M1613.03 2448.51L1562.42 2618.57L1709.03 2597.73L1613.03 2448.51Z" fill="#323637"/>
<path d="M1619.01 2487.05L1551.54 2715.82L1642.87 2654.86L1747.57 2687.95L1619.01 2487.05Z" fill="#323637"/>
<rect width="31" height="141" transform="matrix(-0.990048 0.14073 0.14073 0.990048 1649.35 2593.84)" fill="#323637"/>
<path d="M1743.65 2422.52L1827.08 2507.2L1734.16 2541.02L1743.65 2422.52Z" fill="#323637"/>
<path d="M1758.64 2465.02L1859.08 2566.85L1747.15 2607.59L1758.64 2465.02Z" fill="#323637"/>
<path d="M1769.02 2495.13L1903.31 2631.28L1815.47 2622.74L1753.67 2685.74L1769.02 2495.13Z" fill="#323637"/>
<rect x="1786.89" y="2582.02" width="25.0066" height="113.473" transform="rotate(-20 1786.89 2582.02)" fill="#323637"/>
<path d="M1115.66 2422.52L1032.23 2507.2L1125.15 2541.02L1115.66 2422.52Z" fill="#323637"/>
<path d="M1100.67 2465.02L1000.23 2566.85L1112.16 2607.59L1100.67 2465.02Z" fill="#323637"/>
<path d="M1090.28 2495.13L956 2631.28L1043.84 2622.74L1105.64 2685.74L1090.28 2495.13Z" fill="#323637"/>
<rect width="25.0066" height="113.473" transform="matrix(-0.939693 -0.34202 -0.34202 0.939693 1072.42 2582.02)" fill="#323637"/>
<path d="M1420.22 928.67L620.898 2369.17C439.751 2201.09 292.445 1965 234.631 1724.48C175.916 1480.21 191.414 1223.74 279.101 988.512C366.788 753.281 522.591 550.216 726.18 405.783C929.767 261.351 1171.7 182.251 1420.42 178.784C1669.15 175.316 1913.15 247.643 2120.6 386.344C2328.05 525.046 2489.34 723.69 2583.42 956.386C2677.5 1189.08 2699.99 1445.02 2647.97 1690.83C2596.79 1932.67 2443.41 2176.98 2266.41 2350.32L1435.28 928.501L1427.6 915.37L1420.22 928.67Z" stroke="#F5B467" stroke-width="17.329"/>
<defs>
<filter id="filter0_i_102_2" x="1187.94" y="422.348" width="499.767" height="291.126" filterUnits="userSpaceOnUse" color-interpolation-filters="sRGB">
<feFlood flood-opacity="0" result="BackgroundImageFix"/>
<feBlend mode="normal" in="SourceGraphic" in2="BackgroundImageFix" result="shape"/>
<feColorMatrix in="SourceAlpha" type="matrix" values="0 0 0 0 0 0 0 0 0 0 0 0 0 0 0 0 0 0 127 0" result="hardAlpha"/>
<feOffset dx="69.3158" dy="1.38632"/>
<feGaussianBlur stdDeviation="0.693158"/>
<feComposite in2="hardAlpha" operator="arithmetic" k2="-1" k3="1"/>
<feColorMatrix type="matrix" values="0 0 0 0 0 0 0 0 0 0 0 0 0 0 0 0 0 0 0.2 0"/>
<feBlend mode="normal" in2="shape" result="effect1_innerShadow_102_2"/>
</filter>
<filter id="filter1_i_102_2" x="595.635" y="564.445" width="1677.79" height="424.213" filterUnits="userSpaceOnUse" color-interpolation-filters="sRGB">
<feFlood flood-opacity="0" result="BackgroundImageFix"/>
<feBlend mode="normal" in="SourceGraphic" in2="BackgroundImageFix" result="shape"/>
<feColorMatrix in="SourceAlpha" type="matrix" values="0 0 0 0 0 0 0 0 0 0 0 0 0 0 0 0 0 0 127 0" result="hardAlpha"/>
<feMorphology radius="10.3974" operator="erode" in="SourceAlpha" result="effect1_innerShadow_102_2"/>
<feOffset dx="20.7947"/>
<feGaussianBlur stdDeviation="0.693158"/>
<feComposite in2="hardAlpha" operator="arithmetic" k2="-1" k3="1"/>
<feColorMatrix type="matrix" values="0 0 0 0 0 0 0 0 0 0 0 0 0 0 0 0 0 0 0.2 0"/>
<feBlend mode="normal" in2="shape" result="effect1_innerShadow_102_2"/>
</filter>
<filter id="filter2_i_102_2" x="1104.76" y="840.32" width="649.489" height="199.976" filterUnits="userSpaceOnUse" color-interpolation-filters="sRGB">
<feFlood flood-opacity="0" result="BackgroundImageFix"/>
<feBlend mode="normal" in="SourceGraphic" in2="BackgroundImageFix" result="shape"/>
<feColorMatrix in="SourceAlpha" type="matrix" values="0 0 0 0 0 0 0 0 0 0 0 0 0 0 0 0 0 0 127 0" result="hardAlpha"/>
<feMorphology radius="34.6579" operator="erode" in="SourceAlpha" result="effect1_innerShadow_102_2"/>
<feOffset dx="1.7329" dy="17.329"/>
<feGaussianBlur stdDeviation="0.693158"/>
<feComposite in2="hardAlpha" operator="arithmetic" k2="-1" k3="1"/>
<feColorMatrix type="matrix" values="0 0 0 0 0 0 0 0 0 0 0 0 0 0 0 0 0 0 0.5 0"/>
<feBlend mode="normal" in2="shape" result="effect1_innerShadow_102_2"/>
</filter>
<filter id="filter3_i_102_2" x="1088.47" y="812.945" width="688.306" height="198.936" filterUnits="userSpaceOnUse" color-interpolation-filters="sRGB">
<feFlood flood-opacity="0" result="BackgroundImageFix"/>
<feBlend mode="normal" in="SourceGraphic" in2="BackgroundImageFix" result="shape"/>
<feColorMatrix in="SourceAlpha" type="matrix" values="0 0 0 0 0 0 0 0 0 0 0 0 0 0 0 0 0 0 127 0" result="hardAlpha"/>
<feOffset dx="1.7329" dy="17.329"/>
<feGaussianBlur stdDeviation="0.693158"/>
<feComposite in2="hardAlpha" operator="arithmetic" k2="-1" k3="1"/>
<feColorMatrix type="matrix" values="0 0 0 0 0 0 0 0 0 0 0 0 0 0 0 0 0 0 0.2 0"/>
<feBlend mode="normal" in2="shape" result="effect1_innerShadow_102_2"/>
</filter>
<filter id="filter4_i_102_2" x="1185.83" y="1440.54" width="185.414" height="239.015" filterUnits="userSpaceOnUse" color-interpolation-filters="sRGB">
<feFlood flood-opacity="0" result="BackgroundImageFix"/>
<feBlend mode="normal" in="SourceGraphic" in2="BackgroundImageFix" result="shape"/>
<feColorMatrix in="SourceAlpha" type="matrix" values="0 0 0 0 0 0 0 0 0 0 0 0 0 0 0 0 0 0 127 0" result="hardAlpha"/>
<feOffset dx="20.2605" dy="4.05209"/>
<feGaussianBlur stdDeviation="2.02605"/>
<feComposite in2="hardAlpha" operator="arithmetic" k2="-1" k3="1"/>
<feColorMatrix type="matrix" values="0 0 0 0 0 0 0 0 0 0 0 0 0 0 0 0 0 0 0.25 0"/>
<feBlend mode="normal" in2="shape" result="effect1_innerShadow_102_2"/>
</filter>
<filter id="filter5_i_102_2" x="1272.16" y="1514.59" width="49.8438" height="78.3226" filterUnits="userSpaceOnUse" color-interpolation-filters="sRGB">
<feFlood flood-opacity="0" result="BackgroundImageFix"/>
<feBlend mode="normal" in="SourceGraphic" in2="BackgroundImageFix" result="shape"/>
<feColorMatrix in="SourceAlpha" type="matrix" values="0 0 0 0 0 0 0 0 0 0 0 0 0 0 0 0 0 0 127 0" result="hardAlpha"/>
<feOffset dx="20.2605" dy="4.05209"/>
<feGaussianBlur stdDeviation="2.02605"/>
<feComposite in2="hardAlpha" operator="arithmetic" k2="-1" k3="1"/>
<feColorMatrix type="matrix" values="0 0 0 0 0 0 0 0 0 0 0 0 0 0 0 0 0 0 0.25 0"/>
<feBlend mode="normal" in2="shape" result="effect1_innerShadow_102_2"/>
</filter>
<filter id="filter6_i_102_2" x="1331.92" y="1524.47" width="38.5187" height="72.1403" filterUnits="userSpaceOnUse" color-interpolation-filters="sRGB">
<feFlood flood-opacity="0" result="BackgroundImageFix"/>
<feBlend mode="normal" in="SourceGraphic" in2="BackgroundImageFix" result="shape"/>
<feColorMatrix in="SourceAlpha" type="matrix" values="0 0 0 0 0 0 0 0 0 0 0 0 0 0 0 0 0 0 127 0" result="hardAlpha"/>
<feOffset dx="20.2605" dy="4.05209"/>
<feGaussianBlur stdDeviation="2.02605"/>
<feComposite in2="hardAlpha" operator="arithmetic" k2="-1" k3="1"/>
<feColorMatrix type="matrix" values="0 0 0 0 0 0 0 0 0 0 0 0 0 0 0 0 0 0 0.25 0"/>
<feBlend mode="normal" in2="shape" result="effect1_innerShadow_102_2"/>
</filter>
</defs>
</svg>
