<svg width="1069" height="749" viewBox="0 0 1069 749" fill="none" xmlns="http://www.w3.org/2000/svg">
<ellipse cx="194.887" cy="454.561" rx="129.483" ry="125.887" transform="rotate(58.865 194.887 454.561)" fill="#BAD8BA"/>
<path d="M273.812 684.921C218.29 696.671 239.342 597.713 216.794 560.386C194.246 523.06 165.602 540.885 199.608 520.343C233.614 499.801 339.08 447.475 361.628 484.802C384.176 522.128 304.151 678.5 273.812 684.921Z" fill="#BAD8BA"/>
<path d="M331.465 608.775C287.406 727.134 172.952 785.768 90.6904 574.232C31.1269 458.238 87.7033 331.616 126.138 395.242C187.313 396.806 290.951 395.626 327.926 456.836C364.902 518.047 325.599 572.399 331.465 608.775Z" fill="#BAD8BA"/>
<ellipse cx="388.279" cy="286.613" rx="26.9757" ry="25.7768" transform="rotate(58.865 388.279 286.613)" fill="#BAD8BA"/>
<path d="M328.9 390.878C291.807 383.375 200.861 320.688 270.353 318.63C329.54 308.789 343.042 285.926 345.191 282.527C375.315 234.872 367.223 370.412 410.038 335.383C402.32 373.536 365.993 398.382 328.9 390.878Z" fill="#BAD8BA"/>
<path d="M368.059 400.377C308.549 436.326 230.332 415.847 193.356 354.637C144.766 298.547 262.303 338.9 321.813 302.952C403.829 329.746 313.633 318.399 318.346 347.067C338.597 415.374 427.569 364.429 368.059 400.377Z" fill="#BAD8BA"/>
<path d="M409.855 522.901C391.281 465.488 141.462 538.864 104.486 477.654C67.5104 416.443 56.6952 310.427 286.803 319.197C388.251 380.475 427.437 313.177 464.413 374.387C510.483 378.774 444.147 369.822 409.855 522.901Z" fill="#BAD8BA"/>
<path d="M397.809 516.872C347.934 547 279.589 622.603 251.4 478.551C211.45 389.229 93.0252 357.816 202.664 373.526C335.63 351.334 411.661 229.093 442.645 280.385C510.519 493.609 422.349 403.3 397.809 516.872Z" fill="#BAD8BA"/>
<path d="M456.76 530.986C365.963 559.221 388.612 537.588 370.124 506.983C351.636 476.378 360.77 436.996 390.525 419.022C420.28 401.048 453.114 410.175 471.602 440.78C562.717 450.172 500.979 517.235 456.76 530.986Z" fill="#BAD8BA"/>
<path d="M497.905 504.03C440.949 538.435 408.317 457.751 389.829 427.146C371.341 396.541 355.112 403.296 451.916 389.641C482.783 432.625 499.64 431.547 513.898 455.15C522.266 469.002 516.262 492.941 497.905 504.03Z" fill="#BAD8BA"/>
<path d="M259.542 691.441C230.795 738.921 167.885 711.296 130.909 650.086C93.9336 588.875 112.201 510.112 171.712 474.164C231.222 438.215 309.439 458.694 346.415 519.905C370.427 608.35 301.152 579.462 259.542 691.441Z" fill="#BAD8BA"/>
<path d="M452.038 327.237C445.37 331.265 437.244 332.263 429.448 330.011C396.633 364.207 458.942 194.903 476.322 197.01C408.693 168.53 335.976 295.097 342.229 289.218C343.864 281.27 412.515 276.875 419.183 272.847L435.61 300.042L452.038 327.237Z" fill="#BAD8BA"/>
<ellipse cx="1022.71" cy="47.6433" rx="32.9703" ry="34.1692" transform="rotate(58.865 1022.71 47.6433)" fill="#D9D0B2"/>
<path d="M923.054 140.057C919.954 134.926 904.243 106.598 872.12 125.302C877.327 113.052 886.254 86.6496 902.406 76.8921C918.559 67.1347 975.172 39.6766 984.587 55.2626C991.117 73.0287 967.192 116.896 923.054 140.057Z" fill="#D9D0B2"/>
<path d="M482.656 424.298C465.137 410.369 256.997 528.397 436.494 492.803C377.242 515.289 394.237 341.143 416.057 327.962C437.877 314.781 529.203 347.156 514.323 356.145C476.866 378.772 453.625 401.215 482.656 424.298Z" fill="#BAD8BA"/>
<rect x="451.413" y="315.043" width="10.5631" height="52.681" rx="4.79568" transform="rotate(57.565 451.413 315.043)" fill="#C4C4C4"/>
<path d="M477.308 320.376C446.703 338.864 396.327 296.458 392.001 259.152C371.63 225.43 426.564 196.954 439.102 195.683C525.099 178.051 454.79 250.637 460.976 291.023C472.283 324.812 505.883 284.205 477.308 320.376Z" fill="#BAD8BA"/>
<path d="M847.657 88.2813L870.503 126.102L447.629 399.934L415.394 346.571L847.657 88.2813Z" fill="url(#paint0_linear_332_5579)"/>
<rect x="1030.65" y="11.9565" width="41.5509" height="191.855" rx="16.7849" transform="rotate(73.5057 1030.65 11.9565)" fill="#D9D0B2"/>
<path d="M370.32 552.519C338.439 568.144 328.685 641.269 311.924 640.188C295.164 639.107 330.861 530.132 347.297 520.203C363.733 510.275 427.188 520.291 433.008 529.926C464.334 538.886 387.562 544.068 370.32 552.519Z" fill="#BAD8BA"/>
<path d="M875.605 121.796C870.185 131.373 865.705 115.84 857.659 102.522C849.614 89.2026 848.146 75.3525 854.38 71.5864C860.614 67.8204 884.344 82.9303 892.389 96.2493C900.435 109.568 875.595 118.3 875.605 121.796Z" fill="#D9D0B2"/>
<rect x="857.907" y="82.063" width="44.36" height="11.9892" transform="rotate(58.865 857.907 82.063)" fill="#D9D0B2"/>
<path d="M970.875 44.5657C972.354 40.8299 977.017 39.5782 980.168 42.0711L1012.86 67.936C1017.91 71.9303 1013.97 79.9899 1007.72 78.4601L992.243 74.6746C989.911 74.1041 987.464 74.9798 986.023 76.9001L977.389 88.4094C975.758 90.5835 972.868 91.3882 970.348 90.3704L960.688 86.4685C957.634 85.2346 956.147 81.7668 957.36 78.7036L970.875 44.5657Z" fill="#D9D0B2"/>
<path d="M874.477 53.8438C870.226 56.4115 863.159 54.817 861.105 51.4164C859.051 48.0158 863.097 44.61 867.348 42.0423C871.599 39.4745 878.463 41.8922 880.517 45.2927C882.571 48.6933 878.728 51.276 874.477 53.8438Z" fill="url(#paint1_linear_332_5579)"/>
<path d="M901.49 45.2305C897.239 47.7982 890.172 46.2037 888.118 42.8031C886.063 39.4025 890.11 35.9968 894.361 33.429C898.612 30.8613 905.476 33.2789 907.53 36.6795C909.584 40.08 905.741 42.6627 901.49 45.2305Z" fill="url(#paint2_linear_332_5579)"/>
<path d="M926.76 38.3697C922.509 40.9374 915.442 39.3428 913.387 35.9423C911.333 32.5417 915.38 29.1359 919.631 26.5682C923.881 24.0004 930.745 26.418 932.8 29.8186C934.854 33.2192 931.01 35.8019 926.76 38.3697Z" fill="url(#paint3_linear_332_5579)"/>
<path d="M951.409 30.482C947.159 33.0497 940.092 31.4552 938.037 28.0546C935.983 24.654 940.03 21.2482 944.281 18.6805C948.531 16.1127 955.395 18.5303 957.45 21.9309C959.504 25.3315 955.66 27.9142 951.409 30.482Z" fill="url(#paint4_linear_332_5579)"/>
<path d="M976.68 23.6216C972.429 26.1894 965.362 24.5948 963.308 21.1942C961.253 17.7936 965.3 14.3879 969.551 11.8201C973.801 9.25237 980.666 11.67 982.72 15.0706C984.774 18.4712 980.93 21.0539 976.68 23.6216Z" fill="url(#paint5_linear_332_5579)"/>
<path d="M1001.95 16.7608C997.699 19.3285 990.632 17.734 988.577 14.3334C986.523 10.9328 990.57 7.52703 994.821 4.95928C999.071 2.39153 1005.94 4.80915 1007.99 8.20973C1010.04 11.6103 1006.2 14.193 1001.95 16.7608Z" fill="url(#paint6_linear_332_5579)"/>
<path d="M425.031 402.499C434.552 479.77 389.676 474.299 359.264 538.086C165.379 353.132 280.104 445.8 359.536 305.838C354.544 312.483 427.473 195.856 453.385 243.408C440.248 291.037 382.841 325.073 425.031 402.499Z" fill="#EDE7D9"/>
<path d="M444.8 328.674C418.007 344.163 365.846 377.329 390.289 343.615C382.414 304.08 443.472 232.86 449.359 237.639C467.757 256.482 429.605 265.372 437.48 304.907C442.617 330.703 493.109 300.746 444.8 328.674Z" fill="#EDE7D9"/>
<path d="M425.571 336.369L435.018 367.131L455.746 391.746L428.058 406.834L397.882 351.457L425.571 336.369Z" fill="#EDE7D9"/>
<path d="M499.893 469.845C489.981 475.246 468.575 464.107 459.368 447.211C450.162 430.315 382.624 444.252 465.055 391.791C476.181 384.711 447.111 400.217 456.317 417.112C467.43 437.506 501.492 447.151 499.893 469.845Z" fill="#EDE7D9"/>
<path d="M407.693 518.347C291.726 473.859 397.833 510.015 384.871 486.228C371.909 462.44 379.537 433.274 401.908 421.084C424.28 408.893 446.963 446.408 496.543 459.291C520.529 494.766 427.03 525.765 407.693 518.347Z" fill="#EDE7D9"/>
<rect x="431.239" y="378.5" width="53.7219" height="30.3646" transform="rotate(61.4134 431.239 378.5)" fill="#EDE7D9"/>
<path d="M455.747 391.746L459.112 397.029L445.393 409.358L440.364 400.128L455.747 391.746Z" fill="#EDE7D9"/>
<path d="M466.215 387.925L467.557 390.047L451.721 402.488L449.56 398.609L466.215 387.925Z" fill="#EDE7D9"/>
<path d="M337.679 555.833C308.511 571.727 284.715 574.572 279.468 564.943C274.222 555.315 293.614 534.625 322.782 518.731C351.95 502.837 433.3 501.881 438.547 511.509C443.202 524.933 375.586 511.903 337.679 555.833Z" fill="#EDE7D9"/>
<path d="M340.71 552.851C316.046 579.591 285.09 661.904 267.653 629.904C250.216 597.905 273.771 531.298 303.443 518.63C354.155 496.98 347.03 438.749 364.467 470.749C381.904 502.748 403.843 475.889 340.71 552.851Z" fill="#EDE7D9"/>
<path d="M337.166 556.113C326.689 561.822 311.565 554.284 303.386 539.275C295.208 524.266 296.53 552.32 281.2 547.375C244.395 629.94 289.677 486.048 297.856 501.057C306.034 516.066 347.644 550.403 337.166 556.113Z" fill="#EDE7D9"/>
<rect x="286.57" y="410.783" width="126.13" height="35.036" transform="rotate(61.4134 286.57 410.783)" fill="#EDE7D9"/>
<path d="M230.314 558.177C202.947 573.677 169.254 565.925 155.059 540.863C140.865 515.8 151.543 482.917 178.91 467.417C206.278 451.917 213.368 474.736 227.563 499.798C241.758 524.861 257.682 542.677 230.314 558.177Z" fill="url(#paint7_linear_332_5579)"/>
<circle cx="878.525" cy="72.3102" r="3.59676" transform="rotate(57.5046 878.525 72.3102)" fill="#9E9D9D"/>
<circle cx="905.648" cy="63.5631" r="3.59676" transform="rotate(57.5046 905.648 63.5631)" fill="#9E9D9D"/>
<circle cx="930.748" cy="56.1046" r="3.59676" transform="rotate(57.5046 930.748 56.1046)" fill="#9E9D9D"/>
<circle cx="954.559" cy="46.6231" r="3.59676" transform="rotate(57.5046 954.559 46.6231)" fill="#9E9D9D"/>
<circle cx="982.326" cy="38.8868" r="3.59676" transform="rotate(57.5046 982.326 38.8868)" fill="#9E9D9D"/>
<circle cx="1007.43" cy="31.4288" r="3.59676" transform="rotate(57.5046 1007.43 31.4288)" fill="#9E9D9D"/>
<line x1="875.799" y1="74.7573" x2="193.129" y2="482.582" stroke="#C6C6C6" stroke-width="1.19892"/>
<line x1="902.557" y1="67.6644" x2="199.573" y2="492.693" stroke="#C6C6C6" stroke-width="1.19892"/>
<line x1="933.728" y1="56.3381" x2="206.017" y2="502.802" stroke="#C6C6C6" stroke-width="1.19892"/>
<line x1="955.798" y1="50.809" x2="213.751" y2="514.934" stroke="#C6C6C6" stroke-width="1.19892"/>
<line x1="979.248" y1="42.9807" x2="220.84" y2="526.055" stroke="#C6C6C6" stroke-width="1.19892"/>
<line x1="1005.36" y1="34.8759" x2="226.639" y2="535.154" stroke="#C6C6C6" stroke-width="1.19892"/>
<line x1="817.011" y1="107.138" x2="840.109" y2="145.162" stroke="#9E9D9D" stroke-width="1.19892"/>
<line x1="789.727" y1="124.393" x2="812.825" y2="162.416" stroke="#9E9D9D" stroke-width="1.19892"/>
<line x1="762.443" y1="141.647" x2="785.541" y2="179.671" stroke="#9E9D9D" stroke-width="1.19892"/>
<line x1="732.51" y1="158.461" x2="757.464" y2="198.419" stroke="#9E9D9D" stroke-width="1.19892"/>
<line x1="710.241" y1="171.648" x2="735.195" y2="211.607" stroke="#9E9D9D" stroke-width="1.19892"/>
<line x1="686.39" y1="187.833" x2="710.988" y2="226.647" stroke="#9E9D9D" stroke-width="1.19892"/>
<line x1="657.249" y1="203.151" x2="684.058" y2="245.044" stroke="#9E9D9D" stroke-width="1.19892"/>
<line x1="630.322" y1="221.553" x2="654.92" y2="260.366" stroke="#9E9D9D" stroke-width="1.19892"/>
<line x1="599.605" y1="239.876" x2="624.558" y2="279.834" stroke="#9E9D9D" stroke-width="1.19892"/>
<line x1="573.111" y1="255.631" x2="598.065" y2="295.589" stroke="#9E9D9D" stroke-width="1.19892"/>
<line x1="546.186" y1="274.036" x2="569.284" y2="312.06" stroke="#9E9D9D" stroke-width="1.19892"/>
<line x1="518.902" y1="291.291" x2="542" y2="329.315" stroke="#9E9D9D" stroke-width="1.19892"/>
<line x1="491.619" y1="308.545" x2="514.717" y2="346.569" stroke="#9E9D9D" stroke-width="1.19892"/>
<line x1="461.686" y1="325.359" x2="486.639" y2="365.318" stroke="#9E9D9D" stroke-width="1.19892"/>
<line x1="439.416" y1="338.546" x2="464.37" y2="378.504" stroke="#9E9D9D" stroke-width="1.19892"/>
<rect x="367.917" y="375.818" width="26.3762" height="57.9189" rx="5.9946" transform="rotate(-31.8061 367.917 375.818)" fill="#756F62"/>
<rect x="291.098" y="423.942" width="26.3762" height="58.8337" rx="5.9946" transform="rotate(-31.8061 291.098 423.942)" fill="#756F62"/>
<circle cx="285.233" cy="598.077" r="11.3897" transform="rotate(-17.241 285.233 598.077)" fill="#070707"/>
<circle cx="224.584" cy="687.824" r="4.79568" transform="rotate(-17.241 224.584 687.824)" fill="#6C6C6C"/>
<circle cx="308.923" cy="553.066" r="11.3897" transform="rotate(-17.241 308.923 553.066)" fill="#070707"/>
<circle cx="787.69" cy="151.064" r="2.39784" fill="#EDE7D9"/>
<circle cx="732.54" cy="184.634" r="2.39784" fill="#EDE7D9"/>
<circle cx="683.384" cy="214.607" r="2.39784" fill="#EDE7D9"/>
<circle cx="627.035" cy="250.575" r="2.39784" fill="#EDE7D9"/>
<circle cx="571.885" cy="284.144" r="2.39784" fill="#EDE7D9"/>
<circle cx="515.536" cy="320.112" r="2.39784" fill="#EDE7D9"/>
<circle cx="462.783" cy="351.284" r="2.39784" fill="#EDE7D9"/>
<defs>
<linearGradient id="paint0_linear_332_5579" x1="862.523" y1="112.891" x2="431.512" y2="373.253" gradientUnits="userSpaceOnUse">
<stop stop-color="#8E5A3C"/>
<stop offset="1" stop-color="#6A4E36"/>
</linearGradient>
<linearGradient id="paint1_linear_332_5579" x1="879.122" y1="42.9838" x2="862.19" y2="53.2123" gradientUnits="userSpaceOnUse">
<stop stop-color="#9E9D9D"/>
<stop offset="1" stop-color="#CECECE"/>
</linearGradient>
<linearGradient id="paint2_linear_332_5579" x1="906.135" y1="34.3705" x2="889.202" y2="44.599" gradientUnits="userSpaceOnUse">
<stop stop-color="#9E9D9D"/>
<stop offset="1" stop-color="#CECECE"/>
</linearGradient>
<linearGradient id="paint3_linear_332_5579" x1="931.405" y1="27.5096" x2="914.472" y2="37.7381" gradientUnits="userSpaceOnUse">
<stop stop-color="#9E9D9D"/>
<stop offset="1" stop-color="#CECECE"/>
</linearGradient>
<linearGradient id="paint4_linear_332_5579" x1="956.055" y1="19.6219" x2="939.122" y2="29.8504" gradientUnits="userSpaceOnUse">
<stop stop-color="#9E9D9D"/>
<stop offset="1" stop-color="#CECECE"/>
</linearGradient>
<linearGradient id="paint5_linear_332_5579" x1="981.325" y1="12.7616" x2="964.392" y2="22.9901" gradientUnits="userSpaceOnUse">
<stop stop-color="#9E9D9D"/>
<stop offset="1" stop-color="#CECECE"/>
</linearGradient>
<linearGradient id="paint6_linear_332_5579" x1="1006.59" y1="5.90074" x2="989.662" y2="16.1293" gradientUnits="userSpaceOnUse">
<stop stop-color="#9E9D9D"/>
<stop offset="1" stop-color="#CECECE"/>
</linearGradient>
<linearGradient id="paint7_linear_332_5579" x1="227.826" y1="499.65" x2="155.059" y2="540.863" gradientUnits="userSpaceOnUse">
<stop stop-color="#A29F9F"/>
<stop offset="1" stop-color="#BFBABA"/>
</linearGradient>
</defs>
</svg>
