<svg width="517" height="596" viewBox="0 0 517 596" fill="none" xmlns="http://www.w3.org/2000/svg">
<path d="M270.015 201.148C270.015 219.015 276.315 212.128 259.598 212.128C242.881 212.128 247.412 219.015 247.412 201.148C247.412 183.28 242.881 168.796 259.598 168.796C276.315 168.796 270.015 183.28 270.015 201.148Z" fill="#E4BDA7"/>
<path d="M322.736 195.172C318.619 190.533 311.52 190.109 306.88 194.226L273.67 223.695C270.808 226.234 269.17 229.877 269.17 233.703V233.703C269.17 245.864 284.081 251.719 292.355 242.807L322.566 210.268C326.5 206.03 326.574 199.498 322.736 195.172V195.172Z" fill="#F4E8C1"/>
<path d="M309.122 192.899C300.974 207.295 318.829 215.33 324.743 202.273" stroke="#EDE7D9" stroke-width="2.23185"/>
<path d="M307.198 201.372C310.168 212.153 325.975 210.349 326.441 199.176L329.065 136.256C329.309 130.394 321.29 128.49 318.872 133.836V133.836C318.695 134.227 318.566 134.639 318.488 135.061L307.01 196.981C306.739 198.44 306.804 199.941 307.198 201.372V201.372Z" fill="#E4BDA7"/>
<path d="M258.011 510.706C258.011 518.232 257.601 524.333 248.711 524.333C239.821 524.333 220.739 531.858 220.739 524.333C220.739 516.807 232.829 509.488 241.719 509.488C250.608 509.488 258.011 503.181 258.011 510.706Z" fill="#A8A5A5"/>
<path d="M255.556 510.706C255.556 518.232 255.966 524.332 264.856 524.332C273.746 524.332 292.828 531.858 292.828 524.332C292.828 516.807 279.734 509.599 270.844 509.599C261.954 509.599 255.556 503.18 255.556 510.706Z" fill="#A8A5A5"/>
<path d="M257.027 507.338C257.027 510.787 255.325 520.841 259.371 520.841C263.417 520.841 298.54 530.996 292.179 520.841C236.494 525.863 277.568 508.037 273.522 508.037C269.477 508.037 257.027 503.889 257.027 507.338Z" fill="#737373"/>
<path d="M256.659 507.338C256.659 510.788 258.361 520.841 254.315 520.841C250.27 520.841 215.147 530.996 221.507 520.841C277.192 525.863 237.785 509.599 241.83 509.599C245.876 509.599 256.659 503.889 256.659 507.338Z" fill="#737373"/>
<path d="M224.31 325.695H291.042L273.857 509.822H241.495L224.31 325.695Z" fill="#70A0AF"/>
<path d="M262.514 323.947C262.514 327.292 276.099 331.498 283.981 331.498C291.863 331.498 291.059 327.292 291.059 323.947C291.059 320.602 284.669 325.598 276.786 325.598C268.904 325.598 262.514 320.602 262.514 323.947Z" fill="#F4E8C1"/>
<line x1="258.274" y1="509.813" x2="259.836" y2="325.685" stroke="black" stroke-opacity="0.03" stroke-width="2.23185"/>
<path d="M226.059 240.749C225.11 224.474 238.053 210.755 254.355 210.755H262.698C278.352 210.755 291.042 223.445 291.042 239.099V325.695H224.31L228.488 289.763C228.678 288.129 228.726 286.481 228.63 284.839L226.059 240.749Z" fill="#F4E8C1"/>
<path d="M283.901 167.76C277.651 189.998 272.929 202.05 258.569 202.05C244.209 202.05 241.161 190.668 231.898 167.76C231.898 149.473 243.54 134.648 257.899 134.648C272.259 134.648 283.901 149.473 283.901 167.76Z" fill="#E4BDA7"/>
<path d="M269.791 138.726C285.015 147.237 278.754 179.408 286.814 164.991C278.432 162.658 291.6 127.189 276.089 127.189C260.865 118.678 271.624 117.766 252.097 112.218C266.057 152.88 254.567 130.215 269.791 138.726Z" fill="url(#paint0_linear_198_5496)"/>
<path d="M246.599 138.83C231.375 147.341 235.581 182.41 229.576 165.095C229.576 142.348 226.654 127.293 240.301 127.293C255.525 118.782 244.766 117.87 264.293 112.322C286.914 148.933 261.823 130.319 246.599 138.83Z" fill="url(#paint1_linear_198_5496)"/>
<path d="M235.781 165.187C235.781 168.371 236.66 175.491 233.923 175.491C231.187 175.491 225.872 168.371 225.872 165.187C225.872 162.003 228.091 159.422 230.827 159.422C233.563 159.422 235.781 162.003 235.781 165.187Z" fill="#E4BDA7"/>
<path d="M281.357 163.625C281.357 166.809 280.478 173.929 283.215 173.929C285.951 173.929 291.266 166.809 291.266 163.625C291.266 160.441 289.047 157.86 286.311 157.86C283.575 157.86 281.357 160.441 281.357 163.625Z" fill="#E4BDA7"/>
<path d="M248.466 194.844C246.709 192.877 245.239 190.41 243.731 187.535C245.043 189.074 246.448 190.623 247.89 192.02C249.447 193.528 251.126 194.935 252.862 195.979C254.578 197.011 256.549 197.81 258.637 197.81C260.693 197.81 262.655 197.057 264.383 196.071C266.13 195.074 267.831 193.728 269.416 192.279C270.784 191.03 272.12 189.653 273.382 188.272C271.805 191.19 270.362 193.513 268.693 195.302C266.311 197.857 263.441 199.334 258.637 199.334C253.962 199.334 250.949 197.622 248.466 194.844Z" stroke="url(#paint2_linear_198_5496)" stroke-width="5.57963"/>
<path d="M269.951 177.272C269.951 179.146 268.783 180.916 266.741 182.245C264.703 183.57 261.855 184.408 258.681 184.408C255.506 184.408 252.658 183.57 250.621 182.245C248.578 180.916 247.41 179.146 247.41 177.272C247.41 176.788 247.487 176.506 247.578 176.346C247.655 176.209 247.758 176.132 247.924 176.088C248.114 176.038 248.392 176.033 248.785 176.095C249.172 176.157 249.628 176.275 250.156 176.433C250.514 176.54 250.9 176.665 251.312 176.797C253.3 177.437 255.887 178.27 258.681 178.27C261.474 178.27 264.061 177.437 266.049 176.797C266.461 176.665 266.848 176.54 267.205 176.433C267.733 176.275 268.189 176.157 268.576 176.095C268.97 176.033 269.247 176.038 269.438 176.088C269.604 176.132 269.706 176.209 269.784 176.346C269.874 176.506 269.951 176.788 269.951 177.272Z" fill="white" stroke="#D99584" stroke-width="1.11593"/>
<path d="M271.179 176.942C271.179 177.435 268.475 177.723 259.021 177.723C249.567 177.723 246.182 177.658 246.182 177.165C246.182 176.672 249.567 171.028 259.021 171.028C268.475 171.028 271.179 176.449 271.179 176.942Z" fill="url(#paint3_linear_198_5496)"/>
<path d="M263.853 198.766C263.853 199.571 261.063 197.077 259.077 200.823C256.934 196.854 254.033 199.936 254.033 199.13C254.033 198.325 255.363 189.106 259.077 189.106C262.791 189.106 263.853 197.96 263.853 198.766Z" fill="url(#paint4_linear_198_5496)"/>
<path d="M256.865 169.08C257.891 168.909 255.898 170.723 254.537 170.723C252.756 170.723 251.661 170.175 252.071 169.217C252.071 168.385 253.175 167.71 254.537 167.71C255.898 167.71 257.686 168.943 256.865 169.08Z" fill="#F8D1BC"/>
<path d="M260.298 169.08C259.272 168.909 261.264 170.723 262.626 170.723C264.406 170.723 265.502 170.175 265.091 169.217C265.091 168.385 263.987 167.71 262.626 167.71C261.264 167.71 259.476 168.943 260.298 169.08Z" fill="#F8D1BC"/>
<path d="M239.655 156.019H256.533V161.143C256.533 165.734 252.811 169.456 248.22 169.456H247.968C243.377 169.456 239.655 165.734 239.655 161.143V156.019Z" fill="url(#paint5_linear_198_5496)" stroke="white" stroke-width="1.22899"/>
<path d="M260.793 156.019H277.672V161.143C277.672 165.734 273.95 169.456 269.359 169.456H269.106C264.515 169.456 260.793 165.734 260.793 161.143V156.019Z" fill="url(#paint6_linear_198_5496)" stroke="white" stroke-width="1.22899"/>
<path d="M261.359 161.654C261.359 161.419 261.29 161.187 261.155 160.971C261.02 160.754 260.823 160.557 260.574 160.391C260.326 160.226 260.031 160.094 259.706 160.004C259.381 159.915 259.032 159.868 258.681 159.868C258.329 159.868 257.981 159.915 257.656 160.004C257.331 160.094 257.036 160.226 256.787 160.391C256.538 160.557 256.341 160.754 256.206 160.971C256.072 161.187 256.002 161.419 256.002 161.654L256.787 163.551C256.787 163.472 257.8 161.496 257.845 161.423C257.891 161.35 257.957 161.284 258.041 161.228C258.125 161.172 258.225 161.127 258.335 161.097C258.444 161.067 258.562 161.051 258.681 161.051C258.799 161.051 258.917 161.067 259.027 161.097C259.136 161.127 259.236 161.172 259.32 161.228C259.404 161.284 259.471 161.35 259.516 161.423C259.561 161.496 260.574 163.472 260.574 163.551L261.359 161.654Z" fill="white"/>
<rect x="257.118" y="155.405" width="3.12459" height="5.13326" fill="white"/>
<path d="M271.179 213.433C271.179 219.59 265.733 225.485 259.015 225.485C252.298 225.485 246.852 218.698 246.852 212.54C246.852 206.382 251.401 208.761 258.119 208.761C264.837 208.761 271.179 207.275 271.179 213.433Z" fill="#E4BDA7"/>
<path d="M305.882 117.93C312.33 113.233 317.845 125.793 321.459 123.161C326.599 130.216 321.666 137.463 319.09 144.44C312.642 149.138 321.717 136.747 316.578 129.692C311.438 122.637 299.434 122.627 305.882 117.93Z" fill="#E4BDA7"/>
<path d="M312.284 100.442C317.623 102.398 319.05 120.213 323.516 120.437C323.078 129.155 331.914 134.635 325.524 138.442C317.557 138.043 317.185 130.779 317.623 122.061C318.06 113.343 304.317 100.042 312.284 100.442Z" fill="#E4BDA7"/>
<path d="M327.337 95.6635C329.358 100.836 325.061 115.96 328.261 117.741C324.784 123.989 327.676 130.772 321.602 131.257C315.893 128.079 318.249 122.606 321.727 116.359C325.205 110.111 321.627 92.4851 327.337 95.6635Z" fill="#E4BDA7"/>
<path d="M337.806 102.417C341.032 106.67 328.091 114.562 332.332 122.931C327.678 126.461 326.526 128.786 321.824 127.153C318.598 122.9 322.158 119.582 326.811 116.051C331.465 112.521 334.58 98.1642 337.806 102.417Z" fill="#E4BDA7"/>
<path d="M341.678 117.211C340.563 119.853 329.85 122.344 330.854 125.357C327.031 125.949 327.75 127.183 325.524 124.752C324.983 121.258 328.103 120.445 331.926 119.853C335.749 119.262 341.138 113.717 341.678 117.211Z" fill="#E4BDA7"/>
<path d="M333.349 122.201C332.706 124.159 328.953 135.442 329.023 136.992C326.615 137.1 321.665 120.339 320.431 118.244C320.306 115.479 321.051 119.118 323.46 119.009C325.868 118.901 333.224 119.436 333.349 122.201Z" fill="#E4BDA7"/>
<path d="M228.997 157.413H239.04V159.868C235.1 158.487 232.898 158.57 228.997 159.868V157.413Z" fill="white"/>
<path d="M283.901 156.297H278.321V158.752C280.51 157.371 281.733 157.454 283.901 158.752V156.297Z" fill="white"/>
<path d="M231.196 165.448C227.953 167.371 233.225 168.584 231.196 170.804" stroke="black" stroke-width="0.223185"/>
<path d="M285.273 163.886C288.515 165.809 283.243 167.022 285.273 169.242" stroke="black" stroke-width="0.223185"/>
<ellipse cx="258.782" cy="169.354" rx="5.06732" ry="3.013" fill="#EEB8A7"/>
<path d="M270.326 178.393C270.326 180.735 265.376 187.32 258.72 187.32C252.064 187.32 247.003 179.954 247.003 177.612C247.003 175.27 252.064 183.549 258.72 183.549C265.376 183.549 270.326 176.051 270.326 178.393Z" fill="#D99584"/>
<path d="M270.326 178.393C270.326 180.735 265.376 187.32 258.72 187.32C252.064 187.32 247.003 179.954 247.003 177.612C247.003 175.27 252.064 183.549 258.72 183.549C265.376 183.549 270.326 176.051 270.326 178.393Z" fill="#D99584"/>
<path d="M270.326 178.393C270.326 180.735 265.376 187.32 258.72 187.32C252.064 187.32 247.003 179.954 247.003 177.612C247.003 175.27 252.064 183.549 258.72 183.549C265.376 183.549 270.326 176.051 270.326 178.393Z" fill="#D99584"/>
<path d="M281.623 172.369C280.926 179.477 275.682 200.265 264.188 199.261C273.339 176.273 277.286 179.269 277.983 172.161C278.68 165.054 281.858 158.692 283.606 158.864C281.37 172.767 282.321 165.262 281.623 172.369Z" fill="#79643D"/>
<path d="M235.706 171.974C236.403 179.082 241.647 199.869 253.141 198.865C243.99 175.877 240.043 178.874 239.346 171.766C238.649 164.658 235.36 159.027 233.612 159.199C235.848 173.102 235.008 164.866 235.706 171.974Z" fill="#79643D"/>
<path d="M255.253 151.473C255.545 153.049 251.602 151.277 247.458 152.046C243.314 152.816 242.122 153.912 240.328 155.447C240.035 153.872 243.157 151.971 247.301 151.201C251.445 150.431 254.96 149.898 255.253 151.473Z" fill="#A78E64"/>
<path d="M261.53 150.965C261.211 152.531 265.481 151.222 269.716 152.083C273.951 152.945 275.159 154.065 276.978 155.638C277.296 154.072 274.121 152.105 269.886 151.243C265.651 150.382 261.848 149.399 261.53 150.965Z" fill="#A78E64"/>
<ellipse cx="240.279" cy="303.117" rx="24.104" ry="23.4344" transform="rotate(58.865 240.279 303.117)" fill="#BAD8BA"/>
<path d="M254.972 346C244.636 348.187 248.555 329.766 244.357 322.817C240.16 315.869 234.828 319.187 241.158 315.363C247.488 311.539 267.121 301.798 271.319 308.747C275.516 315.695 260.619 344.805 254.972 346Z" fill="#BAD8BA"/>
<path d="M265.704 331.825C257.502 353.858 236.196 364.773 220.883 325.394C209.795 303.802 220.327 280.23 227.481 292.075C238.869 292.366 258.162 292.146 265.045 303.541C271.928 314.935 264.612 325.053 265.704 331.825Z" fill="#BAD8BA"/>
<ellipse cx="276.28" cy="271.853" rx="5.02166" ry="4.79848" transform="rotate(58.865 276.28 271.853)" fill="#BAD8BA"/>
<path d="M265.226 291.262C258.321 289.865 241.391 278.196 254.328 277.813C265.346 275.981 267.859 271.725 268.259 271.092C273.867 262.221 272.361 287.452 280.331 280.932C278.894 288.034 272.132 292.659 265.226 291.262Z" fill="#BAD8BA"/>
<path d="M272.516 293.031C261.438 299.723 246.877 295.91 239.994 284.516C230.949 274.074 252.829 281.586 263.907 274.894C279.175 279.882 262.384 277.77 263.262 283.107C267.032 295.822 283.594 286.339 272.516 293.031Z" fill="#BAD8BA"/>
<path d="M280.297 315.839C276.839 305.151 230.334 318.811 223.451 307.416C216.567 296.021 214.554 276.286 257.39 277.919C276.275 289.326 283.57 276.798 290.453 288.192C299.029 289.009 286.68 287.343 280.297 315.839Z" fill="#BAD8BA"/>
<path d="M278.054 314.717C268.77 320.325 256.047 334.399 250.799 307.583C243.362 290.955 221.317 285.108 241.727 288.032C266.479 283.901 280.633 261.145 286.401 270.693C299.036 310.386 282.622 293.575 278.054 314.717Z" fill="#BAD8BA"/>
<path d="M289.028 317.344C272.126 322.6 276.342 318.573 272.9 312.876C269.459 307.178 271.159 299.847 276.698 296.501C282.237 293.155 288.35 294.854 291.791 300.552C308.753 302.3 297.26 314.784 289.028 317.344Z" fill="#BAD8BA"/>
<path d="M296.687 312.326C286.085 318.731 280.01 303.711 276.569 298.014C273.127 292.316 270.106 293.574 288.126 291.032C293.872 299.034 297.01 298.833 299.665 303.227C301.222 305.805 300.105 310.262 296.687 312.326Z" fill="#BAD8BA"/>
<path d="M252.315 347.214C246.964 356.052 235.253 350.91 228.369 339.515C221.486 328.12 224.887 313.458 235.965 306.766C247.043 300.074 261.604 303.887 268.487 315.281C272.957 331.746 260.061 326.368 252.315 347.214Z" fill="#BAD8BA"/>
<path d="M288.149 279.415C286.908 280.165 285.395 280.351 283.944 279.932C277.835 286.297 289.434 254.781 292.67 255.173C280.08 249.871 266.544 273.432 267.708 272.338C268.012 270.858 280.792 270.04 282.033 269.29L285.091 274.353L288.149 279.415Z" fill="#BAD8BA"/>
<ellipse cx="394.382" cy="227.367" rx="6.13759" ry="6.36077" transform="rotate(58.865 394.382 227.367)" fill="#D9D0B2"/>
<path d="M375.831 244.571C375.254 243.615 372.329 238.342 366.35 241.824C367.319 239.544 368.981 234.629 371.988 232.812C374.995 230.996 385.533 225.884 387.286 228.786C388.502 232.093 384.048 240.259 375.831 244.571Z" fill="#D9D0B2"/>
<path d="M293.849 297.484C290.588 294.891 251.841 316.862 285.256 310.236C274.226 314.422 277.389 282.004 281.451 279.55C285.513 277.096 302.514 283.123 299.744 284.797C292.771 289.009 288.445 293.187 293.849 297.484Z" fill="#BAD8BA"/>
<rect x="288.033" y="277.145" width="1.96637" height="9.80683" rx="0.89274" transform="rotate(57.565 288.033 277.145)" fill="#C4C4C4"/>
<path d="M292.853 278.138C287.156 281.58 277.778 273.686 276.973 266.741C273.181 260.463 283.407 255.162 285.741 254.926C301.75 251.643 288.662 265.156 289.813 272.674C291.918 278.964 298.173 271.405 292.853 278.138Z" fill="#BAD8BA"/>
<path d="M361.796 234.932L366.049 241.973L287.329 292.948L281.328 283.014L361.796 234.932Z" fill="url(#paint7_linear_198_5496)"/>
<rect x="395.861" y="220.724" width="7.73491" height="35.7148" rx="3.12459" transform="rotate(73.5057 395.861 220.724)" fill="#D9D0B2"/>
<path d="M272.937 321.353C267.002 324.261 265.187 337.874 262.066 337.673C258.946 337.471 265.592 317.185 268.651 315.337C271.711 313.489 283.523 315.353 284.607 317.147C290.438 318.815 276.147 319.779 272.937 321.353Z" fill="#BAD8BA"/>
<path d="M366.998 241.171C365.989 242.954 365.155 240.063 363.658 237.583C362.16 235.104 361.887 232.526 363.047 231.825C364.208 231.123 368.625 233.936 370.123 236.416C371.621 238.895 366.996 240.521 366.998 241.171Z" fill="#D9D0B2"/>
<rect x="363.704" y="233.775" width="8.25785" height="2.23185" transform="rotate(58.865 363.704 233.775)" fill="#D9D0B2"/>
<path d="M384.733 226.794C385.009 226.099 385.877 225.866 386.463 226.33L392.549 231.145C393.489 231.889 392.756 233.389 391.592 233.104L388.711 232.399C388.277 232.293 387.821 232.456 387.553 232.814L385.946 234.956C385.642 235.361 385.104 235.511 384.635 235.321L382.837 234.595C382.268 234.365 381.992 233.72 382.217 233.149L384.733 226.794Z" fill="#D9D0B2"/>
<path d="M366.788 228.522C365.997 229 364.681 228.703 364.299 228.07C363.917 227.437 364.67 226.803 365.461 226.325C366.253 225.847 367.53 226.297 367.913 226.93C368.295 227.563 367.58 228.044 366.788 228.522Z" fill="url(#paint8_linear_198_5496)"/>
<path d="M371.817 226.918C371.026 227.396 369.71 227.099 369.328 226.466C368.945 225.833 369.698 225.199 370.49 224.721C371.281 224.243 372.559 224.693 372.941 225.326C373.324 225.959 372.608 226.44 371.817 226.918Z" fill="url(#paint9_linear_198_5496)"/>
<path d="M376.521 225.641C375.73 226.119 374.414 225.822 374.032 225.189C373.649 224.556 374.403 223.922 375.194 223.444C375.985 222.966 377.263 223.416 377.645 224.049C378.028 224.682 377.312 225.163 376.521 225.641Z" fill="url(#paint10_linear_198_5496)"/>
<path d="M381.11 224.173C380.319 224.651 379.003 224.354 378.621 223.721C378.238 223.088 378.991 222.454 379.783 221.976C380.574 221.498 381.852 221.948 382.234 222.581C382.617 223.214 381.901 223.695 381.11 224.173Z" fill="url(#paint11_linear_198_5496)"/>
<path d="M385.814 222.896C385.023 223.374 383.707 223.077 383.325 222.444C382.942 221.811 383.696 221.177 384.487 220.699C385.278 220.221 386.556 220.671 386.938 221.304C387.321 221.937 386.605 222.418 385.814 222.896Z" fill="url(#paint12_linear_198_5496)"/>
<path d="M390.518 221.618C389.727 222.096 388.411 221.8 388.029 221.167C387.646 220.533 388.4 219.899 389.191 219.421C389.982 218.943 391.26 219.394 391.642 220.027C392.025 220.66 391.309 221.14 390.518 221.618Z" fill="url(#paint13_linear_198_5496)"/>
<path d="M283.122 293.426C284.894 307.81 276.54 306.792 270.879 318.666C234.786 284.236 256.143 301.486 270.93 275.432C270 276.669 283.576 254.958 288.4 263.81C285.955 272.676 275.268 279.012 283.122 293.426Z" fill="#EDE7D9"/>
<path d="M286.802 279.683C281.814 282.566 272.104 288.74 276.654 282.464C275.188 275.104 286.555 261.846 287.651 262.736C291.076 266.244 283.973 267.899 285.439 275.258C286.396 280.06 295.795 274.484 286.802 279.683Z" fill="#EDE7D9"/>
<path d="M283.222 281.115L284.981 286.842L288.84 291.424L283.685 294.233L278.068 283.924L283.222 281.115Z" fill="#EDE7D9"/>
<path d="M297.058 305.962C295.213 306.968 291.228 304.894 289.514 301.749C287.8 298.604 275.227 301.198 290.572 291.432C292.643 290.114 287.232 293.001 288.946 296.146C291.015 299.942 297.355 301.738 297.058 305.962Z" fill="#EDE7D9"/>
<path d="M279.894 314.991C258.306 306.71 278.059 313.44 275.646 309.012C273.233 304.584 274.653 299.155 278.817 296.885C282.982 294.616 287.204 301.6 296.434 303.998C300.899 310.602 283.494 316.372 279.894 314.991Z" fill="#EDE7D9"/>
<rect x="284.277" y="288.958" width="10.0006" height="5.65252" transform="rotate(61.4134 284.277 288.958)" fill="#EDE7D9"/>
<path d="M288.84 291.424L289.466 292.407L286.912 294.702L285.976 292.984L288.84 291.424Z" fill="#EDE7D9"/>
<path d="M290.788 290.713L291.038 291.108L288.09 293.424L287.688 292.701L290.788 290.713Z" fill="#EDE7D9"/>
<path d="M266.861 321.969C261.431 324.928 257.001 325.458 256.024 323.665C255.048 321.873 258.658 318.021 264.087 315.063C269.517 312.104 284.661 311.926 285.638 313.718C286.504 316.217 273.917 313.792 266.861 321.969Z" fill="#EDE7D9"/>
<path d="M267.425 321.415C262.834 326.392 257.071 341.715 253.825 335.758C250.579 329.801 254.964 317.402 260.487 315.044C269.928 311.014 268.601 300.174 271.847 306.131C275.093 312.088 279.177 307.088 267.425 321.415Z" fill="#EDE7D9"/>
<path d="M266.765 322.021C264.815 323.084 261.999 321.681 260.477 318.887C258.954 316.093 259.201 321.315 256.347 320.395C249.495 335.765 257.925 308.979 259.447 311.773C260.97 314.566 268.716 320.959 266.765 322.021Z" fill="#EDE7D9"/>
<rect x="257.346" y="294.968" width="23.4797" height="6.52214" transform="rotate(61.4134 257.346 294.968)" fill="#EDE7D9"/>
<path d="M246.874 322.406C241.78 325.291 235.508 323.848 232.865 319.183C230.223 314.517 232.211 308.396 237.305 305.51C242.4 302.625 243.72 306.873 246.362 311.538C249.005 316.204 251.969 319.52 246.874 322.406Z" fill="url(#paint14_linear_198_5496)"/>
<circle cx="367.542" cy="231.959" r="0.669555" transform="rotate(57.5046 367.542 231.959)" fill="#9E9D9D"/>
<circle cx="372.591" cy="230.331" r="0.669555" transform="rotate(57.5046 372.591 230.331)" fill="#9E9D9D"/>
<circle cx="377.263" cy="228.942" r="0.669555" transform="rotate(57.5046 377.263 228.942)" fill="#9E9D9D"/>
<circle cx="381.696" cy="227.177" r="0.669555" transform="rotate(57.5046 381.696 227.177)" fill="#9E9D9D"/>
<circle cx="386.865" cy="225.737" r="0.669555" transform="rotate(57.5046 386.865 225.737)" fill="#9E9D9D"/>
<circle cx="391.537" cy="224.349" r="0.669555" transform="rotate(57.5046 391.537 224.349)" fill="#9E9D9D"/>
<line x1="367.035" y1="232.415" x2="239.952" y2="308.333" stroke="#C6C6C6" stroke-width="0.223185"/>
<line x1="372.016" y1="231.094" x2="241.152" y2="310.215" stroke="#C6C6C6" stroke-width="0.223185"/>
<line x1="377.818" y1="228.986" x2="242.351" y2="312.097" stroke="#C6C6C6" stroke-width="0.223185"/>
<line x1="381.927" y1="227.957" x2="243.791" y2="314.356" stroke="#C6C6C6" stroke-width="0.223185"/>
<line x1="386.292" y1="226.499" x2="245.11" y2="316.426" stroke="#C6C6C6" stroke-width="0.223185"/>
<line x1="391.153" y1="224.991" x2="246.19" y2="318.12" stroke="#C6C6C6" stroke-width="0.223185"/>
<line x1="356.091" y1="238.443" x2="360.391" y2="245.521" stroke="#9E9D9D" stroke-width="0.223185"/>
<line x1="351.012" y1="241.655" x2="355.311" y2="248.733" stroke="#9E9D9D" stroke-width="0.223185"/>
<line x1="345.933" y1="244.867" x2="350.232" y2="251.945" stroke="#9E9D9D" stroke-width="0.223185"/>
<line x1="340.361" y1="247.997" x2="345.006" y2="255.435" stroke="#9E9D9D" stroke-width="0.223185"/>
<line x1="336.215" y1="250.452" x2="340.86" y2="257.89" stroke="#9E9D9D" stroke-width="0.223185"/>
<line x1="331.775" y1="253.464" x2="336.354" y2="260.69" stroke="#9E9D9D" stroke-width="0.223185"/>
<line x1="326.35" y1="256.316" x2="331.341" y2="264.114" stroke="#9E9D9D" stroke-width="0.223185"/>
<line x1="321.338" y1="259.741" x2="325.917" y2="266.967" stroke="#9E9D9D" stroke-width="0.223185"/>
<line x1="315.62" y1="263.152" x2="320.265" y2="270.591" stroke="#9E9D9D" stroke-width="0.223185"/>
<line x1="310.687" y1="266.085" x2="315.333" y2="273.524" stroke="#9E9D9D" stroke-width="0.223185"/>
<line x1="305.675" y1="269.512" x2="309.975" y2="276.59" stroke="#9E9D9D" stroke-width="0.223185"/>
<line x1="300.596" y1="272.724" x2="304.896" y2="279.802" stroke="#9E9D9D" stroke-width="0.223185"/>
<line x1="295.517" y1="275.936" x2="299.817" y2="283.014" stroke="#9E9D9D" stroke-width="0.223185"/>
<line x1="289.945" y1="279.066" x2="294.591" y2="286.504" stroke="#9E9D9D" stroke-width="0.223185"/>
<line x1="285.799" y1="281.52" x2="290.445" y2="288.959" stroke="#9E9D9D" stroke-width="0.223185"/>
<rect x="272.49" y="288.459" width="4.91007" height="10.7819" rx="1.11593" transform="rotate(-31.8061 272.49 288.459)" fill="#756F62"/>
<rect x="258.189" y="297.417" width="4.91007" height="10.9522" rx="1.11593" transform="rotate(-31.8061 258.189 297.417)" fill="#756F62"/>
<circle cx="257.098" cy="329.833" r="2.12026" transform="rotate(-17.241 257.098 329.833)" fill="#070707"/>
<circle cx="245.807" cy="346.54" r="0.89274" transform="rotate(-17.241 245.807 346.54)" fill="#6C6C6C"/>
<circle cx="261.508" cy="321.454" r="2.12026" transform="rotate(-17.241 261.508 321.454)" fill="#070707"/>
<circle cx="350.633" cy="246.62" r="0.44637" fill="#EDE7D9"/>
<circle cx="340.366" cy="252.869" r="0.44637" fill="#EDE7D9"/>
<circle cx="331.215" cy="258.448" r="0.44637" fill="#EDE7D9"/>
<circle cx="320.726" cy="265.144" r="0.44637" fill="#EDE7D9"/>
<circle cx="310.459" cy="271.393" r="0.44637" fill="#EDE7D9"/>
<circle cx="299.97" cy="278.089" r="0.44637" fill="#EDE7D9"/>
<circle cx="290.15" cy="283.892" r="0.44637" fill="#EDE7D9"/>
<path d="M220.507 288.636C214.387 288.455 210.167 282.433 212.084 276.618L227.344 230.347C227.5 229.875 227.821 229.474 228.248 229.219V229.219C229.65 228.383 231.423 229.425 231.374 231.056L229.929 279.757C229.779 284.811 225.56 288.786 220.507 288.636V288.636Z" fill="#F4E8C1"/>
<path d="M217.178 346.208C219.904 345.905 222.069 343.777 222.418 341.056L229.835 283.207C230.225 280.166 226.453 278.448 224.414 280.737V280.737C223.682 281.559 222.572 281.934 221.491 281.724L213.274 280.129C212.478 279.974 211.74 280.583 211.74 281.393V281.393L210.58 340.183C210.509 343.771 213.61 346.603 217.178 346.208V346.208Z" fill="#E4BDA7"/>
<path d="M227.725 353.299C228.817 356.776 226.769 360.458 223.238 361.363V361.363C220.867 361.971 218.357 361.164 216.785 359.288L216.089 358.457C215.225 357.426 214.632 356.195 214.364 354.876L211.497 340.751C211.394 340.246 211.546 339.724 211.902 339.352V339.352C212.152 339.09 212.486 338.923 212.846 338.879L215.449 338.561C219.716 338.041 223.748 340.639 225.037 344.741L227.725 353.299Z" fill="#E4BDA7"/>
<path d="M238.978 352.03C234.834 358.121 226.129 348.917 223.806 352.331C217.141 347.797 219.174 339.961 219.241 333.093C223.385 327.002 219.352 340.599 226.017 345.133C232.682 349.667 243.121 345.939 238.978 352.03Z" fill="#E4BDA7"/>
<path d="M233.841 377.879C227.7 377.462 227.637 359.669 224.195 359.435C224.653 352.715 219.466 348.095 224.448 345.245C230.589 345.663 230.776 351.272 230.319 357.992C229.862 364.712 239.982 378.297 233.841 377.879Z" fill="#E4BDA7"/>
<path d="M227.255 378.068C221.301 377.082 222.916 359.713 219.579 359.161C220.658 352.646 216.031 347.649 221.161 345.337C227.115 346.323 226.77 351.814 225.691 358.328C224.612 364.843 233.209 379.054 227.255 378.068Z" fill="#E4BDA7"/>
<path d="M221.702 378.569C216.9 377.455 221.774 363.882 213.821 360.444C215.04 355.19 214.137 353.187 218.439 351.57C223.241 352.683 222.674 357.142 221.455 362.396C220.236 367.651 226.504 379.683 221.702 378.569Z" fill="#E4BDA7"/>
<path d="M217.654 372.564C214.716 371.142 213.609 358.714 212.828 355.031C214.384 351.816 213.781 352.599 216.796 352.184C219.735 353.607 219.746 356.594 217.16 359.619C215.603 362.835 220.593 373.987 217.654 372.564Z" fill="#E4BDA7"/>
<path d="M224.394 354.327C225.221 357.42 223.284 360.574 220.151 361.235V361.235C218.047 361.678 215.875 360.875 214.567 359.169L213.987 358.413C213.268 357.475 212.794 356.372 212.609 355.205L210.629 342.7C210.558 342.254 210.711 341.801 211.037 341.488V341.488C211.267 341.268 211.566 341.134 211.884 341.109L214.18 340.929C217.945 340.633 221.385 343.067 222.36 346.715L224.394 354.327Z" fill="#E4BDA7"/>
<path d="M211.142 279.944C221.297 279.719 221.52 282.509 229.22 279.944" stroke="#EDE7D9" stroke-width="2.23185"/>
<path d="M271.107 211.983L282.489 216.223C291.356 238.2 295.696 247.034 296.885 258.852L290.189 258.852C286.943 239.142 282.858 229.369 271.107 211.983Z" fill="#A8A5A5"/>
<path d="M289.296 254.165L296.428 253.83L296.914 256.508L297.331 258.963H290.385L289.945 256.954L289.296 254.165Z" fill="#80693D"/>
<path d="M292.481 256.777C292.166 256.638 292.121 256.211 292.399 256.008L293.336 255.325C293.613 255.123 294.006 255.297 294.043 255.639L294.166 256.792C294.202 257.134 293.855 257.387 293.541 257.247L292.481 256.777Z" fill="#C4C4C4"/>
<path d="M101.831 531.4C100.871 531.448 100.391 531.928 100.391 532.888V563.56C100.391 564.472 100.919 565 101.831 565H113.687C122.711 565 125.351 562.12 125.351 556.168C125.351 553.192 123.911 550.792 121.943 549.88C123.911 547.72 124.391 544.552 124.391 542.92C124.391 535.048 120.935 531.4 111.911 531.4H101.831ZM110.087 546.184C109.175 546.184 108.647 545.704 108.647 544.744V541.096C108.647 540.136 109.175 539.656 110.087 539.656H112.679C114.983 539.656 116.135 539.944 116.135 542.92C116.135 545.896 114.983 546.184 112.679 546.184H110.087ZM110.039 558.184C109.127 558.184 108.599 557.704 108.599 556.744V554.536C108.599 553.576 109.127 553.096 110.039 553.096H113.159C115.463 553.096 116.519 553.432 116.519 555.688C116.519 557.944 115.367 558.184 113.063 558.184H110.039ZM155.876 563.368C155.876 564.424 155.396 565 154.436 565H149.06C148.148 565 147.62 564.52 147.62 563.56V559.384C147.62 558.424 147.14 557.944 146.18 557.944H142.052C141.14 557.944 140.612 558.424 140.612 559.384V563.56C140.612 564.52 140.132 565 139.172 565H133.796C132.884 565 132.356 564.424 132.356 563.368V543.016C132.356 536.968 133.316 530.536 144.116 530.536C154.916 530.536 155.876 536.968 155.876 543.016V563.368ZM147.62 543.016C147.62 540.712 147.284 539.56 144.116 539.56C140.948 539.56 140.612 540.712 140.612 543.016V548.248C140.612 549.16 141.14 549.688 142.052 549.688H146.18C147.14 549.64 147.62 549.16 147.62 548.2V543.016ZM164.039 554.2C164.039 557.368 164.711 565.864 176.087 565.864C186.311 565.864 187.895 559 188.087 555.352C188.135 554.632 187.703 554.104 187.031 553.96L181.607 552.76C180.647 552.52 179.879 553.144 179.735 554.152C179.447 556.36 178.727 557.608 176.087 557.608C172.535 557.608 172.295 555.352 172.295 551.656V544.744C172.295 541.048 172.535 538.792 176.087 538.792C178.679 538.792 179.543 540.04 179.783 542.152C179.927 543.16 180.695 543.832 181.703 543.64L187.031 542.44C187.703 542.296 188.135 541.768 188.087 541.096C187.895 537.4 186.311 530.536 176.087 530.536C164.711 530.536 164.039 539.032 164.039 542.2V554.2ZM211.971 547.192C211.779 546.952 211.827 546.76 211.971 546.52L221.667 533.176C222.339 532.168 221.955 531.4 220.755 531.4H213.651C212.883 531.4 212.355 531.688 211.923 532.312L204.387 542.68C204.147 543.064 203.811 542.968 203.811 542.488V532.84C203.811 531.88 203.331 531.4 202.371 531.4H196.899C195.987 531.4 195.459 531.88 195.459 532.84V563.56C195.459 564.472 195.987 565 196.899 565H202.371C203.331 565 203.811 564.472 203.811 563.56V558.232C203.811 557.992 203.859 557.8 204.003 557.608L205.971 554.92C206.163 554.632 206.451 554.632 206.643 554.92L212.595 564.04C213.027 564.712 213.555 565 214.323 565H221.523C222.675 565 223.107 564.232 222.435 563.272L211.971 547.192ZM255.596 541.096C255.596 540.136 255.116 539.656 254.156 539.656H247.436C246.524 539.656 245.996 539.128 245.996 538.216V532.84C245.996 531.88 246.524 531.4 247.436 531.4H272.012C272.972 531.4 273.452 531.88 273.452 532.84V538.216C273.452 539.128 272.972 539.656 272.012 539.656H265.292C264.38 539.656 263.852 540.136 263.852 541.096V563.56C263.852 564.472 263.372 565 262.412 565H257.036C256.124 565 255.596 564.472 255.596 563.56V541.096ZM303.549 542.2C303.549 539.032 302.877 530.536 291.501 530.536C280.125 530.536 279.453 539.032 279.453 542.2V554.2C279.453 557.368 280.125 565.864 291.501 565.864C302.877 565.864 303.549 557.368 303.549 554.2V542.2ZM295.293 551.656C295.293 555.352 295.053 557.608 291.501 557.608C287.949 557.608 287.709 555.352 287.709 551.656V544.744C287.709 541.048 287.949 538.792 291.501 538.792C295.053 538.792 295.293 541.048 295.293 544.744V551.656ZM338.101 541.096C338.101 540.136 337.621 539.656 336.661 539.656H329.941C329.029 539.656 328.501 539.128 328.501 538.216V532.84C328.501 531.88 329.029 531.4 329.941 531.4H354.517C355.477 531.4 355.957 531.88 355.957 532.84V538.216C355.957 539.128 355.477 539.656 354.517 539.656H347.797C346.885 539.656 346.357 540.136 346.357 541.096V563.56C346.357 564.472 345.877 565 344.917 565H339.541C338.629 565 338.101 564.472 338.101 563.56V541.096ZM386.055 542.2C386.055 539.032 385.383 530.536 374.007 530.536C362.631 530.536 361.959 539.032 361.959 542.2V554.2C361.959 557.368 362.631 565.864 374.007 565.864C385.383 565.864 386.055 557.368 386.055 554.2V542.2ZM377.799 551.656C377.799 555.352 377.559 557.608 374.007 557.608C370.455 557.608 370.215 555.352 370.215 551.656V544.744C370.215 541.048 370.455 538.792 374.007 538.792C377.559 538.792 377.799 541.048 377.799 544.744V551.656ZM395.896 531.4C394.936 531.448 394.456 531.928 394.456 532.888V563.56C394.456 564.472 394.984 565 395.896 565H401.272C402.232 565 402.712 564.52 402.712 563.56V555.88C402.712 554.92 403.24 554.44 404.152 554.44H406.456C415 554.44 418.456 550.792 418.456 542.92C418.456 535.048 415 531.4 406.456 531.4H395.896ZM404.152 546.184C403.24 546.184 402.712 545.656 402.712 544.744V541.096C402.712 540.136 403.24 539.656 404.152 539.656H406.744C409.048 539.656 410.2 539.944 410.2 542.92C410.2 545.896 409.048 546.184 406.744 546.184H404.152Z" fill="#A0C1B9"/>
<defs>
<linearGradient id="paint0_linear_198_5496" x1="244.247" y1="126.259" x2="293.175" y2="153.612" gradientUnits="userSpaceOnUse">
<stop stop-color="#64543B"/>
<stop offset="1" stop-color="#62523B"/>
</linearGradient>
<linearGradient id="paint1_linear_198_5496" x1="272.45" y1="126.538" x2="222.948" y2="154.212" gradientUnits="userSpaceOnUse">
<stop stop-color="#66553B"/>
<stop offset="1" stop-color="#4F4638"/>
</linearGradient>
<linearGradient id="paint2_linear_198_5496" x1="258.587" y1="160.535" x2="258.587" y2="202.124" gradientUnits="userSpaceOnUse">
<stop stop-color="#63533B"/>
<stop offset="1" stop-color="#836B3D"/>
</linearGradient>
<linearGradient id="paint3_linear_198_5496" x1="258.681" y1="171.028" x2="258.681" y2="177.723" gradientUnits="userSpaceOnUse">
<stop stop-color="#806A32"/>
<stop offset="1" stop-color="#A89D7D"/>
</linearGradient>
<linearGradient id="paint4_linear_198_5496" x1="258.943" y1="189.106" x2="258.943" y2="200.042" gradientUnits="userSpaceOnUse">
<stop stop-color="#BEA669"/>
<stop offset="0.0001" stop-color="#B3A16D"/>
<stop offset="0.578125" stop-color="#80693D"/>
<stop offset="0.677083" stop-color="#80693D"/>
</linearGradient>
<linearGradient id="paint5_linear_198_5496" x1="248.094" y1="155.405" x2="248.094" y2="170.071" gradientUnits="userSpaceOnUse">
<stop/>
<stop offset="1" stop-color="#777777"/>
</linearGradient>
<linearGradient id="paint6_linear_198_5496" x1="269.232" y1="155.405" x2="269.232" y2="170.071" gradientUnits="userSpaceOnUse">
<stop/>
<stop offset="1" stop-color="#777777"/>
</linearGradient>
<linearGradient id="paint7_linear_198_5496" x1="364.563" y1="239.514" x2="284.328" y2="287.981" gradientUnits="userSpaceOnUse">
<stop stop-color="#8E5A3C"/>
<stop offset="1" stop-color="#6A4E36"/>
</linearGradient>
<linearGradient id="paint8_linear_198_5496" x1="367.653" y1="226.5" x2="364.501" y2="228.404" gradientUnits="userSpaceOnUse">
<stop stop-color="#9E9D9D"/>
<stop offset="1" stop-color="#CECECE"/>
</linearGradient>
<linearGradient id="paint9_linear_198_5496" x1="372.682" y1="224.897" x2="369.53" y2="226.801" gradientUnits="userSpaceOnUse">
<stop stop-color="#9E9D9D"/>
<stop offset="1" stop-color="#CECECE"/>
</linearGradient>
<linearGradient id="paint10_linear_198_5496" x1="377.386" y1="223.619" x2="374.234" y2="225.523" gradientUnits="userSpaceOnUse">
<stop stop-color="#9E9D9D"/>
<stop offset="1" stop-color="#CECECE"/>
</linearGradient>
<linearGradient id="paint11_linear_198_5496" x1="381.975" y1="222.151" x2="378.822" y2="224.055" gradientUnits="userSpaceOnUse">
<stop stop-color="#9E9D9D"/>
<stop offset="1" stop-color="#CECECE"/>
</linearGradient>
<linearGradient id="paint12_linear_198_5496" x1="386.679" y1="220.874" x2="383.527" y2="222.778" gradientUnits="userSpaceOnUse">
<stop stop-color="#9E9D9D"/>
<stop offset="1" stop-color="#CECECE"/>
</linearGradient>
<linearGradient id="paint13_linear_198_5496" x1="391.383" y1="219.597" x2="388.231" y2="221.501" gradientUnits="userSpaceOnUse">
<stop stop-color="#9E9D9D"/>
<stop offset="1" stop-color="#CECECE"/>
</linearGradient>
<linearGradient id="paint14_linear_198_5496" x1="246.411" y1="311.511" x2="232.865" y2="319.183" gradientUnits="userSpaceOnUse">
<stop stop-color="#A29F9F"/>
<stop offset="1" stop-color="#BFBABA"/>
</linearGradient>
</defs>
</svg>
