<svg width="70" height="70" viewBox="0 0 70 70" fill="none" xmlns="http://www.w3.org/2000/svg">
<path d="M61.25 5.83325H8.75001C7.97646 5.83325 7.2346 6.14054 6.68762 6.68752C6.14063 7.2345 5.83334 7.97637 5.83334 8.74992V61.2499C5.83334 62.0235 6.14063 62.7653 6.68762 63.3123C7.2346 63.8593 7.97646 64.1666 8.75001 64.1666H61.25C62.0236 64.1666 62.7654 63.8593 63.3124 63.3123C63.8594 62.7653 64.1667 62.0235 64.1667 61.2499V8.74992C64.1667 7.97637 63.8594 7.2345 63.3124 6.68752C62.7654 6.14054 62.0236 5.83325 61.25 5.83325ZM23.5608 54.6495H14.8313V28.3995H23.5608V54.6495ZM19.1975 24.7916H19.1392C18.5089 24.841 17.8753 24.7586 17.2787 24.5495C16.6821 24.3404 16.1356 24.0093 15.6741 23.5773C15.2125 23.1453 14.8461 22.6218 14.5981 22.0403C14.3501 21.4588 14.226 20.832 14.2338 20.1999C14.2415 19.5677 14.3809 18.9442 14.643 18.3689C14.9051 17.7936 15.2843 17.2793 15.7562 16.8587C16.2282 16.4381 16.7826 16.1204 17.3842 15.926C17.9857 15.7316 18.6212 15.6647 19.25 15.7295C19.8801 15.6756 20.5146 15.7536 21.1128 15.9587C21.7111 16.1637 22.2601 16.4912 22.7247 16.9202C23.1893 17.3493 23.5594 17.8705 23.8113 18.4506C24.0632 19.0307 24.1914 19.6569 24.1878 20.2893C24.1841 20.9217 24.0486 21.5464 23.79 22.1236C23.5314 22.7007 23.1553 23.2176 22.6858 23.6412C22.2162 24.0649 21.6635 24.386 21.0629 24.584C20.4623 24.7821 19.827 24.8528 19.1975 24.7916ZM55.0375 54.6495H46.3079V40.6028C46.3079 37.0708 45.045 34.6645 41.8863 34.6645C40.9021 34.6701 39.9438 34.9797 39.1424 35.5509C38.341 36.122 37.7356 36.9269 37.4092 37.8553C37.1827 38.5423 37.0838 39.2649 37.1175 39.9874V54.6495H28.3908C28.3908 54.6495 28.5075 30.8495 28.3908 28.3995H37.1175V32.1124C37.9073 30.7376 39.0592 29.6059 40.4478 28.8406C41.8364 28.0754 43.4084 27.7059 44.9925 27.7724C50.7354 27.7724 55.0433 31.5262 55.0433 39.5937L55.0375 54.6495Z" fill="#A0C1B9"/>
</svg>
