<svg width="150" height="150" viewBox="0 0 150 150" fill="none" xmlns="http://www.w3.org/2000/svg">
<path d="M7.04877 122H11.3688V112.496H13.3488L19.3248 122H24.3648L18.0648 112.208C21.6648 111.308 23.6808 108.428 23.6808 104.648C23.6808 100.04 20.3328 96.8 15.3288 96.8H7.04877V122ZM14.7888 108.392H11.3688V100.904H14.7888C17.5608 100.904 19.2888 102.164 19.2888 104.648C19.2888 107.132 17.5608 108.392 14.7888 108.392ZM32.357 100.904H43.301V96.8H28.037V122H43.517V117.896H32.357V111.128H42.437V107.024H32.357V100.904ZM60.2894 115.412C60.2894 117.464 58.0574 118.328 55.8974 118.328C52.0814 118.328 49.9214 114.548 49.9214 114.548L46.6814 117.284C46.6814 117.284 49.5974 122.432 55.8974 122.432C60.6494 122.432 64.6814 119.984 64.6814 115.412C64.6814 110.84 61.4774 109.112 57.6254 107.672C54.1694 106.376 52.1894 105.692 52.1894 103.496C52.1894 101.804 53.8814 100.472 56.0414 100.472C59.1734 100.472 61.2614 103.316 61.2614 103.316L64.2494 100.364C64.2494 100.364 61.2974 96.368 56.0414 96.368C50.9654 96.368 47.7974 99.932 47.7974 103.496C47.7974 108.176 51.9734 110.192 55.6814 111.488C58.6694 112.532 60.2894 113.288 60.2894 115.412ZM84.2195 112.316C84.2195 115.916 82.3835 118.328 78.8195 118.328C75.2195 118.328 73.4195 115.916 73.4195 112.316C73.4195 104 73.4195 96.8 73.4195 96.8H69.0995V112.856C69.0995 118.4 72.8795 122.432 78.8195 122.432C84.7595 122.432 88.5395 118.4 88.5395 112.856V96.8H84.2195C84.2195 96.8 84.2195 104 84.2195 112.316ZM93.8847 96.8V122H98.2047V105.08L106.089 117.068L113.973 105.08V122H118.293V96.8H114.297L106.089 109.472L97.8807 96.8H93.8847ZM127.947 100.904H138.891V96.8H123.627V122H139.107V117.896H127.947V111.128H138.027V107.024H127.947V100.904Z" fill="#A0C1B9"/>
<rect x="47.781" y="25" width="47.0803" height="63" rx="5" fill="#B1A185"/>
<rect x="52.4891" y="29" width="37.6642" height="56" fill="white"/>
<line x1="55.3139" y1="46.5" x2="86.3869" y2="46.5" stroke="black"/>
<line x1="55.3139" y1="52.5" x2="86.3869" y2="52.5" stroke="black"/>
<line x1="55.3139" y1="58.5" x2="86.3869" y2="58.5" stroke="black"/>
<line x1="55.3139" y1="65.5" x2="86.3869" y2="65.5" stroke="black"/>
<line x1="55.3139" y1="71.5" x2="86.3869" y2="71.5" stroke="black"/>
<line x1="55.3139" y1="78.5" x2="86.3869" y2="78.5" stroke="black"/>
<rect x="64.7299" y="25" width="13.1825" height="5" fill="#CFCFCF"/>
<line x1="55.3139" y1="35.5" x2="86.3869" y2="35.5" stroke="black"/>
<line x1="55.3139" y1="41.5" x2="86.3869" y2="41.5" stroke="black"/>
</svg>
